M48
;Layer_Color=9474304
;FILE_FORMAT=2:5
INCH,TZ
;TYPE=PLATED
T1F00S00C0.01181
T2F00S00C0.02362
T3F00S00C0.02756
T4F00S00C0.02800
T5F00S00C0.03000
T6F00S00C0.03150
T7F00S00C0.03543
T8F00S00C0.03937
T9F00S00C0.04134
T10F00S00C0.04331
T11F00S00C0.04724
T12F00S00C0.05512
T13F00S00C0.05906
;TYPE=NON_PLATED
T14F00S00C0.01968
T15F00S00C0.03543
T16F00S00C0.05906
T17F00S00C0.13780
%
T01
X56000Y-285500
X61500Y-283500
X56500Y-277000
X45000Y-262000
X46260Y-236221
X42323
X38386
X50197
X54134
X58071
X62008
X65945
X65000Y-227000
X78500Y-215923
X84500Y-217500
X90500Y-213500
X110000Y-214000
X115000Y-216500
X112000Y-208500
X118500Y-199000
X119000Y-193000
X135500Y-189000
X185000Y-188000
X46000Y-213000
X89500Y-259500
X87000Y-263000
X34000Y-289500
X113000Y-186500
X114500Y-181000
X127000Y-178500
X128500Y-185500
X132000Y-186500
X151000Y-185000
X156500Y-184000
X160000Y-185000
X163000Y-176000
Y-170000
X163500Y-166000
X167500Y-162500
X165000Y-159000
X161500Y-157000
X158500Y-161500
X157000Y-153000
X149500Y-154500
X152500Y-157500
X145850Y-159350
X142500Y-155500
X137500Y-156500
X134000Y-155500
Y-147500
X137500Y-148500
X141763Y-148669
X144350Y-145650
X139500Y-143500
X127000Y-144000
X125000Y-136000
X131500Y-126500
X132024Y-120476
X140500Y-124000
X144500Y-118500
X147500Y-117000
X154000
X155000Y-120000
Y-123500
X155500Y-128000
X157000Y-114500
X160000Y-116500
X153500Y-112500
X152000Y-104500
X157000Y-106000
X156000Y-100000
X157500Y-97000
X165000Y-101000
Y-106500
X166000Y-110500
X173000Y-118821
X176000Y-121500
Y-127000
X182500Y-119500
X180000Y-104000
Y-101037
X184000Y-101500
X187000Y-105500
X176000Y-104500
X184500Y-94000
X185500Y-67500
X178000Y-65000
X176000Y-62000
X178000Y-59000
X176000Y-56000
X168000Y-66000
X161500Y-68500
X163000Y-72000
X166500Y-78000
X158000Y-81500
X136000Y-90500
X127000Y-92000
X115500Y-95500
X106500Y-95000
X115500Y-105000
X115000Y-115000
X112500Y-145000
X112000Y-154000
X120500Y-169000
X127500Y-169500
X126500Y-165000
X137500Y-169500
X143000Y-168000
X173500Y-161500
X174500Y-156000
X171500Y-154000
X181000Y-157500
X182000Y-161500
X185500Y-171000
X188000Y-186000
X179500Y-183500
X170500Y-187000
X169500Y-139000
X179500Y-140000
X187500Y-139500
X158000Y-144500
X146500Y-106500
X139733Y-100767
X132000Y-74850
X109638Y-57000
X193000Y-58000
Y-62000
X192500Y-51000
X202650Y-81150
X216000Y-77500
X212000Y-93000
X220000Y-93500
X214000Y-109500
X205500Y-111000
X202000Y-113500
X194500Y-106500
X205500Y-126000
X205000Y-138500
Y-144500
X207500Y-142500
X202000Y-148000
X197500Y-147000
X194500Y-151000
X196000Y-160424
X206000Y-157000
X208000Y-154000
X202500Y-185000
X227000Y-125500
X221500Y-116500
X239500Y-103500
X246000Y-87500
X251500
X248000Y-79500
X252500Y-69500
X257500Y-70500
X257000Y-46000
X251000Y-40500
Y-36500
X239500Y-33500
X233000Y-45000
Y-55500
Y-61000
X231000Y-5500
X265500
X192500Y-10000
X62500Y-5500
T02
X171000Y-131500
X184500Y-126500
X218500Y-173000
T03
X217323Y-381890
X220866Y-378346
X227953
X224410Y-381890
X231496
X227953Y-385433
X220866
T04
X209000Y-44000
T05
X72500Y-197500
Y-190000
X92500Y-202500
X100000
Y-160000
X92500
X72500Y-155000
Y-147500
Y-140000
Y-132500
Y-110000
Y-102500
Y-95000
Y-87500
Y-67500
Y-60000
Y-52500
Y-45000
X92500Y-75000
X100000
Y-117500
X92500
X72500Y-175000
Y-182500
T06
X209784Y-229874
X219783Y-209874
X210283Y-170374
X220284Y-150374
T07
X267000Y-130000
Y-120000
Y-110000
X289000Y-35000
X299000
X309000
Y-10000
X299000
X289000
T08
X210472Y-285433
Y-275590
X220472
Y-285433
X230472
Y-275590
X240472
Y-285433
X190354Y-220000
Y-210000
X180354Y-205000
Y-215000
X150000Y-220000
Y-210000
X140000Y-205000
Y-215000
X120000Y-220000
Y-229842
X110000
Y-220000
X100000
Y-229842
X90000
Y-220000
X70000Y-220158
Y-230000
X60000
Y-220158
X50000
Y-230000
X40000
Y-220158
Y-297000
Y-306842
X30000
Y-297000
X20000
Y-306842
X10000
Y-297000
X273000Y-90000
Y-80000
Y-70000
X305000
Y-80000
Y-90000
T09
X249783Y-229874
X269783
X270284Y-170374
X250284
T10
X68760Y-285595
X78760
X88760
X98760
T11
X57555Y-270953
X70464
Y-253236
X57555
X96055
X108965
Y-270953
X96055
X134555
Y-253236
X31965
Y-270953
T12
X299783Y-219874
Y-199874
X14410Y-185500
Y-165500
Y-145500
Y-125500
Y-105500
Y-85500
Y-65500
Y-45500
X299783Y-159874
Y-179874
X263779Y-19685
X244094
X224410
X204724
X177165
X157480
T13
X45709Y-19685
X135394
T14
X206693Y-236221
X210630
X214567
X218504
X222441
X226378
X230315
X234252
X238189
X242126
X147638
X143701
X139764
X135827
X131890
T15
X217323Y-375984
X231496
X232677Y-386614
X122906Y-160087
X112276Y-161268
X122906Y-145913
T16
X196260Y-227874
Y-196378
X155906
Y-227874
T17
X11811Y-377953
X153543
X224410Y-326772
X263779Y-275590
X185039
X153543Y-259842
X11811
X15748Y-220472
X299213Y-118110
X15748Y-15748
M30
