G04 Layer_Physical_Order=1*
G04 Layer_Color=255*
%FSLAX25Y25*%
%MOIN*%
G70*
G01*
G75*
%ADD10R,0.06000X0.03248*%
%ADD11C,0.02756*%
%ADD12R,0.02756X0.03150*%
%ADD13R,0.03150X0.03937*%
%ADD14R,0.03937X0.03150*%
%ADD15R,0.04724X0.07087*%
%ADD16R,0.12598X0.06299*%
%ADD17R,0.09842X0.05905*%
G04:AMPARAMS|DCode=18|XSize=145.67mil|YSize=145.67mil|CornerRadius=3.64mil|HoleSize=0mil|Usage=FLASHONLY|Rotation=180.000|XOffset=0mil|YOffset=0mil|HoleType=Round|Shape=RoundedRectangle|*
%AMROUNDEDRECTD18*
21,1,0.14567,0.13839,0,0,180.0*
21,1,0.13839,0.14567,0,0,180.0*
1,1,0.00728,-0.06919,0.06919*
1,1,0.00728,0.06919,0.06919*
1,1,0.00728,0.06919,-0.06919*
1,1,0.00728,-0.06919,-0.06919*
%
%ADD18ROUNDEDRECTD18*%
%ADD19R,0.11024X0.03150*%
G04:AMPARAMS|DCode=20|XSize=27.56mil|YSize=397.64mil|CornerRadius=0.69mil|HoleSize=0mil|Usage=FLASHONLY|Rotation=0.000|XOffset=0mil|YOffset=0mil|HoleType=Round|Shape=RoundedRectangle|*
%AMROUNDEDRECTD20*
21,1,0.02756,0.39626,0,0,0.0*
21,1,0.02618,0.39764,0,0,0.0*
1,1,0.00138,0.01309,-0.19813*
1,1,0.00138,-0.01309,-0.19813*
1,1,0.00138,-0.01309,0.19813*
1,1,0.00138,0.01309,0.19813*
%
%ADD20ROUNDEDRECTD20*%
%ADD21R,0.06614X0.05984*%
%ADD22R,0.09842X0.07874*%
%ADD23R,0.11811X0.27559*%
%ADD24R,0.01968X0.07874*%
%ADD25R,0.04921X0.01701*%
%ADD26R,0.04724X0.02362*%
%ADD27R,0.03150X0.03150*%
%ADD28R,0.05118X0.06299*%
%ADD29R,0.05118X0.06299*%
%ADD30R,0.05118X0.06299*%
%ADD31R,0.07087X0.04724*%
%ADD32R,0.03583X0.04803*%
%ADD33R,0.02362X0.04724*%
%ADD34O,0.07874X0.01772*%
%ADD35R,0.08465X0.13780*%
%ADD36R,0.08465X0.04331*%
%ADD37R,0.08465X0.04331*%
%ADD38R,0.01181X0.07677*%
%ADD39R,0.07677X0.01181*%
%ADD40C,0.00787*%
%ADD41C,0.11811*%
%ADD42C,0.01968*%
%ADD43C,0.07874*%
%ADD44C,0.03937*%
%ADD45C,0.05905*%
%ADD46R,0.15000X0.22500*%
%ADD47R,0.15000X0.20000*%
%ADD48R,0.42000X0.12000*%
%ADD49R,0.26288X0.12858*%
%ADD50R,0.20288X0.30858*%
%ADD51R,0.20280X0.31358*%
%ADD52R,0.16443X0.13358*%
%ADD53R,0.19999X0.30800*%
%ADD54R,0.19944X0.13500*%
%ADD55R,0.19998X0.31300*%
%ADD56R,0.19117X0.12831*%
%ADD57R,0.01968X0.01968*%
%ADD58R,0.01968X0.01968*%
%ADD59R,0.12500X0.13189*%
%ADD60R,0.12598X0.13189*%
%ADD61R,0.04528X0.39764*%
%ADD62R,0.03150X0.31496*%
%ADD63R,0.26181X0.34252*%
%ADD64C,0.06000*%
%ADD65C,0.03937*%
%ADD66C,0.06693*%
%ADD67R,0.06693X0.06693*%
%ADD68C,0.13780*%
G04:AMPARAMS|DCode=69|XSize=98.42mil|YSize=98.42mil|CornerRadius=24.61mil|HoleSize=0mil|Usage=FLASHONLY|Rotation=270.000|XOffset=0mil|YOffset=0mil|HoleType=Round|Shape=RoundedRectangle|*
%AMROUNDEDRECTD69*
21,1,0.09842,0.04921,0,0,270.0*
21,1,0.04921,0.09842,0,0,270.0*
1,1,0.04921,-0.02461,-0.02461*
1,1,0.04921,-0.02461,0.02461*
1,1,0.04921,0.02461,0.02461*
1,1,0.04921,0.02461,-0.02461*
%
%ADD69ROUNDEDRECTD69*%
%ADD70C,0.09842*%
%ADD71C,0.05905*%
%ADD72C,0.06299*%
%ADD73C,0.05118*%
%ADD74R,0.05905X0.05905*%
%ADD75C,0.05905*%
%ADD76R,0.05905X0.05905*%
G04:AMPARAMS|DCode=77|XSize=62.99mil|YSize=62.99mil|CornerRadius=15.75mil|HoleSize=0mil|Usage=FLASHONLY|Rotation=90.000|XOffset=0mil|YOffset=0mil|HoleType=Round|Shape=RoundedRectangle|*
%AMROUNDEDRECTD77*
21,1,0.06299,0.03150,0,0,90.0*
21,1,0.03150,0.06299,0,0,90.0*
1,1,0.03150,0.01575,0.01575*
1,1,0.03150,0.01575,-0.01575*
1,1,0.03150,-0.01575,-0.01575*
1,1,0.03150,-0.01575,0.01575*
%
%ADD77ROUNDEDRECTD77*%
G04:AMPARAMS|DCode=78|XSize=98.42mil|YSize=98.42mil|CornerRadius=12.3mil|HoleSize=0mil|Usage=FLASHONLY|Rotation=180.000|XOffset=0mil|YOffset=0mil|HoleType=Round|Shape=RoundedRectangle|*
%AMROUNDEDRECTD78*
21,1,0.09842,0.07382,0,0,180.0*
21,1,0.07382,0.09842,0,0,180.0*
1,1,0.02461,-0.03691,0.03691*
1,1,0.02461,0.03691,0.03691*
1,1,0.02461,0.03691,-0.03691*
1,1,0.02461,-0.03691,-0.03691*
%
%ADD78ROUNDEDRECTD78*%
%ADD79C,0.11811*%
%ADD80C,0.07087*%
%ADD81R,0.07874X0.07874*%
%ADD82C,0.07874*%
%ADD83C,0.02362*%
%ADD84C,0.05000*%
G36*
X90091Y-84642D02*
Y-86807D01*
X97409D01*
Y-87791D01*
X98394D01*
Y-91961D01*
X103613D01*
Y-97831D01*
X103443Y-98000D01*
X87931D01*
X87910Y-97990D01*
X87559Y-97500D01*
X87579Y-97402D01*
Y-96811D01*
X81047D01*
Y-94843D01*
X87579D01*
Y-94252D01*
X87501Y-93862D01*
X87496Y-93855D01*
X87312Y-93465D01*
X87496Y-93074D01*
X87501Y-93067D01*
X87579Y-92677D01*
Y-92087D01*
X81047D01*
Y-90118D01*
X87579D01*
Y-89528D01*
X87501Y-89137D01*
X87280Y-88807D01*
Y-88674D01*
X87501Y-88343D01*
X87579Y-87953D01*
Y-87362D01*
X81047D01*
Y-85394D01*
X87579D01*
Y-84803D01*
X87711Y-84642D01*
X90091D01*
X90091Y-84642D01*
D02*
G37*
G36*
X167780Y-152047D02*
X167841Y-152355D01*
X168015Y-152615D01*
X168275Y-152789D01*
X168583Y-152850D01*
X169299D01*
X169417Y-152980D01*
X169622Y-153350D01*
X169493Y-154000D01*
X169646Y-154768D01*
X170081Y-155419D01*
X170732Y-155854D01*
X171500Y-156007D01*
X172003Y-155907D01*
X172347Y-155972D01*
X172547Y-156270D01*
X172646Y-156768D01*
X173081Y-157419D01*
X173732Y-157854D01*
X174500Y-158007D01*
X175268Y-157854D01*
X175919Y-157419D01*
X176354Y-156768D01*
X176369Y-156695D01*
X176847Y-156550D01*
X178648Y-158352D01*
X178648Y-158352D01*
X179039Y-158613D01*
X179428Y-158690D01*
X179581Y-158919D01*
X179626Y-159378D01*
X178778Y-160226D01*
X178517Y-160617D01*
X178426Y-161077D01*
X178426Y-161077D01*
Y-163516D01*
X177268D01*
X176961Y-163577D01*
X176700Y-163751D01*
X176526Y-164012D01*
X176465Y-164319D01*
Y-166681D01*
X176526Y-166988D01*
X176700Y-167249D01*
X176961Y-167423D01*
X177268Y-167484D01*
X181992D01*
X182299Y-167423D01*
X182512Y-167281D01*
X182736Y-167336D01*
X183012Y-167472D01*
Y-168528D01*
X182736Y-168664D01*
X182512Y-168719D01*
X182299Y-168577D01*
X181992Y-168516D01*
X177268D01*
X176961Y-168577D01*
X176700Y-168751D01*
X176526Y-169012D01*
X176470Y-169296D01*
X174491D01*
Y-163205D01*
X174919Y-162919D01*
X175354Y-162268D01*
X175507Y-161500D01*
X175354Y-160732D01*
X174919Y-160081D01*
X174268Y-159646D01*
X173500Y-159493D01*
X172732Y-159646D01*
X172081Y-160081D01*
X171969Y-160248D01*
X171472Y-160297D01*
X169324Y-158149D01*
X168933Y-157887D01*
X168472Y-157796D01*
X168472Y-157796D01*
X166563D01*
X166419Y-157581D01*
X165768Y-157146D01*
X165000Y-156993D01*
X164232Y-157146D01*
X163951Y-157334D01*
X163500Y-157033D01*
X163507Y-157000D01*
X163354Y-156232D01*
X162919Y-155581D01*
X162268Y-155146D01*
X161500Y-154993D01*
X160732Y-155146D01*
X160081Y-155581D01*
X159646Y-156232D01*
X159493Y-157000D01*
X159646Y-157768D01*
X160081Y-158419D01*
X160732Y-158854D01*
X161500Y-159007D01*
X161821Y-159453D01*
Y-159818D01*
X161821Y-159818D01*
X161913Y-160279D01*
X162174Y-160670D01*
X163330Y-161826D01*
X163721Y-162087D01*
X164182Y-162179D01*
X165229D01*
X165493Y-162500D01*
X165646Y-163268D01*
X166081Y-163919D01*
X166732Y-164354D01*
X167301Y-164468D01*
X167333Y-164499D01*
Y-180964D01*
X162423Y-185874D01*
X161885Y-185757D01*
X161862Y-185728D01*
X162007Y-185000D01*
X161854Y-184232D01*
X161419Y-183581D01*
X160768Y-183146D01*
X160283Y-183049D01*
X159996Y-182525D01*
X159996Y-182521D01*
X160015Y-182484D01*
X160732D01*
X161039Y-182423D01*
X161300Y-182249D01*
X161474Y-181988D01*
X161535Y-181681D01*
Y-181656D01*
X161754Y-181613D01*
X162144Y-181351D01*
X165826Y-177670D01*
X165826Y-177670D01*
X166087Y-177279D01*
X166179Y-176818D01*
Y-167475D01*
X166087Y-167014D01*
X165826Y-166623D01*
X165826Y-166623D01*
X165457Y-166254D01*
X165507Y-166000D01*
X165354Y-165232D01*
X164919Y-164581D01*
X164268Y-164146D01*
X163500Y-163993D01*
X162732Y-164146D01*
X162252Y-164467D01*
X161946Y-164376D01*
X161752Y-164266D01*
X161739Y-164254D01*
X161674Y-163929D01*
X161453Y-163598D01*
X161123Y-163377D01*
X160732Y-163299D01*
X160522D01*
X160255Y-162799D01*
X160466Y-162484D01*
X158500D01*
Y-160516D01*
X160466D01*
X160073Y-159927D01*
X159351Y-159446D01*
X158653Y-159307D01*
X158412Y-159142D01*
X158204Y-158825D01*
Y-154563D01*
X158419Y-154419D01*
X158854Y-153768D01*
X159007Y-153000D01*
X158854Y-152232D01*
X158419Y-151581D01*
X157768Y-151146D01*
X157695Y-151131D01*
X157550Y-150653D01*
X158149Y-150054D01*
X167780D01*
Y-152047D01*
D02*
G37*
G36*
X192047Y-171335D02*
X192638D01*
X193028Y-171257D01*
X193359Y-171036D01*
X193483Y-170850D01*
X193983Y-171002D01*
Y-180479D01*
X193483Y-180631D01*
X193359Y-180444D01*
X193028Y-180223D01*
X192638Y-180146D01*
X192047D01*
Y-182740D01*
X190079D01*
Y-180146D01*
X189488D01*
X189098Y-180223D01*
X189062Y-180247D01*
X188910Y-180185D01*
X188689Y-179854D01*
X188359Y-179633D01*
X187969Y-179555D01*
X186984D01*
Y-182150D01*
X185016D01*
Y-179555D01*
X184705D01*
X184498Y-179055D01*
X185325Y-178228D01*
X187969D01*
X188276Y-178167D01*
X188536Y-177993D01*
X188710Y-177732D01*
X189181Y-177576D01*
X189488Y-177637D01*
X192638D01*
X192945Y-177576D01*
X193205Y-177402D01*
X193379Y-177142D01*
X193441Y-176835D01*
Y-173685D01*
X193379Y-173378D01*
X193205Y-173117D01*
X192945Y-172943D01*
X192638Y-172882D01*
X189488D01*
X189181Y-172943D01*
X188920Y-173117D01*
X188747Y-173378D01*
X188276Y-173534D01*
X187969Y-173473D01*
X186616D01*
X186474Y-172973D01*
X187073Y-172573D01*
X187555Y-171851D01*
X187724Y-171000D01*
X188174Y-170703D01*
X188359Y-170666D01*
X188395Y-170642D01*
X188546Y-170705D01*
X188767Y-171036D01*
X189098Y-171257D01*
X189488Y-171335D01*
X190079D01*
Y-168740D01*
X192047D01*
Y-171335D01*
D02*
G37*
G36*
X177728Y-44031D02*
X175760Y-46000D01*
X177728Y-47969D01*
X175760Y-49937D01*
X169854D01*
X169854Y-42063D01*
X175760D01*
X177728Y-44031D01*
D02*
G37*
G36*
X184854Y-49937D02*
X176980D01*
X178949Y-47969D01*
X176980Y-46000D01*
X178949Y-44032D01*
X176980Y-42063D01*
X184854D01*
Y-49937D01*
D02*
G37*
G36*
X115439Y-161648D02*
X116155Y-162126D01*
X117000Y-162294D01*
X117493Y-162196D01*
X119149Y-163851D01*
X119149Y-163851D01*
X119539Y-164113D01*
X120000Y-164204D01*
X120000Y-164204D01*
X124028D01*
X124028Y-164204D01*
X124146Y-164181D01*
X124571Y-164606D01*
X124493Y-165000D01*
X124646Y-165768D01*
X125081Y-166419D01*
X125107Y-166690D01*
X123161Y-168636D01*
X123097Y-168636D01*
X122629Y-168525D01*
X122555Y-168149D01*
X122073Y-167428D01*
X121484Y-167034D01*
Y-169000D01*
X120500D01*
Y-169984D01*
X118535D01*
X118691Y-170219D01*
X118555Y-170310D01*
X118334Y-170641D01*
X118256Y-171031D01*
Y-172016D01*
X120850D01*
Y-173984D01*
X118256D01*
Y-174969D01*
X118334Y-175359D01*
X118470Y-175563D01*
X118311Y-175987D01*
X118249Y-176063D01*
X117650D01*
X117307Y-175627D01*
X117292Y-175536D01*
X117466Y-175276D01*
X117527Y-174969D01*
Y-171031D01*
X117466Y-170724D01*
X117292Y-170464D01*
X117032Y-170290D01*
X116856Y-170255D01*
Y-169745D01*
X117032Y-169710D01*
X117292Y-169536D01*
X117466Y-169276D01*
X117527Y-168968D01*
Y-165032D01*
X117466Y-164724D01*
X117292Y-164464D01*
X117032Y-164290D01*
X116724Y-164229D01*
X114081D01*
X113718Y-163865D01*
X113767Y-163368D01*
X113999Y-163213D01*
X114220Y-162991D01*
X114612Y-162405D01*
X114732Y-162116D01*
Y-162116D01*
X114828Y-161633D01*
X115359Y-161528D01*
X115439Y-161648D01*
D02*
G37*
G36*
X50101Y-83386D02*
X50099Y-83396D01*
Y-89331D01*
X58410D01*
Y-90315D01*
X59394D01*
Y-98625D01*
X65329D01*
X65500Y-98766D01*
Y-107061D01*
X65329Y-107202D01*
X59394D01*
Y-115512D01*
X58410D01*
Y-116496D01*
X50099D01*
Y-122431D01*
X50043Y-122500D01*
X40730D01*
Y-103898D01*
X35932D01*
Y-122500D01*
X31500D01*
X25500Y-117000D01*
X4500D01*
Y-103500D01*
X5000Y-103000D01*
X18256Y-89744D01*
X18481Y-89571D01*
X18654Y-89346D01*
X25000Y-83000D01*
X35849D01*
X35932Y-83100D01*
Y-101929D01*
X40730D01*
Y-83100D01*
X40812Y-83000D01*
X49784D01*
X50101Y-83386D01*
D02*
G37*
G36*
X70306Y-41642D02*
X69647Y-42147D01*
X69006Y-42983D01*
X68603Y-43956D01*
X68595Y-44016D01*
X72500D01*
Y-45984D01*
X68595D01*
X68603Y-46044D01*
X69006Y-47017D01*
X69647Y-47853D01*
X70458Y-48475D01*
X70497Y-48745D01*
Y-48755D01*
X70458Y-49025D01*
X69647Y-49647D01*
X69006Y-50483D01*
X68603Y-51456D01*
X68595Y-51516D01*
X72500D01*
Y-53484D01*
X68595D01*
X68603Y-53544D01*
X69006Y-54517D01*
X69647Y-55353D01*
X70458Y-55975D01*
X70497Y-56245D01*
Y-56255D01*
X70458Y-56525D01*
X69647Y-57147D01*
X69006Y-57983D01*
X68603Y-58956D01*
X68595Y-59016D01*
X72500D01*
Y-60984D01*
X68595D01*
X68603Y-61044D01*
X69006Y-62017D01*
X69647Y-62853D01*
X70458Y-63475D01*
X70497Y-63745D01*
Y-63755D01*
X70458Y-64025D01*
X69647Y-64647D01*
X69006Y-65483D01*
X68603Y-66456D01*
X68595Y-66516D01*
X72500D01*
Y-67500D01*
X73484D01*
Y-71405D01*
X73544Y-71397D01*
X74092Y-71170D01*
X74508Y-71448D01*
Y-72500D01*
X66500D01*
Y-55000D01*
Y-41201D01*
X66642Y-41142D01*
X70136D01*
X70306Y-41642D01*
D02*
G37*
G36*
X71362Y-171142D02*
X70483Y-171506D01*
X69647Y-172147D01*
X69006Y-172983D01*
X68603Y-173956D01*
X68595Y-174016D01*
X72500D01*
Y-175984D01*
X68595D01*
X68603Y-176044D01*
X69006Y-177017D01*
X69647Y-177853D01*
X70458Y-178475D01*
X70497Y-178745D01*
Y-178755D01*
X70458Y-179025D01*
X69647Y-179647D01*
X69006Y-180483D01*
X68603Y-181456D01*
X68595Y-181516D01*
X72500D01*
Y-183484D01*
X68595D01*
X68603Y-183544D01*
X69006Y-184517D01*
X69647Y-185353D01*
X70458Y-185975D01*
X70497Y-186245D01*
Y-186255D01*
X70458Y-186525D01*
X69647Y-187147D01*
X69006Y-187983D01*
X68603Y-188956D01*
X68595Y-189016D01*
X72500D01*
Y-190984D01*
X68595D01*
X68603Y-191044D01*
X69006Y-192017D01*
X69647Y-192853D01*
X70458Y-193475D01*
X70497Y-193745D01*
Y-193755D01*
X70458Y-194025D01*
X69647Y-194647D01*
X69006Y-195483D01*
X68603Y-196456D01*
X68595Y-196516D01*
X72500D01*
Y-198484D01*
X68595D01*
X68603Y-198544D01*
X69006Y-199517D01*
X69647Y-200353D01*
X70483Y-200994D01*
X71456Y-201397D01*
X72238Y-201500D01*
X72205Y-202000D01*
X67002D01*
Y-184500D01*
Y-170701D01*
X67144Y-170642D01*
X71263D01*
X71362Y-171142D01*
D02*
G37*
G36*
X104928Y-96573D02*
X105649Y-97054D01*
X106106Y-97145D01*
Y-98543D01*
X106184Y-98934D01*
X106190Y-98942D01*
X106149Y-99148D01*
X106149Y-99148D01*
X105589Y-99708D01*
X105328Y-100098D01*
X105237Y-100559D01*
X105237Y-100559D01*
Y-107441D01*
X105328Y-107902D01*
X105589Y-108292D01*
X105980Y-108554D01*
X106346Y-108626D01*
X106463Y-108685D01*
X106714Y-109145D01*
X106713Y-109150D01*
Y-110850D01*
X106774Y-111158D01*
X106855Y-111279D01*
X106774Y-111401D01*
X106713Y-111709D01*
Y-113409D01*
X106774Y-113717D01*
X106855Y-113839D01*
X106774Y-113961D01*
X106713Y-114268D01*
Y-115969D01*
X106753Y-116169D01*
X106574Y-116437D01*
X106523Y-116693D01*
X107182D01*
X107208Y-116710D01*
X107516Y-116771D01*
X112437D01*
X112744Y-116710D01*
X112770Y-116693D01*
X113825D01*
X113932Y-116654D01*
X114232Y-116854D01*
X115000Y-117007D01*
X115768Y-116854D01*
X116121Y-116619D01*
X116440Y-117007D01*
X114298Y-119149D01*
X114037Y-119539D01*
X113945Y-120000D01*
X113945Y-120000D01*
Y-121229D01*
X113575D01*
X113268Y-121290D01*
X113007Y-121464D01*
X112833Y-121724D01*
X112772Y-122031D01*
Y-125969D01*
X112833Y-126276D01*
X113007Y-126536D01*
X113268Y-126710D01*
X113443Y-126745D01*
Y-127255D01*
X113268Y-127290D01*
X113007Y-127464D01*
X112833Y-127724D01*
X112772Y-128032D01*
Y-131968D01*
X112833Y-132276D01*
X113007Y-132536D01*
X113268Y-132710D01*
X113575Y-132771D01*
X113972D01*
X114037Y-133099D01*
X114298Y-133489D01*
X117347Y-136538D01*
Y-141543D01*
X117140Y-141796D01*
X113077D01*
X112870Y-141543D01*
Y-138984D01*
X109488D01*
X106106D01*
Y-141543D01*
X106184Y-141934D01*
X106405Y-142264D01*
X106736Y-142485D01*
X107126Y-142563D01*
X109615D01*
X109806Y-143025D01*
X106649Y-146182D01*
X106387Y-146573D01*
X106296Y-147034D01*
X106296Y-147034D01*
Y-162500D01*
X106296Y-162500D01*
X106387Y-162961D01*
X106649Y-163352D01*
X107059Y-163762D01*
X106985Y-164191D01*
X106915Y-164325D01*
X106708Y-164464D01*
X106534Y-164724D01*
X106473Y-165032D01*
Y-165796D01*
X86097D01*
X85590Y-165288D01*
X85781Y-164827D01*
X86559D01*
X86866Y-164765D01*
X87127Y-164591D01*
X87301Y-164331D01*
X87362Y-164024D01*
Y-160874D01*
X87301Y-160567D01*
X87127Y-160306D01*
Y-159895D01*
X87211Y-159761D01*
X87307Y-159742D01*
X87568Y-159568D01*
X87742Y-159307D01*
X87803Y-159000D01*
Y-142303D01*
X103944D01*
X103944Y-142303D01*
X104251Y-142242D01*
X104511Y-142068D01*
X104677Y-141902D01*
X104683Y-141898D01*
X104857Y-141638D01*
X104918Y-141331D01*
Y-134797D01*
X104950Y-134748D01*
X105011Y-134441D01*
Y-131204D01*
X106473D01*
Y-131968D01*
X106534Y-132276D01*
X106708Y-132536D01*
X106968Y-132710D01*
X107276Y-132771D01*
X110425D01*
X110732Y-132710D01*
X110993Y-132536D01*
X111167Y-132276D01*
X111228Y-131968D01*
Y-128032D01*
X111167Y-127724D01*
X110993Y-127464D01*
X110732Y-127290D01*
X110557Y-127255D01*
Y-126745D01*
X110732Y-126710D01*
X110993Y-126536D01*
X111167Y-126276D01*
X111228Y-125969D01*
Y-122031D01*
X111167Y-121724D01*
X110993Y-121464D01*
X110732Y-121290D01*
X110425Y-121229D01*
X107276D01*
X106968Y-121290D01*
X106708Y-121464D01*
X106534Y-121724D01*
X106473Y-122031D01*
Y-122796D01*
X86097D01*
X85590Y-122288D01*
X85781Y-121827D01*
X86559D01*
X86866Y-121765D01*
X87127Y-121591D01*
X87301Y-121331D01*
X87362Y-121024D01*
Y-117874D01*
X87301Y-117567D01*
X87127Y-117306D01*
X87192Y-116790D01*
X87211Y-116761D01*
X87307Y-116742D01*
X87568Y-116568D01*
X87742Y-116307D01*
X87803Y-116000D01*
Y-98803D01*
X103443D01*
X103443Y-98803D01*
X103751Y-98742D01*
X104011Y-98568D01*
X104175Y-98403D01*
X104183Y-98398D01*
X104357Y-98138D01*
X104418Y-97831D01*
Y-96710D01*
X104918Y-96558D01*
X104928Y-96573D01*
D02*
G37*
G36*
X188034Y-67966D02*
X190034Y-69965D01*
X190610Y-70407D01*
X191281Y-70685D01*
X192000Y-70780D01*
X198546D01*
X198772Y-70931D01*
X199079Y-70992D01*
X208921D01*
X209228Y-70931D01*
X209454Y-70780D01*
X221181D01*
X221355Y-70757D01*
X221444Y-70876D01*
X221563Y-71234D01*
X219649Y-73149D01*
X219387Y-73539D01*
X219296Y-74000D01*
X219012Y-74266D01*
X218751Y-74440D01*
X218577Y-74701D01*
X218548Y-74845D01*
X218055Y-75059D01*
X216995Y-73999D01*
X216604Y-73738D01*
X216143Y-73646D01*
X216143Y-73646D01*
X214771D01*
Y-73276D01*
X214710Y-72968D01*
X214536Y-72708D01*
X214276Y-72534D01*
X213968Y-72473D01*
X210032D01*
X209724Y-72534D01*
X209464Y-72708D01*
X209290Y-72968D01*
X209229Y-73276D01*
Y-74284D01*
X207346D01*
Y-73126D01*
X207285Y-72819D01*
X207111Y-72558D01*
X206851Y-72384D01*
X206543Y-72323D01*
X199457D01*
X199150Y-72384D01*
X198889Y-72558D01*
X198715Y-72819D01*
X198654Y-73126D01*
Y-73796D01*
X196150D01*
X196150Y-73796D01*
X195689Y-73887D01*
X195298Y-74148D01*
X195298Y-74148D01*
X194470Y-74977D01*
X188972D01*
X188665Y-75038D01*
X188405Y-75212D01*
X188231Y-75472D01*
X188170Y-75779D01*
Y-80110D01*
X188231Y-80417D01*
X188405Y-80678D01*
X188665Y-80852D01*
X188972Y-80913D01*
X197437D01*
X197744Y-80852D01*
X198005Y-80678D01*
X198179Y-80417D01*
X198240Y-80110D01*
Y-78497D01*
X198704Y-78191D01*
X198740Y-78195D01*
X198889Y-78418D01*
X199150Y-78592D01*
X199457Y-78653D01*
X201628D01*
X201663Y-78742D01*
X201712Y-79153D01*
X201077Y-79577D01*
X200684Y-80165D01*
X204615D01*
X204222Y-79577D01*
X203588Y-79153D01*
X203637Y-78742D01*
X203671Y-78653D01*
X206543D01*
X206851Y-78592D01*
X207111Y-78418D01*
X207285Y-78158D01*
X207346Y-77850D01*
Y-76692D01*
X209282D01*
X209290Y-76732D01*
X209464Y-76993D01*
X209724Y-77167D01*
X210032Y-77228D01*
X213537D01*
X213993Y-77500D01*
X214107Y-78073D01*
X214082Y-78161D01*
X213834Y-78487D01*
X213736Y-78555D01*
X212984D01*
Y-81150D01*
X212000D01*
Y-82134D01*
X209012D01*
Y-82724D01*
X209032Y-82823D01*
X208673Y-83323D01*
X208457D01*
X208150Y-83384D01*
X207901Y-83550D01*
X207886Y-83558D01*
X207319Y-83511D01*
X207264Y-83429D01*
X206933Y-83208D01*
X206543Y-83130D01*
X204443D01*
X204284Y-82630D01*
X204615Y-82134D01*
X200684D01*
X201016Y-82630D01*
X200856Y-83130D01*
X199457D01*
X199066Y-83208D01*
X198736Y-83429D01*
X198515Y-83759D01*
X198458Y-84045D01*
X198164Y-84189D01*
X197937Y-84222D01*
X197744Y-84093D01*
X197437Y-84032D01*
X188972D01*
X188665Y-84093D01*
X188405Y-84267D01*
X188231Y-84527D01*
X188170Y-84835D01*
Y-85796D01*
X173830D01*
Y-80110D01*
X173769Y-79803D01*
X173595Y-79542D01*
X173335Y-79369D01*
X173028Y-79307D01*
X168524D01*
X168289Y-78866D01*
X168354Y-78768D01*
X168507Y-78000D01*
X168354Y-77232D01*
X167919Y-76581D01*
X167268Y-76146D01*
X166500Y-75993D01*
X165732Y-76146D01*
X165081Y-76581D01*
X164646Y-77232D01*
X164493Y-78000D01*
X164646Y-78768D01*
X164711Y-78866D01*
X164423Y-79335D01*
X164392Y-79342D01*
X164003Y-79119D01*
X163892Y-79010D01*
Y-76811D01*
X170499Y-70204D01*
X184000D01*
X184000Y-70204D01*
X184461Y-70113D01*
X184852Y-69851D01*
X185246Y-69457D01*
X185500Y-69507D01*
X186268Y-69354D01*
X186919Y-68919D01*
X187354Y-68268D01*
X187412Y-67976D01*
X187947Y-67852D01*
X188034Y-67966D01*
D02*
G37*
G36*
X50091Y-39797D02*
Y-45732D01*
X58402D01*
Y-46716D01*
X59386D01*
Y-55027D01*
X65321D01*
X65500Y-55174D01*
Y-63456D01*
X65321Y-63603D01*
X59386D01*
Y-71913D01*
X58402D01*
Y-72898D01*
X50091D01*
Y-78833D01*
X50125Y-79000D01*
X49732Y-79500D01*
X41031D01*
X40722Y-79000D01*
Y-60299D01*
X35924D01*
Y-79128D01*
X35619Y-79500D01*
X4500Y-79500D01*
X4500Y-59121D01*
X16826Y-51237D01*
X16870D01*
X17718Y-51125D01*
X18508Y-50798D01*
X19187Y-50277D01*
X19707Y-49599D01*
X19823Y-49319D01*
X35173Y-39500D01*
X35922D01*
X35924Y-39502D01*
Y-58331D01*
X40722D01*
Y-39502D01*
X40723Y-39500D01*
X49847D01*
X50091Y-39797D01*
D02*
G37*
G36*
X50178Y-169297D02*
Y-175232D01*
X58488D01*
Y-176216D01*
X59472D01*
Y-184527D01*
X65303D01*
X65607Y-184685D01*
X65799Y-184845D01*
X65698Y-192868D01*
X65408Y-193103D01*
X59472D01*
Y-201413D01*
X58488D01*
Y-202398D01*
X50178D01*
Y-208333D01*
X50041Y-208500D01*
X40808D01*
Y-189799D01*
X36011D01*
Y-208500D01*
X24463D01*
X24453Y-208491D01*
X22471Y-207277D01*
X20324Y-206388D01*
X18065Y-205845D01*
X15748Y-205663D01*
X13431Y-205845D01*
X11172Y-206388D01*
X10264Y-206764D01*
X9500Y-206000D01*
X4500Y-201000D01*
Y-188000D01*
Y-184000D01*
X13500Y-175000D01*
X19567Y-168933D01*
X35954D01*
X36011Y-169002D01*
Y-187831D01*
X40808D01*
Y-169002D01*
X40865Y-168933D01*
X49879D01*
X50178Y-169297D01*
D02*
G37*
G36*
X150968Y-57254D02*
X150770Y-57673D01*
X150727Y-57721D01*
X146811D01*
Y-60709D01*
X151768D01*
Y-58761D01*
X151815Y-58718D01*
X152234Y-58520D01*
X160199Y-66485D01*
X160162Y-67027D01*
X160081Y-67081D01*
X159646Y-67732D01*
X159493Y-68500D01*
X159587Y-68973D01*
X159227Y-69473D01*
X157325D01*
X156001Y-68148D01*
X155610Y-67887D01*
X155150Y-67796D01*
X155150Y-67796D01*
X154527D01*
Y-67032D01*
X154466Y-66724D01*
X154292Y-66464D01*
X154032Y-66290D01*
X153724Y-66229D01*
X150575D01*
X150338Y-66276D01*
X150193Y-66179D01*
X150189Y-66165D01*
X150541Y-65665D01*
X150748D01*
X151138Y-65588D01*
X151469Y-65367D01*
X151690Y-65036D01*
X151768Y-64646D01*
Y-62677D01*
X145827D01*
X139886D01*
Y-64646D01*
X139963Y-65036D01*
X140185Y-65367D01*
X140515Y-65588D01*
X140905Y-65665D01*
X140978D01*
X141170Y-66127D01*
X139399Y-67898D01*
X138362D01*
X138055Y-67959D01*
X137795Y-68133D01*
X137620Y-68394D01*
X137559Y-68701D01*
Y-71850D01*
X137620Y-72158D01*
X137795Y-72418D01*
X138055Y-72592D01*
X138362Y-72653D01*
X141118D01*
X141425Y-72592D01*
X141686Y-72418D01*
X141860Y-72158D01*
X141921Y-71850D01*
Y-68782D01*
X143011Y-67692D01*
X143473Y-67884D01*
Y-70969D01*
X143534Y-71276D01*
X143708Y-71536D01*
X143968Y-71710D01*
X144144Y-71745D01*
Y-72255D01*
X143968Y-72290D01*
X143708Y-72464D01*
X143534Y-72724D01*
X143473Y-73032D01*
Y-73796D01*
X135000D01*
X135000Y-73796D01*
X134539Y-73887D01*
X134350Y-74014D01*
X134010Y-74061D01*
X133715Y-73874D01*
X133419Y-73431D01*
X133003Y-73153D01*
X133155Y-72653D01*
X133638D01*
X133945Y-72592D01*
X134205Y-72418D01*
X134379Y-72158D01*
X134441Y-71850D01*
Y-68701D01*
X134379Y-68394D01*
X134205Y-68133D01*
X133945Y-67959D01*
X133638Y-67898D01*
X130882D01*
X130575Y-67959D01*
X130314Y-68133D01*
X130140Y-68394D01*
X130079Y-68701D01*
Y-68796D01*
X129527D01*
Y-68032D01*
X129466Y-67724D01*
X129292Y-67464D01*
X129032Y-67290D01*
X128724Y-67229D01*
X125575D01*
X125268Y-67290D01*
X125007Y-67464D01*
X124833Y-67724D01*
X124772Y-68032D01*
Y-71969D01*
X124833Y-72276D01*
X125007Y-72536D01*
X125268Y-72710D01*
X125575Y-72771D01*
X128218D01*
X128600Y-73154D01*
X128393Y-73654D01*
X124150D01*
X123842Y-73715D01*
X123582Y-73889D01*
X123408Y-74150D01*
X123347Y-74457D01*
Y-75341D01*
X122885Y-75532D01*
X120803Y-73450D01*
X120994Y-72988D01*
X122425D01*
X122815Y-72910D01*
X123146Y-72689D01*
X123367Y-72359D01*
X123445Y-71969D01*
Y-70984D01*
X120850D01*
Y-70000D01*
X119866D01*
Y-67012D01*
X119276D01*
X118885Y-67089D01*
X118555Y-67311D01*
X118401Y-67541D01*
X118005Y-67575D01*
X117844Y-67542D01*
X117792Y-67464D01*
X117532Y-67290D01*
X117224Y-67229D01*
X114075D01*
X113768Y-67290D01*
X113507Y-67464D01*
X113333Y-67724D01*
X113272Y-68032D01*
Y-71969D01*
X113333Y-72276D01*
X113507Y-72536D01*
X113768Y-72710D01*
X114075Y-72771D01*
X116472D01*
X116596Y-72937D01*
X116472Y-73184D01*
Y-77016D01*
X118870D01*
Y-75577D01*
X119332Y-75385D01*
X122798Y-78851D01*
X123189Y-79113D01*
X123347Y-79144D01*
Y-81543D01*
X123408Y-81850D01*
X123582Y-82111D01*
X123842Y-82285D01*
X124150Y-82346D01*
X125649D01*
X125660Y-82363D01*
X127026Y-83729D01*
X126857Y-84214D01*
X126845Y-84229D01*
X125575D01*
X125268Y-84290D01*
X125007Y-84464D01*
X124833Y-84724D01*
X124772Y-85031D01*
Y-88968D01*
X124833Y-89276D01*
X125007Y-89536D01*
X125268Y-89710D01*
X125575Y-89771D01*
X125796D01*
Y-90437D01*
X125581Y-90581D01*
X125146Y-91232D01*
X124993Y-92000D01*
X125146Y-92768D01*
X125581Y-93419D01*
X125796Y-93563D01*
Y-99001D01*
X123649Y-101148D01*
X123387Y-101539D01*
X123296Y-102000D01*
X123296Y-102000D01*
Y-120809D01*
X122818Y-121088D01*
X122796Y-121086D01*
X122425Y-121012D01*
X121835D01*
Y-124000D01*
X120850D01*
Y-124984D01*
X118256D01*
Y-125969D01*
X118334Y-126359D01*
X118555Y-126690D01*
X118569Y-126699D01*
Y-127301D01*
X118555Y-127311D01*
X118334Y-127641D01*
X118256Y-128032D01*
Y-129016D01*
X120850D01*
X123445D01*
Y-128032D01*
X123401Y-127811D01*
X123862Y-127565D01*
X124148Y-127851D01*
X124148Y-127851D01*
X124539Y-128113D01*
X124772Y-128159D01*
Y-131968D01*
X124833Y-132276D01*
X125007Y-132536D01*
X125268Y-132710D01*
X125575Y-132771D01*
X128724D01*
X129032Y-132710D01*
X129292Y-132536D01*
X129466Y-132276D01*
X129527Y-131968D01*
Y-131204D01*
X130079D01*
Y-131850D01*
X130140Y-132158D01*
X130314Y-132418D01*
X130575Y-132592D01*
X130882Y-132653D01*
X132063D01*
X132318Y-133153D01*
X132215Y-133296D01*
X130500D01*
X130500Y-133296D01*
X130039Y-133387D01*
X129648Y-133649D01*
X129648Y-133649D01*
X127480Y-135817D01*
X126938Y-135652D01*
X126854Y-135232D01*
X126419Y-134581D01*
X125768Y-134146D01*
X125000Y-133993D01*
X124232Y-134146D01*
X124137Y-134209D01*
X124000Y-134193D01*
X123526Y-134016D01*
X123442Y-133889D01*
X123181Y-133715D01*
X122874Y-133654D01*
X118150D01*
X117915Y-133701D01*
X117328Y-133113D01*
X117292Y-132536D01*
X117466Y-132276D01*
X117527Y-131968D01*
Y-128032D01*
X117466Y-127724D01*
X117292Y-127464D01*
X117032Y-127290D01*
X116856Y-127255D01*
Y-126745D01*
X117032Y-126710D01*
X117292Y-126536D01*
X117466Y-126276D01*
X117527Y-125969D01*
Y-122031D01*
X117466Y-121724D01*
X117292Y-121464D01*
X117032Y-121290D01*
X116724Y-121229D01*
X116354D01*
Y-120499D01*
X118851Y-118001D01*
X118851Y-118001D01*
X119113Y-117611D01*
X119204Y-117150D01*
X119204Y-117150D01*
Y-111000D01*
X119113Y-110539D01*
X118851Y-110149D01*
X118851Y-110149D01*
X117851Y-109149D01*
X117461Y-108887D01*
X117000Y-108796D01*
X117000Y-108796D01*
X113610D01*
X113599Y-108790D01*
X113239Y-108296D01*
X113240Y-108291D01*
Y-106738D01*
X113628Y-106321D01*
X114018Y-106325D01*
X114081Y-106419D01*
X114732Y-106854D01*
X115500Y-107007D01*
X116268Y-106854D01*
X116919Y-106419D01*
X117354Y-105768D01*
X117507Y-105000D01*
X117354Y-104232D01*
X116919Y-103581D01*
X116268Y-103146D01*
X115500Y-102993D01*
X114732Y-103146D01*
X114081Y-103581D01*
X114059Y-103613D01*
X113557Y-103616D01*
X113239Y-103178D01*
X113240Y-103173D01*
Y-101472D01*
X113179Y-101165D01*
X113005Y-100905D01*
X112986Y-100717D01*
X113851Y-99852D01*
X113851Y-99852D01*
X114113Y-99461D01*
X114204Y-99000D01*
Y-97532D01*
X114645Y-97296D01*
X114732Y-97354D01*
X115500Y-97507D01*
X116268Y-97354D01*
X116847Y-96968D01*
X117347Y-97111D01*
Y-98543D01*
X117408Y-98851D01*
X117582Y-99111D01*
X117842Y-99285D01*
X118150Y-99346D01*
X122874D01*
X123181Y-99285D01*
X123442Y-99111D01*
X123616Y-98851D01*
X123677Y-98543D01*
Y-91457D01*
X123616Y-91149D01*
X123442Y-90889D01*
X123181Y-90715D01*
X122874Y-90654D01*
X118150D01*
X117915Y-90701D01*
X117328Y-90113D01*
X117292Y-89536D01*
X117466Y-89276D01*
X117527Y-88968D01*
Y-85031D01*
X117466Y-84724D01*
X117292Y-84464D01*
X117032Y-84290D01*
X116724Y-84229D01*
X113575D01*
X113230Y-84155D01*
X113143Y-83843D01*
X113113Y-83689D01*
X112852Y-83298D01*
X112447Y-82894D01*
X112736Y-82485D01*
X113126Y-82563D01*
X114504D01*
Y-78000D01*
Y-73437D01*
X113126D01*
X112736Y-73515D01*
X112405Y-73736D01*
X112271Y-73936D01*
X111771Y-73784D01*
Y-73276D01*
X111710Y-72968D01*
X111536Y-72708D01*
X111667Y-72276D01*
X111728Y-71969D01*
Y-68032D01*
X111667Y-67724D01*
X111493Y-67464D01*
X111232Y-67290D01*
X110925Y-67229D01*
X108282D01*
X107385Y-66332D01*
Y-58455D01*
X107885Y-58303D01*
X108065Y-58573D01*
X108390Y-58789D01*
Y-60709D01*
X113347D01*
Y-57721D01*
X112112D01*
X111795Y-57334D01*
X111862Y-57000D01*
X111692Y-56149D01*
X111210Y-55427D01*
X110876Y-55204D01*
X111028Y-54704D01*
X148418D01*
X150968Y-57254D01*
D02*
G37*
G36*
X90591Y-170642D02*
Y-172807D01*
X97909D01*
Y-173791D01*
X98894D01*
Y-177961D01*
X104115D01*
Y-183831D01*
X103945Y-184000D01*
X88002D01*
Y-184000D01*
X87542Y-183905D01*
X87502Y-183856D01*
X87575Y-183700D01*
X87580Y-183693D01*
X87657Y-183303D01*
Y-182713D01*
X81126D01*
Y-180744D01*
X87657D01*
Y-180154D01*
X87580Y-179763D01*
X87575Y-179756D01*
X87390Y-179366D01*
X87575Y-178976D01*
X87580Y-178969D01*
X87657Y-178579D01*
Y-177988D01*
X81126D01*
Y-176020D01*
X87657D01*
Y-175429D01*
X87580Y-175039D01*
X87359Y-174708D01*
Y-174575D01*
X87580Y-174244D01*
X87657Y-173854D01*
Y-173264D01*
X81126D01*
Y-171295D01*
X87657D01*
Y-170705D01*
X87709Y-170642D01*
X90591D01*
X90591Y-170642D01*
D02*
G37*
G36*
X106473Y-174969D02*
X106534Y-175276D01*
X106591Y-175361D01*
X106592Y-175382D01*
X106415Y-175866D01*
X106391Y-175893D01*
X106236Y-175924D01*
X105905Y-176145D01*
X105684Y-176476D01*
X105606Y-176866D01*
Y-179425D01*
X108988D01*
Y-180409D01*
X109972D01*
Y-184972D01*
X111052D01*
X111319Y-185472D01*
X111146Y-185732D01*
X110993Y-186500D01*
X111126Y-187171D01*
X108068Y-190229D01*
X107276D01*
X106968Y-190290D01*
X106708Y-190464D01*
X106534Y-190724D01*
X106473Y-191032D01*
Y-194968D01*
X106534Y-195276D01*
X106708Y-195536D01*
X106968Y-195710D01*
X107144Y-195745D01*
Y-196255D01*
X106968Y-196290D01*
X106708Y-196464D01*
X106534Y-196724D01*
X106473Y-197031D01*
Y-200969D01*
X106534Y-201276D01*
X106708Y-201536D01*
X106708Y-201964D01*
X106534Y-202224D01*
X106473Y-202532D01*
Y-206469D01*
X106534Y-206776D01*
X106708Y-207036D01*
X106679Y-207618D01*
X106501Y-207796D01*
X87584D01*
X87337Y-207296D01*
X87379Y-207232D01*
X87441Y-206925D01*
Y-203776D01*
X87379Y-203468D01*
X87223Y-203235D01*
X87256Y-203041D01*
X87357Y-202708D01*
X87568Y-202568D01*
X87742Y-202307D01*
X87803Y-202000D01*
Y-185272D01*
X87808Y-185251D01*
X88002Y-184803D01*
X103945D01*
X103945Y-184803D01*
X104253Y-184742D01*
X104513Y-184568D01*
X104676Y-184404D01*
X104685Y-184398D01*
X104859Y-184138D01*
X104920Y-183831D01*
Y-177293D01*
X104950Y-177248D01*
X105011Y-176941D01*
Y-174204D01*
X106473D01*
Y-174969D01*
D02*
G37*
G36*
X90091Y-41142D02*
Y-43307D01*
X97409D01*
Y-44291D01*
X98394D01*
Y-48461D01*
X103612D01*
Y-54331D01*
X103443Y-54500D01*
X87890D01*
X87801Y-54431D01*
X87532Y-54000D01*
X87571Y-53803D01*
Y-53213D01*
X81039D01*
Y-51244D01*
X87571D01*
Y-50654D01*
X87493Y-50263D01*
X87489Y-50257D01*
X87304Y-49866D01*
X87489Y-49476D01*
X87493Y-49469D01*
X87571Y-49079D01*
Y-48488D01*
X81039D01*
Y-46520D01*
X87571D01*
Y-45929D01*
X87493Y-45539D01*
X87272Y-45208D01*
Y-45075D01*
X87493Y-44745D01*
X87571Y-44354D01*
Y-43764D01*
X81039D01*
Y-41795D01*
X87571D01*
Y-41205D01*
X87622Y-41142D01*
X90091D01*
X90091Y-41142D01*
D02*
G37*
G36*
X214355Y-42323D02*
Y-65220D01*
X209724D01*
Y-62315D01*
X209663Y-62008D01*
X209489Y-61747D01*
X209228Y-61573D01*
X208921Y-61512D01*
X199079D01*
X198772Y-61573D01*
X198511Y-61747D01*
X198337Y-62008D01*
X198276Y-62315D01*
Y-65220D01*
X193151D01*
X192430Y-64499D01*
X192595Y-63957D01*
X192622Y-63951D01*
X192644Y-63936D01*
X193000Y-64007D01*
X193768Y-63854D01*
X194419Y-63419D01*
X194854Y-62768D01*
X195007Y-62000D01*
X194854Y-61232D01*
X194419Y-60581D01*
X194191Y-60429D01*
X194191Y-59827D01*
X194572Y-59572D01*
X194966Y-58984D01*
X191034D01*
X191428Y-59572D01*
X191809Y-59827D01*
X191809Y-60429D01*
X191581Y-60581D01*
X191146Y-61232D01*
X191066Y-61634D01*
X190224D01*
X189957Y-61134D01*
X190092Y-60932D01*
X190222Y-60280D01*
X190092Y-59627D01*
X189722Y-59073D01*
Y-58927D01*
X190092Y-58373D01*
X190222Y-57721D01*
X190092Y-57068D01*
X189773Y-56590D01*
X189875Y-56521D01*
X190292Y-55897D01*
X190438Y-55161D01*
X190401Y-54974D01*
X190718Y-54588D01*
X194616D01*
X194616Y-54588D01*
X195077Y-54496D01*
X195468Y-54235D01*
X197627Y-52076D01*
X197778Y-52076D01*
X198216Y-52194D01*
X198358Y-52406D01*
X198689Y-52627D01*
X199079Y-52705D01*
X203016D01*
Y-47748D01*
X204984D01*
Y-52705D01*
X208921D01*
X209311Y-52627D01*
X209642Y-52406D01*
X209863Y-52075D01*
X209941Y-51685D01*
Y-47399D01*
X210765Y-47057D01*
X211496Y-46496D01*
X212057Y-45765D01*
X212381Y-44984D01*
X209000D01*
Y-43016D01*
X212381D01*
X212130Y-42411D01*
X212386Y-41910D01*
X213930D01*
X214355Y-42323D01*
D02*
G37*
G36*
X104977Y-56392D02*
Y-62387D01*
X104477Y-62539D01*
X104430Y-62468D01*
X104099Y-62247D01*
X103709Y-62169D01*
X98394D01*
Y-66339D01*
X97409D01*
Y-67323D01*
X90091D01*
Y-69488D01*
X90168Y-69878D01*
X90389Y-70209D01*
X90720Y-70430D01*
X91110Y-70508D01*
X92146D01*
X92179Y-71008D01*
X91456Y-71103D01*
X90483Y-71506D01*
X89647Y-72147D01*
X89006Y-72983D01*
X88603Y-73956D01*
X88595Y-74016D01*
X92500D01*
Y-75000D01*
X93484D01*
Y-78905D01*
X93544Y-78897D01*
X94517Y-78494D01*
X95353Y-77853D01*
X95975Y-77042D01*
X96245Y-77003D01*
X96255D01*
X96525Y-77042D01*
X97147Y-77853D01*
X97983Y-78494D01*
X98956Y-78897D01*
X99016Y-78905D01*
Y-75000D01*
X100000D01*
Y-74016D01*
X103905D01*
X103897Y-73956D01*
X103494Y-72983D01*
X102853Y-72147D01*
X102017Y-71506D01*
X101044Y-71103D01*
X100321Y-71008D01*
X100354Y-70508D01*
X103709D01*
X104099Y-70430D01*
X104430Y-70209D01*
X104651Y-69878D01*
X104728Y-69488D01*
Y-67682D01*
X105228Y-67531D01*
X105330Y-67682D01*
X106973Y-69325D01*
Y-71969D01*
X106978Y-71995D01*
X107011Y-72294D01*
X106724Y-72534D01*
X106464Y-72708D01*
X106290Y-72968D01*
X106229Y-73276D01*
Y-75919D01*
X105386Y-76761D01*
X105125Y-77152D01*
X105034Y-77613D01*
X105034Y-77613D01*
Y-80263D01*
X105001Y-80296D01*
X87188D01*
X85582Y-78690D01*
X85773Y-78228D01*
X86551D01*
X86858Y-78167D01*
X87119Y-77993D01*
X87293Y-77732D01*
X87354Y-77425D01*
Y-74276D01*
X87293Y-73968D01*
X87119Y-73708D01*
Y-73269D01*
X87293Y-73008D01*
X87352Y-72712D01*
X87568Y-72568D01*
X87742Y-72307D01*
X87803Y-72000D01*
Y-55374D01*
X87890Y-55303D01*
X103443D01*
X103443Y-55303D01*
X103750Y-55242D01*
X103796Y-55211D01*
X104977Y-56392D01*
D02*
G37*
G36*
X185926Y-185244D02*
X185838Y-185689D01*
X185776Y-186000D01*
X185295Y-186052D01*
X185000Y-185993D01*
X184232Y-186146D01*
X183581Y-186581D01*
X183146Y-187232D01*
X182993Y-188000D01*
X183146Y-188768D01*
X183581Y-189419D01*
X184232Y-189854D01*
X185000Y-190007D01*
X185768Y-189854D01*
X186419Y-189419D01*
X186563Y-189204D01*
X192500D01*
X192500Y-189204D01*
X192961Y-189113D01*
X193351Y-188851D01*
X194688Y-187514D01*
X195231Y-187679D01*
X195262Y-187836D01*
X195523Y-188226D01*
X203890Y-196593D01*
Y-199394D01*
X203951Y-199701D01*
X204125Y-199961D01*
X204386Y-200135D01*
X204693Y-200197D01*
X211307D01*
X211614Y-200135D01*
X211875Y-199961D01*
X212049Y-199701D01*
X212110Y-199394D01*
Y-193410D01*
X212049Y-193102D01*
X211875Y-192842D01*
X211614Y-192668D01*
X211307Y-192607D01*
X204693D01*
X204386Y-192668D01*
X204125Y-192842D01*
X203534Y-192831D01*
X197579Y-186876D01*
Y-185931D01*
X198079Y-185779D01*
X198085Y-185789D01*
X202648Y-190351D01*
X202648Y-190351D01*
X203039Y-190613D01*
X203500Y-190704D01*
X203500Y-190704D01*
X216501D01*
X217796Y-191999D01*
Y-192607D01*
X215693D01*
X215386Y-192668D01*
X215125Y-192842D01*
X214951Y-193102D01*
X214890Y-193410D01*
Y-199394D01*
X214951Y-199701D01*
X215125Y-199961D01*
X215386Y-200135D01*
X215693Y-200197D01*
X217796D01*
Y-207181D01*
X217397Y-207487D01*
X216860Y-208186D01*
X216523Y-209000D01*
X216408Y-209874D01*
X216523Y-210748D01*
X216860Y-211562D01*
X217397Y-212261D01*
X218096Y-212797D01*
X218910Y-213134D01*
X219783Y-213249D01*
X220657Y-213134D01*
X221471Y-212797D01*
X222170Y-212261D01*
X222707Y-211562D01*
X222906Y-211081D01*
X223406Y-211180D01*
Y-228346D01*
X223482Y-228731D01*
X223700Y-229056D01*
X224025Y-229274D01*
X224409Y-229350D01*
X224500Y-229424D01*
Y-234995D01*
X224416Y-235060D01*
X223818Y-235065D01*
X223597Y-234843D01*
X223271Y-234626D01*
X222982Y-234506D01*
X222598Y-234430D01*
X222598Y-234430D01*
X222518D01*
X222441Y-234414D01*
X222363Y-234430D01*
X222284D01*
X222284Y-234430D01*
X221900Y-234506D01*
X221900D01*
X221611Y-234626D01*
X221285Y-234843D01*
X221064Y-235065D01*
X220846Y-235390D01*
X220726Y-235680D01*
X220219Y-235680D01*
X220218Y-235680D01*
X220099Y-235390D01*
X219881Y-235065D01*
X219660Y-234843D01*
X219334Y-234626D01*
X219045Y-234506D01*
X218661Y-234430D01*
X218661Y-234430D01*
X218582D01*
X218504Y-234414D01*
X218426Y-234430D01*
X218347D01*
X218347Y-234430D01*
X217963Y-234506D01*
X217963D01*
X217674Y-234626D01*
X217348Y-234843D01*
X217127Y-235065D01*
X216909Y-235390D01*
X216789Y-235680D01*
X216282Y-235680D01*
X216282Y-235680D01*
X216162Y-235390D01*
X215944Y-235065D01*
X215723Y-234843D01*
X215397Y-234626D01*
X215108Y-234506D01*
X214724Y-234430D01*
X214723Y-234430D01*
X214645D01*
X214567Y-234414D01*
X214489Y-234430D01*
X214410D01*
X214410Y-234430D01*
X214026Y-234506D01*
X214026D01*
X213737Y-234626D01*
X213411Y-234843D01*
X213190Y-235065D01*
X212972Y-235390D01*
X212852Y-235680D01*
X212345Y-235680D01*
X212345Y-235680D01*
X212225Y-235390D01*
X212007Y-235065D01*
X211786Y-234843D01*
X211460Y-234626D01*
X211171Y-234506D01*
X210787Y-234430D01*
X210787Y-234430D01*
X210707D01*
X210630Y-234414D01*
X210552Y-234430D01*
X210473D01*
X210473Y-234430D01*
X210089Y-234506D01*
X210089D01*
X209800Y-234626D01*
X209474Y-234843D01*
X209253Y-235065D01*
X209035Y-235390D01*
X208915Y-235680D01*
X208407Y-235680D01*
X208407Y-235680D01*
X208288Y-235390D01*
X208070Y-235065D01*
X207849Y-234843D01*
X207523Y-234626D01*
X207234Y-234506D01*
X206850Y-234430D01*
X206850Y-234430D01*
X206770D01*
X206693Y-234414D01*
X206615Y-234430D01*
X206536D01*
X206536Y-234430D01*
X206152Y-234506D01*
X206152D01*
X205863Y-234626D01*
X205537Y-234843D01*
X205316Y-235065D01*
X205098Y-235390D01*
X204978Y-235680D01*
X204915Y-236000D01*
X149416D01*
X149352Y-235680D01*
Y-235680D01*
X149232Y-235390D01*
X149015Y-235065D01*
X148793Y-234843D01*
X148468Y-234626D01*
X148178Y-234506D01*
X147794Y-234430D01*
X147794Y-234430D01*
X147715D01*
X147638Y-234414D01*
X147560Y-234430D01*
X147481D01*
X147481Y-234430D01*
X147097Y-234506D01*
X147097D01*
X146808Y-234626D01*
X146482Y-234843D01*
X146261Y-235065D01*
X146043Y-235390D01*
X145923Y-235680D01*
X145415Y-235680D01*
X145415Y-235680D01*
X145296Y-235390D01*
X145078Y-235065D01*
X144856Y-234843D01*
X144531Y-234626D01*
X144241Y-234506D01*
X143857Y-234430D01*
X143857Y-234430D01*
X143778D01*
X143701Y-234414D01*
X143623Y-234430D01*
X143544D01*
X143544Y-234430D01*
X143160Y-234506D01*
X143160D01*
X142871Y-234626D01*
X142545Y-234843D01*
X142324Y-235065D01*
X142106Y-235390D01*
X141986Y-235680D01*
X141478Y-235680D01*
X141478Y-235680D01*
X141358Y-235390D01*
X141141Y-235065D01*
X140919Y-234843D01*
X140594Y-234626D01*
X140304Y-234506D01*
X139920Y-234430D01*
X139920Y-234430D01*
X139841D01*
X139764Y-234414D01*
X139686Y-234430D01*
X139607D01*
X139607Y-234430D01*
X139223Y-234506D01*
X139223D01*
X138934Y-234626D01*
X138608Y-234843D01*
X138387Y-235065D01*
X138169Y-235390D01*
X138049Y-235680D01*
X137541Y-235680D01*
X137541Y-235680D01*
X137421Y-235390D01*
X137204Y-235065D01*
X136982Y-234843D01*
X136657Y-234626D01*
X136367Y-234506D01*
X135983Y-234430D01*
X135983Y-234430D01*
X135904D01*
X135827Y-234414D01*
X135749Y-234430D01*
X135670D01*
X135670Y-234430D01*
X135286Y-234506D01*
X135286D01*
X134997Y-234626D01*
X134671Y-234843D01*
X134450Y-235065D01*
X134232Y-235390D01*
X134112Y-235680D01*
X133604Y-235680D01*
X133604Y-235680D01*
X133484Y-235390D01*
X133267Y-235065D01*
X133045Y-234843D01*
X132720Y-234626D01*
X132430Y-234506D01*
X132046Y-234430D01*
X132046Y-234430D01*
X131967D01*
X131890Y-234414D01*
X131812Y-234430D01*
X131733D01*
X131733Y-234430D01*
X131349Y-234506D01*
X131349D01*
X131060Y-234626D01*
X130734Y-234843D01*
X130513Y-235065D01*
X130295Y-235390D01*
X130263Y-235468D01*
X130228Y-235479D01*
X129921Y-235418D01*
X110439D01*
X110247Y-234956D01*
X110852Y-234351D01*
X111113Y-233961D01*
X111135Y-233847D01*
X112085Y-233453D01*
X112948Y-232791D01*
X113611Y-231927D01*
X114027Y-230922D01*
X114170Y-229842D01*
X114027Y-228763D01*
X113663Y-227883D01*
X115851Y-225694D01*
X115851Y-225694D01*
X116113Y-225303D01*
X116204Y-224843D01*
X116204Y-224843D01*
Y-222971D01*
X116678Y-222810D01*
X116900Y-223100D01*
X117808Y-223797D01*
X118865Y-224235D01*
X119016Y-224254D01*
Y-220000D01*
Y-215746D01*
X118865Y-215765D01*
X117808Y-216203D01*
X117488Y-216449D01*
X116953Y-216229D01*
X116854Y-215732D01*
X116419Y-215081D01*
X115768Y-214646D01*
X115000Y-214493D01*
X114232Y-214646D01*
X113581Y-215081D01*
X113146Y-215732D01*
X113001Y-216462D01*
X112841Y-216575D01*
X112529Y-216730D01*
X112085Y-216389D01*
X111220Y-216031D01*
X111205Y-215562D01*
X111419Y-215419D01*
X111854Y-214768D01*
X112007Y-214000D01*
X111948Y-213704D01*
X112359Y-213204D01*
X124000D01*
X124461Y-213113D01*
X124852Y-212852D01*
X125113Y-212461D01*
X125116Y-212446D01*
X130039Y-207523D01*
X130300Y-207132D01*
X130392Y-206671D01*
Y-196170D01*
X130857Y-195704D01*
X147500D01*
X147500Y-195704D01*
X147961Y-195613D01*
X148352Y-195352D01*
X150124Y-193579D01*
X152689D01*
X152936Y-194079D01*
X152689Y-194400D01*
X152655Y-194471D01*
X152639Y-194492D01*
X152629Y-194516D01*
X152585Y-194582D01*
X152287Y-195300D01*
X152272Y-195378D01*
X152262Y-195402D01*
X152258Y-195428D01*
X152233Y-195502D01*
X152131Y-196273D01*
X152135Y-196326D01*
X152125Y-196378D01*
X152135Y-196430D01*
X152131Y-196483D01*
X152233Y-197254D01*
X152258Y-197328D01*
X152262Y-197354D01*
X152272Y-197378D01*
X152287Y-197456D01*
X152585Y-198174D01*
X152629Y-198240D01*
X152639Y-198264D01*
X152655Y-198285D01*
X152690Y-198356D01*
X153163Y-198973D01*
X153222Y-199025D01*
X153238Y-199046D01*
X153259Y-199061D01*
X153311Y-199121D01*
X153928Y-199594D01*
X153999Y-199629D01*
X154019Y-199645D01*
X154043Y-199655D01*
X154109Y-199699D01*
X154827Y-199996D01*
X154905Y-200012D01*
X154929Y-200022D01*
X154955Y-200025D01*
X155030Y-200051D01*
X155801Y-200152D01*
X155880Y-200147D01*
X155906Y-200150D01*
X155931Y-200147D01*
X156010Y-200152D01*
X156781Y-200051D01*
X156856Y-200025D01*
X156882Y-200022D01*
X156906Y-200012D01*
X156984Y-199996D01*
X157702Y-199699D01*
X157768Y-199655D01*
X157792Y-199645D01*
X157812Y-199629D01*
X157883Y-199594D01*
X158500Y-199121D01*
X158553Y-199061D01*
X158573Y-199046D01*
X158589Y-199025D01*
X158649Y-198973D01*
X159122Y-198356D01*
X159157Y-198285D01*
X159173Y-198264D01*
X159183Y-198240D01*
X159227Y-198174D01*
X159524Y-197456D01*
X159539Y-197378D01*
X159549Y-197354D01*
X159553Y-197328D01*
X159578Y-197254D01*
X159680Y-196483D01*
X159676Y-196430D01*
X159687Y-196378D01*
X159676Y-196326D01*
X159680Y-196273D01*
X159578Y-195502D01*
X159553Y-195428D01*
X159549Y-195402D01*
X159539Y-195378D01*
X159524Y-195300D01*
X159227Y-194582D01*
X159183Y-194516D01*
X159173Y-194492D01*
X159157Y-194471D01*
X159122Y-194400D01*
X158875Y-194079D01*
X159122Y-193579D01*
X160984D01*
X160984Y-193579D01*
X161444Y-193487D01*
X161835Y-193226D01*
X168012Y-187049D01*
X168539Y-187230D01*
X168646Y-187768D01*
X169081Y-188419D01*
X169732Y-188854D01*
X170500Y-189007D01*
X171268Y-188854D01*
X171919Y-188419D01*
X172063Y-188204D01*
X180500D01*
X180500Y-188204D01*
X180961Y-188113D01*
X181351Y-187852D01*
X183852Y-185352D01*
X183852Y-185352D01*
X184113Y-184961D01*
X184156Y-184744D01*
X185661D01*
X185926Y-185244D01*
D02*
G37*
G36*
X143473Y-76968D02*
X143534Y-77276D01*
X143708Y-77536D01*
X143799Y-77597D01*
X143831Y-77778D01*
X143799Y-78139D01*
X143795Y-78150D01*
X143555Y-78311D01*
X143334Y-78641D01*
X143256Y-79031D01*
Y-80016D01*
X145850D01*
Y-81984D01*
X143256D01*
Y-82401D01*
X143016Y-82796D01*
X142555Y-82887D01*
X142164Y-83148D01*
X142164Y-83148D01*
X140415Y-84898D01*
X138362D01*
X138055Y-84959D01*
X137795Y-85133D01*
X137620Y-85394D01*
X137559Y-85701D01*
Y-88317D01*
X137059Y-88585D01*
X136984Y-88534D01*
Y-90500D01*
X135016D01*
Y-88534D01*
X134941Y-88585D01*
X134441Y-88317D01*
Y-85701D01*
X134379Y-85394D01*
X134205Y-85133D01*
X133945Y-84959D01*
X133638Y-84898D01*
X130882D01*
X130575Y-84959D01*
X130314Y-85133D01*
X130140Y-85394D01*
X130079Y-85701D01*
Y-85796D01*
X129527D01*
Y-85031D01*
X129466Y-84724D01*
X129453Y-84704D01*
X129720Y-84204D01*
X139000D01*
X139000Y-84204D01*
X139461Y-84113D01*
X139851Y-83851D01*
X140584Y-83119D01*
X140584Y-83119D01*
X140845Y-82728D01*
X140937Y-82267D01*
Y-82102D01*
X141111D01*
X141418Y-82041D01*
X141678Y-81867D01*
X141852Y-81606D01*
X141913Y-81299D01*
Y-78150D01*
X141852Y-77842D01*
X141678Y-77582D01*
X141418Y-77408D01*
X141111Y-77347D01*
X138355D01*
X138063Y-77405D01*
X137768Y-77208D01*
X137378Y-77130D01*
X135280D01*
X135073Y-76630D01*
X135499Y-76204D01*
X143473D01*
Y-76968D01*
D02*
G37*
G36*
X71362Y-128642D02*
X70483Y-129006D01*
X69647Y-129647D01*
X69006Y-130483D01*
X68603Y-131456D01*
X68595Y-131516D01*
X72500D01*
Y-133484D01*
X68595D01*
X68603Y-133544D01*
X69006Y-134517D01*
X69647Y-135353D01*
X70458Y-135975D01*
X70497Y-136245D01*
Y-136255D01*
X70458Y-136525D01*
X69647Y-137147D01*
X69006Y-137983D01*
X68603Y-138956D01*
X68595Y-139016D01*
X72500D01*
Y-140984D01*
X68595D01*
X68603Y-141044D01*
X69006Y-142017D01*
X69647Y-142853D01*
X70458Y-143475D01*
X70497Y-143745D01*
Y-143755D01*
X70458Y-144025D01*
X69647Y-144647D01*
X69006Y-145483D01*
X68603Y-146456D01*
X68595Y-146516D01*
X72500D01*
Y-148484D01*
X68595D01*
X68603Y-148544D01*
X69006Y-149517D01*
X69647Y-150353D01*
X70458Y-150975D01*
X70497Y-151245D01*
Y-151255D01*
X70458Y-151525D01*
X69647Y-152147D01*
X69006Y-152983D01*
X68603Y-153956D01*
X68595Y-154016D01*
X72500D01*
Y-155984D01*
X68595D01*
X68603Y-156044D01*
X69006Y-157017D01*
X69647Y-157853D01*
X70483Y-158494D01*
X71456Y-158897D01*
X72238Y-159000D01*
X72205Y-159500D01*
X67001D01*
Y-142000D01*
Y-128200D01*
X67142Y-128142D01*
X71263D01*
X71362Y-128642D01*
D02*
G37*
G36*
X69268Y-85142D02*
X69006Y-85483D01*
X68603Y-86456D01*
X68595Y-86516D01*
X72500D01*
Y-88484D01*
X68595D01*
X68603Y-88544D01*
X69006Y-89517D01*
X69647Y-90353D01*
X70458Y-90975D01*
X70497Y-91245D01*
Y-91255D01*
X70458Y-91525D01*
X69647Y-92147D01*
X69006Y-92983D01*
X68603Y-93956D01*
X68595Y-94016D01*
X72500D01*
Y-95984D01*
X68595D01*
X68603Y-96044D01*
X69006Y-97017D01*
X69647Y-97853D01*
X70458Y-98475D01*
X70497Y-98745D01*
Y-98755D01*
X70458Y-99025D01*
X69647Y-99647D01*
X69006Y-100483D01*
X68603Y-101456D01*
X68595Y-101516D01*
X72500D01*
Y-103484D01*
X68595D01*
X68603Y-103544D01*
X69006Y-104517D01*
X69647Y-105353D01*
X70458Y-105975D01*
X70497Y-106245D01*
Y-106255D01*
X70458Y-106525D01*
X69647Y-107147D01*
X69006Y-107983D01*
X68603Y-108956D01*
X68595Y-109016D01*
X72500D01*
Y-110000D01*
X73484D01*
Y-113905D01*
X73544Y-113897D01*
X74100Y-113667D01*
X74516Y-113945D01*
Y-116000D01*
X66503D01*
Y-108592D01*
X66500Y-108579D01*
Y-98500D01*
Y-97248D01*
X66503Y-97234D01*
Y-84699D01*
X66642Y-84642D01*
X69021D01*
X69268Y-85142D01*
D02*
G37*
G36*
X144215Y-105876D02*
X144537Y-106278D01*
X144493Y-106500D01*
X144543Y-106754D01*
X143649Y-107649D01*
X143387Y-108039D01*
X143296Y-108500D01*
X143296Y-108500D01*
Y-116937D01*
X143081Y-117081D01*
X142646Y-117732D01*
X142493Y-118500D01*
X142646Y-119268D01*
X142809Y-119512D01*
X142802Y-119617D01*
X142569Y-120053D01*
X142385Y-120089D01*
X142055Y-120310D01*
X141834Y-120641D01*
X141756Y-121031D01*
Y-121660D01*
X141484Y-121805D01*
Y-124000D01*
X140500D01*
Y-124984D01*
X138534D01*
X138743Y-125296D01*
X138500Y-125796D01*
X138039Y-125887D01*
X137892Y-125986D01*
X137392Y-125719D01*
Y-121991D01*
X138539Y-120843D01*
X138800Y-120453D01*
X138892Y-119992D01*
X138892Y-119992D01*
Y-112626D01*
X138892Y-112626D01*
X138800Y-112165D01*
X138539Y-111775D01*
X138539Y-111775D01*
X135913Y-109149D01*
X135600Y-108939D01*
X135226Y-108598D01*
X135287Y-108291D01*
Y-106590D01*
X135296Y-106579D01*
X142484D01*
X142484Y-106579D01*
X142945Y-106487D01*
X143335Y-106226D01*
X143705Y-105857D01*
X144215Y-105876D01*
D02*
G37*
G36*
X150318Y-157679D02*
X150561Y-157841D01*
X150646Y-158268D01*
X151081Y-158919D01*
X151296Y-159063D01*
Y-160229D01*
X150575D01*
X150268Y-160290D01*
X150007Y-160464D01*
X149833Y-160724D01*
X149772Y-161031D01*
Y-164969D01*
X149833Y-165276D01*
X150007Y-165536D01*
X150268Y-165710D01*
X150443Y-165745D01*
Y-166255D01*
X150268Y-166290D01*
X150007Y-166464D01*
X149833Y-166724D01*
X149772Y-167032D01*
Y-170968D01*
X149833Y-171276D01*
X150007Y-171536D01*
X150268Y-171710D01*
X150443Y-171745D01*
Y-172255D01*
X150268Y-172290D01*
X150007Y-172464D01*
X149833Y-172724D01*
X149772Y-173031D01*
Y-176969D01*
X149833Y-177276D01*
X150007Y-177536D01*
X150268Y-177710D01*
X150443Y-177745D01*
Y-178255D01*
X150268Y-178290D01*
X150007Y-178464D01*
X149833Y-178724D01*
X149772Y-179032D01*
Y-182968D01*
X149833Y-183276D01*
X149896Y-183370D01*
X149581Y-183581D01*
X149146Y-184232D01*
X148993Y-185000D01*
X149146Y-185768D01*
X149581Y-186419D01*
X150232Y-186854D01*
X151000Y-187007D01*
X151768Y-186854D01*
X152419Y-186419D01*
X152854Y-185768D01*
X152857Y-185755D01*
X153367Y-185755D01*
X153413Y-185986D01*
X153674Y-186377D01*
X154586Y-187289D01*
X154977Y-187550D01*
X155438Y-187642D01*
X158562D01*
X158562Y-187642D01*
X159023Y-187550D01*
X159414Y-187289D01*
X159746Y-186957D01*
X160000Y-187007D01*
X160728Y-186862D01*
X160757Y-186885D01*
X160874Y-187423D01*
X159501Y-188796D01*
X148642D01*
X148642Y-188796D01*
X148181Y-188887D01*
X147790Y-189148D01*
X147790Y-189148D01*
X146018Y-190921D01*
X137068D01*
X136917Y-190421D01*
X136919Y-190419D01*
X137354Y-189768D01*
X137507Y-189000D01*
X137354Y-188232D01*
X136919Y-187581D01*
X136268Y-187146D01*
X135500Y-186993D01*
X134732Y-187146D01*
X134298Y-187436D01*
X133886Y-187110D01*
X134007Y-186500D01*
X133854Y-185732D01*
X134150Y-185294D01*
X134232Y-185241D01*
X134622Y-185319D01*
X135016D01*
Y-182724D01*
X136984D01*
Y-185319D01*
X137378D01*
X137768Y-185241D01*
X138063Y-185044D01*
X138355Y-185102D01*
X141111D01*
X141418Y-185041D01*
X141678Y-184867D01*
X141852Y-184606D01*
X141913Y-184299D01*
Y-181150D01*
X141852Y-180842D01*
X141678Y-180582D01*
X141418Y-180408D01*
X141381Y-180400D01*
X140937Y-180233D01*
X140845Y-179772D01*
X140584Y-179381D01*
X140584Y-179381D01*
X138851Y-177648D01*
X138461Y-177387D01*
X138000Y-177296D01*
X138000Y-177296D01*
X128563D01*
X128419Y-177081D01*
X127768Y-176646D01*
X127000Y-176493D01*
X126232Y-176646D01*
X125704Y-176998D01*
X125204Y-176813D01*
Y-176207D01*
X125575Y-175771D01*
X128724D01*
X129032Y-175710D01*
X129292Y-175536D01*
X129466Y-175276D01*
X129527Y-174969D01*
Y-174204D01*
X130079D01*
Y-174850D01*
X130140Y-175158D01*
X130314Y-175418D01*
X130575Y-175592D01*
X130882Y-175653D01*
X133638D01*
X133945Y-175592D01*
X134205Y-175418D01*
X134379Y-175158D01*
X134441Y-174850D01*
Y-171701D01*
X134379Y-171394D01*
X134205Y-171133D01*
X133945Y-170959D01*
X133638Y-170898D01*
X130882D01*
X130575Y-170959D01*
X130314Y-171133D01*
X130140Y-171394D01*
X130079Y-171701D01*
Y-171796D01*
X129527D01*
Y-171031D01*
X129466Y-170724D01*
X129292Y-170464D01*
X129276Y-170385D01*
X129354Y-170268D01*
X129507Y-169500D01*
X129354Y-168732D01*
X128919Y-168081D01*
X128268Y-167646D01*
X128071Y-167606D01*
X127700Y-167023D01*
X127704Y-167000D01*
Y-166563D01*
X127919Y-166419D01*
X128354Y-165768D01*
X128507Y-165000D01*
X128354Y-164232D01*
X127919Y-163581D01*
X127268Y-163146D01*
X126830Y-163058D01*
X126683Y-162520D01*
X127374Y-161829D01*
X127613Y-161782D01*
X128003Y-161520D01*
X130157Y-159367D01*
X135892D01*
X136221Y-159587D01*
X136682Y-159679D01*
X136682Y-159679D01*
X142318D01*
X142318Y-159679D01*
X142779Y-159587D01*
X143153Y-159337D01*
X143179Y-159338D01*
X143217Y-159347D01*
X143664Y-159539D01*
X143787Y-160155D01*
X143555Y-160310D01*
X143334Y-160641D01*
X143256Y-161031D01*
Y-162016D01*
X145850D01*
X148445D01*
Y-161031D01*
X148367Y-160641D01*
X148162Y-160335D01*
X145850D01*
Y-158366D01*
X147816D01*
X147691Y-158179D01*
X147958Y-157679D01*
X150318D01*
X150318Y-157679D01*
D02*
G37*
G36*
X50099Y-126396D02*
Y-132331D01*
X58410D01*
Y-133315D01*
X59394D01*
Y-141625D01*
X65329D01*
X65500Y-141766D01*
Y-150061D01*
X65329Y-150202D01*
X59394D01*
Y-158512D01*
X58410D01*
Y-159496D01*
X50099D01*
Y-165295D01*
X49771Y-165795D01*
X40786Y-165795D01*
X40730Y-165726D01*
Y-146898D01*
X35932D01*
Y-165295D01*
X35460Y-165795D01*
X24795D01*
X12500Y-153500D01*
X4000Y-153500D01*
Y-137000D01*
X8000D01*
X14500Y-137000D01*
X25469Y-126032D01*
X35180Y-126031D01*
X35875D01*
X35932Y-126100D01*
Y-144929D01*
X40730D01*
Y-126100D01*
X40786Y-126031D01*
X49800D01*
X50099Y-126396D01*
D02*
G37*
G36*
X203552Y-110704D02*
X203493Y-111000D01*
X203614Y-111610D01*
X203202Y-111936D01*
X202768Y-111646D01*
X202000Y-111493D01*
X201232Y-111646D01*
X200581Y-112081D01*
X200146Y-112732D01*
X199993Y-113500D01*
X200146Y-114268D01*
X200581Y-114919D01*
X201232Y-115354D01*
X202000Y-115507D01*
X202358Y-115436D01*
X202921Y-115999D01*
Y-117641D01*
X202421Y-117885D01*
X202355Y-117841D01*
X202047Y-117780D01*
X194370D01*
X194063Y-117841D01*
X193871Y-117969D01*
X192827D01*
X192827Y-117969D01*
X192366Y-118061D01*
X191975Y-118322D01*
X191975Y-118322D01*
X187648Y-122649D01*
X187387Y-123039D01*
X187296Y-123500D01*
X187296Y-123500D01*
Y-124446D01*
X186796Y-124616D01*
X186617Y-124383D01*
X185997Y-123907D01*
X185484Y-123695D01*
Y-126500D01*
Y-129305D01*
X185997Y-129093D01*
X186617Y-128617D01*
X186796Y-128384D01*
X187296Y-128554D01*
Y-137317D01*
X186649Y-137445D01*
X185927Y-137927D01*
X185899Y-137970D01*
X185401Y-138019D01*
X183343Y-135961D01*
X182953Y-135700D01*
X182492Y-135608D01*
X182492Y-135608D01*
X175508D01*
X175508Y-135608D01*
X175047Y-135700D01*
X174657Y-135961D01*
X174657Y-135961D01*
X172081Y-138537D01*
X171603Y-138391D01*
X171555Y-138149D01*
X171072Y-137427D01*
X170484Y-137034D01*
Y-139000D01*
X169500D01*
Y-139984D01*
X167534D01*
X167617Y-140108D01*
X167350Y-140608D01*
X166433D01*
Y-140236D01*
X166404Y-140091D01*
X166570Y-139842D01*
X166314D01*
X166198Y-139668D01*
X165937Y-139494D01*
X165630Y-139433D01*
X161791D01*
Y-138283D01*
X165630D01*
X165937Y-138222D01*
X166198Y-138048D01*
X166314Y-137874D01*
X166569D01*
X166404Y-137626D01*
X166433Y-137480D01*
Y-136299D01*
X166372Y-135992D01*
X166314Y-135906D01*
X166372Y-135819D01*
X166433Y-135512D01*
Y-134331D01*
X166372Y-134023D01*
X166314Y-133937D01*
X166372Y-133851D01*
X166433Y-133543D01*
Y-132362D01*
X166372Y-132055D01*
X166314Y-131968D01*
X166372Y-131882D01*
X166433Y-131575D01*
Y-130394D01*
X166372Y-130087D01*
X166314Y-130000D01*
X166372Y-129913D01*
X166433Y-129606D01*
Y-128425D01*
X166372Y-128118D01*
X166314Y-128032D01*
X166372Y-127945D01*
X166433Y-127638D01*
Y-126457D01*
X166372Y-126149D01*
X166314Y-126063D01*
X166372Y-125977D01*
X166433Y-125669D01*
Y-124488D01*
X166372Y-124181D01*
X166324Y-124109D01*
X166339Y-124057D01*
X166372Y-124008D01*
X166414Y-123797D01*
X166460Y-123636D01*
X166895Y-123456D01*
X171290Y-127851D01*
X171594Y-128055D01*
X171681Y-128113D01*
X171545Y-128577D01*
X171775Y-128608D01*
X171929Y-128672D01*
X172070Y-128207D01*
X172142Y-128204D01*
X172155Y-128204D01*
X174437D01*
X174581Y-128419D01*
X175232Y-128854D01*
X176000Y-129007D01*
X176768Y-128854D01*
X177419Y-128419D01*
X177854Y-127768D01*
X178007Y-127000D01*
X177854Y-126232D01*
X177419Y-125581D01*
X176768Y-125146D01*
X176000Y-124993D01*
X175232Y-125146D01*
X174581Y-125581D01*
X174437Y-125796D01*
X172640D01*
X168003Y-121158D01*
Y-119413D01*
X168503Y-119206D01*
X171649Y-122352D01*
X171649Y-122352D01*
X172039Y-122613D01*
X172500Y-122704D01*
X174437D01*
X174581Y-122919D01*
X175232Y-123354D01*
X176000Y-123507D01*
X176768Y-123354D01*
X177419Y-122919D01*
X177854Y-122268D01*
X178007Y-121500D01*
X177854Y-120732D01*
X177419Y-120081D01*
X176768Y-119646D01*
X176000Y-119493D01*
X175584Y-119576D01*
X175158Y-119151D01*
X175224Y-118821D01*
X175055Y-117970D01*
X174573Y-117248D01*
X174408Y-117138D01*
X174352Y-116499D01*
X174376Y-116476D01*
X174488Y-116433D01*
X175669D01*
X175977Y-116372D01*
X176063Y-116314D01*
X176149Y-116372D01*
X176457Y-116433D01*
X177638D01*
X177945Y-116372D01*
X178032Y-116314D01*
X178118Y-116372D01*
X178425Y-116433D01*
X179606D01*
X179780Y-116575D01*
Y-116984D01*
X179780Y-116984D01*
X179872Y-117445D01*
X180133Y-117836D01*
X180799Y-118502D01*
X180646Y-118732D01*
X180493Y-119500D01*
X180646Y-120268D01*
X181081Y-120919D01*
X181732Y-121354D01*
X182500Y-121507D01*
X183268Y-121354D01*
X183919Y-120919D01*
X184354Y-120268D01*
X184507Y-119500D01*
X184354Y-118732D01*
X183919Y-118081D01*
X183415Y-117744D01*
X183352Y-117648D01*
X183352Y-117648D01*
X182636Y-116933D01*
X182843Y-116433D01*
X183543D01*
X183851Y-116372D01*
X183937Y-116314D01*
X184023Y-116372D01*
X184331Y-116433D01*
X185512D01*
X185819Y-116372D01*
X185906Y-116314D01*
X185992Y-116372D01*
X186299Y-116433D01*
X187480D01*
X187787Y-116372D01*
X187874Y-116314D01*
X187961Y-116372D01*
X188268Y-116433D01*
X189449D01*
X189756Y-116372D01*
X189842Y-116314D01*
X189929Y-116372D01*
X190236Y-116433D01*
X191417D01*
X191725Y-116372D01*
X191985Y-116198D01*
X192159Y-115937D01*
X192220Y-115630D01*
Y-110204D01*
X203141D01*
X203552Y-110704D01*
D02*
G37*
G36*
X163057Y-106825D02*
X163146Y-107268D01*
X163581Y-107919D01*
X164232Y-108354D01*
X164645Y-108437D01*
X164751Y-108967D01*
X164581Y-109081D01*
X164146Y-109732D01*
X163993Y-110500D01*
X164146Y-111268D01*
X164581Y-111919D01*
X165232Y-112354D01*
X166000Y-112507D01*
X166768Y-112354D01*
X167331Y-111978D01*
X167715Y-112178D01*
X167780Y-112234D01*
Y-115630D01*
X167841Y-115937D01*
X167969Y-116129D01*
Y-116738D01*
X167469Y-116945D01*
X166172Y-115648D01*
X165782Y-115387D01*
X165321Y-115296D01*
X165321Y-115296D01*
X161563D01*
X161419Y-115081D01*
X160768Y-114646D01*
X160000Y-114493D01*
X159705Y-114552D01*
X159224Y-114500D01*
X159162Y-114189D01*
X159055Y-113649D01*
X158572Y-112927D01*
X157851Y-112445D01*
X157506Y-112377D01*
X157341Y-111834D01*
X162515Y-106660D01*
X163057Y-106825D01*
D02*
G37*
G36*
X130079Y-138957D02*
Y-141299D01*
X130140Y-141606D01*
X130314Y-141867D01*
X130575Y-142041D01*
X130882Y-142102D01*
X133638D01*
X133935Y-142043D01*
X134232Y-142241D01*
X134622Y-142319D01*
X135016D01*
Y-139724D01*
X136984D01*
Y-142319D01*
X137320D01*
X137471Y-142483D01*
X137637Y-142777D01*
X137493Y-143500D01*
X137646Y-144268D01*
X138081Y-144919D01*
X138732Y-145354D01*
X139500Y-145507D01*
X140268Y-145354D01*
X140919Y-144919D01*
X141354Y-144268D01*
X141466Y-143708D01*
X141997Y-143603D01*
X142055Y-143690D01*
X142385Y-143911D01*
X142529Y-144449D01*
X142385Y-144665D01*
X144350D01*
Y-146634D01*
X141904D01*
X141861Y-146682D01*
X141763Y-146662D01*
X140995Y-146815D01*
X140344Y-147250D01*
X140088Y-147632D01*
X139873Y-147776D01*
X139636Y-147756D01*
X139288Y-147633D01*
X138919Y-147081D01*
X138268Y-146646D01*
X137500Y-146493D01*
X136732Y-146646D01*
X136392Y-146873D01*
X135854Y-146732D01*
X135419Y-146081D01*
X134768Y-145646D01*
X134000Y-145493D01*
X133232Y-145646D01*
X132581Y-146081D01*
X132146Y-146732D01*
X131993Y-147500D01*
X132043Y-147754D01*
X131544Y-148252D01*
X124921D01*
X124859Y-148169D01*
X124735Y-147752D01*
X124850Y-147637D01*
X125242Y-147051D01*
X125362Y-146761D01*
Y-146761D01*
X125499Y-146070D01*
X125499Y-146070D01*
Y-145991D01*
X125504Y-145969D01*
X125852Y-145716D01*
X125894Y-145701D01*
X125984Y-145688D01*
X126232Y-145854D01*
X127000Y-146007D01*
X127768Y-145854D01*
X128419Y-145419D01*
X128854Y-144768D01*
X129007Y-144000D01*
X128854Y-143232D01*
X128419Y-142581D01*
X127892Y-142228D01*
Y-140491D01*
X129617Y-138765D01*
X130079Y-138957D01*
D02*
G37*
G36*
X129868Y-15868D02*
X129802Y-15949D01*
X129180Y-17111D01*
X128798Y-18373D01*
X128668Y-19685D01*
X128798Y-20997D01*
X129180Y-22259D01*
X129802Y-23421D01*
X130638Y-24441D01*
X131657Y-25277D01*
X132820Y-25898D01*
X134082Y-26281D01*
X135394Y-26410D01*
X136706Y-26281D01*
X137967Y-25898D01*
X139130Y-25277D01*
X139211Y-25211D01*
X151000Y-37000D01*
Y-41766D01*
X150748Y-41973D01*
X146811D01*
Y-45945D01*
X145827D01*
Y-46929D01*
X139886D01*
Y-48898D01*
X139802Y-49000D01*
X136104D01*
X136020Y-48898D01*
Y-46929D01*
X130079D01*
X124138D01*
Y-48898D01*
X124054Y-49000D01*
X120356D01*
X120272Y-48898D01*
Y-46929D01*
X114331D01*
Y-45945D01*
X113347D01*
Y-41973D01*
X109409D01*
X109019Y-42050D01*
X108688Y-42271D01*
X108309Y-42309D01*
X106631Y-40631D01*
X106613Y-40539D01*
X106351Y-40148D01*
X106351Y-40148D01*
X103551Y-37348D01*
X103160Y-37087D01*
X103068Y-37068D01*
X103000Y-37000D01*
X102725D01*
X102699Y-36995D01*
X102699Y-36995D01*
X40000D01*
Y-24356D01*
X40471Y-24188D01*
X40802Y-24592D01*
X41854Y-25455D01*
X43053Y-26096D01*
X44355Y-26491D01*
X44725Y-26527D01*
Y-19685D01*
X45709D01*
Y-18701D01*
X52551D01*
X52514Y-18331D01*
X52119Y-17030D01*
X51478Y-15830D01*
X50615Y-14778D01*
X49564Y-13916D01*
X48786Y-13500D01*
X48911Y-13000D01*
X127000D01*
X129868Y-15868D01*
D02*
G37*
G36*
X90591Y-128142D02*
Y-130307D01*
X97909D01*
Y-131291D01*
X98894D01*
Y-135461D01*
X104113D01*
Y-141331D01*
X103944Y-141500D01*
X88001D01*
Y-141500D01*
X87510Y-141477D01*
X87328Y-141155D01*
X87496Y-140799D01*
X87501Y-140792D01*
X87579Y-140402D01*
Y-139811D01*
X81047D01*
Y-137843D01*
X87579D01*
Y-137252D01*
X87501Y-136862D01*
X87496Y-136855D01*
X87312Y-136465D01*
X87496Y-136074D01*
X87501Y-136067D01*
X87579Y-135677D01*
Y-135087D01*
X81047D01*
Y-133118D01*
X87579D01*
Y-132528D01*
X87501Y-132137D01*
X87280Y-131807D01*
Y-131674D01*
X87501Y-131343D01*
X87579Y-130953D01*
Y-130362D01*
X81047D01*
Y-128394D01*
X87579D01*
Y-128142D01*
X90591D01*
X90591Y-128142D01*
D02*
G37*
G36*
X315000Y-136792D02*
X232705D01*
X232321Y-136868D01*
X231995Y-137086D01*
X225123Y-143958D01*
X224662Y-143711D01*
X224704Y-143500D01*
Y-134129D01*
X224747Y-134061D01*
X225204Y-133757D01*
X225276Y-133771D01*
X228425D01*
X228732Y-133710D01*
X228993Y-133536D01*
X229167Y-133276D01*
X229228Y-132968D01*
Y-129032D01*
X229167Y-128724D01*
X228993Y-128464D01*
X228732Y-128290D01*
X228425Y-128229D01*
X228204D01*
Y-127063D01*
X228419Y-126919D01*
X228854Y-126268D01*
X229007Y-125500D01*
X228854Y-124732D01*
X228538Y-124259D01*
X228693Y-123753D01*
X228728Y-123711D01*
X228732Y-123710D01*
X228993Y-123536D01*
X229167Y-123276D01*
X229228Y-122968D01*
Y-119032D01*
X229167Y-118724D01*
X228993Y-118464D01*
X228732Y-118290D01*
X228425Y-118229D01*
X225276D01*
X224968Y-118290D01*
X224708Y-118464D01*
X224534Y-118724D01*
X224473Y-119032D01*
Y-121675D01*
X223568Y-122579D01*
X223106Y-122388D01*
Y-119370D01*
X223029Y-118980D01*
X222901Y-118789D01*
X222924Y-118172D01*
X223073Y-118072D01*
X223465Y-117484D01*
X221500D01*
Y-115516D01*
X223465D01*
X223073Y-114927D01*
X222351Y-114445D01*
X221500Y-114276D01*
X221130Y-114350D01*
X220967Y-114216D01*
X220722Y-113921D01*
X220666Y-113641D01*
X220445Y-113311D01*
X220115Y-113090D01*
X219724Y-113012D01*
X219134D01*
Y-116000D01*
X218150D01*
Y-116984D01*
X215555D01*
Y-117968D01*
X215633Y-118359D01*
X215854Y-118690D01*
X216107Y-118859D01*
X216027Y-118980D01*
X215949Y-119370D01*
Y-121535D01*
X219528D01*
Y-122520D01*
X220512D01*
Y-126689D01*
X222087D01*
X222296Y-126860D01*
Y-133356D01*
X222087Y-133528D01*
X217278D01*
X215852Y-132101D01*
X215461Y-131840D01*
X215000Y-131748D01*
X215000Y-131748D01*
X205076D01*
X204885Y-131287D01*
X209699Y-126472D01*
X213031D01*
X213339Y-126411D01*
X213599Y-126237D01*
X213773Y-125977D01*
X213834Y-125669D01*
Y-119370D01*
X213773Y-119063D01*
X213733Y-118712D01*
X213982Y-118544D01*
X213993Y-118536D01*
X214167Y-118276D01*
X214228Y-117968D01*
Y-114032D01*
X214167Y-113724D01*
X213993Y-113464D01*
X213732Y-113290D01*
X213425Y-113229D01*
X210276D01*
X209968Y-113290D01*
X209708Y-113464D01*
X209534Y-113724D01*
X209473Y-114032D01*
Y-117968D01*
X209492Y-118067D01*
X209212Y-118507D01*
X209127Y-118567D01*
X207913D01*
X207606Y-118628D01*
X207346Y-118802D01*
X207172Y-119063D01*
X207111Y-119370D01*
Y-124107D01*
X206610Y-124374D01*
X206268Y-124146D01*
X205500Y-123993D01*
X205173Y-124058D01*
X204927Y-123597D01*
X206164Y-122360D01*
X206164Y-122360D01*
X206425Y-121969D01*
X206517Y-121508D01*
Y-112688D01*
X206919Y-112419D01*
X207354Y-111768D01*
X207507Y-111000D01*
X207448Y-110704D01*
X207859Y-110204D01*
X212133D01*
X212146Y-110268D01*
X212581Y-110919D01*
X213232Y-111354D01*
X214000Y-111507D01*
X214768Y-111354D01*
X215419Y-110919D01*
X215854Y-110268D01*
X216007Y-109500D01*
X215854Y-108732D01*
X215419Y-108081D01*
X214917Y-107745D01*
X214858Y-107272D01*
X214883Y-107167D01*
X214949Y-107123D01*
X215170Y-106792D01*
X215248Y-106402D01*
Y-104984D01*
X212437D01*
X209626D01*
Y-106402D01*
X209704Y-106792D01*
X209925Y-107123D01*
X210184Y-107296D01*
X210170Y-107592D01*
X210101Y-107796D01*
X196532D01*
X196296Y-107355D01*
X196354Y-107268D01*
X196507Y-106500D01*
X196983Y-106474D01*
X197030Y-106709D01*
X197204Y-106969D01*
X197464Y-107143D01*
X197772Y-107204D01*
X201354D01*
X201662Y-107143D01*
X201922Y-106969D01*
X202096Y-106709D01*
X202157Y-106402D01*
Y-101598D01*
X202096Y-101291D01*
X202064Y-101244D01*
X202324Y-100744D01*
X203969D01*
X204359Y-100666D01*
X204690Y-100445D01*
X204910Y-100115D01*
X204988Y-99724D01*
Y-99134D01*
X199012D01*
Y-99724D01*
X199090Y-100115D01*
X199211Y-100296D01*
X199015Y-100767D01*
X198989Y-100796D01*
X197772D01*
X197464Y-100857D01*
X197204Y-101031D01*
X197030Y-101291D01*
X196969Y-101598D01*
Y-102796D01*
X193357D01*
X190263Y-99702D01*
X190455Y-99240D01*
X192220D01*
Y-96055D01*
X193205D01*
Y-95071D01*
X198457D01*
Y-93890D01*
X198390Y-93555D01*
X198416Y-93445D01*
X198683Y-93055D01*
X199229D01*
Y-93425D01*
X199290Y-93732D01*
X199464Y-93993D01*
X199724Y-94167D01*
X200031Y-94228D01*
X203969D01*
X204276Y-94167D01*
X204536Y-93993D01*
X204710Y-93732D01*
X204771Y-93425D01*
Y-93055D01*
X206638D01*
X206638Y-93055D01*
X207099Y-92963D01*
X207489Y-92702D01*
X210538Y-89653D01*
X215543D01*
X215850Y-89592D01*
X216111Y-89418D01*
X216285Y-89158D01*
X216296Y-89104D01*
X216796Y-89153D01*
Y-94324D01*
X216296Y-94476D01*
X216264Y-94429D01*
X215933Y-94208D01*
X215543Y-94130D01*
X214424D01*
X214329Y-93984D01*
X209671D01*
X209576Y-94130D01*
X208457D01*
X208067Y-94208D01*
X207736Y-94429D01*
X207515Y-94759D01*
X207437Y-95150D01*
Y-96528D01*
X212000D01*
Y-98496D01*
X207437D01*
Y-99874D01*
X207515Y-100264D01*
X207736Y-100595D01*
X208067Y-100816D01*
X208457Y-100894D01*
X209358D01*
X209667Y-101394D01*
X209626Y-101598D01*
Y-103016D01*
X212437D01*
X215248D01*
Y-101598D01*
X215207Y-101394D01*
X215516Y-100894D01*
X215543D01*
X215933Y-100816D01*
X216264Y-100595D01*
X216485Y-100264D01*
X216563Y-99874D01*
Y-97005D01*
X217063Y-96853D01*
X217148Y-96981D01*
X218516Y-98349D01*
Y-100992D01*
X218577Y-101299D01*
X218751Y-101560D01*
X219012Y-101734D01*
X219319Y-101795D01*
X221681D01*
X221988Y-101734D01*
X222249Y-101560D01*
X222423Y-101299D01*
X222484Y-100992D01*
Y-96268D01*
X222423Y-95960D01*
X222249Y-95700D01*
X221988Y-95526D01*
X221681Y-95465D01*
X221503D01*
X221351Y-94965D01*
X221419Y-94919D01*
X221854Y-94268D01*
X222007Y-93500D01*
X221854Y-92732D01*
X221419Y-92081D01*
X220768Y-91646D01*
X220000Y-91493D01*
X219704Y-91552D01*
X219204Y-91141D01*
Y-80629D01*
X219319Y-80535D01*
X221681D01*
X221988Y-80474D01*
X222249Y-80300D01*
X222423Y-80040D01*
X222484Y-79732D01*
Y-75008D01*
X222423Y-74701D01*
X222249Y-74440D01*
X222318Y-73885D01*
X222999Y-73204D01*
X231157D01*
X231157Y-73204D01*
X231618Y-73113D01*
X232009Y-72852D01*
X234434Y-70426D01*
X234668Y-70450D01*
X234929Y-70624D01*
X235236Y-70685D01*
X239280D01*
X239281Y-70685D01*
X240000Y-70780D01*
X240719Y-70685D01*
X240720Y-70685D01*
X240774D01*
X241796Y-71706D01*
Y-73473D01*
X241032D01*
X240724Y-73534D01*
X240464Y-73708D01*
X240290Y-73968D01*
X240229Y-74276D01*
Y-77425D01*
X240290Y-77732D01*
X240464Y-77993D01*
X240724Y-78167D01*
X241032Y-78228D01*
X244969D01*
X245276Y-78167D01*
X245536Y-77993D01*
X245710Y-77732D01*
X245771Y-77425D01*
Y-76335D01*
X246233Y-76144D01*
X247078Y-76989D01*
X246956Y-77574D01*
X246427Y-77928D01*
X245945Y-78649D01*
X245810Y-79333D01*
X245431Y-79585D01*
X245290Y-79619D01*
X244969Y-79555D01*
X243984D01*
Y-82150D01*
Y-84744D01*
X244969D01*
X245359Y-84666D01*
X245690Y-84445D01*
X245911Y-84115D01*
X245988Y-83724D01*
Y-81315D01*
X246229Y-81182D01*
X246488Y-81113D01*
X247016Y-81466D01*
Y-79500D01*
X248984D01*
Y-81466D01*
X249572Y-81072D01*
X249682Y-80909D01*
X250181Y-80893D01*
X250299Y-81046D01*
X261921Y-92668D01*
X262702Y-93267D01*
X263612Y-93644D01*
X264588Y-93772D01*
X270462D01*
X270503Y-93800D01*
X271228Y-93944D01*
Y-109627D01*
X270728Y-109659D01*
X270644Y-109024D01*
X270267Y-108114D01*
X269668Y-107333D01*
X268886Y-106733D01*
X267976Y-106356D01*
X267000Y-106228D01*
X266024Y-106356D01*
X265114Y-106733D01*
X264333Y-107333D01*
X263733Y-108114D01*
X263700Y-108194D01*
X254332D01*
X254316Y-108118D01*
X254142Y-107858D01*
X253882Y-107684D01*
X253575Y-107622D01*
X250425D01*
X250118Y-107684D01*
X249857Y-107858D01*
X249683Y-108118D01*
X249622Y-108425D01*
Y-111575D01*
X249683Y-111882D01*
X249857Y-112143D01*
X250118Y-112317D01*
X250425Y-112378D01*
X253575D01*
X253882Y-112317D01*
X254142Y-112143D01*
X254316Y-111882D01*
X254332Y-111806D01*
X263700D01*
X263733Y-111886D01*
X264333Y-112668D01*
X265114Y-113267D01*
X266024Y-113644D01*
X267000Y-113772D01*
X267976Y-113644D01*
X268886Y-113267D01*
X269668Y-112668D01*
X270267Y-111886D01*
X270644Y-110976D01*
X270728Y-110341D01*
X271228Y-110373D01*
Y-114437D01*
X269437Y-116228D01*
X267000D01*
X266024Y-116356D01*
X265114Y-116733D01*
X264333Y-117332D01*
X263733Y-118114D01*
X263356Y-119024D01*
X263228Y-120000D01*
X263356Y-120976D01*
X263733Y-121886D01*
X264333Y-122668D01*
X265114Y-123267D01*
X266024Y-123644D01*
X267000Y-123772D01*
X271000D01*
X271976Y-123644D01*
X272886Y-123267D01*
X273668Y-122668D01*
X277667Y-118667D01*
X278267Y-117886D01*
X278644Y-116976D01*
X278772Y-116000D01*
Y-93772D01*
X302462D01*
X302503Y-93800D01*
X303425Y-93983D01*
X306575D01*
X307497Y-93800D01*
X308278Y-93278D01*
X308800Y-92497D01*
X308983Y-91575D01*
Y-88425D01*
X308800Y-87503D01*
X308278Y-86722D01*
X307497Y-86200D01*
X306575Y-86017D01*
X303425D01*
X302503Y-86200D01*
X302462Y-86228D01*
X275538D01*
X275497Y-86200D01*
X274575Y-86017D01*
X271425D01*
X270503Y-86200D01*
X270462Y-86228D01*
X266151D01*
X256628Y-76705D01*
X256610Y-76565D01*
X256233Y-75656D01*
X255634Y-74874D01*
X252730Y-71971D01*
X252895Y-71429D01*
X253268Y-71354D01*
X253919Y-70919D01*
X254354Y-70268D01*
X254507Y-69500D01*
X254354Y-68732D01*
X253919Y-68081D01*
X253268Y-67646D01*
X253204Y-67633D01*
Y-49587D01*
X253475Y-49444D01*
X253704Y-49407D01*
X256296Y-51999D01*
Y-68937D01*
X256081Y-69081D01*
X255646Y-69732D01*
X255493Y-70500D01*
X255646Y-71268D01*
X256081Y-71919D01*
X256732Y-72354D01*
X257500Y-72507D01*
X258268Y-72354D01*
X258919Y-71919D01*
X259354Y-71268D01*
X259507Y-70500D01*
X259354Y-69732D01*
X258919Y-69081D01*
X258704Y-68937D01*
Y-56219D01*
X259168Y-55958D01*
X259204Y-55964D01*
X259405Y-56264D01*
X259736Y-56485D01*
X260126Y-56563D01*
X261504D01*
Y-52000D01*
Y-47437D01*
X260126D01*
X259736Y-47515D01*
X259405Y-47736D01*
X259184Y-48066D01*
X259106Y-48457D01*
Y-50959D01*
X258613Y-51039D01*
X258351Y-50648D01*
X256297Y-48594D01*
X256543Y-48133D01*
X257000Y-48224D01*
X257851Y-48055D01*
X258573Y-47572D01*
X258965Y-46984D01*
X257000D01*
Y-45016D01*
X258965D01*
X258573Y-44427D01*
X257851Y-43945D01*
X257112Y-43798D01*
X256873Y-43330D01*
X261849Y-38354D01*
X277229D01*
Y-38724D01*
X277290Y-39032D01*
X277464Y-39292D01*
X277724Y-39466D01*
X278031Y-39527D01*
X281968D01*
X282276Y-39466D01*
X282536Y-39292D01*
X282710Y-39032D01*
X282771Y-38724D01*
Y-35575D01*
X282710Y-35268D01*
X282536Y-35007D01*
X282276Y-34833D01*
X281968Y-34772D01*
X278031D01*
X277724Y-34833D01*
X277464Y-35007D01*
X277290Y-35268D01*
X277229Y-35575D01*
Y-35945D01*
X263232D01*
X263040Y-35483D01*
X280399Y-18125D01*
X280461Y-18113D01*
X280852Y-17852D01*
X281113Y-17461D01*
X281204Y-17000D01*
Y-15677D01*
X281968D01*
X282276Y-15616D01*
X282536Y-15442D01*
X282710Y-15181D01*
X282771Y-14874D01*
Y-11724D01*
X282710Y-11417D01*
X282536Y-11157D01*
X282276Y-10983D01*
X281968Y-10922D01*
X278031D01*
X277724Y-10983D01*
X277464Y-11157D01*
X277290Y-11417D01*
X277229Y-11724D01*
Y-14874D01*
X277290Y-15181D01*
X277464Y-15442D01*
X277724Y-15616D01*
X278031Y-15677D01*
X278796D01*
Y-16322D01*
X251149Y-43969D01*
X250887Y-44360D01*
X250796Y-44821D01*
X250796Y-44821D01*
Y-68507D01*
X250646Y-68732D01*
X250571Y-69105D01*
X250029Y-69270D01*
X247850Y-67091D01*
Y-42323D01*
X247789Y-42016D01*
X247615Y-41755D01*
X247355Y-41581D01*
X247047Y-41520D01*
X245501D01*
X245127Y-40617D01*
X244370Y-39630D01*
X240515Y-35776D01*
X240587Y-35141D01*
X240919Y-34919D01*
X241073Y-34690D01*
X241716Y-34626D01*
X244441Y-37352D01*
X244832Y-37613D01*
X245293Y-37704D01*
X245293Y-37704D01*
X249437D01*
X249581Y-37919D01*
X250025Y-38216D01*
Y-38784D01*
X249581Y-39081D01*
X249146Y-39732D01*
X248993Y-40500D01*
X249146Y-41268D01*
X249581Y-41919D01*
X250232Y-42354D01*
X251000Y-42507D01*
X251768Y-42354D01*
X252419Y-41919D01*
X252854Y-41268D01*
X253007Y-40500D01*
X252957Y-40246D01*
X254852Y-38352D01*
X255113Y-37961D01*
X255204Y-37500D01*
Y-33499D01*
X257351Y-31352D01*
X257351Y-31352D01*
X257613Y-30961D01*
X257704Y-30500D01*
Y-24371D01*
X258167Y-24181D01*
X258204Y-24188D01*
X258634Y-24831D01*
X259301Y-25277D01*
X260089Y-25433D01*
X267471D01*
X268258Y-25277D01*
X268925Y-24831D01*
X269371Y-24163D01*
X269528Y-23376D01*
Y-15994D01*
X269371Y-15207D01*
X268925Y-14539D01*
X268258Y-14094D01*
X267471Y-13937D01*
X260089D01*
X259301Y-14094D01*
X258634Y-14539D01*
X258204Y-15182D01*
X258167Y-15189D01*
X257704Y-14999D01*
Y-9499D01*
X260499Y-6704D01*
X263937D01*
X264081Y-6919D01*
X264732Y-7354D01*
X265500Y-7507D01*
X266268Y-7354D01*
X266919Y-6919D01*
X267354Y-6268D01*
X267507Y-5500D01*
X267354Y-4732D01*
X266919Y-4081D01*
X266268Y-3646D01*
X265500Y-3493D01*
X264732Y-3646D01*
X264081Y-4081D01*
X263937Y-4296D01*
X260000D01*
X260000Y-4296D01*
X259539Y-4387D01*
X259149Y-4648D01*
X259149Y-4648D01*
X255648Y-8149D01*
X255387Y-8539D01*
X255296Y-9000D01*
X255296Y-9000D01*
Y-30001D01*
X253149Y-32149D01*
X252887Y-32539D01*
X252796Y-33000D01*
X252796Y-33000D01*
Y-34813D01*
X252296Y-34998D01*
X251768Y-34646D01*
X251000Y-34493D01*
X250232Y-34646D01*
X249581Y-35081D01*
X249437Y-35296D01*
X245792D01*
X239702Y-29206D01*
X239311Y-28945D01*
X238850Y-28853D01*
X238850Y-28853D01*
X203225D01*
X203102Y-28878D01*
X194581D01*
X190204Y-24501D01*
Y-13999D01*
X192246Y-11957D01*
X192500Y-12007D01*
X193268Y-11854D01*
X193919Y-11419D01*
X194354Y-10768D01*
X194507Y-10000D01*
X194354Y-9232D01*
X193919Y-8581D01*
X193268Y-8146D01*
X192500Y-7993D01*
X191732Y-8146D01*
X191081Y-8581D01*
X190646Y-9232D01*
X190493Y-10000D01*
X190543Y-10254D01*
X188666Y-12131D01*
X188204Y-11939D01*
Y-10499D01*
X191999Y-6704D01*
X229437D01*
X229581Y-6919D01*
X230232Y-7354D01*
X231000Y-7507D01*
X231768Y-7354D01*
X232419Y-6919D01*
X232854Y-6268D01*
X233007Y-5500D01*
X232854Y-4732D01*
X232419Y-4081D01*
X231768Y-3646D01*
X231000Y-3493D01*
X230232Y-3646D01*
X229581Y-4081D01*
X229437Y-4296D01*
X191500D01*
X191039Y-4387D01*
X190648Y-4648D01*
X186149Y-9149D01*
X185887Y-9539D01*
X185796Y-10000D01*
X185796Y-10000D01*
Y-26000D01*
X185796Y-26000D01*
X185887Y-26461D01*
X186149Y-26851D01*
X190397Y-31100D01*
X190300Y-31591D01*
X189617Y-31873D01*
X188630Y-32631D01*
X180131Y-41131D01*
X180031Y-41260D01*
X176980D01*
X176673Y-41321D01*
X176518Y-41425D01*
X176362Y-41321D01*
X176055Y-41260D01*
X175760D01*
X175760Y-41260D01*
X172192D01*
X172000Y-41235D01*
X151803D01*
Y-37000D01*
X151742Y-36693D01*
X151568Y-36432D01*
X151568Y-36432D01*
X140098Y-24962D01*
X140122Y-24463D01*
X140149Y-24441D01*
X140986Y-23421D01*
X141607Y-22259D01*
X141990Y-20997D01*
X142119Y-19685D01*
X141990Y-18373D01*
X141607Y-17111D01*
X140986Y-15949D01*
X140149Y-14930D01*
X139130Y-14093D01*
X137967Y-13472D01*
X136706Y-13089D01*
X135394Y-12960D01*
X134082Y-13089D01*
X132820Y-13472D01*
X131657Y-14093D01*
X130638Y-14930D01*
X130616Y-14957D01*
X130117Y-14981D01*
X127568Y-12432D01*
X127307Y-12258D01*
X127000Y-12197D01*
X48911D01*
X48853Y-12209D01*
X48794Y-12206D01*
X48701Y-12239D01*
X48604Y-12258D01*
X48555Y-12291D01*
X48499Y-12311D01*
X48426Y-12378D01*
X48344Y-12432D01*
X48311Y-12482D01*
X48267Y-12522D01*
X48225Y-12611D01*
X48170Y-12693D01*
X48158Y-12751D01*
X48133Y-12805D01*
X48110Y-12897D01*
X47533Y-13243D01*
X47526Y-13242D01*
X47021Y-13089D01*
X45709Y-12960D01*
X44397Y-13089D01*
X43135Y-13472D01*
X41972Y-14093D01*
X40953Y-14930D01*
X40117Y-15949D01*
X39495Y-17111D01*
X39113Y-18373D01*
X38983Y-19685D01*
X39113Y-20997D01*
X39495Y-22259D01*
X39897Y-23009D01*
X39742Y-23558D01*
X39693Y-23615D01*
X39579Y-23691D01*
X39461Y-23761D01*
X39449Y-23777D01*
X39432Y-23789D01*
X39356Y-23903D01*
X39274Y-24013D01*
X39269Y-24032D01*
X39258Y-24049D01*
X39232Y-24184D01*
X39198Y-24317D01*
X39201Y-24337D01*
X39197Y-24356D01*
Y-36341D01*
X38735Y-36532D01*
X35704Y-33501D01*
Y-17999D01*
X46999Y-6704D01*
X60937D01*
X61081Y-6919D01*
X61732Y-7354D01*
X62500Y-7507D01*
X63268Y-7354D01*
X63919Y-6919D01*
X64354Y-6268D01*
X64507Y-5500D01*
X64354Y-4732D01*
X63919Y-4081D01*
X63268Y-3646D01*
X62500Y-3493D01*
X61732Y-3646D01*
X61081Y-4081D01*
X60937Y-4296D01*
X46500D01*
X46039Y-4387D01*
X45649Y-4648D01*
X45649Y-4648D01*
X33648Y-16648D01*
X33387Y-17039D01*
X33296Y-17500D01*
X33296Y-17500D01*
Y-34000D01*
X33296Y-34000D01*
X33387Y-34461D01*
X33648Y-34852D01*
X36927Y-38130D01*
X36720Y-38630D01*
X35173D01*
X34865Y-38691D01*
X34605Y-38865D01*
X34553Y-38943D01*
X20646Y-47840D01*
X20146Y-47566D01*
Y-43039D01*
X20034Y-42191D01*
X19707Y-41401D01*
X19187Y-40723D01*
X18508Y-40202D01*
X17718Y-39875D01*
X16870Y-39763D01*
X11949D01*
X11101Y-39875D01*
X10311Y-40202D01*
X9632Y-40723D01*
X9112Y-41401D01*
X8784Y-42191D01*
X8673Y-43039D01*
Y-47961D01*
X8784Y-48809D01*
X9112Y-49599D01*
X9632Y-50277D01*
X10311Y-50798D01*
X11101Y-51125D01*
X11949Y-51237D01*
X14445D01*
X14585Y-51717D01*
X4067Y-58445D01*
X4005Y-58505D01*
X3932Y-58554D01*
X3893Y-58613D01*
X3841Y-58662D01*
X3807Y-58742D01*
X3758Y-58814D01*
X3744Y-58884D01*
X3716Y-58949D01*
X3714Y-59036D01*
X3697Y-59121D01*
X3697Y-79500D01*
X3758Y-79807D01*
X3932Y-80068D01*
X4193Y-80242D01*
X4500Y-80303D01*
X10984D01*
X11153Y-80803D01*
X10338Y-81428D01*
X9423Y-82621D01*
X8848Y-84010D01*
X8652Y-85500D01*
X8848Y-86990D01*
X9423Y-88379D01*
X10338Y-89571D01*
X11530Y-90487D01*
X12919Y-91062D01*
X14410Y-91258D01*
X15017Y-91178D01*
X15238Y-91626D01*
X4432Y-102432D01*
X4432Y-102432D01*
X3932Y-102932D01*
X3758Y-103193D01*
X3697Y-103500D01*
Y-117000D01*
X3758Y-117307D01*
X3932Y-117568D01*
X4193Y-117742D01*
X4500Y-117803D01*
X25188D01*
X30957Y-123092D01*
X31077Y-123164D01*
X31193Y-123242D01*
X31210Y-123245D01*
X31225Y-123254D01*
X31363Y-123276D01*
X31500Y-123303D01*
X34572D01*
X34613Y-123363D01*
X34873Y-123537D01*
X35180Y-123598D01*
X37015D01*
X37022Y-123600D01*
X39640D01*
X39646Y-123598D01*
X39708D01*
X40015Y-123537D01*
X40276Y-123363D01*
X40377Y-123211D01*
X40422Y-123242D01*
X40730Y-123303D01*
X50043D01*
X50082Y-123295D01*
X50121Y-123299D01*
X50234Y-123265D01*
X50350Y-123242D01*
X50660Y-123261D01*
X51041Y-123516D01*
X51490Y-123605D01*
X65329D01*
X65778Y-123516D01*
X66159Y-123261D01*
X66413Y-122880D01*
X66503Y-122431D01*
Y-116803D01*
X74821D01*
X74968Y-117088D01*
X74968Y-117306D01*
X74794Y-117567D01*
X74733Y-117874D01*
Y-121024D01*
X74794Y-121331D01*
X74968Y-121591D01*
X75228Y-121765D01*
X75535Y-121827D01*
X81722D01*
X84747Y-124852D01*
X84747Y-124852D01*
X85138Y-125113D01*
X85598Y-125204D01*
X106473D01*
Y-125969D01*
X106534Y-126276D01*
X106708Y-126536D01*
X106968Y-126710D01*
X107144Y-126745D01*
Y-127255D01*
X106968Y-127290D01*
X106708Y-127464D01*
X106534Y-127724D01*
X106473Y-128032D01*
Y-128796D01*
X105011D01*
Y-128142D01*
X104950Y-127834D01*
X104776Y-127574D01*
X104516Y-127400D01*
X104441Y-127385D01*
X104251Y-127258D01*
X103944Y-127197D01*
X87069D01*
X86866Y-127061D01*
X86559Y-127000D01*
X75535D01*
X75228Y-127061D01*
X74968Y-127235D01*
X74859Y-127398D01*
X71558D01*
X71492Y-127385D01*
X71419Y-127354D01*
X71340D01*
X71263Y-127339D01*
X67142D01*
X67003Y-127367D01*
X66617Y-127135D01*
X66503Y-126997D01*
Y-126396D01*
X66413Y-125946D01*
X66159Y-125565D01*
X65778Y-125311D01*
X65329Y-125222D01*
X51490D01*
X51041Y-125311D01*
X50660Y-125565D01*
X50206Y-125345D01*
X50179Y-125323D01*
X50141Y-125312D01*
X50108Y-125290D01*
X49992Y-125267D01*
X49879Y-125233D01*
X49839Y-125236D01*
X49800Y-125229D01*
X40786D01*
X40747Y-125236D01*
X40707Y-125233D01*
X40595Y-125267D01*
X40479Y-125290D01*
X40446Y-125312D01*
X40408Y-125323D01*
X40317Y-125398D01*
X40247Y-125445D01*
X40015Y-125290D01*
X39708Y-125229D01*
X39647D01*
X39640Y-125227D01*
X37022D01*
X37015Y-125229D01*
X35180D01*
X25469Y-125229D01*
X25469Y-125229D01*
X25161Y-125290D01*
X24901Y-125464D01*
X24901Y-125464D01*
X14167Y-136197D01*
X8000Y-136197D01*
X4000D01*
X3693Y-136258D01*
X3432Y-136432D01*
X3258Y-136693D01*
X3197Y-137000D01*
Y-153500D01*
X3258Y-153807D01*
X3432Y-154068D01*
X3693Y-154242D01*
X4000Y-154303D01*
X12167Y-154303D01*
X24228Y-166363D01*
X24488Y-166537D01*
X24795Y-166598D01*
X35180D01*
X35180Y-166598D01*
X37015D01*
X37022Y-166600D01*
X39640D01*
X39646Y-166598D01*
X39708D01*
X40015Y-166537D01*
X40247Y-166382D01*
X40317Y-166428D01*
X40408Y-166503D01*
X40446Y-166515D01*
X40479Y-166537D01*
X40595Y-166560D01*
X40707Y-166594D01*
X40747Y-166590D01*
X40786Y-166598D01*
X49771Y-166598D01*
X49852Y-166582D01*
X49935Y-166581D01*
X50004Y-166552D01*
X50079Y-166537D01*
X50147Y-166491D01*
X50223Y-166459D01*
X50586Y-166295D01*
X50913Y-166430D01*
X51041Y-166516D01*
X51490Y-166605D01*
X65329D01*
X65778Y-166516D01*
X66159Y-166261D01*
X66413Y-165880D01*
X66503Y-165431D01*
Y-160670D01*
X67001Y-160303D01*
X72205D01*
X72333Y-160277D01*
X72463Y-160260D01*
X72486Y-160247D01*
X72512Y-160242D01*
X72621Y-160169D01*
X72734Y-160104D01*
X72751Y-160082D01*
X72773Y-160068D01*
X72845Y-159959D01*
X72925Y-159855D01*
X72932Y-159829D01*
X72947Y-159807D01*
X72948Y-159803D01*
X74821D01*
X74968Y-160088D01*
X74968Y-160306D01*
X74794Y-160567D01*
X74733Y-160874D01*
Y-164024D01*
X74794Y-164331D01*
X74968Y-164591D01*
X75228Y-164765D01*
X75535Y-164827D01*
X81722D01*
X84747Y-167851D01*
X84747Y-167851D01*
X85138Y-168113D01*
X85598Y-168204D01*
X106473D01*
Y-168968D01*
X106534Y-169276D01*
X106708Y-169536D01*
X106968Y-169710D01*
X107144Y-169745D01*
Y-170255D01*
X106968Y-170290D01*
X106708Y-170464D01*
X106534Y-170724D01*
X106473Y-171031D01*
Y-171796D01*
X105011D01*
Y-170642D01*
X104950Y-170334D01*
X104776Y-170074D01*
X104516Y-169900D01*
X104209Y-169839D01*
X104118D01*
X104118Y-169839D01*
X91618D01*
X91618Y-169839D01*
X91610D01*
X91303Y-169900D01*
X91101Y-170035D01*
X90898Y-169900D01*
X90591Y-169839D01*
X87709D01*
X87670Y-169847D01*
X87630Y-169843D01*
X87517Y-169877D01*
X87402Y-169900D01*
X87369Y-169922D01*
X87331Y-169934D01*
X87301Y-169958D01*
X87000Y-169898D01*
X71558D01*
X71492Y-169885D01*
X71419Y-169854D01*
X71340D01*
X71263Y-169839D01*
X67144D01*
X67082Y-169851D01*
X66630Y-169548D01*
X66582Y-169465D01*
Y-169297D01*
X66492Y-168848D01*
X66238Y-168467D01*
X65857Y-168212D01*
X65408Y-168123D01*
X51569D01*
X51120Y-168212D01*
X50739Y-168467D01*
X50284Y-168247D01*
X50258Y-168225D01*
X50220Y-168213D01*
X50186Y-168191D01*
X50071Y-168168D01*
X49958Y-168134D01*
X49918Y-168138D01*
X49879Y-168130D01*
X40865D01*
X40826Y-168138D01*
X40786Y-168134D01*
X40673Y-168168D01*
X40558Y-168191D01*
X40525Y-168213D01*
X40486Y-168225D01*
X40395Y-168300D01*
X40326Y-168346D01*
X40094Y-168191D01*
X39787Y-168130D01*
X39725D01*
X39718Y-168129D01*
X37100D01*
X37093Y-168130D01*
X20040D01*
X19706Y-167630D01*
X19971Y-166990D01*
X20167Y-165500D01*
X19971Y-164010D01*
X19396Y-162621D01*
X18481Y-161428D01*
X17288Y-160513D01*
X15900Y-159938D01*
X14410Y-159742D01*
X12919Y-159938D01*
X11530Y-160513D01*
X10338Y-161428D01*
X9423Y-162621D01*
X8848Y-164010D01*
X8652Y-165500D01*
X8848Y-166990D01*
X9423Y-168379D01*
X10338Y-169571D01*
X11530Y-170486D01*
X12919Y-171062D01*
X14410Y-171258D01*
X15550Y-171108D01*
X15783Y-171581D01*
X12932Y-174432D01*
X3932Y-183432D01*
X3758Y-183693D01*
X3697Y-184000D01*
Y-188000D01*
Y-201000D01*
X3697Y-201000D01*
X3758Y-201307D01*
X3932Y-201568D01*
X3932Y-201568D01*
X9143Y-206778D01*
X9088Y-207056D01*
X8969Y-207311D01*
X7043Y-208491D01*
X5276Y-210001D01*
X3767Y-211768D01*
X2553Y-213749D01*
X1663Y-215896D01*
X1121Y-218156D01*
X939Y-220472D01*
X1121Y-222789D01*
X1663Y-225049D01*
X2553Y-227196D01*
X3767Y-229177D01*
X5276Y-230944D01*
X7043Y-232453D01*
X9025Y-233668D01*
X11172Y-234557D01*
X13431Y-235100D01*
X15748Y-235282D01*
X18065Y-235100D01*
X20324Y-234557D01*
X22471Y-233668D01*
X24453Y-232453D01*
X26220Y-230944D01*
X27729Y-229177D01*
X28943Y-227196D01*
X29833Y-225049D01*
X30375Y-222789D01*
X30557Y-220472D01*
X30375Y-218156D01*
X29833Y-215896D01*
X28943Y-213749D01*
X27729Y-211768D01*
X26220Y-210001D01*
X25952Y-209772D01*
X26125Y-209303D01*
X34749D01*
X34952Y-209439D01*
X35259Y-209500D01*
X37094D01*
X37100Y-209501D01*
X39718D01*
X39725Y-209500D01*
X39787D01*
X40094Y-209439D01*
X40354Y-209265D01*
X40410Y-209181D01*
X40501Y-209242D01*
X40808Y-209303D01*
X50041D01*
X50080Y-209295D01*
X50119Y-209299D01*
X50232Y-209265D01*
X50348Y-209242D01*
X50739Y-209163D01*
X51120Y-209417D01*
X51569Y-209507D01*
X65408D01*
X65857Y-209417D01*
X66238Y-209163D01*
X66492Y-208782D01*
X66582Y-208333D01*
Y-203222D01*
X67002Y-202803D01*
X74762D01*
X74872Y-202960D01*
X74979Y-203290D01*
X74972Y-203320D01*
X74872Y-203468D01*
X74811Y-203776D01*
Y-206925D01*
X74872Y-207232D01*
X75046Y-207493D01*
X75307Y-207667D01*
X75614Y-207728D01*
X81801D01*
X83894Y-209821D01*
X83882Y-209951D01*
X83727Y-210321D01*
X46475D01*
X46475Y-210321D01*
X46014Y-210413D01*
X45623Y-210674D01*
X45149Y-211149D01*
X45085Y-211244D01*
X44581Y-211581D01*
X44146Y-212232D01*
X43993Y-213000D01*
X44146Y-213768D01*
X44428Y-214190D01*
X42961Y-215657D01*
X42700Y-216047D01*
X42641Y-216343D01*
X42230Y-216562D01*
X42124Y-216577D01*
X42085Y-216547D01*
X41079Y-216130D01*
X40000Y-215988D01*
X38921Y-216130D01*
X37915Y-216547D01*
X37052Y-217209D01*
X36389Y-218073D01*
X35973Y-219078D01*
X35831Y-220158D01*
X35973Y-221237D01*
X36389Y-222242D01*
X37052Y-223106D01*
X37915Y-223768D01*
X38921Y-224185D01*
X40000Y-224327D01*
X41079Y-224185D01*
X41960Y-223820D01*
X43514Y-225374D01*
X43399Y-225701D01*
X43283Y-225851D01*
X36654D01*
X36346Y-225912D01*
X36086Y-226086D01*
X35912Y-226346D01*
X35851Y-226654D01*
Y-233347D01*
X35912Y-233654D01*
X36086Y-233914D01*
X36346Y-234088D01*
X36621Y-234143D01*
X36599Y-234252D01*
Y-235352D01*
X36531Y-235452D01*
X36423Y-236000D01*
X0D01*
Y0D01*
X315000D01*
Y-136792D01*
D02*
G37*
G36*
X223406Y-152623D02*
Y-177934D01*
X222906Y-178085D01*
X222875Y-178039D01*
X222614Y-177865D01*
X222307Y-177803D01*
X215693D01*
X215386Y-177865D01*
X215125Y-178039D01*
X214951Y-178299D01*
X214890Y-178606D01*
Y-180394D01*
X212110D01*
Y-178606D01*
X212049Y-178299D01*
X211875Y-178039D01*
X211614Y-177865D01*
X211488Y-177839D01*
Y-173497D01*
X211971Y-173297D01*
X212670Y-172761D01*
X213207Y-172062D01*
X213544Y-171248D01*
X213659Y-170374D01*
X213544Y-169500D01*
X213207Y-168686D01*
X212670Y-167987D01*
X211971Y-167451D01*
X211157Y-167114D01*
X210283Y-166999D01*
X209410Y-167114D01*
X208596Y-167451D01*
X207897Y-167987D01*
X207360Y-168686D01*
X207023Y-169500D01*
X206908Y-170374D01*
X207023Y-171248D01*
X207360Y-172062D01*
X207897Y-172761D01*
X208596Y-173297D01*
X209079Y-173497D01*
Y-177803D01*
X204693D01*
X204386Y-177865D01*
X204125Y-178039D01*
X203951Y-178299D01*
X203890Y-178606D01*
Y-182775D01*
X203484Y-182992D01*
Y-185000D01*
X201516D01*
Y-183035D01*
X200927Y-183428D01*
X200641Y-183856D01*
X200141Y-183704D01*
Y-181378D01*
X200512D01*
X200819Y-181316D01*
X201080Y-181142D01*
X201254Y-180882D01*
X201315Y-180575D01*
Y-177425D01*
X201254Y-177118D01*
X201080Y-176857D01*
X200819Y-176683D01*
X200512Y-176622D01*
X197579D01*
Y-171124D01*
X199788Y-168915D01*
X199788Y-168914D01*
X200050Y-168524D01*
X200141Y-168063D01*
X200141Y-168063D01*
Y-167378D01*
X200512D01*
X200819Y-167316D01*
X201080Y-167142D01*
X201254Y-166882D01*
X201315Y-166575D01*
Y-166204D01*
X216500D01*
X216500Y-166204D01*
X216961Y-166113D01*
X217352Y-165851D01*
X221135Y-162068D01*
X221396Y-161677D01*
X221488Y-161216D01*
Y-153497D01*
X221971Y-153297D01*
X222670Y-152761D01*
X222906Y-152453D01*
X223406Y-152623D01*
D02*
G37*
G36*
X130079Y-88850D02*
X130140Y-89158D01*
X130314Y-89418D01*
X130575Y-89592D01*
X130882Y-89653D01*
X133435D01*
X133793Y-89993D01*
X133852Y-90121D01*
X133776Y-90500D01*
X133934Y-91296D01*
X133897Y-91450D01*
X133712Y-91796D01*
X133000D01*
X132539Y-91887D01*
X132149Y-92149D01*
X131408Y-92889D01*
X131147Y-93279D01*
X131055Y-93740D01*
X131056Y-93740D01*
Y-94347D01*
X130882D01*
X130575Y-94408D01*
X130314Y-94582D01*
X130140Y-94842D01*
X130079Y-95150D01*
Y-98299D01*
X130140Y-98606D01*
X130314Y-98867D01*
X130575Y-99041D01*
X130882Y-99102D01*
X133638D01*
X133935Y-99043D01*
X134232Y-99241D01*
X134622Y-99319D01*
X135016D01*
Y-96724D01*
X136984D01*
Y-99319D01*
X137378D01*
X137768Y-99241D01*
X137796Y-99222D01*
X138156Y-99583D01*
X137878Y-99999D01*
X137726Y-100767D01*
X137878Y-101535D01*
X138104Y-101873D01*
X137716Y-102192D01*
X136995Y-101471D01*
X136604Y-101210D01*
X136144Y-101119D01*
X136144Y-101119D01*
X135195D01*
X135052Y-100905D01*
X134792Y-100731D01*
X134484Y-100670D01*
X129563D01*
X129256Y-100731D01*
X128995Y-100905D01*
X128852Y-101119D01*
X128677D01*
X128677Y-101119D01*
X128216Y-101210D01*
X127826Y-101471D01*
X127826Y-101471D01*
X126228Y-103069D01*
X125768Y-102886D01*
X125726Y-102478D01*
X127851Y-100352D01*
X127851Y-100352D01*
X128113Y-99961D01*
X128204Y-99500D01*
Y-93563D01*
X128419Y-93419D01*
X128854Y-92768D01*
X129007Y-92000D01*
X128854Y-91232D01*
X128419Y-90581D01*
X128204Y-90437D01*
Y-89771D01*
X128724D01*
X129032Y-89710D01*
X129292Y-89536D01*
X129466Y-89276D01*
X129527Y-88968D01*
Y-88204D01*
X130079D01*
Y-88850D01*
D02*
G37*
G36*
X66430Y-217670D02*
X66203Y-217966D01*
X65765Y-219023D01*
X65746Y-219173D01*
X70000D01*
Y-220158D01*
X70984D01*
Y-224412D01*
X71135Y-224392D01*
X72192Y-223954D01*
X73100Y-223257D01*
X73797Y-222350D01*
X74235Y-221292D01*
X74310Y-220720D01*
X74838Y-220541D01*
X83796Y-229499D01*
Y-234000D01*
X83796Y-234000D01*
X83887Y-234461D01*
X84149Y-234852D01*
X84253Y-234956D01*
X84061Y-235418D01*
X68898D01*
X68590Y-235479D01*
X68538Y-235514D01*
X68040Y-235380D01*
X67995Y-235352D01*
X67976Y-235334D01*
X67517Y-234648D01*
X66929Y-234255D01*
Y-236221D01*
X64961D01*
Y-234255D01*
X64372Y-234648D01*
X64295Y-234764D01*
X63795Y-234612D01*
Y-234252D01*
X63734Y-233945D01*
X63560Y-233684D01*
X63299Y-233510D01*
X63091Y-233469D01*
X62880Y-233000D01*
X62948Y-232948D01*
X63611Y-232085D01*
X64027Y-231079D01*
X64170Y-230000D01*
X64078Y-229307D01*
X64531Y-228914D01*
X65000Y-229007D01*
X65469Y-228914D01*
X65922Y-229307D01*
X65830Y-230000D01*
X65973Y-231079D01*
X66389Y-232085D01*
X67052Y-232948D01*
X67915Y-233611D01*
X68921Y-234027D01*
X70000Y-234170D01*
X71079Y-234027D01*
X72085Y-233611D01*
X72948Y-232948D01*
X73611Y-232085D01*
X74027Y-231079D01*
X74169Y-230000D01*
X74027Y-228921D01*
X73611Y-227915D01*
X72948Y-227052D01*
X72085Y-226389D01*
X71079Y-225973D01*
X70000Y-225831D01*
X68921Y-225973D01*
X67915Y-226389D01*
X67464Y-226735D01*
X66913Y-226528D01*
X66854Y-226232D01*
X66419Y-225581D01*
X66204Y-225437D01*
Y-225157D01*
X66204Y-225157D01*
X66113Y-224697D01*
X65851Y-224306D01*
X65851Y-224306D01*
X63663Y-222117D01*
X64027Y-221237D01*
X64170Y-220158D01*
X64027Y-219078D01*
X63611Y-218073D01*
X63302Y-217670D01*
X63523Y-217222D01*
X66209D01*
X66430Y-217670D01*
D02*
G37*
G36*
X161483Y-79736D02*
Y-91563D01*
X160988Y-91575D01*
X160910Y-91185D01*
X160689Y-90854D01*
X160359Y-90633D01*
X159968Y-90555D01*
X158984D01*
Y-93150D01*
X157016D01*
Y-90555D01*
X156855D01*
X156648Y-90055D01*
X157475Y-89228D01*
X159968D01*
X160276Y-89167D01*
X160536Y-88993D01*
X160710Y-88732D01*
X160771Y-88425D01*
Y-85276D01*
X160710Y-84968D01*
X160536Y-84708D01*
X160276Y-84534D01*
X159968Y-84473D01*
X156032D01*
X155724Y-84534D01*
X155464Y-84708D01*
X155290Y-84968D01*
X155229Y-85276D01*
Y-85796D01*
X154527D01*
Y-85031D01*
X154466Y-84724D01*
X154292Y-84464D01*
X154032Y-84290D01*
X153856Y-84255D01*
Y-83745D01*
X154032Y-83710D01*
X154292Y-83536D01*
X154466Y-83276D01*
X154527Y-82968D01*
Y-79851D01*
X155027Y-79801D01*
X155089Y-80115D01*
X155310Y-80445D01*
X155416Y-80516D01*
X160584D01*
X160689Y-80445D01*
X160910Y-80115D01*
X160988Y-79724D01*
X161483Y-79736D01*
D02*
G37*
%LPC*%
G36*
X96425Y-88776D02*
X90091D01*
Y-90941D01*
X90168Y-91331D01*
X90389Y-91662D01*
X90720Y-91883D01*
X91110Y-91961D01*
X96425D01*
Y-88776D01*
D02*
G37*
G36*
X119516Y-167034D02*
X118928Y-167428D01*
X118535Y-168016D01*
X119516D01*
Y-167034D01*
D02*
G37*
G36*
X57425Y-91299D02*
X50099D01*
Y-97234D01*
X50205Y-97767D01*
X50507Y-98218D01*
X50958Y-98519D01*
X51490Y-98625D01*
X57425D01*
Y-91299D01*
D02*
G37*
G36*
X13425Y-106484D02*
X8557D01*
X8574Y-106661D01*
X8912Y-107777D01*
X9462Y-108806D01*
X10202Y-109707D01*
X11104Y-110447D01*
X12133Y-110997D01*
X13249Y-111336D01*
X13425Y-111353D01*
Y-106484D01*
D02*
G37*
G36*
X20262D02*
X15394D01*
Y-111353D01*
X15570Y-111336D01*
X16686Y-110997D01*
X17715Y-110447D01*
X18617Y-109707D01*
X19357Y-108806D01*
X19906Y-107777D01*
X20245Y-106661D01*
X20262Y-106484D01*
D02*
G37*
G36*
X57425Y-107202D02*
X51490D01*
X50958Y-107308D01*
X50507Y-107609D01*
X50205Y-108060D01*
X50099Y-108592D01*
Y-114528D01*
X57425D01*
Y-107202D01*
D02*
G37*
G36*
X15394Y-99647D02*
Y-104516D01*
X20262D01*
X20245Y-104339D01*
X19906Y-103223D01*
X19357Y-102194D01*
X18617Y-101293D01*
X17715Y-100553D01*
X16686Y-100003D01*
X15570Y-99664D01*
X15394Y-99647D01*
D02*
G37*
G36*
X13425D02*
X13249Y-99664D01*
X12133Y-100003D01*
X11104Y-100553D01*
X10202Y-101293D01*
X9462Y-102194D01*
X8912Y-103223D01*
X8574Y-104339D01*
X8557Y-104516D01*
X13425D01*
Y-99647D01*
D02*
G37*
G36*
X71516Y-68484D02*
X68595D01*
X68603Y-68544D01*
X69006Y-69517D01*
X69647Y-70353D01*
X70483Y-70994D01*
X71456Y-71397D01*
X71516Y-71405D01*
Y-68484D01*
D02*
G37*
G36*
X108504Y-133437D02*
X107126D01*
X106736Y-133515D01*
X106405Y-133736D01*
X106184Y-134066D01*
X106106Y-134457D01*
Y-137016D01*
X108504D01*
Y-133437D01*
D02*
G37*
G36*
X111850D02*
X110472D01*
Y-137016D01*
X112870D01*
Y-134457D01*
X112792Y-134066D01*
X112571Y-133736D01*
X112241Y-133515D01*
X111850Y-133437D01*
D02*
G37*
G36*
X103905Y-118484D02*
X100984D01*
Y-121405D01*
X101044Y-121397D01*
X102017Y-120994D01*
X102853Y-120353D01*
X103494Y-119517D01*
X103897Y-118544D01*
X103905Y-118484D01*
D02*
G37*
G36*
X91516D02*
X88595D01*
X88603Y-118544D01*
X89006Y-119517D01*
X89647Y-120353D01*
X90483Y-120994D01*
X91456Y-121397D01*
X91516Y-121405D01*
Y-118484D01*
D02*
G37*
G36*
X104728Y-110823D02*
X97409D01*
X90091D01*
Y-112988D01*
X90168Y-113378D01*
X90284Y-113551D01*
X90374Y-113757D01*
X90227Y-114202D01*
X89647Y-114647D01*
X89006Y-115483D01*
X88603Y-116456D01*
X88595Y-116516D01*
X92500D01*
Y-117500D01*
X93484D01*
Y-121405D01*
X93544Y-121397D01*
X94517Y-120994D01*
X95353Y-120353D01*
X95975Y-119542D01*
X96245Y-119503D01*
X96255D01*
X96525Y-119542D01*
X97147Y-120353D01*
X97983Y-120994D01*
X98956Y-121397D01*
X99016Y-121405D01*
Y-117500D01*
X100000D01*
Y-116516D01*
X103905D01*
X103897Y-116456D01*
X103494Y-115483D01*
X102853Y-114647D01*
X102637Y-114481D01*
X102797Y-114008D01*
X103709D01*
X104099Y-113930D01*
X104430Y-113709D01*
X104651Y-113378D01*
X104728Y-112988D01*
Y-110823D01*
D02*
G37*
G36*
X108992Y-118661D02*
X106523D01*
X106574Y-118918D01*
X106795Y-119249D01*
X107125Y-119470D01*
X107516Y-119547D01*
X108992D01*
Y-118661D01*
D02*
G37*
G36*
X113430D02*
X110961D01*
Y-119547D01*
X112437D01*
X112827Y-119470D01*
X113158Y-119249D01*
X113379Y-118918D01*
X113430Y-118661D01*
D02*
G37*
G36*
X91516Y-160984D02*
X88595D01*
X88603Y-161044D01*
X89006Y-162017D01*
X89647Y-162853D01*
X90483Y-163494D01*
X91456Y-163897D01*
X91516Y-163905D01*
Y-160984D01*
D02*
G37*
G36*
X96925Y-149169D02*
X91610D01*
X91220Y-149247D01*
X90889Y-149468D01*
X90668Y-149799D01*
X90591Y-150189D01*
Y-152354D01*
X96925D01*
Y-149169D01*
D02*
G37*
G36*
X104209D02*
X98894D01*
Y-152354D01*
X105228D01*
Y-150189D01*
X105151Y-149799D01*
X104930Y-149468D01*
X104599Y-149247D01*
X104209Y-149169D01*
D02*
G37*
G36*
X105228Y-154323D02*
X97909D01*
X90591D01*
Y-156461D01*
X90483Y-156506D01*
X89647Y-157147D01*
X89006Y-157983D01*
X88603Y-158956D01*
X88595Y-159016D01*
X92500D01*
Y-160000D01*
X93484D01*
Y-163905D01*
X93544Y-163897D01*
X94517Y-163494D01*
X95353Y-162853D01*
X95975Y-162042D01*
X96245Y-162003D01*
X96255D01*
X96525Y-162042D01*
X97147Y-162853D01*
X97983Y-163494D01*
X98956Y-163897D01*
X99016Y-163905D01*
Y-160000D01*
X100000D01*
Y-159016D01*
X103905D01*
X103897Y-158956D01*
X103494Y-157983D01*
X103474Y-157956D01*
X103695Y-157508D01*
X104209D01*
X104599Y-157430D01*
X104930Y-157209D01*
X105151Y-156878D01*
X105228Y-156488D01*
Y-154323D01*
D02*
G37*
G36*
X103905Y-160984D02*
X100984D01*
Y-163905D01*
X101044Y-163897D01*
X102017Y-163494D01*
X102853Y-162853D01*
X103494Y-162017D01*
X103897Y-161044D01*
X103905Y-160984D01*
D02*
G37*
G36*
X96425Y-105669D02*
X91110D01*
X90720Y-105747D01*
X90389Y-105968D01*
X90168Y-106299D01*
X90091Y-106689D01*
Y-108854D01*
X96425D01*
Y-105669D01*
D02*
G37*
G36*
X103709D02*
X98394D01*
Y-108854D01*
X104728D01*
Y-106689D01*
X104651Y-106299D01*
X104430Y-105968D01*
X104099Y-105747D01*
X103709Y-105669D01*
D02*
G37*
G36*
X211016Y-78555D02*
X210032D01*
X209641Y-78633D01*
X209311Y-78854D01*
X209089Y-79185D01*
X209012Y-79575D01*
Y-80165D01*
X211016D01*
Y-78555D01*
D02*
G37*
G36*
X15394Y-59647D02*
Y-64516D01*
X20262D01*
X20245Y-64339D01*
X19906Y-63223D01*
X19357Y-62194D01*
X18617Y-61293D01*
X17715Y-60553D01*
X16686Y-60003D01*
X15570Y-59664D01*
X15394Y-59647D01*
D02*
G37*
G36*
X57417Y-47701D02*
X50091D01*
Y-53636D01*
X50197Y-54168D01*
X50499Y-54619D01*
X50950Y-54921D01*
X51482Y-55027D01*
X57417D01*
Y-47701D01*
D02*
G37*
G36*
X13425Y-59647D02*
X13249Y-59664D01*
X12133Y-60003D01*
X11104Y-60553D01*
X10202Y-61293D01*
X9462Y-62194D01*
X8912Y-63223D01*
X8574Y-64339D01*
X8557Y-64516D01*
X13425D01*
Y-59647D01*
D02*
G37*
G36*
Y-66484D02*
X8557D01*
X8574Y-66661D01*
X8912Y-67777D01*
X9462Y-68806D01*
X10202Y-69707D01*
X11104Y-70447D01*
X12133Y-70997D01*
X13249Y-71336D01*
X13425Y-71353D01*
Y-66484D01*
D02*
G37*
G36*
X20262D02*
X15394D01*
Y-71353D01*
X15570Y-71336D01*
X16686Y-70997D01*
X17715Y-70447D01*
X18617Y-69707D01*
X19357Y-68806D01*
X19906Y-67777D01*
X20245Y-66661D01*
X20262Y-66484D01*
D02*
G37*
G36*
X57417Y-63603D02*
X51482D01*
X50950Y-63709D01*
X50499Y-64011D01*
X50197Y-64462D01*
X50091Y-64994D01*
Y-70929D01*
X57417D01*
Y-63603D01*
D02*
G37*
G36*
X57504Y-193103D02*
X51569D01*
X51037Y-193209D01*
X50585Y-193511D01*
X50284Y-193962D01*
X50178Y-194494D01*
Y-200429D01*
X57504D01*
Y-193103D01*
D02*
G37*
G36*
X13425Y-186484D02*
X8557D01*
X8574Y-186661D01*
X8912Y-187777D01*
X9462Y-188806D01*
X10202Y-189707D01*
X11104Y-190447D01*
X12133Y-190997D01*
X13249Y-191336D01*
X13425Y-191353D01*
Y-186484D01*
D02*
G37*
G36*
X20262D02*
X15394D01*
Y-191353D01*
X15570Y-191336D01*
X16686Y-190997D01*
X17715Y-190447D01*
X18617Y-189707D01*
X19357Y-188806D01*
X19906Y-187777D01*
X20245Y-186661D01*
X20262Y-186484D01*
D02*
G37*
G36*
X57504Y-177201D02*
X50178D01*
Y-183136D01*
X50284Y-183668D01*
X50585Y-184119D01*
X51037Y-184421D01*
X51569Y-184527D01*
X57504D01*
Y-177201D01*
D02*
G37*
G36*
X13425Y-179647D02*
X13249Y-179664D01*
X12133Y-180003D01*
X11104Y-180553D01*
X10202Y-181293D01*
X9462Y-182194D01*
X8912Y-183223D01*
X8574Y-184339D01*
X8557Y-184516D01*
X13425D01*
Y-179647D01*
D02*
G37*
G36*
X15394D02*
Y-184516D01*
X20262D01*
X20245Y-184339D01*
X19906Y-183223D01*
X19357Y-182194D01*
X18617Y-181293D01*
X17715Y-180553D01*
X16686Y-180003D01*
X15570Y-179664D01*
X15394Y-179647D01*
D02*
G37*
G36*
X119866Y-130984D02*
X118256D01*
Y-131968D01*
X118334Y-132359D01*
X118555Y-132689D01*
X118885Y-132911D01*
X119276Y-132988D01*
X119866D01*
Y-130984D01*
D02*
G37*
G36*
Y-121012D02*
X119276D01*
X118885Y-121089D01*
X118555Y-121310D01*
X118334Y-121641D01*
X118256Y-122031D01*
Y-123016D01*
X119866D01*
Y-121012D01*
D02*
G37*
G36*
X123445Y-130984D02*
X121835D01*
Y-132988D01*
X122425D01*
X122815Y-132911D01*
X123146Y-132689D01*
X123367Y-132359D01*
X123445Y-131968D01*
Y-130984D01*
D02*
G37*
G36*
X144843Y-57721D02*
X140905D01*
X140515Y-57798D01*
X140185Y-58019D01*
X139963Y-58350D01*
X139886Y-58740D01*
Y-60709D01*
X144843D01*
Y-57721D01*
D02*
G37*
G36*
X119252Y-57721D02*
X115315D01*
Y-60709D01*
X120272D01*
Y-58740D01*
X120194Y-58350D01*
X119973Y-58019D01*
X119642Y-57798D01*
X119252Y-57721D01*
D02*
G37*
G36*
X129095Y-57721D02*
X125157D01*
X124767Y-57798D01*
X124436Y-58019D01*
X124215Y-58350D01*
X124138Y-58740D01*
Y-60709D01*
X129095D01*
Y-57721D01*
D02*
G37*
G36*
X135000D02*
X131063D01*
Y-60709D01*
X136020D01*
Y-58740D01*
X135942Y-58350D01*
X135721Y-58019D01*
X135390Y-57798D01*
X135000Y-57721D01*
D02*
G37*
G36*
X113347Y-62677D02*
X108390D01*
Y-64646D01*
X108467Y-65036D01*
X108688Y-65367D01*
X109019Y-65588D01*
X109409Y-65665D01*
X113347D01*
Y-62677D01*
D02*
G37*
G36*
X120272D02*
X115315D01*
Y-65665D01*
X119252D01*
X119642Y-65588D01*
X119973Y-65367D01*
X120194Y-65036D01*
X120272Y-64646D01*
Y-62677D01*
D02*
G37*
G36*
X122425Y-67012D02*
X121835D01*
Y-69016D01*
X123445D01*
Y-68032D01*
X123367Y-67641D01*
X123146Y-67311D01*
X122815Y-67089D01*
X122425Y-67012D01*
D02*
G37*
G36*
X129095Y-62677D02*
X124138D01*
Y-64646D01*
X124215Y-65036D01*
X124436Y-65367D01*
X124767Y-65588D01*
X125157Y-65665D01*
X129095D01*
Y-62677D01*
D02*
G37*
G36*
X136020D02*
X131063D01*
Y-65665D01*
X135000D01*
X135390Y-65588D01*
X135721Y-65367D01*
X135942Y-65036D01*
X136020Y-64646D01*
Y-62677D01*
D02*
G37*
G36*
X119866Y-87984D02*
X118256D01*
Y-88968D01*
X118334Y-89359D01*
X118555Y-89689D01*
X118885Y-89911D01*
X119276Y-89988D01*
X119866D01*
Y-87984D01*
D02*
G37*
G36*
X122425Y-84012D02*
X121835D01*
Y-86016D01*
X123445D01*
Y-85031D01*
X123367Y-84641D01*
X123146Y-84311D01*
X122815Y-84089D01*
X122425Y-84012D01*
D02*
G37*
G36*
X123445Y-87984D02*
X121835D01*
Y-89988D01*
X122425D01*
X122815Y-89911D01*
X123146Y-89689D01*
X123367Y-89359D01*
X123445Y-88968D01*
Y-87984D01*
D02*
G37*
G36*
X119866Y-84012D02*
X119276D01*
X118885Y-84089D01*
X118555Y-84311D01*
X118334Y-84641D01*
X118256Y-85031D01*
Y-86016D01*
X119866D01*
Y-84012D01*
D02*
G37*
G36*
X118870Y-78984D02*
X116472D01*
Y-82563D01*
X117850D01*
X118241Y-82485D01*
X118571Y-82264D01*
X118792Y-81933D01*
X118870Y-81543D01*
Y-78984D01*
D02*
G37*
G36*
X96925Y-174776D02*
X90591D01*
Y-176941D01*
X90668Y-177331D01*
X90889Y-177662D01*
X91220Y-177883D01*
X91610Y-177961D01*
X96925D01*
Y-174776D01*
D02*
G37*
G36*
X105228Y-196823D02*
X97909D01*
X90591D01*
Y-198961D01*
X90483Y-199006D01*
X89647Y-199647D01*
X89006Y-200483D01*
X88603Y-201456D01*
X88595Y-201516D01*
X92500D01*
Y-202500D01*
X93484D01*
Y-206405D01*
X93544Y-206397D01*
X94517Y-205994D01*
X95353Y-205353D01*
X95975Y-204542D01*
X96245Y-204503D01*
X96255D01*
X96525Y-204542D01*
X97147Y-205353D01*
X97983Y-205994D01*
X98956Y-206397D01*
X99016Y-206405D01*
Y-202500D01*
X100000D01*
Y-201516D01*
X103905D01*
X103897Y-201456D01*
X103494Y-200483D01*
X103474Y-200456D01*
X103695Y-200008D01*
X104209D01*
X104599Y-199930D01*
X104930Y-199709D01*
X105151Y-199378D01*
X105228Y-198988D01*
Y-196823D01*
D02*
G37*
G36*
X103905Y-203484D02*
X100984D01*
Y-206405D01*
X101044Y-206397D01*
X102017Y-205994D01*
X102853Y-205353D01*
X103494Y-204517D01*
X103897Y-203544D01*
X103905Y-203484D01*
D02*
G37*
G36*
X91516D02*
X88595D01*
X88603Y-203544D01*
X89006Y-204517D01*
X89647Y-205353D01*
X90483Y-205994D01*
X91456Y-206397D01*
X91516Y-206405D01*
Y-203484D01*
D02*
G37*
G36*
X108004Y-181394D02*
X105606D01*
Y-183953D01*
X105684Y-184343D01*
X105905Y-184674D01*
X106236Y-184895D01*
X106626Y-184972D01*
X108004D01*
Y-181394D01*
D02*
G37*
G36*
X96925Y-191669D02*
X91610D01*
X91220Y-191747D01*
X90889Y-191968D01*
X90668Y-192299D01*
X90591Y-192689D01*
Y-194854D01*
X96925D01*
Y-191669D01*
D02*
G37*
G36*
X104209D02*
X98894D01*
Y-194854D01*
X105228D01*
Y-192689D01*
X105151Y-192299D01*
X104930Y-191968D01*
X104599Y-191747D01*
X104209Y-191669D01*
D02*
G37*
G36*
X96425Y-45276D02*
X90091D01*
Y-47441D01*
X90168Y-47831D01*
X90389Y-48162D01*
X90720Y-48383D01*
X91110Y-48461D01*
X96425D01*
Y-45276D01*
D02*
G37*
G36*
X192016Y-56034D02*
X191428Y-56428D01*
X191034Y-57016D01*
X192016D01*
Y-56034D01*
D02*
G37*
G36*
X193984D02*
Y-57016D01*
X194966D01*
X194572Y-56428D01*
X193984Y-56034D01*
D02*
G37*
G36*
X96425Y-62169D02*
X91110D01*
X90720Y-62247D01*
X90389Y-62468D01*
X90168Y-62799D01*
X90091Y-63189D01*
Y-65354D01*
X96425D01*
Y-62169D01*
D02*
G37*
G36*
X103905Y-75984D02*
X100984D01*
Y-78905D01*
X101044Y-78897D01*
X102017Y-78494D01*
X102853Y-77853D01*
X103494Y-77017D01*
X103897Y-76044D01*
X103905Y-75984D01*
D02*
G37*
G36*
X91516D02*
X88595D01*
X88603Y-76044D01*
X89006Y-77017D01*
X89647Y-77853D01*
X90483Y-78494D01*
X91456Y-78897D01*
X91516Y-78905D01*
Y-75984D01*
D02*
G37*
G36*
X179370Y-200634D02*
X177008D01*
X176618Y-200712D01*
X176287Y-200933D01*
X176066Y-201263D01*
X175988Y-201654D01*
Y-204016D01*
X179370D01*
Y-200634D01*
D02*
G37*
G36*
X144366Y-205984D02*
X140984D01*
Y-209366D01*
X143347D01*
X143737Y-209288D01*
X144067Y-209067D01*
X144288Y-208737D01*
X144366Y-208347D01*
Y-205984D01*
D02*
G37*
G36*
X190354Y-205831D02*
X189275Y-205973D01*
X188270Y-206389D01*
X187406Y-207052D01*
X186743Y-207915D01*
X186642Y-208160D01*
X184720D01*
Y-205984D01*
X180354D01*
X175988D01*
Y-208160D01*
X171803D01*
Y-207740D01*
X171742Y-207433D01*
X171568Y-207172D01*
X171307Y-206998D01*
X171000Y-206937D01*
X165000D01*
X164693Y-206998D01*
X164432Y-207172D01*
X164258Y-207433D01*
X164197Y-207740D01*
Y-208796D01*
X153976D01*
X153611Y-207915D01*
X152948Y-207052D01*
X152085Y-206389D01*
X151079Y-205973D01*
X150000Y-205831D01*
X148921Y-205973D01*
X147915Y-206389D01*
X147052Y-207052D01*
X146389Y-207915D01*
X145973Y-208921D01*
X145831Y-210000D01*
X145973Y-211079D01*
X146389Y-212085D01*
X147052Y-212948D01*
X147504Y-213296D01*
X147335Y-213796D01*
X143976D01*
X143611Y-212915D01*
X142948Y-212052D01*
X142085Y-211389D01*
X141079Y-210973D01*
X140000Y-210830D01*
X138921Y-210973D01*
X137915Y-211389D01*
X137052Y-212052D01*
X136389Y-212915D01*
X135973Y-213921D01*
X135830Y-215000D01*
X135973Y-216079D01*
X136389Y-217085D01*
X137052Y-217948D01*
X137915Y-218611D01*
X138921Y-219027D01*
X140000Y-219169D01*
X141079Y-219027D01*
X142085Y-218611D01*
X142948Y-217948D01*
X143611Y-217085D01*
X143976Y-216204D01*
X147335D01*
X147504Y-216704D01*
X147052Y-217052D01*
X146389Y-217915D01*
X145973Y-218921D01*
X145831Y-220000D01*
X145973Y-221079D01*
X146389Y-222085D01*
X147052Y-222948D01*
X147915Y-223611D01*
X148921Y-224027D01*
X150000Y-224169D01*
X151079Y-224027D01*
X152085Y-223611D01*
X152948Y-222948D01*
X153611Y-222085D01*
X154027Y-221079D01*
X154169Y-220000D01*
X154027Y-218921D01*
X153611Y-217915D01*
X152948Y-217052D01*
X152496Y-216704D01*
X152665Y-216204D01*
X164197D01*
Y-218260D01*
X164258Y-218567D01*
X164432Y-218828D01*
X164693Y-219002D01*
X165000Y-219063D01*
X171000D01*
X171307Y-219002D01*
X171568Y-218828D01*
X171742Y-218567D01*
X171803Y-218260D01*
Y-217840D01*
X177323D01*
X177406Y-217948D01*
X178270Y-218611D01*
X179275Y-219027D01*
X180354Y-219169D01*
X181433Y-219027D01*
X182439Y-218611D01*
X183303Y-217948D01*
X183965Y-217085D01*
X184382Y-216079D01*
X184524Y-215000D01*
X184382Y-213921D01*
X183965Y-212915D01*
X183303Y-212052D01*
X182439Y-211389D01*
X181665Y-211068D01*
X181764Y-210568D01*
X186260D01*
X186327Y-211079D01*
X186743Y-212085D01*
X187406Y-212948D01*
X188270Y-213611D01*
X189275Y-214027D01*
X190354Y-214170D01*
X191434Y-214027D01*
X192439Y-213611D01*
X193303Y-212948D01*
X193965Y-212085D01*
X194382Y-211079D01*
X194524Y-210000D01*
X194382Y-208921D01*
X193965Y-207915D01*
X193303Y-207052D01*
X192439Y-206389D01*
X191434Y-205973D01*
X190354Y-205831D01*
D02*
G37*
G36*
X183701Y-200634D02*
X181339D01*
Y-204016D01*
X184720D01*
Y-201654D01*
X184643Y-201263D01*
X184422Y-200933D01*
X184091Y-200712D01*
X183701Y-200634D01*
D02*
G37*
G36*
X172020Y-199620D02*
X168984D01*
Y-201279D01*
X171000D01*
X171390Y-201202D01*
X171721Y-200981D01*
X171942Y-200650D01*
X172020Y-200260D01*
Y-199620D01*
D02*
G37*
G36*
X167016Y-195992D02*
X165000D01*
X164610Y-196070D01*
X164279Y-196291D01*
X164058Y-196622D01*
X163980Y-197012D01*
Y-197652D01*
X167016D01*
Y-195992D01*
D02*
G37*
G36*
X139016Y-200634D02*
X136653D01*
X136263Y-200712D01*
X135933Y-200933D01*
X135712Y-201263D01*
X135634Y-201654D01*
Y-204016D01*
X139016D01*
Y-200634D01*
D02*
G37*
G36*
X143347D02*
X140984D01*
Y-204016D01*
X144366D01*
Y-201654D01*
X144288Y-201263D01*
X144067Y-200933D01*
X143737Y-200712D01*
X143347Y-200634D01*
D02*
G37*
G36*
X167016Y-199620D02*
X163980D01*
Y-200260D01*
X164058Y-200650D01*
X164279Y-200981D01*
X164610Y-201202D01*
X165000Y-201279D01*
X167016D01*
Y-199620D01*
D02*
G37*
G36*
X172020Y-228348D02*
X168984D01*
Y-230008D01*
X171000D01*
X171390Y-229930D01*
X171721Y-229709D01*
X171942Y-229378D01*
X172020Y-228988D01*
Y-228348D01*
D02*
G37*
G36*
X167016Y-224721D02*
X165000D01*
X164610Y-224798D01*
X164279Y-225019D01*
X164058Y-225350D01*
X163980Y-225740D01*
Y-226380D01*
X167016D01*
Y-224721D01*
D02*
G37*
G36*
X171000D02*
X168984D01*
Y-226380D01*
X172020D01*
Y-225740D01*
X171942Y-225350D01*
X171721Y-225019D01*
X171390Y-224798D01*
X171000Y-224721D01*
D02*
G37*
G36*
X120000Y-225673D02*
X118921Y-225815D01*
X117915Y-226232D01*
X117052Y-226894D01*
X116389Y-227758D01*
X115973Y-228763D01*
X115831Y-229842D01*
X115973Y-230922D01*
X116389Y-231927D01*
X117052Y-232791D01*
X117915Y-233453D01*
X118921Y-233870D01*
X120000Y-234012D01*
X121079Y-233870D01*
X122085Y-233453D01*
X122948Y-232791D01*
X123611Y-231927D01*
X124027Y-230922D01*
X124170Y-229842D01*
X124027Y-228763D01*
X123611Y-227758D01*
X122948Y-226894D01*
X122085Y-226232D01*
X121079Y-225815D01*
X120000Y-225673D01*
D02*
G37*
G36*
X209784Y-226499D02*
X208910Y-226614D01*
X208096Y-226951D01*
X207397Y-227487D01*
X206860Y-228186D01*
X206523Y-229000D01*
X206408Y-229874D01*
X206523Y-230748D01*
X206860Y-231562D01*
X207397Y-232261D01*
X208096Y-232797D01*
X208910Y-233134D01*
X209784Y-233249D01*
X210657Y-233134D01*
X211471Y-232797D01*
X212170Y-232261D01*
X212707Y-231562D01*
X213044Y-230748D01*
X213159Y-229874D01*
X213044Y-229000D01*
X212707Y-228186D01*
X212170Y-227487D01*
X211471Y-226951D01*
X210657Y-226614D01*
X209784Y-226499D01*
D02*
G37*
G36*
X167016Y-228348D02*
X163980D01*
Y-228988D01*
X164058Y-229378D01*
X164279Y-229709D01*
X164610Y-229930D01*
X165000Y-230008D01*
X167016D01*
Y-228348D01*
D02*
G37*
G36*
X196365Y-224100D02*
X196286Y-224105D01*
X196260Y-224102D01*
X196234Y-224105D01*
X196155Y-224100D01*
X195384Y-224201D01*
X195309Y-224227D01*
X195284Y-224230D01*
X195259Y-224240D01*
X195182Y-224255D01*
X194464Y-224553D01*
X194398Y-224597D01*
X194374Y-224607D01*
X194353Y-224623D01*
X194282Y-224658D01*
X193665Y-225131D01*
X193613Y-225191D01*
X193592Y-225206D01*
X193577Y-225227D01*
X193517Y-225279D01*
X193044Y-225896D01*
X193009Y-225967D01*
X192993Y-225988D01*
X192983Y-226012D01*
X192939Y-226078D01*
X192641Y-226796D01*
X192626Y-226873D01*
X192616Y-226898D01*
X192613Y-226923D01*
X192587Y-226998D01*
X192486Y-227769D01*
X192489Y-227822D01*
X192479Y-227874D01*
X192489Y-227926D01*
X192486Y-227979D01*
X192587Y-228750D01*
X192613Y-228824D01*
X192616Y-228850D01*
X192626Y-228874D01*
X192641Y-228952D01*
X192939Y-229670D01*
X192983Y-229736D01*
X192993Y-229760D01*
X193009Y-229781D01*
X193044Y-229852D01*
X193517Y-230469D01*
X193577Y-230521D01*
X193592Y-230541D01*
X193613Y-230557D01*
X193665Y-230617D01*
X194282Y-231090D01*
X194353Y-231125D01*
X194374Y-231141D01*
X194398Y-231151D01*
X194464Y-231195D01*
X195182Y-231492D01*
X195259Y-231508D01*
X195284Y-231518D01*
X195309Y-231521D01*
X195384Y-231547D01*
X196155Y-231648D01*
X196234Y-231643D01*
X196260Y-231646D01*
X196286Y-231643D01*
X196365Y-231648D01*
X197135Y-231547D01*
X197210Y-231521D01*
X197236Y-231518D01*
X197260Y-231508D01*
X197338Y-231492D01*
X198056Y-231195D01*
X198122Y-231151D01*
X198146Y-231141D01*
X198167Y-231125D01*
X198238Y-231090D01*
X198855Y-230617D01*
X198907Y-230557D01*
X198927Y-230541D01*
X198943Y-230521D01*
X199003Y-230469D01*
X199476Y-229852D01*
X199511Y-229781D01*
X199527Y-229760D01*
X199537Y-229736D01*
X199581Y-229670D01*
X199878Y-228952D01*
X199894Y-228874D01*
X199904Y-228850D01*
X199907Y-228824D01*
X199933Y-228750D01*
X200034Y-227979D01*
X200031Y-227926D01*
X200041Y-227874D01*
X200031Y-227822D01*
X200034Y-227769D01*
X199933Y-226998D01*
X199907Y-226923D01*
X199904Y-226898D01*
X199894Y-226873D01*
X199878Y-226796D01*
X199581Y-226078D01*
X199537Y-226012D01*
X199527Y-225988D01*
X199511Y-225967D01*
X199476Y-225896D01*
X199003Y-225279D01*
X198943Y-225227D01*
X198927Y-225206D01*
X198907Y-225191D01*
X198855Y-225131D01*
X198238Y-224658D01*
X198167Y-224623D01*
X198146Y-224607D01*
X198122Y-224597D01*
X198056Y-224553D01*
X197338Y-224255D01*
X197260Y-224240D01*
X197236Y-224230D01*
X197210Y-224227D01*
X197135Y-224201D01*
X196365Y-224100D01*
D02*
G37*
G36*
X120984Y-215746D02*
Y-219016D01*
X124254D01*
X124235Y-218865D01*
X123797Y-217808D01*
X123100Y-216900D01*
X122192Y-216203D01*
X121135Y-215765D01*
X120984Y-215746D01*
D02*
G37*
G36*
X139016Y-205984D02*
X135634D01*
Y-208347D01*
X135712Y-208737D01*
X135933Y-209067D01*
X136263Y-209288D01*
X136653Y-209366D01*
X139016D01*
Y-205984D01*
D02*
G37*
G36*
X124254Y-220984D02*
X120984D01*
Y-224254D01*
X121135Y-224235D01*
X122192Y-223797D01*
X123100Y-223100D01*
X123797Y-222192D01*
X124235Y-221135D01*
X124254Y-220984D01*
D02*
G37*
G36*
X190354Y-215830D02*
X189275Y-215973D01*
X188270Y-216389D01*
X187406Y-217052D01*
X186743Y-217915D01*
X186327Y-218921D01*
X186185Y-220000D01*
X186327Y-221079D01*
X186743Y-222085D01*
X187406Y-222948D01*
X188270Y-223611D01*
X189275Y-224027D01*
X190354Y-224169D01*
X191434Y-224027D01*
X192439Y-223611D01*
X193303Y-222948D01*
X193965Y-222085D01*
X194382Y-221079D01*
X194524Y-220000D01*
X194382Y-218921D01*
X193965Y-217915D01*
X193303Y-217052D01*
X192439Y-216389D01*
X191434Y-215973D01*
X190354Y-215830D01*
D02*
G37*
G36*
X156010Y-224100D02*
X155931Y-224105D01*
X155906Y-224102D01*
X155880Y-224105D01*
X155801Y-224100D01*
X155030Y-224201D01*
X154955Y-224227D01*
X154929Y-224230D01*
X154905Y-224240D01*
X154827Y-224255D01*
X154109Y-224553D01*
X154043Y-224597D01*
X154019Y-224607D01*
X153999Y-224623D01*
X153928Y-224658D01*
X153311Y-225131D01*
X153259Y-225191D01*
X153238Y-225206D01*
X153222Y-225227D01*
X153163Y-225279D01*
X152689Y-225896D01*
X152655Y-225967D01*
X152639Y-225988D01*
X152629Y-226012D01*
X152585Y-226078D01*
X152287Y-226796D01*
X152272Y-226874D01*
X152262Y-226898D01*
X152258Y-226923D01*
X152233Y-226998D01*
X152131Y-227769D01*
X152135Y-227822D01*
X152125Y-227874D01*
X152135Y-227926D01*
X152131Y-227979D01*
X152233Y-228750D01*
X152258Y-228824D01*
X152262Y-228850D01*
X152272Y-228874D01*
X152287Y-228952D01*
X152585Y-229670D01*
X152629Y-229736D01*
X152639Y-229760D01*
X152655Y-229781D01*
X152690Y-229852D01*
X153163Y-230469D01*
X153222Y-230521D01*
X153238Y-230541D01*
X153259Y-230557D01*
X153311Y-230617D01*
X153928Y-231090D01*
X153999Y-231125D01*
X154019Y-231141D01*
X154043Y-231151D01*
X154109Y-231195D01*
X154827Y-231492D01*
X154905Y-231508D01*
X154929Y-231518D01*
X154955Y-231521D01*
X155030Y-231547D01*
X155801Y-231648D01*
X155880Y-231643D01*
X155906Y-231646D01*
X155931Y-231643D01*
X156010Y-231648D01*
X156781Y-231547D01*
X156856Y-231521D01*
X156882Y-231518D01*
X156906Y-231508D01*
X156984Y-231492D01*
X157702Y-231195D01*
X157768Y-231151D01*
X157792Y-231141D01*
X157812Y-231125D01*
X157883Y-231090D01*
X158500Y-230617D01*
X158553Y-230557D01*
X158573Y-230541D01*
X158589Y-230521D01*
X158649Y-230469D01*
X159122Y-229852D01*
X159157Y-229781D01*
X159173Y-229760D01*
X159183Y-229736D01*
X159227Y-229670D01*
X159524Y-228952D01*
X159539Y-228874D01*
X159549Y-228850D01*
X159553Y-228824D01*
X159578Y-228750D01*
X159680Y-227979D01*
X159676Y-227926D01*
X159687Y-227874D01*
X159676Y-227822D01*
X159680Y-227769D01*
X159578Y-226998D01*
X159553Y-226923D01*
X159549Y-226898D01*
X159539Y-226873D01*
X159524Y-226796D01*
X159227Y-226078D01*
X159183Y-226012D01*
X159173Y-225988D01*
X159157Y-225967D01*
X159122Y-225896D01*
X158649Y-225279D01*
X158589Y-225227D01*
X158573Y-225206D01*
X158552Y-225191D01*
X158500Y-225131D01*
X157883Y-224658D01*
X157812Y-224623D01*
X157792Y-224607D01*
X157768Y-224597D01*
X157702Y-224553D01*
X156984Y-224255D01*
X156906Y-224240D01*
X156882Y-224230D01*
X156856Y-224227D01*
X156781Y-224201D01*
X156010Y-224100D01*
D02*
G37*
G36*
X171000Y-195992D02*
X168984D01*
Y-197652D01*
X172020D01*
Y-197012D01*
X171942Y-196622D01*
X171721Y-196291D01*
X171390Y-196070D01*
X171000Y-195992D01*
D02*
G37*
G36*
X196365Y-192604D02*
X196286Y-192609D01*
X196260Y-192606D01*
X196234Y-192609D01*
X196155Y-192604D01*
X195384Y-192705D01*
X195309Y-192731D01*
X195284Y-192734D01*
X195259Y-192744D01*
X195182Y-192760D01*
X194464Y-193057D01*
X194398Y-193101D01*
X194374Y-193111D01*
X194353Y-193127D01*
X194282Y-193162D01*
X193665Y-193635D01*
X193613Y-193695D01*
X193592Y-193710D01*
X193577Y-193731D01*
X193517Y-193783D01*
X193044Y-194400D01*
X193009Y-194471D01*
X192993Y-194492D01*
X192983Y-194516D01*
X192939Y-194582D01*
X192641Y-195300D01*
X192626Y-195378D01*
X192616Y-195402D01*
X192613Y-195428D01*
X192587Y-195502D01*
X192486Y-196273D01*
X192489Y-196326D01*
X192479Y-196378D01*
X192489Y-196430D01*
X192486Y-196483D01*
X192587Y-197254D01*
X192613Y-197328D01*
X192616Y-197354D01*
X192626Y-197378D01*
X192641Y-197456D01*
X192939Y-198174D01*
X192983Y-198240D01*
X192993Y-198264D01*
X193009Y-198285D01*
X193044Y-198356D01*
X193517Y-198973D01*
X193577Y-199025D01*
X193592Y-199046D01*
X193613Y-199061D01*
X193665Y-199121D01*
X194282Y-199594D01*
X194353Y-199629D01*
X194374Y-199645D01*
X194398Y-199655D01*
X194464Y-199699D01*
X195182Y-199996D01*
X195259Y-200012D01*
X195284Y-200022D01*
X195309Y-200025D01*
X195384Y-200051D01*
X196155Y-200152D01*
X196234Y-200147D01*
X196260Y-200150D01*
X196286Y-200147D01*
X196365Y-200152D01*
X197135Y-200051D01*
X197210Y-200025D01*
X197236Y-200022D01*
X197260Y-200012D01*
X197338Y-199996D01*
X198056Y-199699D01*
X198122Y-199655D01*
X198146Y-199645D01*
X198167Y-199629D01*
X198238Y-199594D01*
X198855Y-199121D01*
X198907Y-199061D01*
X198927Y-199046D01*
X198943Y-199025D01*
X199003Y-198973D01*
X199476Y-198356D01*
X199511Y-198285D01*
X199527Y-198264D01*
X199537Y-198240D01*
X199581Y-198174D01*
X199878Y-197456D01*
X199894Y-197378D01*
X199904Y-197354D01*
X199907Y-197328D01*
X199933Y-197254D01*
X200034Y-196483D01*
X200031Y-196430D01*
X200041Y-196378D01*
X200031Y-196326D01*
X200034Y-196273D01*
X199933Y-195502D01*
X199907Y-195428D01*
X199904Y-195402D01*
X199894Y-195378D01*
X199878Y-195300D01*
X199581Y-194582D01*
X199537Y-194516D01*
X199527Y-194492D01*
X199511Y-194471D01*
X199476Y-194400D01*
X199003Y-193783D01*
X198943Y-193731D01*
X198927Y-193710D01*
X198907Y-193695D01*
X198855Y-193635D01*
X198238Y-193162D01*
X198167Y-193127D01*
X198146Y-193111D01*
X198122Y-193101D01*
X198056Y-193057D01*
X197338Y-192760D01*
X197260Y-192744D01*
X197236Y-192734D01*
X197210Y-192731D01*
X197135Y-192705D01*
X196365Y-192604D01*
D02*
G37*
G36*
X71516Y-110984D02*
X68595D01*
X68603Y-111044D01*
X69006Y-112017D01*
X69647Y-112853D01*
X70483Y-113494D01*
X71456Y-113897D01*
X71516Y-113905D01*
Y-110984D01*
D02*
G37*
G36*
X139516Y-122035D02*
X138927Y-122427D01*
X138534Y-123016D01*
X139516D01*
Y-122035D01*
D02*
G37*
G36*
X148445Y-163984D02*
X145850D01*
X143256D01*
Y-164969D01*
X143334Y-165359D01*
X143481Y-165579D01*
X143279Y-165989D01*
X143233Y-166039D01*
X143000Y-165993D01*
X142232Y-166146D01*
X141581Y-166581D01*
X141146Y-167232D01*
X140993Y-168000D01*
X141146Y-168768D01*
X141581Y-169419D01*
X142232Y-169854D01*
X143000Y-170007D01*
X143473Y-170385D01*
Y-170968D01*
X143534Y-171276D01*
X143708Y-171536D01*
X143968Y-171710D01*
X144144Y-171745D01*
Y-172255D01*
X143968Y-172290D01*
X143708Y-172464D01*
X143534Y-172724D01*
X143473Y-173031D01*
Y-176969D01*
X143534Y-177276D01*
X143708Y-177536D01*
X143799Y-177597D01*
X143831Y-177778D01*
X143799Y-178139D01*
X143795Y-178150D01*
X143555Y-178311D01*
X143334Y-178641D01*
X143256Y-179032D01*
Y-180016D01*
X145850D01*
Y-181000D01*
D01*
Y-180016D01*
X148445D01*
Y-179032D01*
X148367Y-178641D01*
X148146Y-178311D01*
X147906Y-178150D01*
X147901Y-178139D01*
X147870Y-177778D01*
X147902Y-177597D01*
X147993Y-177536D01*
X148167Y-177276D01*
X148228Y-176969D01*
Y-173031D01*
X148167Y-172724D01*
X147993Y-172464D01*
X147732Y-172290D01*
X147557Y-172255D01*
Y-171745D01*
X147732Y-171710D01*
X147993Y-171536D01*
X148167Y-171276D01*
X148228Y-170968D01*
Y-167032D01*
X148167Y-166724D01*
X147993Y-166464D01*
X147902Y-166403D01*
X147870Y-166222D01*
X147901Y-165861D01*
X147906Y-165850D01*
X148146Y-165690D01*
X148367Y-165359D01*
X148445Y-164969D01*
Y-163984D01*
D02*
G37*
G36*
X137500Y-167493D02*
X136732Y-167646D01*
X136081Y-168081D01*
X135646Y-168732D01*
X135493Y-169500D01*
X135646Y-170268D01*
X136081Y-170919D01*
X136732Y-171354D01*
X137500Y-171507D01*
X137559Y-171990D01*
Y-174850D01*
X137620Y-175158D01*
X137795Y-175418D01*
X138055Y-175592D01*
X138362Y-175653D01*
X141118D01*
X141425Y-175592D01*
X141686Y-175418D01*
X141860Y-175158D01*
X141921Y-174850D01*
Y-171701D01*
X141860Y-171394D01*
X141686Y-171133D01*
X141425Y-170959D01*
X141118Y-170898D01*
X140598D01*
X140592Y-170889D01*
X139457Y-169754D01*
X139507Y-169500D01*
X139354Y-168732D01*
X138919Y-168081D01*
X138268Y-167646D01*
X137500Y-167493D01*
D02*
G37*
G36*
X148445Y-181984D02*
X146835D01*
Y-183988D01*
X147425D01*
X147815Y-183911D01*
X148146Y-183689D01*
X148367Y-183359D01*
X148445Y-182968D01*
Y-181984D01*
D02*
G37*
G36*
X144866D02*
X143256D01*
Y-182968D01*
X143334Y-183359D01*
X143555Y-183689D01*
X143885Y-183911D01*
X144276Y-183988D01*
X144866D01*
Y-181984D01*
D02*
G37*
G36*
X20262Y-146484D02*
X15394D01*
Y-151353D01*
X15570Y-151336D01*
X16686Y-150997D01*
X17715Y-150447D01*
X18617Y-149707D01*
X19357Y-148806D01*
X19906Y-147777D01*
X20245Y-146661D01*
X20262Y-146484D01*
D02*
G37*
G36*
X57425Y-134299D02*
X50099D01*
Y-140234D01*
X50205Y-140767D01*
X50507Y-141218D01*
X50958Y-141519D01*
X51490Y-141625D01*
X57425D01*
Y-134299D01*
D02*
G37*
G36*
X15394Y-139647D02*
Y-144516D01*
X20262D01*
X20245Y-144339D01*
X19906Y-143223D01*
X19357Y-142194D01*
X18617Y-141293D01*
X17715Y-140553D01*
X16686Y-140003D01*
X15570Y-139664D01*
X15394Y-139647D01*
D02*
G37*
G36*
X13425D02*
X13249Y-139664D01*
X12133Y-140003D01*
X11104Y-140553D01*
X10202Y-141293D01*
X9462Y-142194D01*
X8912Y-143223D01*
X8574Y-144339D01*
X8557Y-144516D01*
X13425D01*
Y-139647D01*
D02*
G37*
G36*
Y-146484D02*
X8557D01*
X8574Y-146661D01*
X8912Y-147777D01*
X9462Y-148806D01*
X10202Y-149707D01*
X11104Y-150447D01*
X12133Y-150997D01*
X13249Y-151336D01*
X13425Y-151353D01*
Y-146484D01*
D02*
G37*
G36*
X57425Y-150202D02*
X51490D01*
X50958Y-150308D01*
X50507Y-150609D01*
X50205Y-151060D01*
X50099Y-151593D01*
Y-157528D01*
X57425D01*
Y-150202D01*
D02*
G37*
G36*
X170016Y-132484D02*
X168195D01*
X168407Y-132997D01*
X168883Y-133617D01*
X169503Y-134093D01*
X170016Y-134305D01*
Y-132484D01*
D02*
G37*
G36*
X173805D02*
X171984D01*
Y-134305D01*
X172497Y-134093D01*
X173117Y-133617D01*
X173593Y-132997D01*
X173805Y-132484D01*
D02*
G37*
G36*
X168516Y-137034D02*
X167928Y-137427D01*
X167534Y-138016D01*
X168516D01*
Y-137034D01*
D02*
G37*
G36*
X170016Y-128695D02*
X169503Y-128907D01*
X168883Y-129383D01*
X168407Y-130003D01*
X168195Y-130516D01*
X170016D01*
Y-128695D01*
D02*
G37*
G36*
X171984Y-128695D02*
Y-130516D01*
X173805D01*
X173593Y-130003D01*
X173117Y-129383D01*
X172497Y-128907D01*
X172027Y-128712D01*
X171984Y-128695D01*
D02*
G37*
G36*
X183516Y-123695D02*
X183003Y-123907D01*
X182383Y-124383D01*
X181907Y-125003D01*
X181695Y-125516D01*
X183516D01*
Y-123695D01*
D02*
G37*
G36*
Y-127484D02*
X181695D01*
X181907Y-127997D01*
X182383Y-128617D01*
X183003Y-129093D01*
X183516Y-129305D01*
Y-127484D01*
D02*
G37*
G36*
X144843Y-41973D02*
X140905D01*
X140515Y-42050D01*
X140185Y-42271D01*
X139963Y-42602D01*
X139886Y-42992D01*
Y-44961D01*
X144843D01*
Y-41973D01*
D02*
G37*
G36*
X119252Y-41973D02*
X115315D01*
Y-44961D01*
X120272D01*
Y-42992D01*
X120194Y-42602D01*
X119973Y-42271D01*
X119642Y-42050D01*
X119252Y-41973D01*
D02*
G37*
G36*
X129095Y-41973D02*
X125157D01*
X124767Y-42050D01*
X124436Y-42271D01*
X124215Y-42602D01*
X124138Y-42992D01*
Y-44961D01*
X129095D01*
Y-41973D01*
D02*
G37*
G36*
X135000D02*
X131063D01*
Y-44961D01*
X136020D01*
Y-42992D01*
X135942Y-42602D01*
X135721Y-42271D01*
X135390Y-42050D01*
X135000Y-41973D01*
D02*
G37*
G36*
X52551Y-20669D02*
X46693D01*
Y-26527D01*
X47062Y-26491D01*
X48364Y-26096D01*
X49564Y-25455D01*
X50615Y-24592D01*
X51478Y-23540D01*
X52119Y-22341D01*
X52514Y-21039D01*
X52551Y-20669D01*
D02*
G37*
G36*
X96925Y-132276D02*
X90591D01*
Y-134441D01*
X90668Y-134831D01*
X90889Y-135162D01*
X91220Y-135383D01*
X91610Y-135461D01*
X96925D01*
Y-132276D01*
D02*
G37*
G36*
X269953Y-126244D02*
X264047D01*
X263740Y-126305D01*
X263480Y-126480D01*
X263305Y-126740D01*
X263244Y-127047D01*
Y-132953D01*
X263305Y-133260D01*
X263480Y-133520D01*
X263740Y-133695D01*
X264047Y-133756D01*
X269953D01*
X270260Y-133695D01*
X270520Y-133520D01*
X270694Y-133260D01*
X270756Y-132953D01*
Y-127047D01*
X270694Y-126740D01*
X270520Y-126480D01*
X270260Y-126305D01*
X269953Y-126244D01*
D02*
G37*
G36*
X252943Y-132984D02*
X250348D01*
Y-136169D01*
X251923D01*
X252313Y-136092D01*
X252644Y-135871D01*
X252865Y-135540D01*
X252943Y-135150D01*
Y-132984D01*
D02*
G37*
G36*
X248380D02*
X245786D01*
Y-135150D01*
X245863Y-135540D01*
X246084Y-135871D01*
X246415Y-136092D01*
X246805Y-136169D01*
X248380D01*
Y-132984D01*
D02*
G37*
G36*
X248744Y-117831D02*
X247169D01*
X246779Y-117908D01*
X246448Y-118129D01*
X246227Y-118460D01*
X246150Y-118850D01*
Y-121016D01*
X248744D01*
Y-117831D01*
D02*
G37*
G36*
X252287D02*
X250713D01*
Y-121016D01*
X253307D01*
Y-118850D01*
X253229Y-118460D01*
X253008Y-118129D01*
X252678Y-117908D01*
X252287Y-117831D01*
D02*
G37*
G36*
X246720Y-114725D02*
X245110D01*
Y-116335D01*
X245701D01*
X246091Y-116257D01*
X246422Y-116036D01*
X246643Y-115705D01*
X246720Y-115315D01*
Y-114725D01*
D02*
G37*
G36*
X238016Y-114283D02*
X236012D01*
Y-114874D01*
X236089Y-115264D01*
X236311Y-115595D01*
X236641Y-115816D01*
X237032Y-115894D01*
X238016D01*
Y-114283D01*
D02*
G37*
G36*
X217165Y-113012D02*
X216575D01*
X216185Y-113090D01*
X215854Y-113311D01*
X215633Y-113641D01*
X215555Y-114032D01*
Y-115016D01*
X217165D01*
Y-113012D01*
D02*
G37*
G36*
X241559Y-118048D02*
X236441D01*
X236134Y-118109D01*
X235873Y-118283D01*
X235823Y-118358D01*
X235350Y-118452D01*
X235226Y-118420D01*
X235032Y-118290D01*
X234724Y-118229D01*
X231575D01*
X231268Y-118290D01*
X231007Y-118464D01*
X230833Y-118724D01*
X230772Y-119032D01*
Y-122968D01*
X230833Y-123276D01*
X231007Y-123536D01*
X231268Y-123710D01*
X231575Y-123771D01*
X234724D01*
X235032Y-123710D01*
X235138Y-123639D01*
X235617Y-123841D01*
X235638Y-123861D01*
Y-125150D01*
X235699Y-125457D01*
X235873Y-125717D01*
X236134Y-125891D01*
X236441Y-125952D01*
X241559D01*
X241866Y-125891D01*
X242127Y-125717D01*
X242301Y-125457D01*
X242362Y-125150D01*
Y-118850D01*
X242301Y-118543D01*
X242127Y-118283D01*
X241866Y-118109D01*
X241559Y-118048D01*
D02*
G37*
G36*
X240968Y-110705D02*
X239984D01*
Y-113299D01*
Y-115894D01*
X240968D01*
X241359Y-115816D01*
X241830Y-116036D01*
X242161Y-116257D01*
X242551Y-116335D01*
X243142D01*
Y-113740D01*
Y-111146D01*
X242551D01*
X242161Y-111223D01*
X241689Y-111003D01*
X241359Y-110782D01*
X240968Y-110705D01*
D02*
G37*
G36*
X248380Y-127831D02*
X246805D01*
X246415Y-127908D01*
X246084Y-128129D01*
X245863Y-128460D01*
X245786Y-128850D01*
Y-131016D01*
X248380D01*
Y-127831D01*
D02*
G37*
G36*
X251923D02*
X250348D01*
Y-131016D01*
X252943D01*
Y-128850D01*
X252865Y-128460D01*
X252644Y-128129D01*
X252313Y-127908D01*
X251923Y-127831D01*
D02*
G37*
G36*
X299213Y-103301D02*
X296896Y-103483D01*
X294636Y-104026D01*
X292489Y-104915D01*
X290508Y-106129D01*
X288741Y-107638D01*
X287231Y-109406D01*
X286017Y-111387D01*
X285128Y-113534D01*
X284585Y-115794D01*
X284403Y-118110D01*
X284585Y-120427D01*
X285128Y-122687D01*
X286017Y-124834D01*
X287231Y-126815D01*
X288741Y-128582D01*
X290508Y-130091D01*
X292489Y-131306D01*
X294636Y-132195D01*
X296896Y-132737D01*
X299213Y-132920D01*
X301529Y-132737D01*
X303789Y-132195D01*
X305936Y-131306D01*
X307917Y-130091D01*
X309684Y-128582D01*
X311194Y-126815D01*
X312408Y-124834D01*
X313297Y-122687D01*
X313840Y-120427D01*
X314022Y-118110D01*
X313840Y-115794D01*
X313297Y-113534D01*
X312408Y-111387D01*
X311194Y-109406D01*
X309684Y-107638D01*
X307917Y-106129D01*
X305936Y-104915D01*
X303789Y-104026D01*
X301529Y-103483D01*
X299213Y-103301D01*
D02*
G37*
G36*
X14410Y-119742D02*
X12919Y-119938D01*
X11530Y-120513D01*
X10338Y-121429D01*
X9423Y-122621D01*
X8848Y-124010D01*
X8652Y-125500D01*
X8848Y-126990D01*
X9423Y-128379D01*
X10338Y-129571D01*
X11530Y-130487D01*
X12919Y-131062D01*
X14410Y-131258D01*
X15900Y-131062D01*
X17288Y-130487D01*
X18481Y-129571D01*
X19396Y-128379D01*
X19971Y-126990D01*
X20167Y-125500D01*
X19971Y-124010D01*
X19396Y-122621D01*
X18481Y-121429D01*
X17288Y-120513D01*
X15900Y-119938D01*
X14410Y-119742D01*
D02*
G37*
G36*
X248744Y-122984D02*
X246150D01*
Y-125150D01*
X246227Y-125540D01*
X246448Y-125871D01*
X246779Y-126092D01*
X247169Y-126169D01*
X248744D01*
Y-122984D01*
D02*
G37*
G36*
X253307D02*
X250713D01*
Y-126169D01*
X252287D01*
X252678Y-126092D01*
X253008Y-125871D01*
X253229Y-125540D01*
X253307Y-125150D01*
Y-122984D01*
D02*
G37*
G36*
X241195Y-128048D02*
X236077D01*
X235770Y-128109D01*
X235509Y-128283D01*
X235032Y-128290D01*
X234724Y-128229D01*
X231575D01*
X231268Y-128290D01*
X231007Y-128464D01*
X230833Y-128724D01*
X230772Y-129032D01*
Y-132968D01*
X230833Y-133276D01*
X231007Y-133536D01*
X231268Y-133710D01*
X231575Y-133771D01*
X234724D01*
X234774Y-133762D01*
X235274Y-134104D01*
Y-135150D01*
X235335Y-135457D01*
X235509Y-135717D01*
X235770Y-135891D01*
X236077Y-135952D01*
X241195D01*
X241502Y-135891D01*
X241762Y-135717D01*
X241937Y-135457D01*
X241998Y-135150D01*
Y-128850D01*
X241937Y-128543D01*
X241762Y-128283D01*
X241502Y-128109D01*
X241195Y-128048D01*
D02*
G37*
G36*
X218543Y-123504D02*
X215949D01*
Y-125669D01*
X216027Y-126059D01*
X216248Y-126390D01*
X216578Y-126611D01*
X216969Y-126689D01*
X218543D01*
Y-123504D01*
D02*
G37*
G36*
X292504Y-47437D02*
X291126D01*
X290736Y-47515D01*
X290405Y-47736D01*
X290184Y-48066D01*
X290106Y-48457D01*
Y-51016D01*
X292504D01*
Y-47437D01*
D02*
G37*
G36*
X264850D02*
X263472D01*
Y-51016D01*
X265870D01*
Y-48457D01*
X265792Y-48066D01*
X265571Y-47736D01*
X265241Y-47515D01*
X264850Y-47437D01*
D02*
G37*
G36*
X265870Y-52984D02*
X263472D01*
Y-56563D01*
X264850D01*
X265241Y-56485D01*
X265571Y-56264D01*
X265792Y-55933D01*
X265870Y-55543D01*
Y-52984D01*
D02*
G37*
G36*
X292504D02*
X290106D01*
Y-55543D01*
X290184Y-55933D01*
X290405Y-56264D01*
X290736Y-56485D01*
X291126Y-56563D01*
X292504D01*
Y-52984D01*
D02*
G37*
G36*
X296870D02*
X294472D01*
Y-56563D01*
X295850D01*
X296241Y-56485D01*
X296571Y-56264D01*
X296792Y-55933D01*
X296870Y-55543D01*
Y-52984D01*
D02*
G37*
G36*
X231681Y-73988D02*
X231484D01*
Y-76386D01*
X232701D01*
Y-75008D01*
X232623Y-74618D01*
X232402Y-74287D01*
X232071Y-74066D01*
X231681Y-73988D01*
D02*
G37*
G36*
X273000Y-66029D02*
X271972Y-66164D01*
X271014Y-66561D01*
X270192Y-67192D01*
X269561Y-68015D01*
X269164Y-68972D01*
X269029Y-70000D01*
X269164Y-71028D01*
X269561Y-71986D01*
X270192Y-72808D01*
X271014Y-73439D01*
X271972Y-73836D01*
X273000Y-73971D01*
X274028Y-73836D01*
X274986Y-73439D01*
X275808Y-72808D01*
X276439Y-71986D01*
X276836Y-71028D01*
X276971Y-70000D01*
X276836Y-68972D01*
X276439Y-68015D01*
X275808Y-67192D01*
X274986Y-66561D01*
X274028Y-66164D01*
X273000Y-66029D01*
D02*
G37*
G36*
X305000D02*
X303972Y-66164D01*
X303014Y-66561D01*
X302192Y-67192D01*
X301561Y-68015D01*
X301164Y-68972D01*
X301029Y-70000D01*
X301164Y-71028D01*
X301561Y-71986D01*
X302192Y-72808D01*
X303014Y-73439D01*
X303972Y-73836D01*
X305000Y-73971D01*
X306028Y-73836D01*
X306985Y-73439D01*
X307808Y-72808D01*
X308439Y-71986D01*
X308836Y-71028D01*
X308971Y-70000D01*
X308836Y-68972D01*
X308439Y-68015D01*
X307808Y-67192D01*
X306985Y-66561D01*
X306028Y-66164D01*
X305000Y-66029D01*
D02*
G37*
G36*
X295850Y-47437D02*
X294472D01*
Y-51016D01*
X296870D01*
Y-48457D01*
X296792Y-48066D01*
X296571Y-47736D01*
X296241Y-47515D01*
X295850Y-47437D01*
D02*
G37*
G36*
X180856Y-13937D02*
X173474D01*
X172687Y-14094D01*
X172020Y-14539D01*
X171574Y-15207D01*
X171417Y-15994D01*
Y-23376D01*
X171574Y-24163D01*
X172020Y-24831D01*
X172687Y-25277D01*
X173474Y-25433D01*
X180856D01*
X181644Y-25277D01*
X182311Y-24831D01*
X182757Y-24163D01*
X182913Y-23376D01*
Y-15994D01*
X182757Y-15207D01*
X182311Y-14539D01*
X181644Y-14094D01*
X180856Y-13937D01*
D02*
G37*
G36*
X156496Y-13832D02*
X156319Y-13849D01*
X155203Y-14188D01*
X154175Y-14738D01*
X153273Y-15478D01*
X152533Y-16379D01*
X151983Y-17408D01*
X151645Y-18524D01*
X151627Y-18701D01*
X156496D01*
Y-13832D01*
D02*
G37*
G36*
X203740D02*
X203564Y-13849D01*
X202448Y-14188D01*
X201419Y-14738D01*
X200517Y-15478D01*
X199777Y-16379D01*
X199227Y-17408D01*
X198889Y-18524D01*
X198872Y-18701D01*
X203740D01*
Y-13832D01*
D02*
G37*
G36*
X163333Y-20669D02*
X158465D01*
Y-25538D01*
X158641Y-25521D01*
X159757Y-25182D01*
X160786Y-24632D01*
X161688Y-23892D01*
X162427Y-22991D01*
X162977Y-21962D01*
X163316Y-20846D01*
X163333Y-20669D01*
D02*
G37*
G36*
X224410Y-13927D02*
X222919Y-14123D01*
X221531Y-14698D01*
X220338Y-15614D01*
X219423Y-16806D01*
X218848Y-18195D01*
X218652Y-19685D01*
X218848Y-21175D01*
X219423Y-22564D01*
X220338Y-23756D01*
X221531Y-24671D01*
X222919Y-25247D01*
X224410Y-25443D01*
X225900Y-25247D01*
X227288Y-24671D01*
X228481Y-23756D01*
X229396Y-22564D01*
X229971Y-21175D01*
X230167Y-19685D01*
X229971Y-18195D01*
X229396Y-16806D01*
X228481Y-15614D01*
X227288Y-14698D01*
X225900Y-14123D01*
X224410Y-13927D01*
D02*
G37*
G36*
X244094D02*
X242604Y-14123D01*
X241215Y-14698D01*
X240023Y-15614D01*
X239108Y-16806D01*
X238533Y-18195D01*
X238337Y-19685D01*
X238533Y-21175D01*
X239108Y-22564D01*
X240023Y-23756D01*
X241215Y-24671D01*
X242604Y-25247D01*
X244094Y-25443D01*
X245585Y-25247D01*
X246973Y-24671D01*
X248166Y-23756D01*
X249081Y-22564D01*
X249656Y-21175D01*
X249852Y-19685D01*
X249656Y-18195D01*
X249081Y-16806D01*
X248166Y-15614D01*
X246973Y-14698D01*
X245585Y-14123D01*
X244094Y-13927D01*
D02*
G37*
G36*
X205709Y-13832D02*
Y-18701D01*
X210577D01*
X210560Y-18524D01*
X210221Y-17408D01*
X209672Y-16379D01*
X208932Y-15478D01*
X208030Y-14738D01*
X207001Y-14188D01*
X205885Y-13849D01*
X205709Y-13832D01*
D02*
G37*
G36*
X281968Y-4622D02*
X278031D01*
X277724Y-4684D01*
X277464Y-4857D01*
X277290Y-5118D01*
X277229Y-5425D01*
Y-8575D01*
X277290Y-8882D01*
X277464Y-9143D01*
X277724Y-9317D01*
X278031Y-9378D01*
X281968D01*
X282276Y-9317D01*
X282536Y-9143D01*
X282710Y-8882D01*
X282771Y-8575D01*
Y-8204D01*
X285154D01*
X285488Y-8704D01*
X285356Y-9024D01*
X285228Y-10000D01*
X285356Y-10976D01*
X285733Y-11886D01*
X286333Y-12667D01*
X287114Y-13267D01*
X288024Y-13644D01*
X289000Y-13772D01*
X289976Y-13644D01*
X290886Y-13267D01*
X291668Y-12667D01*
X292267Y-11886D01*
X292644Y-10976D01*
X292772Y-10000D01*
X292644Y-9024D01*
X292267Y-8114D01*
X291668Y-7333D01*
X290886Y-6733D01*
X289976Y-6356D01*
X289000Y-6228D01*
X288024Y-6356D01*
X287342Y-6639D01*
X286852Y-6148D01*
X286461Y-5887D01*
X286000Y-5796D01*
X286000Y-5796D01*
X282771D01*
Y-5425D01*
X282710Y-5118D01*
X282536Y-4857D01*
X282276Y-4684D01*
X281968Y-4622D01*
D02*
G37*
G36*
X308016Y-6028D02*
X306047D01*
X305657Y-6105D01*
X305326Y-6326D01*
X305105Y-6657D01*
X305028Y-7047D01*
Y-9016D01*
X308016D01*
Y-6028D01*
D02*
G37*
G36*
X311953D02*
X309984D01*
Y-9016D01*
X312972D01*
Y-7047D01*
X312895Y-6657D01*
X312674Y-6326D01*
X312343Y-6105D01*
X311953Y-6028D01*
D02*
G37*
G36*
X158465Y-13832D02*
Y-18701D01*
X163333D01*
X163316Y-18524D01*
X162977Y-17408D01*
X162427Y-16379D01*
X161688Y-15478D01*
X160786Y-14738D01*
X159757Y-14188D01*
X158641Y-13849D01*
X158465Y-13832D01*
D02*
G37*
G36*
X308016Y-10984D02*
X305028D01*
Y-12953D01*
X305105Y-13343D01*
X305326Y-13674D01*
X305657Y-13895D01*
X306047Y-13972D01*
X308016D01*
Y-10984D01*
D02*
G37*
G36*
X312972D02*
X309984D01*
Y-13972D01*
X311953D01*
X312343Y-13895D01*
X312674Y-13674D01*
X312895Y-13343D01*
X312972Y-12953D01*
Y-10984D01*
D02*
G37*
G36*
X210577Y-20669D02*
X205709D01*
Y-25538D01*
X205885Y-25521D01*
X207001Y-25182D01*
X208030Y-24632D01*
X208932Y-23892D01*
X209672Y-22991D01*
X210221Y-21962D01*
X210560Y-20846D01*
X210577Y-20669D01*
D02*
G37*
G36*
X312972Y-35984D02*
X309984D01*
Y-38972D01*
X311953D01*
X312343Y-38895D01*
X312674Y-38674D01*
X312895Y-38343D01*
X312972Y-37953D01*
Y-35984D01*
D02*
G37*
G36*
X281968Y-28473D02*
X278031D01*
X277724Y-28534D01*
X277464Y-28708D01*
X277290Y-28968D01*
X277229Y-29276D01*
Y-32425D01*
X277290Y-32732D01*
X277464Y-32993D01*
X277724Y-33167D01*
X278031Y-33228D01*
X281968D01*
X282276Y-33167D01*
X282536Y-32993D01*
X282710Y-32732D01*
X282771Y-32425D01*
Y-32055D01*
X284352D01*
X285639Y-33342D01*
X285356Y-34024D01*
X285228Y-35000D01*
X285356Y-35976D01*
X285733Y-36886D01*
X286333Y-37668D01*
X287114Y-38267D01*
X288024Y-38644D01*
X289000Y-38772D01*
X289976Y-38644D01*
X290886Y-38267D01*
X291668Y-37668D01*
X292267Y-36886D01*
X292644Y-35976D01*
X292772Y-35000D01*
X292644Y-34024D01*
X292267Y-33114D01*
X291668Y-32333D01*
X290886Y-31733D01*
X289976Y-31356D01*
X289000Y-31228D01*
X288024Y-31356D01*
X287342Y-31639D01*
X285702Y-29999D01*
X285311Y-29738D01*
X284850Y-29646D01*
X284850Y-29646D01*
X282771D01*
Y-29276D01*
X282710Y-28968D01*
X282536Y-28708D01*
X282276Y-28534D01*
X281968Y-28473D01*
D02*
G37*
G36*
X156496Y-20669D02*
X151627D01*
X151645Y-20846D01*
X151983Y-21962D01*
X152533Y-22991D01*
X153273Y-23892D01*
X154175Y-24632D01*
X155203Y-25182D01*
X156319Y-25521D01*
X156496Y-25538D01*
Y-20669D01*
D02*
G37*
G36*
X203740D02*
X198872D01*
X198889Y-20846D01*
X199227Y-21962D01*
X199777Y-22991D01*
X200517Y-23892D01*
X201419Y-24632D01*
X202448Y-25182D01*
X203564Y-25521D01*
X203740Y-25538D01*
Y-20669D01*
D02*
G37*
G36*
X311953Y-31028D02*
X309984D01*
Y-34016D01*
X312972D01*
Y-32047D01*
X312895Y-31657D01*
X312674Y-31326D01*
X312343Y-31105D01*
X311953Y-31028D01*
D02*
G37*
G36*
X299000Y-6228D02*
X298024Y-6356D01*
X297114Y-6733D01*
X296333Y-7333D01*
X295733Y-8114D01*
X295356Y-9024D01*
X295228Y-10000D01*
X295356Y-10976D01*
X295733Y-11886D01*
X296333Y-12667D01*
X297114Y-13267D01*
X297194Y-13300D01*
Y-20000D01*
X297331Y-20691D01*
X297723Y-21277D01*
X302194Y-25748D01*
Y-32240D01*
X301720Y-32401D01*
X301667Y-32333D01*
X300886Y-31733D01*
X299976Y-31356D01*
X299000Y-31228D01*
X298024Y-31356D01*
X297114Y-31733D01*
X296333Y-32333D01*
X295733Y-33114D01*
X295356Y-34024D01*
X295228Y-35000D01*
X295356Y-35976D01*
X295389Y-36056D01*
X289252Y-42194D01*
X281512D01*
X280820Y-42331D01*
X280235Y-42723D01*
X275303Y-47654D01*
X271150D01*
X270842Y-47715D01*
X270582Y-47889D01*
X270408Y-48149D01*
X270347Y-48457D01*
Y-55543D01*
X270408Y-55850D01*
X270582Y-56111D01*
X270842Y-56285D01*
X271150Y-56346D01*
X275874D01*
X276181Y-56285D01*
X276442Y-56111D01*
X276616Y-55850D01*
X276677Y-55543D01*
Y-51389D01*
X282260Y-45806D01*
X290000D01*
X290691Y-45669D01*
X291277Y-45277D01*
X297944Y-38611D01*
X298024Y-38644D01*
X299000Y-38772D01*
X299976Y-38644D01*
X300886Y-38267D01*
X301667Y-37668D01*
X301720Y-37599D01*
X302194Y-37760D01*
Y-47654D01*
X302150D01*
X301842Y-47715D01*
X301582Y-47889D01*
X301408Y-48149D01*
X301347Y-48457D01*
Y-55543D01*
X301408Y-55850D01*
X301582Y-56111D01*
X301842Y-56285D01*
X302150Y-56346D01*
X306874D01*
X307181Y-56285D01*
X307442Y-56111D01*
X307616Y-55850D01*
X307677Y-55543D01*
Y-48457D01*
X307616Y-48149D01*
X307442Y-47889D01*
X307181Y-47715D01*
X306874Y-47654D01*
X305806D01*
Y-39170D01*
X306047Y-38972D01*
X308016D01*
Y-35000D01*
Y-31028D01*
X306047D01*
X305806Y-30830D01*
Y-25000D01*
X305669Y-24309D01*
X305277Y-23723D01*
X300806Y-19252D01*
Y-13300D01*
X300886Y-13267D01*
X301667Y-12667D01*
X302267Y-11886D01*
X302644Y-10976D01*
X302772Y-10000D01*
X302644Y-9024D01*
X302267Y-8114D01*
X301667Y-7333D01*
X300886Y-6733D01*
X299976Y-6356D01*
X299000Y-6228D01*
D02*
G37*
G36*
X15748Y-939D02*
X13431Y-1121D01*
X11172Y-1663D01*
X9025Y-2553D01*
X7043Y-3767D01*
X5276Y-5276D01*
X3767Y-7043D01*
X2553Y-9025D01*
X1663Y-11172D01*
X1121Y-13431D01*
X939Y-15748D01*
X1121Y-18065D01*
X1663Y-20324D01*
X2553Y-22471D01*
X3767Y-24453D01*
X5276Y-26220D01*
X7043Y-27729D01*
X9025Y-28943D01*
X11172Y-29833D01*
X13431Y-30375D01*
X15748Y-30557D01*
X18065Y-30375D01*
X20324Y-29833D01*
X22471Y-28943D01*
X24453Y-27729D01*
X26220Y-26220D01*
X27729Y-24453D01*
X28943Y-22471D01*
X29833Y-20324D01*
X30375Y-18065D01*
X30557Y-15748D01*
X30375Y-13431D01*
X29833Y-11172D01*
X28943Y-9025D01*
X27729Y-7043D01*
X26220Y-5276D01*
X24453Y-3767D01*
X22471Y-2553D01*
X20324Y-1663D01*
X18065Y-1121D01*
X15748Y-939D01*
D02*
G37*
G36*
X226681Y-73988D02*
X226484D01*
Y-76386D01*
X227701D01*
Y-75008D01*
X227623Y-74618D01*
X227402Y-74287D01*
X227071Y-74066D01*
X226681Y-73988D01*
D02*
G37*
G36*
X229516Y-95248D02*
X229319D01*
X228929Y-95326D01*
X228598Y-95547D01*
X228377Y-95877D01*
X228299Y-96268D01*
Y-97646D01*
X229516D01*
Y-95248D01*
D02*
G37*
G36*
X224516D02*
X224319D01*
X223929Y-95326D01*
X223598Y-95547D01*
X223377Y-95877D01*
X223299Y-96268D01*
Y-97646D01*
X224516D01*
Y-95248D01*
D02*
G37*
G36*
X232701Y-99614D02*
X231484D01*
Y-102012D01*
X231681D01*
X232071Y-101934D01*
X232402Y-101713D01*
X232623Y-101382D01*
X232701Y-100992D01*
Y-99614D01*
D02*
G37*
G36*
X236681Y-95465D02*
X234319D01*
X234012Y-95526D01*
X233751Y-95700D01*
X233577Y-95960D01*
X233516Y-96268D01*
Y-100992D01*
X233577Y-101299D01*
X233751Y-101560D01*
X234012Y-101734D01*
X234319Y-101795D01*
X236681D01*
X236988Y-101734D01*
X237249Y-101560D01*
X237423Y-101299D01*
X237484Y-100992D01*
Y-96268D01*
X237423Y-95960D01*
X237249Y-95700D01*
X236988Y-95526D01*
X236681Y-95465D01*
D02*
G37*
G36*
X198457Y-97039D02*
X194189D01*
Y-99240D01*
X197437D01*
X197827Y-99162D01*
X198158Y-98941D01*
X198379Y-98611D01*
X198457Y-98220D01*
Y-97039D01*
D02*
G37*
G36*
X226681Y-95248D02*
X226484D01*
Y-97646D01*
X227701D01*
Y-96268D01*
X227623Y-95877D01*
X227402Y-95547D01*
X227071Y-95326D01*
X226681Y-95248D01*
D02*
G37*
G36*
X211016Y-91035D02*
X210427Y-91427D01*
X210034Y-92016D01*
X211016D01*
Y-91035D01*
D02*
G37*
G36*
X212984D02*
Y-92016D01*
X213966D01*
X213573Y-91427D01*
X212984Y-91035D01*
D02*
G37*
G36*
X231681Y-95248D02*
X231484D01*
Y-97646D01*
X232701D01*
Y-96268D01*
X232623Y-95877D01*
X232402Y-95547D01*
X232071Y-95326D01*
X231681Y-95248D01*
D02*
G37*
G36*
X201016Y-95555D02*
X200031D01*
X199641Y-95633D01*
X199311Y-95854D01*
X199090Y-96185D01*
X199012Y-96575D01*
Y-97165D01*
X201016D01*
Y-95555D01*
D02*
G37*
G36*
X203969D02*
X202984D01*
Y-97165D01*
X204988D01*
Y-96575D01*
X204910Y-96185D01*
X204690Y-95854D01*
X204359Y-95633D01*
X203969Y-95555D01*
D02*
G37*
G36*
X229516Y-99614D02*
X228299D01*
Y-100992D01*
X228377Y-101382D01*
X228598Y-101713D01*
X228929Y-101934D01*
X229319Y-102012D01*
X229516D01*
Y-99614D01*
D02*
G37*
G36*
X238016Y-110705D02*
X237032D01*
X236641Y-110782D01*
X236311Y-111003D01*
X236089Y-111334D01*
X236012Y-111724D01*
Y-112315D01*
X238016D01*
Y-110705D01*
D02*
G37*
G36*
X245701Y-111146D02*
X245110D01*
Y-112756D01*
X246720D01*
Y-112165D01*
X246643Y-111775D01*
X246422Y-111444D01*
X246091Y-111223D01*
X245701Y-111146D01*
D02*
G37*
G36*
X224516Y-99614D02*
X223299D01*
Y-100992D01*
X223377Y-101382D01*
X223598Y-101713D01*
X223929Y-101934D01*
X224319Y-102012D01*
X224516D01*
Y-99614D01*
D02*
G37*
G36*
X227701D02*
X226484D01*
Y-102012D01*
X226681D01*
X227071Y-101934D01*
X227402Y-101713D01*
X227623Y-101382D01*
X227701Y-100992D01*
Y-99614D01*
D02*
G37*
G36*
X239500Y-101493D02*
X238732Y-101646D01*
X238081Y-102081D01*
X237646Y-102732D01*
X237493Y-103500D01*
X237617Y-104122D01*
X237327Y-104622D01*
X237032D01*
X236724Y-104683D01*
X236464Y-104858D01*
X236290Y-105118D01*
X236229Y-105425D01*
Y-108575D01*
X236290Y-108882D01*
X236464Y-109142D01*
X236724Y-109317D01*
X237032Y-109378D01*
X240968D01*
X241276Y-109317D01*
X241536Y-109142D01*
X241710Y-108882D01*
X241721Y-108828D01*
X242232Y-108580D01*
X242269Y-108581D01*
X242551Y-108637D01*
X245701D01*
X246008Y-108576D01*
X246269Y-108402D01*
X246443Y-108142D01*
X246504Y-107835D01*
Y-104685D01*
X246443Y-104378D01*
X246269Y-104117D01*
X246008Y-103943D01*
X245701Y-103882D01*
X242551D01*
X242244Y-103943D01*
X241984Y-104117D01*
X241810Y-104378D01*
X241366Y-104210D01*
X241369Y-104192D01*
X241507Y-103500D01*
X241354Y-102732D01*
X240919Y-102081D01*
X240268Y-101646D01*
X239500Y-101493D01*
D02*
G37*
G36*
X236681Y-74205D02*
X234319D01*
X234012Y-74266D01*
X233751Y-74440D01*
X233577Y-74701D01*
X233516Y-75008D01*
Y-79732D01*
X233577Y-80040D01*
X233751Y-80300D01*
X234012Y-80474D01*
X234319Y-80535D01*
X236681D01*
X236988Y-80474D01*
X237249Y-80300D01*
X237423Y-80040D01*
X237484Y-79732D01*
Y-75008D01*
X237423Y-74701D01*
X237249Y-74440D01*
X236988Y-74266D01*
X236681Y-74205D01*
D02*
G37*
G36*
X272016Y-75944D02*
X271917Y-75957D01*
X270907Y-76375D01*
X270040Y-77040D01*
X269375Y-77907D01*
X268957Y-78917D01*
X268944Y-79016D01*
X272016D01*
Y-75944D01*
D02*
G37*
G36*
X227701Y-78354D02*
X226484D01*
Y-80752D01*
X226681D01*
X227071Y-80674D01*
X227402Y-80453D01*
X227623Y-80123D01*
X227701Y-79732D01*
Y-78354D01*
D02*
G37*
G36*
X229516D02*
X228299D01*
Y-79732D01*
X228377Y-80123D01*
X228598Y-80453D01*
X228929Y-80674D01*
X229319Y-80752D01*
X229516D01*
Y-78354D01*
D02*
G37*
G36*
X232701D02*
X231484D01*
Y-80752D01*
X231681D01*
X232071Y-80674D01*
X232402Y-80453D01*
X232623Y-80123D01*
X232701Y-79732D01*
Y-78354D01*
D02*
G37*
G36*
X304016Y-75944D02*
X303917Y-75957D01*
X302907Y-76375D01*
X302041Y-77040D01*
X301375Y-77907D01*
X300957Y-78917D01*
X300944Y-79016D01*
X304016D01*
Y-75944D01*
D02*
G37*
G36*
X229516Y-73988D02*
X229319D01*
X228929Y-74066D01*
X228598Y-74287D01*
X228377Y-74618D01*
X228299Y-75008D01*
Y-76386D01*
X229516D01*
Y-73988D01*
D02*
G37*
G36*
X224516D02*
X224319D01*
X223929Y-74066D01*
X223598Y-74287D01*
X223377Y-74618D01*
X223299Y-75008D01*
Y-76386D01*
X224516D01*
Y-73988D01*
D02*
G37*
G36*
X273984Y-75944D02*
Y-79016D01*
X277056D01*
X277043Y-78917D01*
X276625Y-77907D01*
X275959Y-77040D01*
X275093Y-76375D01*
X274083Y-75957D01*
X273984Y-75944D01*
D02*
G37*
G36*
X305984D02*
Y-79016D01*
X309056D01*
X309043Y-78917D01*
X308625Y-77907D01*
X307960Y-77040D01*
X307093Y-76375D01*
X306083Y-75957D01*
X305984Y-75944D01*
D02*
G37*
G36*
X224516Y-78354D02*
X223299D01*
Y-79732D01*
X223377Y-80123D01*
X223598Y-80453D01*
X223929Y-80674D01*
X224319Y-80752D01*
X224516D01*
Y-78354D01*
D02*
G37*
G36*
X242016Y-83134D02*
X240012D01*
Y-83724D01*
X240090Y-84115D01*
X240311Y-84445D01*
X240641Y-84666D01*
X241032Y-84744D01*
X242016D01*
Y-83134D01*
D02*
G37*
G36*
X272016Y-80984D02*
X268944D01*
X268957Y-81083D01*
X269375Y-82093D01*
X270040Y-82960D01*
X270907Y-83625D01*
X271917Y-84043D01*
X272016Y-84056D01*
Y-80984D01*
D02*
G37*
G36*
X251500Y-85493D02*
X250732Y-85646D01*
X250081Y-86081D01*
X249937Y-86296D01*
X247563D01*
X247419Y-86081D01*
X246768Y-85646D01*
X246000Y-85493D01*
X245232Y-85646D01*
X244581Y-86081D01*
X244146Y-86732D01*
X243993Y-87500D01*
X244146Y-88268D01*
X244581Y-88919D01*
X245232Y-89354D01*
X246000Y-89507D01*
X246768Y-89354D01*
X247419Y-88919D01*
X247563Y-88704D01*
X249937D01*
X250081Y-88919D01*
X250732Y-89354D01*
X251500Y-89507D01*
X252268Y-89354D01*
X252919Y-88919D01*
X253354Y-88268D01*
X253507Y-87500D01*
X253354Y-86732D01*
X252919Y-86081D01*
X252268Y-85646D01*
X251500Y-85493D01*
D02*
G37*
G36*
X304016Y-80984D02*
X300944D01*
X300957Y-81083D01*
X301375Y-82093D01*
X302041Y-82960D01*
X302907Y-83625D01*
X303917Y-84043D01*
X304016Y-84056D01*
Y-80984D01*
D02*
G37*
G36*
X242016Y-79555D02*
X241032D01*
X240641Y-79633D01*
X240311Y-79854D01*
X240090Y-80185D01*
X240012Y-80575D01*
Y-81165D01*
X242016D01*
Y-79555D01*
D02*
G37*
G36*
X277056Y-80984D02*
X273984D01*
Y-84056D01*
X274083Y-84043D01*
X275093Y-83625D01*
X275959Y-82960D01*
X276625Y-82093D01*
X277043Y-81083D01*
X277056Y-80984D01*
D02*
G37*
G36*
X309056D02*
X305984D01*
Y-84056D01*
X306083Y-84043D01*
X307093Y-83625D01*
X307960Y-82960D01*
X308625Y-82093D01*
X309043Y-81083D01*
X309056Y-80984D01*
D02*
G37*
G36*
X219484Y-170195D02*
Y-172016D01*
X221305D01*
X221093Y-171503D01*
X220617Y-170883D01*
X219997Y-170407D01*
X219484Y-170195D01*
D02*
G37*
G36*
X221305Y-173984D02*
X219484D01*
Y-175805D01*
X219997Y-175593D01*
X220617Y-175117D01*
X221093Y-174497D01*
X221305Y-173984D01*
D02*
G37*
G36*
X217516Y-170195D02*
X217003Y-170407D01*
X216383Y-170883D01*
X215907Y-171503D01*
X215695Y-172016D01*
X217516D01*
Y-170195D01*
D02*
G37*
G36*
Y-173984D02*
X215695D01*
X215907Y-174497D01*
X216383Y-175117D01*
X217003Y-175593D01*
X217516Y-175805D01*
Y-173984D01*
D02*
G37*
G36*
X69016Y-221142D02*
X65746D01*
X65765Y-221292D01*
X66203Y-222350D01*
X66900Y-223257D01*
X67808Y-223954D01*
X68865Y-224392D01*
X69016Y-224412D01*
Y-221142D01*
D02*
G37*
G36*
X159966Y-82484D02*
X158984D01*
Y-83465D01*
X159573Y-83073D01*
X159966Y-82484D01*
D02*
G37*
G36*
X157016D02*
X156035D01*
X156428Y-83073D01*
X157016Y-83465D01*
Y-82484D01*
D02*
G37*
%LPD*%
D10*
X168000Y-209364D02*
D03*
Y-198636D02*
D03*
Y-216636D02*
D03*
Y-227364D02*
D03*
D11*
X227953Y-378346D02*
D03*
X220866D02*
D03*
X217323Y-381890D02*
D03*
X231496D02*
D03*
X227953Y-385433D02*
D03*
X224410Y-381890D02*
D03*
X220866Y-385433D02*
D03*
X120543Y-156543D02*
D03*
Y-149457D02*
D03*
X117000Y-145913D02*
D03*
Y-160087D02*
D03*
X113457Y-156543D02*
D03*
X117000Y-153000D02*
D03*
X113457Y-149457D02*
D03*
D12*
X139740Y-70276D02*
D03*
X132260Y-79724D02*
D03*
Y-70276D02*
D03*
X136000Y-79724D02*
D03*
X139733D02*
D03*
X139740Y-87276D02*
D03*
X132260Y-96724D02*
D03*
Y-87276D02*
D03*
X136000Y-96724D02*
D03*
X139733D02*
D03*
X139740Y-173276D02*
D03*
X132260Y-182724D02*
D03*
Y-173276D02*
D03*
X136000Y-182724D02*
D03*
X139733D02*
D03*
X139740Y-130276D02*
D03*
X132260Y-139724D02*
D03*
Y-130276D02*
D03*
X136000Y-139724D02*
D03*
X139733D02*
D03*
D13*
X145850Y-175000D02*
D03*
X152150D02*
D03*
X152150Y-181000D02*
D03*
X145850D02*
D03*
X145850Y-93000D02*
D03*
X152150D02*
D03*
X152150Y-99000D02*
D03*
X145850D02*
D03*
X152150Y-169000D02*
D03*
X145850D02*
D03*
X152150Y-87000D02*
D03*
X145850D02*
D03*
X115150Y-173000D02*
D03*
X108850D02*
D03*
X115150Y-87000D02*
D03*
X108850D02*
D03*
X150799Y-135000D02*
D03*
X144500D02*
D03*
X150650Y-141000D02*
D03*
X144350D02*
D03*
X145850Y-75000D02*
D03*
X152150D02*
D03*
X152150Y-81000D02*
D03*
X145850D02*
D03*
X150650Y-129000D02*
D03*
X144350D02*
D03*
X152150Y-69000D02*
D03*
X145850D02*
D03*
X115150Y-130000D02*
D03*
X108850D02*
D03*
X115650Y-70000D02*
D03*
X109350D02*
D03*
X108850Y-124000D02*
D03*
X115150D02*
D03*
X144350Y-123000D02*
D03*
X150650D02*
D03*
X211850Y-116000D02*
D03*
X218150D02*
D03*
X211850Y-144000D02*
D03*
X218150D02*
D03*
X120850Y-87000D02*
D03*
X127150D02*
D03*
X120850Y-70000D02*
D03*
X127150D02*
D03*
X120850Y-130000D02*
D03*
X127150D02*
D03*
X120850Y-173000D02*
D03*
X127150D02*
D03*
X120850Y-124000D02*
D03*
X127150D02*
D03*
X108850Y-167000D02*
D03*
X115150D02*
D03*
X145850Y-163000D02*
D03*
X152150D02*
D03*
X108850Y-204500D02*
D03*
X115150D02*
D03*
X115150Y-199000D02*
D03*
X108850D02*
D03*
X115150Y-193000D02*
D03*
X108850D02*
D03*
X233150Y-121000D02*
D03*
X226850D02*
D03*
X233150Y-131000D02*
D03*
X226850D02*
D03*
D14*
X186000Y-168150D02*
D03*
Y-161850D02*
D03*
Y-182150D02*
D03*
Y-175850D02*
D03*
X109000Y-74850D02*
D03*
Y-81150D02*
D03*
X202000Y-98150D02*
D03*
Y-91850D02*
D03*
X212000Y-81150D02*
D03*
Y-74850D02*
D03*
X280000Y-30850D02*
D03*
Y-37150D02*
D03*
Y-7000D02*
D03*
Y-13299D02*
D03*
X28000Y-278850D02*
D03*
Y-285150D02*
D03*
X46000Y-278850D02*
D03*
Y-285150D02*
D03*
X40000Y-285150D02*
D03*
Y-278850D02*
D03*
X34000Y-285150D02*
D03*
Y-278850D02*
D03*
X36000Y-325150D02*
D03*
Y-318850D02*
D03*
X30000Y-318850D02*
D03*
Y-325150D02*
D03*
X239000Y-113299D02*
D03*
Y-107000D02*
D03*
X243000Y-82150D02*
D03*
Y-75850D02*
D03*
X158000Y-78150D02*
D03*
Y-71850D02*
D03*
Y-93150D02*
D03*
Y-86850D02*
D03*
D15*
X120012Y-180409D02*
D03*
X108988D02*
D03*
X120512Y-95000D02*
D03*
X109488D02*
D03*
X126512Y-78000D02*
D03*
X115488D02*
D03*
X304512Y-52000D02*
D03*
X293488D02*
D03*
X120512Y-138000D02*
D03*
X109488D02*
D03*
X79000Y-297000D02*
D03*
X67976D02*
D03*
X273512Y-52000D02*
D03*
X262488D02*
D03*
D16*
X97409Y-44291D02*
D03*
Y-66339D02*
D03*
Y-87791D02*
D03*
Y-109839D02*
D03*
X97909Y-131291D02*
D03*
Y-153339D02*
D03*
Y-173791D02*
D03*
Y-195839D02*
D03*
D17*
X114331Y-45945D02*
D03*
Y-61693D02*
D03*
X130079Y-45945D02*
D03*
Y-61693D02*
D03*
X145827Y-45945D02*
D03*
Y-61693D02*
D03*
D18*
X58402Y-46716D02*
D03*
Y-71913D02*
D03*
X58410Y-90315D02*
D03*
Y-115512D02*
D03*
Y-133315D02*
D03*
Y-158512D02*
D03*
X58488Y-176216D02*
D03*
Y-201413D02*
D03*
D19*
X81039Y-42779D02*
D03*
Y-61677D02*
D03*
Y-47504D02*
D03*
Y-56953D02*
D03*
Y-75850D02*
D03*
Y-71126D02*
D03*
Y-52228D02*
D03*
Y-66402D02*
D03*
X81047Y-86378D02*
D03*
Y-105276D02*
D03*
Y-91102D02*
D03*
Y-100551D02*
D03*
Y-119449D02*
D03*
Y-114724D02*
D03*
Y-95827D02*
D03*
Y-110000D02*
D03*
Y-129378D02*
D03*
Y-148276D02*
D03*
Y-134102D02*
D03*
Y-143551D02*
D03*
Y-162449D02*
D03*
Y-157724D02*
D03*
Y-138827D02*
D03*
Y-153000D02*
D03*
X81126Y-172280D02*
D03*
Y-191177D02*
D03*
Y-177004D02*
D03*
Y-186453D02*
D03*
Y-205350D02*
D03*
Y-200626D02*
D03*
Y-181728D02*
D03*
Y-195902D02*
D03*
D20*
X38323Y-59315D02*
D03*
X38331Y-102913D02*
D03*
Y-145913D02*
D03*
X38409Y-188815D02*
D03*
D21*
X219000Y-181598D02*
D03*
Y-196402D02*
D03*
X208000Y-181598D02*
D03*
Y-196402D02*
D03*
D22*
X204000Y-66252D02*
D03*
Y-47748D02*
D03*
D23*
X221063Y-56102D02*
D03*
X241142D02*
D03*
D24*
X179697Y-46000D02*
D03*
X175071D02*
D03*
D25*
X132024Y-117677D02*
D03*
Y-115118D02*
D03*
Y-112559D02*
D03*
Y-110000D02*
D03*
X109976D02*
D03*
Y-112559D02*
D03*
Y-115118D02*
D03*
Y-117677D02*
D03*
Y-104882D02*
D03*
X132024D02*
D03*
Y-102323D02*
D03*
X109976D02*
D03*
Y-107441D02*
D03*
X132024D02*
D03*
D26*
X179630Y-180500D02*
D03*
Y-175500D02*
D03*
X158370Y-180500D02*
D03*
Y-170500D02*
D03*
X179630Y-165500D02*
D03*
Y-170500D02*
D03*
X158370Y-175500D02*
D03*
Y-165500D02*
D03*
D27*
X198937Y-179000D02*
D03*
X191063Y-175260D02*
D03*
Y-182740D02*
D03*
X198937Y-165000D02*
D03*
X191063Y-161260D02*
D03*
Y-168740D02*
D03*
X252000Y-110000D02*
D03*
X244126Y-106260D02*
D03*
Y-113740D02*
D03*
D28*
X210472Y-122520D02*
D03*
Y-137480D02*
D03*
X219528D02*
D03*
Y-122520D02*
D03*
D29*
X238636Y-132000D02*
D03*
X239000Y-122000D02*
D03*
D30*
X249364Y-132000D02*
D03*
X249728Y-122000D02*
D03*
D31*
X203000Y-75488D02*
D03*
Y-86512D02*
D03*
X212000Y-86488D02*
D03*
Y-97512D02*
D03*
D32*
X212437Y-104000D02*
D03*
X199563D02*
D03*
D33*
X220500Y-98630D02*
D03*
X225500D02*
D03*
X220500Y-77370D02*
D03*
X230500D02*
D03*
X235500Y-98630D02*
D03*
X230500D02*
D03*
X225500Y-77370D02*
D03*
X235500D02*
D03*
D34*
X185465Y-62839D02*
D03*
Y-60280D02*
D03*
Y-57721D02*
D03*
Y-55161D02*
D03*
X168535Y-62839D02*
D03*
Y-60280D02*
D03*
Y-57721D02*
D03*
Y-55161D02*
D03*
D35*
X168795Y-87000D02*
D03*
D36*
X193205Y-77945D02*
D03*
Y-96055D02*
D03*
D37*
Y-87000D02*
D03*
D38*
X190827Y-148209D02*
D03*
X188858D02*
D03*
X186890D02*
D03*
X184921D02*
D03*
X182953D02*
D03*
X180984D02*
D03*
X179016D02*
D03*
X177047D02*
D03*
X175079D02*
D03*
X173110D02*
D03*
X171142D02*
D03*
X169173D02*
D03*
Y-111791D02*
D03*
X171142D02*
D03*
X173110D02*
D03*
X175079D02*
D03*
X177047D02*
D03*
X179016D02*
D03*
X180984D02*
D03*
X182953D02*
D03*
X184921D02*
D03*
X186890D02*
D03*
X188858D02*
D03*
X190827D02*
D03*
D39*
X161791Y-140827D02*
D03*
Y-138858D02*
D03*
Y-136890D02*
D03*
Y-134921D02*
D03*
Y-132953D02*
D03*
Y-130984D02*
D03*
Y-129016D02*
D03*
Y-127047D02*
D03*
Y-125079D02*
D03*
Y-123110D02*
D03*
Y-121142D02*
D03*
Y-119173D02*
D03*
X198209D02*
D03*
Y-121142D02*
D03*
Y-123110D02*
D03*
Y-125079D02*
D03*
Y-127047D02*
D03*
Y-129016D02*
D03*
Y-130984D02*
D03*
Y-132953D02*
D03*
Y-134921D02*
D03*
Y-136890D02*
D03*
Y-138858D02*
D03*
Y-140827D02*
D03*
D40*
X227706Y-40706D02*
X230500Y-43500D01*
X207636Y-40706D02*
X227706D01*
X207342Y-41000D02*
X207636Y-40706D01*
X46500Y-5500D02*
X62500D01*
X34500Y-17500D02*
X46500Y-5500D01*
X34500Y-34000D02*
Y-17500D01*
Y-34000D02*
X38699Y-38199D01*
X105500Y-48500D02*
X110500Y-53500D01*
X148916D01*
X161500Y-66084D01*
Y-68500D02*
Y-66084D01*
X181813Y-153813D02*
X207813D01*
X208000Y-154000D01*
X205187Y-156187D02*
X206000Y-157000D01*
X205182Y-158975D02*
X209025D01*
X186801Y-156187D02*
X205187D01*
X185614Y-155000D02*
X186801Y-156187D01*
X181321Y-155000D02*
X185614D01*
X179016Y-152695D02*
Y-148209D01*
Y-152695D02*
X181321Y-155000D01*
X175079Y-153079D02*
X179500Y-157500D01*
X181000D01*
X182953Y-148209D02*
Y-141453D01*
X158370Y-182130D02*
Y-180500D01*
X161293D01*
X145850Y-184650D02*
Y-181000D01*
X144500Y-186000D02*
X145850Y-184650D01*
X156500Y-184000D02*
X158370Y-182130D01*
X143000Y-178150D02*
Y-171500D01*
X140500Y-169000D02*
X143000Y-171500D01*
X124000Y-186000D02*
Y-169500D01*
X126500Y-167000D01*
X112000Y-190000D02*
X113000Y-189000D01*
X112000Y-204000D02*
Y-190000D01*
X121000Y-189000D02*
X124000Y-186000D01*
X113000Y-189000D02*
X121000D01*
X112000Y-204000D02*
X112500Y-204500D01*
X146516Y-192125D02*
X148642Y-190000D01*
X147008Y-193313D02*
X149133Y-191187D01*
X147500Y-194500D02*
X149625Y-192375D01*
X129867Y-193313D02*
X147008D01*
X130359Y-194500D02*
X147500D01*
X115150Y-193000D02*
X119000D01*
X125142D01*
X151000Y-185000D02*
X152150Y-183850D01*
X120821Y-199000D02*
X128883Y-190938D01*
X129375Y-192125D02*
X146516D01*
X126500Y-195000D02*
X129375Y-192125D01*
X126500Y-206000D02*
Y-195000D01*
X128000Y-195179D02*
X129867Y-193313D01*
X128000Y-206179D02*
Y-195179D01*
X129187Y-195671D02*
X130359Y-194500D01*
X129187Y-206671D02*
Y-195671D01*
X140000Y-205000D02*
X142000Y-203000D01*
X134500Y-210500D02*
X140000Y-205000D01*
X210472Y-142622D02*
Y-140528D01*
X219528Y-122520D02*
X221500Y-120547D01*
Y-116500D01*
X210472Y-140528D02*
Y-137480D01*
X126475Y-163025D02*
X130150Y-159350D01*
X125682Y-163025D02*
X126475D01*
X120500Y-168207D02*
X125682Y-163025D01*
X120500Y-169000D02*
Y-168207D01*
X125190Y-161838D02*
X125662D01*
X124028Y-163000D02*
X125190Y-161838D01*
X120000Y-163000D02*
X124028D01*
X124500Y-143000D02*
X125500Y-142000D01*
X111534Y-143000D02*
X124500D01*
X126687Y-143687D02*
X127000Y-144000D01*
X120000Y-152500D02*
X124500D01*
X116957Y-149457D02*
X120000Y-152500D01*
X117687Y-153687D02*
X124992D01*
X107500Y-147034D02*
X111534Y-143000D01*
X125500Y-142000D02*
Y-139500D01*
X157500Y-93650D02*
X158000Y-93150D01*
X157500Y-97000D02*
Y-93650D01*
X132517Y-105375D02*
X142484D01*
X132024Y-104882D02*
X132517Y-105375D01*
X132024Y-107441D02*
Y-104882D01*
X230500Y-80500D02*
Y-77370D01*
Y-98630D02*
Y-80500D01*
X195839Y-55161D02*
X196587D01*
X106500Y-95000D02*
X109488D01*
X220500Y-77370D02*
Y-74000D01*
X222500Y-72000D01*
X231157D01*
X237988Y-65169D01*
X243000Y-82150D02*
X245350D01*
X134000Y-91500D02*
X135000Y-90500D01*
X136000D01*
X133000Y-93000D02*
X145850D01*
X135061Y-110000D02*
X137687Y-112626D01*
X132024Y-110000D02*
X135061D01*
X126500Y-123350D02*
X127150Y-124000D01*
X126500Y-123350D02*
Y-104500D01*
X129000Y-99000D02*
X130000Y-100000D01*
X129000Y-99000D02*
Y-94500D01*
X127000Y-99500D02*
Y-92000D01*
X124500Y-102000D02*
X127000Y-99500D01*
X126500Y-104500D02*
X128677Y-102323D01*
X132024D01*
X139740Y-130276D02*
X144465Y-135000D01*
X136000Y-144500D02*
X137500Y-146000D01*
X136000Y-144500D02*
Y-139724D01*
X139500Y-139957D02*
X139733Y-139724D01*
X139500Y-143500D02*
Y-139957D01*
X123000Y-138000D02*
X125000Y-136000D01*
X120512Y-138000D02*
X123000D01*
X132260Y-139724D02*
Y-138599D01*
X112150Y-164000D02*
X115150Y-167000D01*
X115150Y-175547D02*
X120012Y-180409D01*
X115150Y-175547D02*
Y-173000D01*
X132024Y-112559D02*
X135941D01*
X120850Y-127000D02*
Y-124000D01*
Y-130000D02*
Y-127000D01*
X112500D02*
X120850D01*
X112000Y-126500D02*
X112500Y-127000D01*
X112000Y-126500D02*
Y-119701D01*
X109976Y-117677D02*
X112000Y-119701D01*
X109976Y-104882D02*
Y-102323D01*
Y-115118D02*
Y-112559D01*
X116000Y-95000D02*
X120512D01*
X115500Y-95500D02*
X116000Y-95000D01*
X139733Y-100767D02*
Y-96724D01*
X144850Y-100000D02*
X145850Y-99000D01*
X136000Y-99500D02*
Y-96724D01*
X135500Y-100000D02*
X136000Y-99500D01*
X130000Y-100000D02*
X135500D01*
X129000Y-94500D02*
X132000Y-91500D01*
X134000D01*
X136000Y-89500D02*
Y-85500D01*
X137000Y-84500D01*
X140000D01*
X143500Y-81000D01*
X145850D01*
X141038Y-76187D02*
X145850Y-81000D01*
X136813Y-76187D02*
X141038D01*
X136000Y-77000D02*
X136813Y-76187D01*
X136000Y-79724D02*
Y-77000D01*
X132260Y-77740D02*
X135000Y-75000D01*
X127150Y-70000D02*
X132000Y-74850D01*
X127000Y-87150D02*
X127150Y-87000D01*
X127000Y-92000D02*
Y-87150D01*
X131984Y-87000D02*
X132260Y-87276D01*
X127150Y-87000D02*
X131984D01*
Y-70000D02*
X132260Y-70276D01*
X127150Y-70000D02*
X131984D01*
X287488Y-58000D02*
X293488Y-52000D01*
X257000Y-46000D02*
X262488Y-51488D01*
Y-52000D02*
Y-51488D01*
X284850Y-30850D02*
X289000Y-35000D01*
X280000Y-30850D02*
X284850D01*
X286000Y-7000D02*
X289000Y-10000D01*
X280000Y-7000D02*
X286000D01*
X233000Y-61000D02*
X233819D01*
X210472Y-142622D02*
X211850Y-144000D01*
X218150Y-121142D02*
X219528Y-122520D01*
X218150Y-121142D02*
Y-116000D01*
Y-144000D02*
X219528Y-142622D01*
Y-137480D01*
X210472Y-122520D02*
X211850Y-121142D01*
Y-116000D01*
X237636Y-131000D02*
X238636Y-132000D01*
X233150Y-131000D02*
X237636D01*
X233150Y-121000D02*
X234150Y-122000D01*
X239000D01*
X244126Y-113740D02*
X249728Y-119343D01*
Y-122000D02*
Y-119343D01*
X249364Y-132000D02*
X249728Y-131636D01*
Y-122000D01*
X243685Y-113299D02*
X244126Y-113740D01*
X239000Y-113299D02*
X243685D01*
X239740Y-106260D02*
X244126D01*
X212437Y-104000D02*
X224000D01*
X225500Y-102500D01*
Y-98630D01*
X81126Y-205350D02*
X84776Y-209000D01*
X108850Y-207150D02*
Y-205000D01*
X108850Y-199000D02*
Y-193000D01*
X108988Y-184760D02*
Y-180409D01*
X97909Y-195839D02*
X108988Y-184760D01*
X98701Y-173000D02*
X108850D01*
X97909Y-173791D02*
X98701Y-173000D01*
X81047Y-162449D02*
X85598Y-167000D01*
X108850D01*
X97909Y-131291D02*
X102709D01*
X104000Y-130000D01*
X108850D01*
X115150Y-132638D02*
Y-130000D01*
X85598Y-124000D02*
X108850D01*
X81047Y-119449D02*
X85598Y-124000D01*
X100177Y-117677D02*
X109976D01*
X100000Y-117500D02*
X100177Y-117677D01*
X117000Y-110000D02*
X118000Y-111000D01*
Y-117150D02*
Y-111000D01*
X115150Y-120000D02*
X118000Y-117150D01*
X109976Y-110000D02*
X117000D01*
X115150Y-124000D02*
Y-120000D01*
X98201Y-87000D02*
X108850D01*
X97409Y-87791D02*
X98201Y-87000D01*
X106238Y-77613D02*
X109000Y-74850D01*
X97409Y-47121D02*
Y-44291D01*
X112000Y-100000D02*
X113000Y-99000D01*
X107000Y-100000D02*
X112000D01*
X106441Y-107441D02*
X109976D01*
X123650Y-78000D02*
X126512D01*
X115650Y-70000D02*
X123650Y-78000D01*
X132260Y-79724D02*
Y-77740D01*
X135000Y-75000D02*
X145850D01*
X139733Y-82267D02*
Y-79724D01*
X139000Y-83000D02*
X139733Y-82267D01*
X128000Y-83000D02*
X139000D01*
X126512Y-81512D02*
X128000Y-83000D01*
X126512Y-81512D02*
Y-78000D01*
X152150Y-81000D02*
Y-75000D01*
X152150Y-75000D01*
X145850Y-75000D02*
Y-69000D01*
Y-75000D02*
X145850Y-75000D01*
X152150Y-69000D02*
X155150D01*
X158000Y-71850D01*
X149000Y-71850D02*
X152150Y-75000D01*
X139740Y-69260D02*
X143000Y-66000D01*
X139740Y-70276D02*
Y-69260D01*
X148000Y-66000D02*
X149000Y-67000D01*
Y-71850D02*
Y-67000D01*
X143000Y-66000D02*
X148000D01*
X152150Y-87000D02*
X157850D01*
X158000Y-86850D01*
X145850Y-93000D02*
Y-87000D01*
Y-93000D02*
X145850Y-93000D01*
X132260Y-93740D02*
X133000Y-93000D01*
X132260Y-96724D02*
Y-93740D01*
X152150Y-99000D02*
Y-93000D01*
X139740Y-87276D02*
X143016Y-84000D01*
X148000D01*
X115488Y-78488D02*
Y-78000D01*
Y-78488D02*
X120850Y-83850D01*
Y-87000D02*
Y-83850D01*
X115150Y-89638D02*
Y-87000D01*
Y-89638D02*
X120512Y-95000D01*
X120850Y-70000D02*
Y-68213D01*
X113000Y-75512D02*
X115488Y-78000D01*
X113000Y-75512D02*
Y-63638D01*
X114331Y-61693D02*
X114638Y-62000D01*
X120850Y-68213D01*
X168815Y-58000D02*
X174000D01*
X168535Y-57721D02*
X168815Y-58000D01*
X168535Y-60280D02*
X174279D01*
X168000Y-63374D02*
X168535Y-62839D01*
X179279Y-57721D02*
X185465D01*
X192161Y-62839D02*
X193000Y-62000D01*
X185465Y-62839D02*
X186839D01*
X192161D01*
X198055Y-91850D02*
X202000D01*
X206638D01*
X212000Y-86488D01*
X196150Y-75000D02*
X202512D01*
X203000Y-75488D01*
X211362D01*
X212000Y-74850D01*
X203000Y-86512D02*
Y-84000D01*
X205850Y-81150D01*
X212000D01*
X193205Y-87000D02*
X193205Y-87000D01*
X196055Y-96055D02*
X197512Y-97512D01*
X212437Y-104000D02*
Y-97949D01*
X212000Y-97512D02*
X212437Y-97949D01*
X225500Y-98630D02*
X230500D01*
X225500Y-77370D02*
X230500D01*
X232150Y-82150D02*
X243000D01*
X230500Y-80500D02*
X232150Y-82150D01*
X243000Y-75850D02*
Y-67576D01*
X242458Y-67033D02*
X243000Y-67576D01*
X202650Y-81150D02*
X205850D01*
X212000Y-97512D02*
Y-93000D01*
X212437Y-104000D02*
X218150Y-109713D01*
X210472Y-123996D02*
Y-122520D01*
X198209Y-130984D02*
X203484D01*
X210472Y-123996D01*
X198209Y-132953D02*
X215000D01*
X219528Y-137480D01*
X198209Y-129016D02*
X202484D01*
X205500Y-126000D01*
X187500Y-139500D02*
X189000Y-141000D01*
Y-148067D02*
Y-141000D01*
X188858Y-148209D02*
X189000Y-148067D01*
X161791Y-138858D02*
X169358D01*
X192421Y-125079D02*
X198209D01*
X190500Y-127000D02*
X192421Y-125079D01*
X190500Y-138000D02*
Y-127000D01*
X198209Y-127047D02*
X202453D01*
X203500Y-126000D01*
X218150Y-116000D02*
Y-111500D01*
Y-109713D01*
X109488Y-140512D02*
Y-138000D01*
X97909Y-152091D02*
X109488Y-140512D01*
X97909Y-153339D02*
Y-152091D01*
X107500Y-162500D02*
Y-147034D01*
X116087Y-145000D02*
X117000Y-145913D01*
X112500Y-145000D02*
X116087D01*
X120850Y-173000D02*
Y-169350D01*
X120500Y-169000D02*
X120850Y-169350D01*
X115150Y-132638D02*
X120512Y-138000D01*
X113457Y-156543D02*
Y-155957D01*
X112000Y-154500D02*
X113457Y-155957D01*
X112000Y-154500D02*
Y-154000D01*
X131500Y-129516D02*
Y-126500D01*
Y-129516D02*
X131984Y-130000D01*
X113457Y-149457D02*
X116957D01*
X117000Y-153000D02*
X117687Y-153687D01*
X120543Y-156543D02*
X123957D01*
X117000Y-160087D02*
X117087D01*
X109000Y-164000D02*
X112150D01*
X107500Y-162500D02*
X109000Y-164000D01*
X127500Y-172650D02*
Y-169500D01*
X127150Y-173000D02*
X127500Y-172650D01*
X139733Y-182724D02*
Y-180233D01*
X114500Y-181000D02*
X115091Y-180409D01*
X120012D01*
X136000Y-186000D02*
Y-182724D01*
X145850Y-175000D02*
Y-169000D01*
X145850Y-169000D02*
X145850Y-169000D01*
X143500Y-163000D02*
X145850D01*
X140500Y-166000D02*
X143500Y-163000D01*
X152150Y-181000D02*
Y-175000D01*
X152150Y-175000D01*
X152150Y-169000D02*
Y-163000D01*
X152150Y-163000D01*
X152150Y-183850D02*
Y-181000D01*
X140500Y-169000D02*
Y-166000D01*
X143000Y-178150D02*
X145850Y-181000D01*
X131984Y-173000D02*
X132260Y-173276D01*
X127150Y-173000D02*
X131984D01*
X127000Y-178500D02*
X138000D01*
X139733Y-180233D01*
X137500Y-169500D02*
X139740Y-171740D01*
Y-173276D02*
Y-171740D01*
X144000Y-169000D02*
X145850D01*
X143000Y-168000D02*
X144000Y-169000D01*
X132000Y-182984D02*
X132260Y-182724D01*
X158370Y-165500D02*
X158500Y-165370D01*
X186000Y-168150D02*
X190472D01*
X191063Y-168740D01*
X186000Y-161850D02*
X190472D01*
X191063Y-161260D01*
X186000Y-175850D02*
X190472D01*
X191063Y-175260D01*
X186000Y-182150D02*
X190472D01*
X191063Y-182740D01*
X208000Y-181598D02*
X219000D01*
X210283Y-179315D02*
Y-170374D01*
X208000Y-181598D02*
X210283Y-179315D01*
X198937Y-165000D02*
X216500D01*
X220284Y-161216D01*
X219000Y-209091D02*
Y-196402D01*
Y-209091D02*
X219783Y-209874D01*
X198937Y-184937D02*
Y-179000D01*
Y-184937D02*
X203500Y-189500D01*
X217000D01*
X219000Y-191500D01*
Y-196402D02*
Y-191500D01*
X205402Y-196402D02*
X208000D01*
X179630Y-175500D02*
Y-170500D01*
X40000Y-220158D02*
X45500Y-225658D01*
X30000Y-246500D02*
X36965D01*
X26367Y-250133D02*
X30000Y-246500D01*
X26367Y-255867D02*
Y-250133D01*
Y-255867D02*
X40000Y-269500D01*
Y-278850D02*
Y-269500D01*
X78760Y-285595D02*
Y-281260D01*
X40000Y-285150D02*
X40150Y-285000D01*
X28000Y-285150D02*
X34000D01*
X28000Y-285150D02*
X28000Y-285150D01*
X28000Y-295000D02*
Y-285150D01*
Y-295000D02*
X30000Y-297000D01*
X68760Y-296217D02*
Y-285595D01*
X67976Y-297000D02*
X68760Y-296217D01*
X50000Y-220158D02*
X54500Y-224658D01*
X50000Y-230000D02*
Y-227500D01*
X45000Y-222500D02*
X50000Y-227500D01*
X45000Y-222500D02*
Y-217000D01*
X95157Y-225000D02*
X100000Y-229842D01*
X34000Y-289500D02*
Y-285150D01*
X24547Y-270953D02*
X31965D01*
X10000Y-285500D02*
X24547Y-270953D01*
X10000Y-297000D02*
Y-285500D01*
X40000Y-324000D02*
Y-306842D01*
X38850Y-325150D02*
X40000Y-324000D01*
X30000Y-318350D02*
Y-306842D01*
X30500Y-318850D02*
X36000D01*
X40000Y-297000D02*
Y-285150D01*
X100000Y-229842D02*
X104500Y-225342D01*
Y-214500D01*
X100000Y-220000D02*
Y-216000D01*
X84776Y-209000D02*
X107000D01*
X108850Y-207150D01*
X110000Y-229842D02*
X115000Y-224843D01*
Y-216500D01*
X100000Y-216000D02*
X105500Y-210500D01*
X104500Y-214500D02*
X107000Y-212000D01*
X124000D01*
X110000Y-220000D02*
Y-214000D01*
X112000Y-208500D02*
X124000D01*
X20000Y-322500D02*
Y-306842D01*
Y-322500D02*
X27000Y-329500D01*
X68000D01*
X88760Y-308740D01*
Y-285595D01*
X98760Y-302240D02*
Y-285595D01*
X69500Y-331500D02*
X98760Y-302240D01*
X22500Y-331500D02*
X69500D01*
X15000Y-324000D02*
X22500Y-331500D01*
X15000Y-324000D02*
Y-302000D01*
X20000Y-297000D01*
X30000Y-306842D02*
X35342Y-301500D01*
X47000D01*
X61500Y-287000D01*
X45000Y-262000D02*
X61512D01*
X70464Y-270953D01*
X40000Y-306842D02*
X76157D01*
X78760Y-304240D01*
X87000Y-283835D02*
Y-263000D01*
Y-283835D02*
X88760Y-285595D01*
X89500Y-276335D02*
X98760Y-285595D01*
X89500Y-276335D02*
Y-259500D01*
X60000Y-220158D02*
X65000Y-225157D01*
X108850Y-193000D02*
Y-191150D01*
X140000Y-215000D02*
X166364D01*
X168000Y-216636D01*
X178325D01*
X150000Y-210000D02*
X167364D01*
X168000Y-209364D01*
X190112D02*
X190354Y-209606D01*
X168000Y-198636D02*
X173970Y-204606D01*
X142000Y-203000D02*
X163636D01*
X168000Y-198636D01*
X161864Y-233500D02*
X168000Y-227364D01*
X141000Y-233500D02*
X161864D01*
X134500Y-227000D02*
X141000Y-233500D01*
X134500Y-227000D02*
Y-210500D01*
X124000Y-208500D02*
X126500Y-206000D01*
X105500Y-210500D02*
X123679D01*
X128000Y-206179D01*
X124000Y-212000D02*
Y-211859D01*
X129187Y-206671D01*
X112500Y-204500D02*
X115150D01*
X108850Y-191150D02*
X113000Y-187000D01*
Y-186500D01*
X132000D02*
Y-182984D01*
X115150Y-199000D02*
X118500D01*
X120821D01*
X136000Y-186000D02*
X144500D01*
X158370Y-175500D02*
X162500D01*
X67500Y-248465D02*
X70464Y-251429D01*
Y-253236D02*
Y-251429D01*
X52464Y-248465D02*
X67500D01*
X102728Y-247000D02*
X108965Y-253236D01*
X112500Y-245500D02*
X116000Y-249000D01*
Y-263917D02*
Y-249000D01*
X108965Y-270953D02*
X116000Y-263917D01*
X126687Y-143687D02*
Y-139992D01*
X126500Y-167000D02*
Y-165000D01*
X124500Y-152500D02*
X126356Y-150644D01*
X124992Y-153687D02*
X126848Y-151831D01*
X123957Y-156543D02*
X127481Y-153019D01*
X128984Y-127000D02*
X131500Y-129516D01*
X125000Y-127000D02*
X128984D01*
X124500Y-126500D02*
X125000Y-127000D01*
X124500Y-126500D02*
Y-102000D01*
X109976Y-104882D02*
X115382D01*
X115500Y-105000D01*
X171000Y-148350D02*
X171142Y-148209D01*
X109976Y-115118D02*
X114882D01*
X115000Y-115000D01*
X239500Y-106020D02*
Y-103500D01*
X235799Y-113299D02*
X239000D01*
X230500Y-108000D02*
X235799Y-113299D01*
X230500Y-108000D02*
Y-98630D01*
X210500Y-111500D02*
X218150D01*
X173110Y-111791D02*
Y-107110D01*
X174495Y-111207D02*
X175079Y-111791D01*
X174495Y-111207D02*
Y-106815D01*
X135941Y-112559D02*
X136500Y-113118D01*
Y-119500D02*
Y-113118D01*
X137687Y-119992D02*
Y-112626D01*
X132024Y-120476D02*
Y-117677D01*
Y-115118D01*
X140500Y-124000D02*
X141500Y-123000D01*
X161293Y-180500D02*
X164975Y-176818D01*
X220000Y-98130D02*
Y-93500D01*
Y-98130D02*
X220500Y-98630D01*
X218000Y-96130D02*
X220000Y-98130D01*
X280000Y-17000D02*
Y-13299D01*
X265000Y-58000D02*
X287488D01*
X262488Y-55488D02*
Y-52000D01*
Y-55488D02*
X265000Y-58000D01*
X261350Y-37150D02*
X280000D01*
X254500Y-48500D02*
Y-44000D01*
X261350Y-37150D01*
X175079Y-153079D02*
Y-148209D01*
X180984Y-152984D02*
X181813Y-153813D01*
X180984Y-152984D02*
Y-148209D01*
X144500Y-100000D02*
X144850D01*
X135500D02*
X138500Y-103000D01*
X141500D01*
X144500Y-100000D01*
X132024Y-102323D02*
X136144D01*
X138008Y-104187D01*
X141992D01*
X187000Y-93205D02*
X193205Y-87000D01*
X158000Y-81500D02*
Y-78150D01*
X149000Y-89850D02*
X152150Y-93000D01*
X149000Y-89850D02*
Y-85000D01*
X148000Y-84000D02*
X149000Y-85000D01*
X168000Y-66000D02*
Y-63374D01*
X178000Y-59000D02*
X179279Y-57721D01*
X180720Y-60280D02*
X185465D01*
X174279D02*
X176000Y-62000D01*
X174000Y-58000D02*
X176000Y-56000D01*
X179000Y-64000D02*
Y-62000D01*
X180720Y-60280D01*
X178000Y-65000D02*
X179000Y-64000D01*
X184000Y-69000D02*
X185500Y-67500D01*
X187500Y-46000D02*
X192500Y-51000D01*
X166500Y-84705D02*
X168795Y-87000D01*
X166500Y-84705D02*
Y-78000D01*
X158000Y-93150D02*
X161500Y-89650D01*
X158000Y-81500D02*
X161000D01*
X161500Y-82000D01*
Y-89650D02*
Y-82000D01*
X113000Y-99000D02*
Y-91000D01*
X112000Y-90000D02*
X113000Y-91000D01*
X109000Y-81150D02*
X112000Y-84150D01*
Y-90000D02*
Y-84150D01*
X179016Y-105984D02*
X180000Y-105000D01*
X179016Y-111791D02*
Y-105984D01*
X173781Y-170500D02*
X179630D01*
X173287Y-170006D02*
Y-161713D01*
Y-170006D02*
X173781Y-170500D01*
X185500Y-171000D02*
Y-168650D01*
X186000Y-168150D01*
X198209Y-136890D02*
X204110D01*
X205000Y-137779D01*
Y-138500D02*
Y-137779D01*
X198209Y-138858D02*
X202566D01*
X203000Y-139293D01*
X173287Y-161713D02*
X173500Y-161500D01*
X192827Y-119173D02*
X198209D01*
X188500Y-123500D02*
X192827Y-119173D01*
X190500Y-138000D02*
X193327Y-140827D01*
X188500Y-137679D02*
Y-123500D01*
X193327Y-140827D02*
X198209D01*
X188500Y-137679D02*
X197500Y-146679D01*
X193618Y-151000D02*
X194500D01*
X190827Y-148209D02*
X193618Y-151000D01*
X198209Y-142209D02*
Y-140827D01*
X141500Y-123000D02*
X144350D01*
X144465Y-135000D02*
X144500D01*
X144350Y-129000D02*
X150350Y-135000D01*
X150799D01*
X158673Y-119173D02*
X161791D01*
X156500Y-117000D02*
X158673Y-119173D01*
X155390Y-123110D02*
X161791D01*
X154000Y-117000D02*
X156500D01*
X157421Y-125079D02*
X161791D01*
X181182Y-159525D02*
X182182D01*
X179630Y-161077D02*
X181182Y-159525D01*
X182000Y-161500D02*
X182350Y-161850D01*
X186000D01*
X179630Y-165500D02*
Y-161077D01*
X162500Y-175500D02*
X163000Y-176000D01*
X158370Y-170500D02*
X162500D01*
X164975Y-176818D02*
Y-167475D01*
X154525Y-185525D02*
X155438Y-186438D01*
X158562D01*
X160000Y-185000D01*
X170500Y-187000D02*
X180500D01*
X183000Y-184500D01*
Y-178850D01*
X186000Y-175850D01*
X181500Y-140000D02*
X182953Y-141453D01*
X179500Y-140000D02*
X181500D01*
X176000Y-138000D02*
X182000D01*
X169500Y-139000D02*
X171000D01*
X169358Y-138858D02*
X169500Y-139000D01*
X162500Y-170500D02*
X163000Y-170000D01*
X163500Y-166000D02*
X164975Y-167475D01*
X167500Y-162963D02*
X168537Y-164000D01*
X168472Y-159000D02*
X170912Y-161440D01*
X173110Y-148209D02*
X173475Y-148573D01*
Y-154975D02*
X174500Y-156000D01*
X155000Y-120500D02*
Y-120000D01*
X155500Y-127000D02*
X157421Y-125079D01*
X157000Y-114500D02*
X165000D01*
X160000Y-116500D02*
X165321D01*
X180984Y-116984D02*
Y-111791D01*
X157277Y-129016D02*
X161791D01*
X182000Y-138000D02*
X184338Y-140338D01*
Y-147625D02*
X184921Y-148209D01*
X184338Y-147625D02*
Y-140338D01*
X186305Y-147624D02*
X186890Y-148209D01*
X186305Y-147624D02*
Y-141098D01*
X185525Y-140318D02*
X186305Y-141098D01*
X185525Y-140318D02*
Y-139846D01*
X182492Y-136813D02*
X185525Y-139846D01*
X175508Y-136813D02*
X182492D01*
X126831Y-160669D02*
X127152D01*
X129658Y-158163D01*
X125662Y-161838D02*
X126831Y-160669D01*
X149500Y-154500D02*
X150321D01*
X128500Y-189641D02*
Y-185500D01*
X125142Y-193000D02*
X128500Y-189641D01*
X133562Y-190938D02*
X135500Y-189000D01*
X128883Y-190938D02*
X133562D01*
X126848Y-151831D02*
X137500D01*
X173475Y-154975D02*
Y-148573D01*
X171500Y-154000D02*
Y-148850D01*
X167500Y-162963D02*
Y-162500D01*
X163025Y-159818D02*
Y-158525D01*
Y-159818D02*
X164182Y-160975D01*
X166232D01*
X166682Y-160525D01*
X168318D01*
X169724Y-161932D01*
X165000Y-159000D02*
X168472D01*
X158500Y-165370D02*
Y-161500D01*
X168532Y-148850D02*
X169173Y-148209D01*
X161500Y-157000D02*
X163025Y-158525D01*
X171000Y-139000D02*
X179000Y-131000D01*
X166357Y-141813D02*
X170508D01*
X175508Y-136813D01*
X167500Y-143000D02*
X171000D01*
X176000Y-138000D01*
X158118Y-144500D02*
X161791Y-140827D01*
X158000Y-144500D02*
X158118D01*
X157000Y-159000D02*
Y-153000D01*
X161695Y-146475D02*
X166357Y-141813D01*
X162838Y-147662D02*
X167500Y-143000D01*
X156544Y-146475D02*
X161695D01*
X157159Y-147662D02*
X162838D01*
X157650Y-148850D02*
X168532D01*
X150321Y-154500D02*
X157159Y-147662D01*
X154525Y-185525D02*
Y-161475D01*
X157000Y-159000D01*
X151475Y-155318D02*
Y-155025D01*
X157650Y-148850D01*
X152150Y-163000D02*
X152500Y-162650D01*
Y-157500D01*
X144350Y-145650D02*
Y-141000D01*
X147500Y-117000D02*
X149462Y-115038D01*
Y-111859D01*
X142484Y-105375D02*
X143359Y-104500D01*
X176000D02*
X176906D01*
X155000Y-120500D02*
X155642Y-121142D01*
X161791D01*
X155000Y-123500D02*
X155390Y-123110D01*
X155500Y-128000D02*
Y-127000D01*
X150318Y-156475D02*
X151475Y-155318D01*
X134000Y-155500D02*
X135000Y-154500D01*
X132043Y-149457D02*
X134000Y-147500D01*
X120543Y-149457D02*
X132043D01*
X153500Y-144321D02*
Y-132793D01*
X157277Y-129016D01*
X156988Y-130984D02*
X161791D01*
X154687Y-133285D02*
X156988Y-130984D01*
X154687Y-144813D02*
Y-133285D01*
X157110Y-136890D02*
X161791D01*
X155875Y-138125D02*
X157110Y-136890D01*
X155875Y-145304D02*
Y-138125D01*
X150535Y-150644D02*
X155875Y-145304D01*
X151187Y-151831D02*
X156544Y-146475D01*
X143794Y-154206D02*
X146973D01*
X149348Y-151831D01*
X151187D01*
X145850Y-163000D02*
Y-159350D01*
X144318Y-156475D02*
X150318D01*
X142500Y-155500D02*
X143794Y-154206D01*
X141190Y-152338D02*
X142304D01*
X142810Y-151831D01*
X145989D01*
X148364Y-149457D01*
X150043D01*
X127481Y-153019D02*
X138830D01*
X140698Y-151150D01*
X141812D01*
X142318Y-150644D01*
X145498D01*
X147872Y-148269D01*
X149551D01*
X153500Y-144321D01*
X140662Y-148669D02*
X141763D01*
X150043Y-149457D02*
X154687Y-144813D01*
X135000Y-154500D02*
X139028D01*
X141190Y-152338D01*
X137500Y-151831D02*
X140662Y-148669D01*
X148856Y-150644D02*
X150535D01*
X146481Y-153019D02*
X148856Y-150644D01*
X143302Y-153019D02*
X146481D01*
X142796Y-153525D02*
X143302Y-153019D01*
X141682Y-153525D02*
X142796D01*
X139520Y-155687D02*
X141682Y-153525D01*
X138813Y-155687D02*
X139520D01*
X138000Y-156500D02*
X138813Y-155687D01*
X129658Y-158163D02*
X136370D01*
X136682Y-158475D01*
X130150Y-159350D02*
X135878D01*
X136190Y-159662D01*
X145539D02*
X145850Y-159350D01*
X136190Y-159662D02*
X145539D01*
X136682Y-158475D02*
X142318D01*
X144318Y-156475D01*
X137500Y-156500D02*
X138000D01*
X135356Y-150644D02*
X137500Y-148500D01*
X126356Y-150644D02*
X135356D01*
X137500Y-146000D02*
X144000D01*
X144350Y-145650D01*
X198209Y-134921D02*
X204935D01*
X207120Y-137106D01*
X180984Y-116984D02*
X182500Y-118500D01*
Y-119500D02*
Y-118500D01*
X179000Y-124500D02*
Y-120000D01*
X125500Y-139500D02*
X130500Y-134500D01*
X126687Y-139992D02*
X130679Y-136000D01*
X130500Y-134500D02*
X133000D01*
X130679Y-136000D02*
X133179D01*
X136187Y-132992D01*
X135000Y-121000D02*
X136500Y-119500D01*
X136187Y-121492D02*
X137687Y-119992D01*
X132260Y-138599D02*
X137375Y-133484D01*
X133000Y-134500D02*
X135000Y-132500D01*
X127150Y-130000D02*
X131984D01*
X138500Y-127000D02*
X143850D01*
X137375Y-133484D02*
Y-128125D01*
X138500Y-127000D01*
X135000Y-132500D02*
Y-121000D01*
X136187Y-132992D02*
Y-121492D01*
X144500Y-108500D02*
X146500Y-106500D01*
X144500Y-118500D02*
Y-108500D01*
X183258Y-158449D02*
X204657D01*
X182182Y-159525D02*
X183258Y-158449D01*
X204657D02*
X205182Y-158975D01*
X179500Y-183500D02*
Y-180630D01*
X179630Y-180500D01*
X198937Y-168063D02*
Y-165000D01*
X196375Y-170625D02*
X198937Y-168063D01*
X196375Y-187375D02*
X205402Y-196402D01*
X196375Y-187375D02*
Y-170625D01*
X191063Y-182740D02*
X194000D01*
X195187Y-161237D02*
X196000Y-160424D01*
X195187Y-185313D02*
Y-161237D01*
X193740Y-168740D02*
X194000Y-169000D01*
X191063Y-168740D02*
X193740D01*
X194000Y-182740D02*
Y-169000D01*
X189000Y-25000D02*
Y-13500D01*
X192500Y-10000D01*
X279821Y-17000D02*
X280000D01*
X252000Y-44821D02*
X279821Y-17000D01*
X254500Y-48500D02*
X257500Y-51500D01*
X209025Y-158975D02*
X211000Y-157000D01*
Y-153000D01*
X208500Y-142500D02*
X210472Y-140528D01*
X207120Y-140088D02*
Y-137106D01*
X205525Y-143975D02*
Y-141682D01*
X207120Y-140088D01*
X226850Y-131000D02*
X227000Y-130850D01*
Y-125500D01*
X245350Y-82150D02*
X248000Y-79500D01*
X252000Y-69000D02*
Y-44821D01*
Y-69000D02*
X252500Y-69500D01*
X257500Y-70500D02*
Y-51500D01*
X246000Y-87500D02*
X251500D01*
X176906Y-104500D02*
X177000Y-104595D01*
X177047Y-111791D02*
Y-104547D01*
X177000Y-104595D02*
X177047Y-104547D01*
X182953Y-111791D02*
Y-103453D01*
X188858Y-111791D02*
Y-107116D01*
X188883D01*
X190000Y-106000D01*
X186890Y-105390D02*
X187000Y-105500D01*
X184921Y-111791D02*
Y-102421D01*
X184000Y-101500D02*
X184921Y-102421D01*
X180000Y-105000D02*
Y-104000D01*
X256500Y-30500D02*
Y-9000D01*
X260000Y-5500D01*
X265500D01*
X212000Y-86488D02*
X216000Y-82488D01*
X216143Y-74850D02*
X218000Y-76707D01*
X212000Y-74850D02*
X216143D01*
X218000Y-96130D02*
Y-76707D01*
X216000Y-82488D02*
Y-77500D01*
X189000Y-25000D02*
X194082Y-30082D01*
X187000Y-26000D02*
X192269Y-31269D01*
X187000Y-26000D02*
Y-10000D01*
X191500Y-5500D01*
X231000D01*
X203500Y-126000D02*
Y-125000D01*
X206500Y-122000D01*
Y-115500D01*
X210500Y-111500D01*
X198209Y-123110D02*
X203711D01*
X205313Y-121508D01*
Y-111187D02*
X205500Y-111000D01*
X162687Y-76313D02*
X170000Y-69000D01*
X184000D01*
X158150Y-72000D02*
X163000D01*
X158000Y-71850D02*
X158150Y-72000D01*
X198209Y-121142D02*
X203358D01*
X204125Y-120375D01*
X213500Y-109000D02*
X214000Y-109500D01*
X191500Y-109000D02*
X213500D01*
X190827Y-109673D02*
X191500Y-109000D01*
X190827Y-111791D02*
Y-109673D01*
X158000Y-87000D02*
Y-86850D01*
X155000Y-90000D02*
X158000Y-87000D01*
X155000Y-99000D02*
Y-90000D01*
Y-99000D02*
X156000Y-100000D01*
X167986Y-121165D02*
X171321Y-124500D01*
X165321Y-116500D02*
X166798Y-117978D01*
Y-121657D02*
Y-117978D01*
X165000Y-114500D02*
X167986Y-117486D01*
Y-121165D02*
Y-117486D01*
X177821Y-118821D02*
X179000Y-120000D01*
X173000Y-118821D02*
X177821D01*
X171142Y-116963D02*
Y-111791D01*
Y-116963D02*
X173000Y-118821D01*
X169173Y-118173D02*
Y-111791D01*
Y-118173D02*
X172500Y-121500D01*
X176000D01*
X171321Y-124500D02*
X179000D01*
Y-131000D02*
Y-124500D01*
X172142Y-127000D02*
X176000D01*
X166798Y-121657D02*
X172142Y-127000D01*
X193205Y-87000D02*
X198055Y-91850D01*
X168795Y-87000D02*
X193205D01*
X193205Y-96055D02*
X196055D01*
X193205Y-77945D02*
X196150Y-75000D01*
X190000Y-106000D02*
Y-104500D01*
X187000Y-98141D02*
Y-93205D01*
X184000Y-95500D02*
X184500Y-95000D01*
X205313Y-121508D02*
Y-111187D01*
X202000Y-113500D02*
X202125D01*
X204125Y-115500D01*
Y-120375D02*
Y-115500D01*
X143359Y-104500D02*
X152000D01*
X184500Y-95000D02*
Y-94000D01*
X174438Y-99062D02*
X184562D01*
X190000Y-104500D01*
X180537Y-101037D02*
X182953Y-103453D01*
X180000Y-101037D02*
X180537D01*
X166500Y-101000D02*
X169625Y-97875D01*
X185054D01*
X185546Y-96687D02*
X187000Y-98141D01*
X166199Y-96687D02*
X185546D01*
X165707Y-95500D02*
X184000D01*
X141992Y-104187D02*
X143856Y-102323D01*
X156677D01*
X150650Y-112350D02*
X153500Y-109500D01*
X162693Y-100307D02*
Y-100193D01*
X153500Y-109500D02*
X156293D01*
X153500Y-112500D02*
X154972D01*
X157000Y-106000D02*
X162693Y-100307D01*
X166000Y-110500D02*
X167882D01*
X169173Y-111791D01*
X154972Y-112500D02*
X163310Y-104162D01*
X156677Y-102323D02*
X162687Y-96313D01*
Y-76313D01*
X162693Y-100193D02*
X166199Y-96687D01*
X165000Y-101000D02*
X166500D01*
X156293Y-109500D02*
X162818Y-102975D01*
X149462Y-111859D02*
X152000Y-109321D01*
X157169Y-103510D02*
X157179Y-103500D01*
X157707D01*
X165707Y-95500D01*
X152000Y-109321D02*
Y-107500D01*
X155990Y-103510D01*
X157169D01*
X172500Y-106500D02*
X173110Y-107110D01*
X165000Y-106500D02*
X172500D01*
X171841Y-104162D02*
X174495Y-106815D01*
X163310Y-104162D02*
X171841D01*
X162818Y-102975D02*
X170525D01*
X174438Y-99062D01*
X192859Y-104000D02*
X199563D01*
X187000Y-98141D02*
X192859Y-104000D01*
X193679Y-106500D02*
X194500D01*
X185054Y-97875D02*
X193679Y-106500D01*
X193000Y-58000D02*
X195839Y-55161D01*
X168535D02*
X171697Y-52000D01*
X187018D01*
X188402Y-53383D01*
X194616D01*
X197500Y-50500D01*
Y-42500D01*
X199000Y-41000D01*
X233000Y-45000D02*
X236000D01*
X192269Y-31269D02*
X203692D01*
X203717Y-31245D01*
X194082Y-30082D02*
X203200D01*
X203225Y-30057D01*
X238850D01*
X199000Y-41000D02*
X207342D01*
X230500Y-52500D02*
Y-43500D01*
Y-52500D02*
X233000Y-55000D01*
Y-55500D02*
Y-55000D01*
X42323Y-236221D02*
Y-232323D01*
Y-241142D02*
Y-236221D01*
X40000Y-230000D02*
X42323Y-232323D01*
X36965Y-246500D02*
X42323Y-241142D01*
X45500Y-235461D02*
Y-225658D01*
Y-235461D02*
X46260Y-236221D01*
Y-238941D02*
Y-236221D01*
X31965Y-253236D02*
X46260Y-238941D01*
X54500Y-245398D02*
X56102Y-247000D01*
X102728D01*
X50000Y-236024D02*
Y-230000D01*
Y-236024D02*
X50197Y-236221D01*
Y-246197D02*
X52464Y-248465D01*
X50197Y-246197D02*
Y-236221D01*
X65945D02*
X67165Y-235000D01*
X65945Y-243531D02*
Y-236221D01*
Y-243531D02*
X67913Y-245500D01*
X112500D01*
X117087Y-160087D02*
X120000Y-163000D01*
X209558Y-333558D02*
X220866Y-344866D01*
X217323Y-381890D02*
Y-381823D01*
X214500Y-379000D02*
X217323Y-381823D01*
X214500Y-379000D02*
Y-340179D01*
X208370Y-334050D02*
X214500Y-340179D01*
X224410Y-381890D02*
Y-347500D01*
X224670D01*
X239261Y-332909D01*
X227953Y-345897D02*
X240813Y-333037D01*
X234500Y-341029D02*
X242000Y-333529D01*
X231496Y-381890D02*
X234500Y-378886D01*
Y-341029D01*
X220087Y-300471D02*
X226529D01*
X209558Y-311000D02*
X220087Y-300471D01*
X209558Y-333558D02*
Y-311000D01*
X220866Y-378346D02*
Y-344866D01*
X227953Y-378346D02*
Y-345897D01*
X240472Y-285433D02*
X240813Y-285773D01*
Y-333037D02*
Y-285773D01*
X242000Y-312000D02*
X247000Y-307000D01*
X242000Y-333529D02*
Y-312000D01*
X227063Y-269000D02*
X243000D01*
X247000Y-273000D01*
Y-307000D02*
Y-273000D01*
X239261Y-332909D02*
Y-316261D01*
X235000Y-312000D02*
X239261Y-316261D01*
X220472Y-275590D02*
X227063Y-269000D01*
X226529Y-300471D02*
X230472Y-296528D01*
Y-287715D01*
X229285Y-287019D02*
X229981Y-287715D01*
X235000Y-281063D02*
X240472Y-275590D01*
X235000Y-312000D02*
Y-281063D01*
X205000Y-290000D02*
X208370Y-293370D01*
X205000Y-290000D02*
Y-278000D01*
X207410Y-275590D01*
X210472D01*
X208370Y-334050D02*
Y-293370D01*
X168000Y-209364D02*
X190112D01*
X148642Y-190000D02*
X160000D01*
X168537Y-181463D01*
Y-164000D01*
X149133Y-191187D02*
X160492D01*
X169724Y-181955D01*
Y-161932D01*
X149625Y-192375D02*
X160984D01*
X170912Y-182447D01*
Y-161440D01*
X229285Y-287019D02*
Y-285433D01*
X229981Y-287715D02*
X230472D01*
X55728Y-277000D02*
X56500D01*
X31965Y-253236D02*
X55728Y-277000D01*
X46000Y-278850D02*
X47150Y-280000D01*
X77500D02*
X78760Y-281260D01*
X47150Y-280000D02*
X77500D01*
X61500Y-287000D02*
Y-283500D01*
X150650Y-129000D02*
Y-112350D01*
X251000Y-40500D02*
X254000Y-37500D01*
Y-33000D01*
X256500Y-30500D01*
X245293Y-36500D02*
X251000D01*
X238850Y-30057D02*
X245293Y-36500D01*
X237245Y-31245D02*
X239500Y-33500D01*
X203717Y-31245D02*
X237245D01*
X186890Y-111791D02*
Y-105390D01*
X171000Y-148350D02*
X171500Y-148850D01*
X239500Y-106020D02*
X239740Y-106260D01*
X30000Y-325150D02*
X38850D01*
X28000Y-278850D02*
X46000D01*
X78760Y-304240D02*
Y-285595D01*
X178325Y-216636D02*
X180354Y-214606D01*
X89525Y-220475D02*
X90000Y-220000D01*
X46475Y-211525D02*
X91525D01*
X90000Y-214000D02*
X90500Y-213500D01*
X90000Y-220000D02*
Y-214000D01*
X91525Y-211525D02*
X100000Y-220000D01*
X83500Y-217500D02*
X84500D01*
X78500Y-215923D02*
X81923D01*
X83500Y-217500D01*
X80259Y-220475D02*
X89525D01*
X83105Y-225000D02*
X95157D01*
X46000Y-212000D02*
X46475Y-211525D01*
X46000Y-213000D02*
Y-212000D01*
X43813Y-216508D02*
X45346Y-214975D01*
X46818D01*
X45000Y-217000D02*
X45838Y-216162D01*
X47310D01*
X54500Y-245398D02*
Y-224658D01*
X40000Y-220158D02*
X42655D01*
X43813Y-219000D01*
Y-216508D01*
X65000Y-227000D02*
Y-225157D01*
X67165Y-235000D02*
X73000D01*
X48150Y-213643D02*
X73427D01*
X48642Y-214830D02*
X72935D01*
X47310Y-216162D02*
X48642Y-214830D01*
X72935D02*
X83105Y-225000D01*
X46818Y-214975D02*
X48150Y-213643D01*
X73427D02*
X80259Y-220475D01*
X58285Y-216017D02*
X72017D01*
X30000Y-318350D02*
X30500Y-318850D01*
X73000Y-235000D02*
X75000Y-233000D01*
X70000Y-220158D02*
X75000Y-225157D01*
Y-233000D02*
Y-225157D01*
X72017Y-216017D02*
X85000Y-229000D01*
Y-234000D02*
Y-229000D01*
Y-234000D02*
X86000Y-235000D01*
X108500D01*
X110000Y-233500D01*
Y-229842D01*
X55860Y-225860D02*
Y-218443D01*
Y-225860D02*
X60000Y-230000D01*
X55860Y-218443D02*
X58285Y-216017D01*
X144500Y-135000D02*
X150500Y-141000D01*
X150650D01*
X183500Y-46000D02*
X187500D01*
X233819Y-61000D02*
X237988Y-65169D01*
X81039Y-75850D02*
X86689Y-81500D01*
X106181Y-66831D02*
X109350Y-70000D01*
X106181Y-66831D02*
Y-55893D01*
X97409Y-47121D02*
X106181Y-55893D01*
X86689Y-81500D02*
X105500D01*
X106238Y-80762D01*
Y-77613D01*
X106441Y-107441D02*
Y-100559D01*
X107000Y-100000D01*
X38699Y-38199D02*
X102699D01*
X105500Y-41000D01*
Y-48500D02*
Y-41000D01*
X40150Y-285000D02*
X40650Y-285500D01*
X56000D01*
X203000Y-149000D02*
X207000D01*
X211000Y-153000D01*
X220284Y-161216D02*
Y-150374D01*
X223500Y-124350D02*
X226850Y-121000D01*
X223500Y-143500D02*
Y-124350D01*
X198209Y-142209D02*
X200500Y-144500D01*
X202000Y-148000D02*
X203000Y-149000D01*
X196500Y-150000D02*
X198500D01*
X194709Y-148209D02*
X196500Y-150000D01*
X190827Y-148209D02*
X194709D01*
X197500Y-147000D02*
Y-146679D01*
X200500Y-146707D02*
Y-144500D01*
X200025Y-147182D02*
X200500Y-146707D01*
X200025Y-148475D02*
Y-147182D01*
X198500Y-150000D02*
X200025Y-148475D01*
X207500Y-142500D02*
X208500D01*
X205000Y-144500D02*
X205525Y-143975D01*
X203000Y-145500D02*
Y-139293D01*
Y-145500D02*
X204262Y-146762D01*
X220238D01*
X223500Y-143500D01*
X211687Y-166187D02*
X218500Y-173000D01*
X205813Y-166187D02*
X211687D01*
X202500Y-169500D02*
X205813Y-166187D01*
X202500Y-185000D02*
Y-169500D01*
X186000Y-184000D02*
Y-182150D01*
X185000Y-188000D02*
X192500D01*
X195187Y-185313D01*
X186000Y-184000D02*
X188000Y-186000D01*
X113000Y-63638D02*
X114638Y-62000D01*
X173970Y-204606D02*
X180354D01*
X197512Y-97512D02*
X212000D01*
D41*
X105500Y-31500D02*
X116000Y-42000D01*
X57524Y-31500D02*
X105500D01*
X45709Y-19685D02*
X57524Y-31500D01*
D42*
X185465Y-55161D02*
X195839D01*
X304000Y-51488D02*
X304512Y-52000D01*
X304000Y-51488D02*
Y-25000D01*
X299000Y-20000D02*
X304000Y-25000D01*
X299000Y-20000D02*
Y-10000D01*
X273512Y-52000D02*
X281512Y-44000D01*
X290000D01*
X299000Y-35000D01*
X252000Y-110000D02*
X267000D01*
X186839Y-62839D02*
X190000Y-66000D01*
X196587Y-55161D02*
X204000Y-47748D01*
X162161Y-62839D02*
X168535D01*
D43*
X241000Y-49000D02*
Y-43000D01*
X290409Y-150500D02*
X299783Y-159874D01*
X253500Y-150500D02*
X290409D01*
X250284Y-170374D02*
Y-153717D01*
X253500Y-150500D01*
X270284Y-170374D02*
X280730Y-180821D01*
X269783Y-229874D02*
X289784D01*
X267126Y-199874D02*
X299783D01*
X289784Y-229874D02*
X299783Y-219874D01*
X249783Y-229874D02*
Y-217216D01*
X267126Y-199874D01*
X145882Y-46000D02*
X172000D01*
X145827Y-45945D02*
X145882Y-46000D01*
X205652Y-36000D02*
X205676Y-35976D01*
X233976D01*
X241000Y-43000D01*
X280730Y-180821D02*
X299783D01*
X192000Y-36000D02*
X205652D01*
X183500Y-44500D02*
X192000Y-36000D01*
X183500Y-46000D02*
Y-44500D01*
D44*
X130079Y-61693D02*
X145827D01*
Y-46504D02*
Y-45945D01*
Y-46504D02*
X162161Y-62839D01*
X221181Y-68000D02*
X224012Y-65169D01*
X190000Y-66000D02*
X192000Y-68000D01*
X114331Y-61693D02*
X130079D01*
X109638Y-57000D02*
X114331Y-61693D01*
X240000Y-68000D02*
Y-58000D01*
X192000Y-68000D02*
X221181D01*
D45*
X273000Y-90000D02*
X305000D01*
X273000D02*
X275000Y-92000D01*
Y-116000D02*
Y-92000D01*
X271000Y-120000D02*
X275000Y-116000D01*
X267000Y-120000D02*
X271000D01*
X264588Y-90000D02*
X273000D01*
X243000Y-67576D02*
X252966Y-77542D01*
Y-78378D02*
Y-77542D01*
Y-78378D02*
X264588Y-90000D01*
D46*
X97500Y-68750D02*
D03*
Y-111250D02*
D03*
D47*
Y-155000D02*
D03*
Y-197500D02*
D03*
D48*
X130000Y-43000D02*
D03*
D49*
X79856Y-47571D02*
D03*
D50*
X76856Y-56571D02*
D03*
D51*
X76860Y-100321D02*
D03*
D52*
X95222Y-91321D02*
D03*
D53*
X77000Y-143600D02*
D03*
D54*
X93972Y-134750D02*
D03*
D55*
X77001Y-186350D02*
D03*
D56*
X94558Y-177415D02*
D03*
D57*
X38386Y-235236D02*
D03*
X42323D02*
D03*
X58071D02*
D03*
X62008D02*
D03*
D58*
X46260D02*
D03*
X50197D02*
D03*
X54134D02*
D03*
X65945D02*
D03*
D59*
X97364Y-47736D02*
D03*
X97365Y-91236D02*
D03*
X97865Y-134736D02*
D03*
X97868Y-177236D02*
D03*
D60*
X97409Y-62894D02*
D03*
Y-106394D02*
D03*
X97909Y-149894D02*
D03*
Y-192394D02*
D03*
D61*
X37436Y-59315D02*
D03*
X37444Y-102913D02*
D03*
Y-145913D02*
D03*
X37523Y-188815D02*
D03*
D62*
X77102Y-56953D02*
D03*
X77110Y-100551D02*
D03*
Y-143551D02*
D03*
X77189Y-186453D02*
D03*
D63*
X52398Y-59316D02*
D03*
X52406Y-102914D02*
D03*
Y-145914D02*
D03*
X52484Y-188816D02*
D03*
D64*
X100000Y-202500D02*
D03*
X92500D02*
D03*
X100000Y-160000D02*
D03*
X92500D02*
D03*
X100000Y-117500D02*
D03*
X92500D02*
D03*
X100000Y-75000D02*
D03*
X92500D02*
D03*
X72500Y-197500D02*
D03*
Y-190000D02*
D03*
Y-182500D02*
D03*
Y-175000D02*
D03*
Y-155000D02*
D03*
Y-147500D02*
D03*
Y-140000D02*
D03*
Y-132500D02*
D03*
Y-110000D02*
D03*
Y-102500D02*
D03*
Y-95000D02*
D03*
Y-87500D02*
D03*
Y-67500D02*
D03*
Y-60000D02*
D03*
Y-52500D02*
D03*
Y-45000D02*
D03*
D65*
X220866Y-378346D02*
D03*
X227953D02*
D03*
X231496Y-381890D02*
D03*
X224410D02*
D03*
X217323D02*
D03*
X220866Y-385433D02*
D03*
X227953D02*
D03*
X218500Y-173000D02*
D03*
X171000Y-131500D02*
D03*
X184500Y-126500D02*
D03*
D66*
X210472Y-285433D02*
D03*
X220472D02*
D03*
X230472D02*
D03*
X240472D02*
D03*
X230472Y-275590D02*
D03*
X220472D02*
D03*
X210472D02*
D03*
X150000Y-220000D02*
D03*
Y-210000D02*
D03*
X140000Y-215000D02*
D03*
X190354Y-220000D02*
D03*
Y-210000D02*
D03*
X180354Y-215000D02*
D03*
X120000Y-220000D02*
D03*
X110000D02*
D03*
X100000D02*
D03*
X90000D02*
D03*
X100000Y-229842D02*
D03*
X110000D02*
D03*
X120000D02*
D03*
X70000Y-220158D02*
D03*
X60000D02*
D03*
X50000D02*
D03*
X40000D02*
D03*
X50000Y-230000D02*
D03*
X60000D02*
D03*
X70000D02*
D03*
X10000Y-297000D02*
D03*
X20000D02*
D03*
X30000D02*
D03*
X40000D02*
D03*
X30000Y-306842D02*
D03*
X20000D02*
D03*
X10000D02*
D03*
D67*
X240472Y-275590D02*
D03*
X140000Y-205000D02*
D03*
X180354D02*
D03*
X90000Y-229842D02*
D03*
X40000Y-230000D02*
D03*
Y-306842D02*
D03*
D68*
X153543Y-377953D02*
D03*
X11811D02*
D03*
X224410Y-326772D02*
D03*
X263779Y-275590D02*
D03*
X185039D02*
D03*
X299213Y-118110D02*
D03*
X15748Y-220472D02*
D03*
Y-15748D02*
D03*
X11811Y-259842D02*
D03*
X153543D02*
D03*
D69*
X14410Y-45500D02*
D03*
X299783Y-219874D02*
D03*
D70*
X14410Y-105500D02*
D03*
Y-165500D02*
D03*
Y-185500D02*
D03*
Y-145500D02*
D03*
Y-65500D02*
D03*
Y-85500D02*
D03*
Y-125500D02*
D03*
X299783Y-159874D02*
D03*
Y-179874D02*
D03*
Y-199874D02*
D03*
X224410Y-19685D02*
D03*
X244094D02*
D03*
X204724D02*
D03*
X157480D02*
D03*
D71*
X155906Y-196378D02*
D03*
Y-227874D02*
D03*
X196260Y-196378D02*
D03*
Y-227874D02*
D03*
D72*
X269783Y-229874D02*
D03*
X249783D02*
D03*
X305000Y-70000D02*
D03*
Y-80000D02*
D03*
X273000Y-70000D02*
D03*
Y-80000D02*
D03*
X270284Y-170374D02*
D03*
X250284D02*
D03*
D73*
X219783Y-209874D02*
D03*
X209784Y-229874D02*
D03*
X220284Y-150374D02*
D03*
X210283Y-170374D02*
D03*
D74*
X267000Y-130000D02*
D03*
D75*
Y-120000D02*
D03*
Y-110000D02*
D03*
X299000Y-10000D02*
D03*
X289000D02*
D03*
X299000Y-35000D02*
D03*
X289000D02*
D03*
D76*
X309000Y-10000D02*
D03*
Y-35000D02*
D03*
D77*
X305000Y-90000D02*
D03*
X273000D02*
D03*
D78*
X263779Y-19685D02*
D03*
X177165D02*
D03*
D79*
X45709D02*
D03*
X135394D02*
D03*
D80*
X57555Y-253236D02*
D03*
X31965D02*
D03*
X57555Y-270953D02*
D03*
X31965D02*
D03*
X96055Y-253236D02*
D03*
X70464D02*
D03*
X96055Y-270953D02*
D03*
X70464D02*
D03*
X134555Y-253236D02*
D03*
X108965D02*
D03*
X134555Y-270953D02*
D03*
X108965D02*
D03*
D81*
X68760Y-285595D02*
D03*
D82*
X78760D02*
D03*
X88760D02*
D03*
X98760D02*
D03*
D83*
X62500Y-5500D02*
D03*
X161500Y-68500D02*
D03*
X208000Y-154000D02*
D03*
X206000Y-157000D02*
D03*
X181000Y-157500D02*
D03*
X156500Y-184000D02*
D03*
X119000Y-193000D02*
D03*
X151000Y-185000D02*
D03*
X221500Y-116500D02*
D03*
X127000Y-144000D02*
D03*
X157500Y-97000D02*
D03*
X193000Y-58000D02*
D03*
X106500Y-95000D02*
D03*
X136000Y-90500D02*
D03*
X139500Y-143500D02*
D03*
X125000Y-136000D02*
D03*
X115500Y-95500D02*
D03*
X139733Y-100767D02*
D03*
X132000Y-74850D02*
D03*
X127000Y-92000D02*
D03*
X257000Y-46000D02*
D03*
X233000Y-61000D02*
D03*
X109638Y-57000D02*
D03*
X193000Y-62000D02*
D03*
X202650Y-81150D02*
D03*
X212000Y-93000D02*
D03*
X205500Y-126000D02*
D03*
X187500Y-139500D02*
D03*
X112500Y-145000D02*
D03*
X120500Y-169000D02*
D03*
X112000Y-154000D02*
D03*
X131500Y-126500D02*
D03*
X127500Y-169500D02*
D03*
X127000Y-178500D02*
D03*
X114500Y-181000D02*
D03*
X137500Y-169500D02*
D03*
X143000Y-168000D02*
D03*
X34000Y-289500D02*
D03*
X118500Y-199000D02*
D03*
X115000Y-216500D02*
D03*
X110000Y-214000D02*
D03*
X112000Y-208500D02*
D03*
X45000Y-262000D02*
D03*
X87000Y-263000D02*
D03*
X89500Y-259500D02*
D03*
X113000Y-186500D02*
D03*
X132000D02*
D03*
X126500Y-165000D02*
D03*
X115500Y-105000D02*
D03*
X115000Y-115000D02*
D03*
X239500Y-103500D02*
D03*
X132024Y-120476D02*
D03*
X140500Y-124000D02*
D03*
X220000Y-93500D02*
D03*
X158000Y-81500D02*
D03*
X168000Y-66000D02*
D03*
X178000Y-59000D02*
D03*
X176000Y-62000D02*
D03*
Y-56000D02*
D03*
X178000Y-65000D02*
D03*
X185500Y-67500D02*
D03*
X192500Y-51000D02*
D03*
X166500Y-78000D02*
D03*
X185500Y-171000D02*
D03*
X205000Y-138500D02*
D03*
X173500Y-161500D02*
D03*
X174500Y-156000D02*
D03*
X194500Y-151000D02*
D03*
X153500Y-112500D02*
D03*
X157000Y-114500D02*
D03*
X154000Y-117000D02*
D03*
X182000Y-161500D02*
D03*
X163000Y-176000D02*
D03*
X160000Y-185000D02*
D03*
X170500Y-187000D02*
D03*
X179500Y-140000D02*
D03*
X169500Y-139000D02*
D03*
X163000Y-170000D02*
D03*
X163500Y-166000D02*
D03*
X155000Y-120000D02*
D03*
X160000Y-116500D02*
D03*
X149500Y-154500D02*
D03*
X128500Y-185500D02*
D03*
X135500Y-189000D02*
D03*
X171500Y-154000D02*
D03*
X167500Y-162500D02*
D03*
X165000Y-159000D02*
D03*
X158500Y-161500D02*
D03*
X161500Y-157000D02*
D03*
X158000Y-144500D02*
D03*
X157000Y-153000D02*
D03*
X152500Y-157500D02*
D03*
X147500Y-117000D02*
D03*
X176000Y-104500D02*
D03*
X155000Y-123500D02*
D03*
X155500Y-128000D02*
D03*
X134000Y-155500D02*
D03*
Y-147500D02*
D03*
X145850Y-159350D02*
D03*
X142500Y-155500D02*
D03*
X141763Y-148669D02*
D03*
X137500Y-156500D02*
D03*
Y-148500D02*
D03*
X144350Y-145650D02*
D03*
X182500Y-119500D02*
D03*
X176000Y-121500D02*
D03*
X146500Y-106500D02*
D03*
X144500Y-118500D02*
D03*
X214000Y-109500D02*
D03*
X196000Y-160424D02*
D03*
X179500Y-183500D02*
D03*
X192500Y-10000D02*
D03*
X227000Y-125500D02*
D03*
X248000Y-79500D02*
D03*
X252500Y-69500D02*
D03*
X257500Y-70500D02*
D03*
X246000Y-87500D02*
D03*
X251500D02*
D03*
X187000Y-105500D02*
D03*
X184000Y-101500D02*
D03*
X180000Y-104000D02*
D03*
X265500Y-5500D02*
D03*
X216000Y-77500D02*
D03*
X231000Y-5500D02*
D03*
X205500Y-111000D02*
D03*
X163000Y-72000D02*
D03*
X156000Y-100000D02*
D03*
X173000Y-118821D02*
D03*
X176000Y-127000D02*
D03*
X194500Y-106500D02*
D03*
X202000Y-113500D02*
D03*
X152000Y-104500D02*
D03*
X184500Y-94000D02*
D03*
X180000Y-101037D02*
D03*
X165000Y-106500D02*
D03*
X157000Y-106000D02*
D03*
X166000Y-110500D02*
D03*
X165000Y-101000D02*
D03*
X233000Y-45000D02*
D03*
Y-55500D02*
D03*
X38386Y-236221D02*
D03*
X42323D02*
D03*
X46260D02*
D03*
X54134D02*
D03*
X58071D02*
D03*
X62008D02*
D03*
X65945D02*
D03*
X50197D02*
D03*
X56000Y-285500D02*
D03*
X56500Y-277000D02*
D03*
X61500Y-283500D02*
D03*
X251000Y-40500D02*
D03*
Y-36500D02*
D03*
X239500Y-33500D02*
D03*
X90500Y-213500D02*
D03*
X84500Y-217500D02*
D03*
X78500Y-215923D02*
D03*
X46000Y-213000D02*
D03*
X65000Y-227000D02*
D03*
X202000Y-148000D02*
D03*
X197500Y-147000D02*
D03*
X207500Y-142500D02*
D03*
X205000Y-144500D02*
D03*
X202500Y-185000D02*
D03*
X185000Y-188000D02*
D03*
X188000Y-186000D02*
D03*
D84*
X209000Y-44000D02*
D03*
M02*
