G04 Layer_Physical_Order=2*
G04 Layer_Color=16711680*
%FSLAX25Y25*%
%MOIN*%
G70*
G01*
G75*
%ADD13R,0.03150X0.03937*%
%ADD14R,0.03937X0.03150*%
%ADD15R,0.04724X0.07087*%
%ADD31R,0.07087X0.04724*%
%ADD40C,0.00787*%
%ADD43C,0.07874*%
%ADD44C,0.03937*%
%ADD45C,0.05905*%
%ADD64C,0.06000*%
%ADD65C,0.03937*%
%ADD66C,0.06693*%
%ADD67R,0.06693X0.06693*%
%ADD68C,0.13780*%
G04:AMPARAMS|DCode=69|XSize=98.42mil|YSize=98.42mil|CornerRadius=24.61mil|HoleSize=0mil|Usage=FLASHONLY|Rotation=270.000|XOffset=0mil|YOffset=0mil|HoleType=Round|Shape=RoundedRectangle|*
%AMROUNDEDRECTD69*
21,1,0.09842,0.04921,0,0,270.0*
21,1,0.04921,0.09842,0,0,270.0*
1,1,0.04921,-0.02461,-0.02461*
1,1,0.04921,-0.02461,0.02461*
1,1,0.04921,0.02461,0.02461*
1,1,0.04921,0.02461,-0.02461*
%
%ADD69ROUNDEDRECTD69*%
%ADD70C,0.09842*%
%ADD71C,0.05905*%
%ADD72C,0.06299*%
%ADD73C,0.05118*%
%ADD74R,0.05905X0.05905*%
%ADD75C,0.05905*%
%ADD76R,0.05905X0.05905*%
G04:AMPARAMS|DCode=77|XSize=62.99mil|YSize=62.99mil|CornerRadius=15.75mil|HoleSize=0mil|Usage=FLASHONLY|Rotation=90.000|XOffset=0mil|YOffset=0mil|HoleType=Round|Shape=RoundedRectangle|*
%AMROUNDEDRECTD77*
21,1,0.06299,0.03150,0,0,90.0*
21,1,0.03150,0.06299,0,0,90.0*
1,1,0.03150,0.01575,0.01575*
1,1,0.03150,0.01575,-0.01575*
1,1,0.03150,-0.01575,-0.01575*
1,1,0.03150,-0.01575,0.01575*
%
%ADD77ROUNDEDRECTD77*%
G04:AMPARAMS|DCode=78|XSize=98.42mil|YSize=98.42mil|CornerRadius=12.3mil|HoleSize=0mil|Usage=FLASHONLY|Rotation=180.000|XOffset=0mil|YOffset=0mil|HoleType=Round|Shape=RoundedRectangle|*
%AMROUNDEDRECTD78*
21,1,0.09842,0.07382,0,0,180.0*
21,1,0.07382,0.09842,0,0,180.0*
1,1,0.02461,-0.03691,0.03691*
1,1,0.02461,0.03691,0.03691*
1,1,0.02461,0.03691,-0.03691*
1,1,0.02461,-0.03691,-0.03691*
%
%ADD78ROUNDEDRECTD78*%
%ADD79C,0.11811*%
%ADD80C,0.07087*%
%ADD81R,0.07874X0.07874*%
%ADD82C,0.07874*%
%ADD83C,0.02362*%
%ADD84C,0.05000*%
%ADD85R,0.04803X0.03583*%
%ADD86R,0.15000X0.27500*%
%ADD87R,0.75000X0.20000*%
%ADD88R,0.19500X1.69000*%
%ADD89R,0.20288X0.38358*%
G36*
X315000Y-136792D02*
X259445D01*
X259199Y-136292D01*
X259407Y-136020D01*
X259685Y-135349D01*
X259780Y-134630D01*
Y-128151D01*
X264859Y-123072D01*
X265114Y-123267D01*
X266024Y-123644D01*
X267000Y-123772D01*
X267976Y-123644D01*
X268886Y-123267D01*
X269668Y-122668D01*
X270267Y-121886D01*
X270644Y-120976D01*
X270772Y-120000D01*
X270644Y-119024D01*
X270267Y-118114D01*
X269668Y-117332D01*
X268886Y-116733D01*
X267976Y-116356D01*
X267000Y-116228D01*
X266024Y-116356D01*
X265114Y-116733D01*
X264479Y-117220D01*
X264000D01*
X263281Y-117315D01*
X262610Y-117593D01*
X262035Y-118035D01*
X255034Y-125034D01*
X254593Y-125610D01*
X254315Y-126281D01*
X254220Y-127000D01*
Y-131850D01*
X250506D01*
X250315Y-131388D01*
X253351Y-128351D01*
X253613Y-127961D01*
X253704Y-127500D01*
X253704Y-127500D01*
Y-88500D01*
X253613Y-88039D01*
X253449Y-87794D01*
X253507Y-87500D01*
X253354Y-86732D01*
X252919Y-86081D01*
X252268Y-85646D01*
X251500Y-85493D01*
X251397Y-85514D01*
X251150Y-85053D01*
X258351Y-77851D01*
X258351Y-77851D01*
X258613Y-77461D01*
X258704Y-77000D01*
Y-72063D01*
X258919Y-71919D01*
X259354Y-71268D01*
X259507Y-70500D01*
X259354Y-69732D01*
X258919Y-69081D01*
X258268Y-68646D01*
X257500Y-68493D01*
X256732Y-68646D01*
X256081Y-69081D01*
X255844Y-69434D01*
X255218Y-69515D01*
X254351Y-68648D01*
X254256Y-68585D01*
X253919Y-68081D01*
X253268Y-67646D01*
X252500Y-67493D01*
X251732Y-67646D01*
X251081Y-68081D01*
X250646Y-68732D01*
X250493Y-69500D01*
X250646Y-70268D01*
X250888Y-70630D01*
X250620Y-71130D01*
X247457D01*
X247066Y-71208D01*
X246736Y-71429D01*
X246515Y-71759D01*
X246437Y-72150D01*
Y-73528D01*
X251000D01*
Y-75496D01*
X246437D01*
Y-76874D01*
X246515Y-77264D01*
X246516Y-77267D01*
X246427Y-77928D01*
X246035Y-78516D01*
X248000D01*
Y-79500D01*
X248984D01*
Y-81688D01*
X249185Y-81933D01*
X245532Y-85586D01*
X245232Y-85646D01*
X244581Y-86081D01*
X244146Y-86732D01*
X243993Y-87500D01*
X244146Y-88268D01*
X244581Y-88919D01*
X245232Y-89354D01*
X246000Y-89507D01*
X246768Y-89354D01*
X246855Y-89296D01*
X247296Y-89532D01*
Y-122360D01*
X245166Y-124489D01*
X244704Y-124298D01*
Y-100500D01*
X244613Y-100039D01*
X244352Y-99648D01*
X244352Y-99648D01*
X237351Y-92649D01*
X236961Y-92387D01*
X236500Y-92296D01*
X236500Y-92296D01*
X221563D01*
X221419Y-92081D01*
X221173Y-91916D01*
X221110Y-91273D01*
X229539Y-82843D01*
X229539Y-82843D01*
X229800Y-82453D01*
X229892Y-81992D01*
X229892Y-81992D01*
Y-69281D01*
X230383Y-69008D01*
X230539Y-69113D01*
X231000Y-69204D01*
X234520D01*
X234534Y-69276D01*
X234708Y-69536D01*
X234968Y-69710D01*
X235276Y-69771D01*
X238425D01*
X238732Y-69710D01*
X238993Y-69536D01*
X239167Y-69276D01*
X239228Y-68968D01*
Y-65430D01*
X239445Y-65002D01*
X239712Y-64966D01*
X240502D01*
X240555Y-65031D01*
Y-66016D01*
X243150D01*
X245744D01*
Y-65031D01*
X245797Y-64966D01*
X246654D01*
Y-65850D01*
X246715Y-66158D01*
X246889Y-66418D01*
X247149Y-66592D01*
X247457Y-66653D01*
X254543D01*
X254851Y-66592D01*
X255111Y-66418D01*
X255285Y-66158D01*
X255346Y-65850D01*
Y-61126D01*
X255285Y-60819D01*
X255111Y-60558D01*
X254851Y-60384D01*
X254543Y-60323D01*
X252204D01*
Y-59677D01*
X254543D01*
X254851Y-59616D01*
X255111Y-59442D01*
X255285Y-59181D01*
X255346Y-58874D01*
Y-54150D01*
X255285Y-53842D01*
X255111Y-53582D01*
X254851Y-53408D01*
X254543Y-53347D01*
X247457D01*
X247149Y-53408D01*
X246889Y-53582D01*
X246715Y-53842D01*
X246654Y-54150D01*
Y-58874D01*
X246715Y-59181D01*
X246889Y-59442D01*
X247149Y-59616D01*
X247457Y-59677D01*
X249796D01*
Y-60323D01*
X247457D01*
X247149Y-60384D01*
X246889Y-60558D01*
X246715Y-60819D01*
X246654Y-61126D01*
Y-62558D01*
X245378D01*
Y-59031D01*
X245317Y-58724D01*
X245143Y-58464D01*
X245086Y-58426D01*
X245102Y-58141D01*
X245164Y-57877D01*
X245445Y-57689D01*
X245666Y-57359D01*
X245744Y-56968D01*
Y-55984D01*
X243150D01*
Y-54016D01*
X245744D01*
Y-53031D01*
X245666Y-52641D01*
X245445Y-52311D01*
X245205Y-52150D01*
X245201Y-52139D01*
X245169Y-51778D01*
X245201Y-51597D01*
X245292Y-51536D01*
X245466Y-51276D01*
X245527Y-50968D01*
Y-47032D01*
X245466Y-46724D01*
X245292Y-46464D01*
X245032Y-46290D01*
X244724Y-46229D01*
X242081D01*
X240001Y-44148D01*
X239610Y-43887D01*
X239150Y-43796D01*
X239149Y-43796D01*
X234563D01*
X234419Y-43581D01*
X233768Y-43146D01*
X233000Y-42993D01*
X232232Y-43146D01*
X231581Y-43581D01*
X231146Y-44232D01*
X230993Y-45000D01*
X231146Y-45768D01*
X231581Y-46419D01*
X232232Y-46854D01*
X233000Y-47007D01*
X233768Y-46854D01*
X234033Y-46677D01*
X234484Y-46978D01*
X234473Y-47032D01*
Y-50968D01*
X234534Y-51276D01*
X234708Y-51536D01*
X234968Y-51710D01*
X235144Y-51745D01*
Y-52255D01*
X234968Y-52290D01*
X234708Y-52464D01*
X234534Y-52724D01*
X234473Y-53031D01*
Y-53515D01*
X233973Y-53782D01*
X233768Y-53646D01*
X233000Y-53493D01*
X232232Y-53646D01*
X231581Y-54081D01*
X231146Y-54732D01*
X230993Y-55500D01*
X231146Y-56268D01*
X231212Y-56367D01*
X230909Y-56814D01*
X230539Y-56887D01*
X230383Y-56992D01*
X229892Y-56719D01*
Y-44311D01*
X232499Y-41704D01*
X246781D01*
X247042Y-42167D01*
X247036Y-42204D01*
X246736Y-42405D01*
X246515Y-42736D01*
X246437Y-43126D01*
Y-44504D01*
X251000D01*
Y-45488D01*
X251984D01*
Y-48870D01*
X254543D01*
X254934Y-48792D01*
X255264Y-48571D01*
X255485Y-48241D01*
X255490Y-48216D01*
X256016Y-47998D01*
Y-46000D01*
Y-44034D01*
X256004Y-44042D01*
X255563Y-43807D01*
Y-43126D01*
X255485Y-42736D01*
X255264Y-42405D01*
X254934Y-42184D01*
X254543Y-42106D01*
X252895D01*
X252628Y-41606D01*
X252854Y-41268D01*
X253007Y-40500D01*
X252854Y-39732D01*
X252419Y-39081D01*
X251975Y-38784D01*
Y-38216D01*
X252419Y-37919D01*
X252854Y-37268D01*
X253007Y-36500D01*
X252854Y-35732D01*
X252419Y-35081D01*
X251768Y-34646D01*
X251000Y-34493D01*
X250232Y-34646D01*
X249581Y-35081D01*
X249146Y-35732D01*
X249138Y-35771D01*
X240918D01*
X240613Y-35299D01*
X240643Y-35104D01*
X240919Y-34919D01*
X241354Y-34268D01*
X241507Y-33500D01*
X241354Y-32732D01*
X240919Y-32081D01*
X240268Y-31646D01*
X239500Y-31493D01*
X238732Y-31646D01*
X238081Y-32081D01*
X237937Y-32296D01*
X234500D01*
X234500Y-32296D01*
X234039Y-32387D01*
X233648Y-32649D01*
X233648Y-32649D01*
X225149Y-41148D01*
X224887Y-41539D01*
X224796Y-42000D01*
X224796Y-42000D01*
Y-73501D01*
X222001Y-76296D01*
X217563D01*
X217419Y-76081D01*
X216768Y-75646D01*
X216000Y-75493D01*
X215232Y-75646D01*
X214581Y-76081D01*
X214146Y-76732D01*
X213993Y-77500D01*
X214146Y-78268D01*
X214581Y-78919D01*
X215232Y-79354D01*
X216000Y-79507D01*
X216768Y-79354D01*
X217419Y-78919D01*
X217563Y-78704D01*
X222500D01*
X222500Y-78704D01*
X222961Y-78613D01*
X223352Y-78351D01*
X225834Y-75869D01*
X226296Y-76061D01*
Y-81001D01*
X214661Y-92636D01*
X214119Y-92471D01*
X214055Y-92149D01*
X213573Y-91427D01*
X212984Y-91035D01*
Y-93000D01*
X212000D01*
Y-93984D01*
X210034D01*
X210427Y-94573D01*
X210762Y-94796D01*
X210610Y-95296D01*
X191999D01*
X187352Y-90649D01*
X186961Y-90387D01*
X186500Y-90296D01*
X186500Y-90296D01*
X182500D01*
X182039Y-90387D01*
X181649Y-90649D01*
X181649Y-90649D01*
X179666Y-92631D01*
X179204Y-92439D01*
Y-76500D01*
X179204Y-76500D01*
X179113Y-76039D01*
X178851Y-75648D01*
X170852Y-67649D01*
X170461Y-67387D01*
X170091Y-67314D01*
X169788Y-66867D01*
X169854Y-66768D01*
X170007Y-66000D01*
X169862Y-65271D01*
X169868Y-65211D01*
X170148Y-64771D01*
X172724D01*
X173032Y-64710D01*
X173292Y-64536D01*
X173466Y-64276D01*
X173527Y-63968D01*
Y-63204D01*
X174437D01*
X174581Y-63419D01*
X175232Y-63854D01*
X175730Y-63953D01*
X176028Y-64153D01*
X176093Y-64497D01*
X175993Y-65000D01*
X176146Y-65768D01*
X176581Y-66419D01*
X177232Y-66854D01*
X178000Y-67007D01*
X178768Y-66854D01*
X179419Y-66419D01*
X179854Y-65768D01*
X180007Y-65000D01*
X180385Y-64556D01*
X180708Y-64536D01*
X180968Y-64710D01*
X181276Y-64771D01*
X184425D01*
X184732Y-64710D01*
X184993Y-64536D01*
X185167Y-64276D01*
X185228Y-63968D01*
Y-60031D01*
X185167Y-59724D01*
X184993Y-59464D01*
X184732Y-59290D01*
X184557Y-59255D01*
Y-58745D01*
X184732Y-58710D01*
X184993Y-58536D01*
X185167Y-58276D01*
X185228Y-57968D01*
Y-54031D01*
X185167Y-53724D01*
X184993Y-53464D01*
X184732Y-53290D01*
X184425Y-53229D01*
X181276D01*
X180968Y-53290D01*
X180708Y-53464D01*
X180534Y-53724D01*
X180473Y-54031D01*
Y-54932D01*
X180148Y-55149D01*
X178602Y-56695D01*
X178351Y-56670D01*
X177979Y-56143D01*
X178007Y-56000D01*
X177854Y-55232D01*
X177419Y-54581D01*
X176768Y-54146D01*
X176000Y-53993D01*
X175232Y-54146D01*
X174581Y-54581D01*
X174437Y-54796D01*
X173527D01*
Y-54031D01*
X173466Y-53724D01*
X173292Y-53464D01*
X173032Y-53290D01*
X172724Y-53229D01*
X169575D01*
X169268Y-53290D01*
X169007Y-53464D01*
X168833Y-53724D01*
X168772Y-54031D01*
Y-56416D01*
X168310Y-56607D01*
X167228Y-55525D01*
Y-54031D01*
X167167Y-53724D01*
X166993Y-53464D01*
X166732Y-53290D01*
X166425Y-53229D01*
X163276D01*
X162968Y-53290D01*
X162708Y-53464D01*
X162534Y-53724D01*
X162473Y-54031D01*
Y-54497D01*
X161771D01*
Y-54126D01*
X161710Y-53819D01*
X161536Y-53558D01*
X161276Y-53384D01*
X160968Y-53323D01*
X157032D01*
X156724Y-53384D01*
X156464Y-53558D01*
X156290Y-53819D01*
X156229Y-54126D01*
Y-54497D01*
X155677D01*
Y-50457D01*
X155616Y-50150D01*
X155442Y-49889D01*
X155181Y-49715D01*
X154874Y-49654D01*
X150150D01*
X149842Y-49715D01*
X149582Y-49889D01*
X149408Y-50150D01*
X149347Y-50457D01*
Y-57543D01*
X149408Y-57850D01*
X149563Y-58083D01*
X149581Y-58122D01*
X149523Y-58673D01*
X149429Y-58736D01*
X149208Y-59066D01*
X149130Y-59457D01*
Y-62016D01*
X152512D01*
Y-63000D01*
X153496D01*
Y-67563D01*
X154874D01*
X155264Y-67485D01*
X155595Y-67264D01*
X155816Y-66934D01*
X155894Y-66543D01*
Y-64572D01*
X156085Y-64445D01*
X156394Y-64351D01*
X156641Y-64517D01*
X157032Y-64594D01*
X158016D01*
Y-62000D01*
X159984D01*
Y-64594D01*
X160968D01*
X161359Y-64517D01*
X161689Y-64296D01*
X161783Y-64155D01*
X162314Y-64261D01*
X162334Y-64359D01*
X162555Y-64689D01*
X162885Y-64911D01*
X163276Y-64988D01*
X163866D01*
Y-62000D01*
X165835D01*
Y-65108D01*
X166095Y-65488D01*
X165993Y-66000D01*
X166146Y-66768D01*
X166204Y-66855D01*
X165968Y-67296D01*
X163063D01*
X162919Y-67081D01*
X162268Y-66646D01*
X161500Y-66493D01*
X160732Y-66646D01*
X160081Y-67081D01*
X159646Y-67732D01*
X159493Y-68500D01*
X159646Y-69268D01*
X160081Y-69919D01*
X160732Y-70354D01*
X161084Y-70424D01*
X161314Y-70980D01*
X161146Y-71232D01*
X160993Y-72000D01*
X161146Y-72768D01*
X161581Y-73419D01*
X162232Y-73854D01*
X163000Y-74007D01*
X163768Y-73854D01*
X164419Y-73419D01*
X164563Y-73204D01*
X167501D01*
X168483Y-74186D01*
Y-76525D01*
X167983Y-76676D01*
X167919Y-76581D01*
X167268Y-76146D01*
X166500Y-75993D01*
X165732Y-76146D01*
X165081Y-76581D01*
X164646Y-77232D01*
X164493Y-78000D01*
X164646Y-78768D01*
X165081Y-79419D01*
X165296Y-79563D01*
Y-81001D01*
X155026Y-91271D01*
X138465D01*
X138147Y-90884D01*
X138224Y-90500D01*
X138055Y-89649D01*
X137573Y-88928D01*
X136984Y-88534D01*
Y-90500D01*
X135016D01*
Y-88534D01*
X134427Y-88928D01*
X133946Y-89649D01*
X133776Y-90500D01*
X133853Y-90884D01*
X133535Y-91271D01*
X129140D01*
X128932Y-90771D01*
X132852Y-86852D01*
X132852Y-86852D01*
X133113Y-86461D01*
X133204Y-86000D01*
X133204Y-86000D01*
Y-76413D01*
X133419Y-76270D01*
X133854Y-75618D01*
X134007Y-74850D01*
X133854Y-74082D01*
X133419Y-73431D01*
X132768Y-72996D01*
X132000Y-72843D01*
X131232Y-72996D01*
X130581Y-73431D01*
X130146Y-74082D01*
X129993Y-74850D01*
X130146Y-75618D01*
X130581Y-76270D01*
X130796Y-76413D01*
Y-85501D01*
X126148Y-90149D01*
X126084Y-90244D01*
X125581Y-90581D01*
X125146Y-91232D01*
X124993Y-92000D01*
X125146Y-92768D01*
X125581Y-93419D01*
X126144Y-93796D01*
X126094Y-94212D01*
X126061Y-94296D01*
X117063D01*
X116919Y-94081D01*
X116268Y-93646D01*
X115500Y-93493D01*
X114732Y-93646D01*
X114081Y-94081D01*
X113646Y-94732D01*
X113493Y-95500D01*
X113646Y-96268D01*
X114081Y-96919D01*
X114732Y-97354D01*
X115500Y-97507D01*
X116268Y-97354D01*
X116919Y-96919D01*
X117063Y-96704D01*
X133967D01*
X137776Y-100514D01*
X137726Y-100767D01*
X137878Y-101535D01*
X138313Y-102187D01*
X138965Y-102622D01*
X139733Y-102774D01*
X140501Y-102622D01*
X141152Y-102187D01*
X141587Y-101535D01*
X141740Y-100767D01*
X141587Y-99999D01*
X141152Y-99348D01*
X140501Y-98913D01*
X139733Y-98760D01*
X139479Y-98811D01*
X135317Y-94648D01*
X134926Y-94387D01*
X134465Y-94296D01*
X134465Y-94296D01*
X128422D01*
X128209Y-93796D01*
X128320Y-93679D01*
X155525D01*
X155525Y-93679D01*
X155986Y-93587D01*
X156377Y-93326D01*
X167351Y-82351D01*
X167613Y-81961D01*
X167704Y-81500D01*
Y-79692D01*
X167983Y-79474D01*
X168483Y-79667D01*
Y-110187D01*
X168483Y-110187D01*
X168575Y-110648D01*
X168836Y-111039D01*
X169867Y-112070D01*
X169867Y-112070D01*
X170258Y-112331D01*
X170719Y-112423D01*
X170719Y-112423D01*
X171055D01*
X171185Y-112643D01*
X171264Y-112923D01*
X171089Y-113185D01*
X171012Y-113575D01*
Y-114165D01*
X174000D01*
Y-116134D01*
X171012D01*
Y-116724D01*
X171089Y-117115D01*
X171303Y-117434D01*
X171035Y-117837D01*
X173000D01*
Y-119805D01*
X171035D01*
X171129Y-119946D01*
X170906Y-120513D01*
X170753Y-120550D01*
X165798Y-115595D01*
Y-112673D01*
X166000Y-112507D01*
X166768Y-112354D01*
X167419Y-111919D01*
X167854Y-111268D01*
X168007Y-110500D01*
X167854Y-109732D01*
X167419Y-109081D01*
X166768Y-108646D01*
X166355Y-108563D01*
X166249Y-108033D01*
X166419Y-107919D01*
X166854Y-107268D01*
X167007Y-106500D01*
X166854Y-105732D01*
X166419Y-105081D01*
X165916Y-104744D01*
X165851Y-104648D01*
X165851Y-104648D01*
X164650Y-103447D01*
X164897Y-102987D01*
X165000Y-103007D01*
X165768Y-102854D01*
X166419Y-102419D01*
X166854Y-101768D01*
X167007Y-101000D01*
X166854Y-100232D01*
X166419Y-99581D01*
X165768Y-99146D01*
X165000Y-98993D01*
X164232Y-99146D01*
X163581Y-99581D01*
X163437Y-99796D01*
X157966D01*
X157854Y-99232D01*
X157890Y-99146D01*
X158351Y-99054D01*
X159072Y-98572D01*
X159466Y-97984D01*
X155281D01*
X155232Y-98146D01*
X154581Y-98581D01*
X154146Y-99232D01*
X153993Y-100000D01*
X154146Y-100768D01*
X154581Y-101419D01*
X155232Y-101854D01*
X156000Y-102007D01*
X156294Y-101949D01*
X156539Y-102113D01*
X157000Y-102204D01*
X163027D01*
X163120Y-102321D01*
X162878Y-102821D01*
X153030D01*
X152768Y-102646D01*
X152000Y-102493D01*
X151232Y-102646D01*
X150581Y-103081D01*
X150146Y-103732D01*
X149993Y-104500D01*
X150146Y-105268D01*
X150581Y-105919D01*
X150583Y-105921D01*
X150432Y-106421D01*
X148491D01*
X148354Y-105732D01*
X147919Y-105081D01*
X147268Y-104646D01*
X146500Y-104493D01*
X145732Y-104646D01*
X145081Y-105081D01*
X144646Y-105732D01*
X144493Y-106500D01*
X144614Y-107108D01*
X144317Y-107608D01*
X119811D01*
X117457Y-105254D01*
X117507Y-105000D01*
X117354Y-104232D01*
X116919Y-103581D01*
X116268Y-103146D01*
X115500Y-102993D01*
X114732Y-103146D01*
X114081Y-103581D01*
X113646Y-104232D01*
X113493Y-105000D01*
X113646Y-105768D01*
X114081Y-106419D01*
X114732Y-106854D01*
X115500Y-107007D01*
X115754Y-106957D01*
X118547Y-109750D01*
X115254Y-113043D01*
X115000Y-112993D01*
X114232Y-113146D01*
X113581Y-113581D01*
X113146Y-114232D01*
X112993Y-115000D01*
X113146Y-115768D01*
X113581Y-116419D01*
X114232Y-116854D01*
X115000Y-117007D01*
X115768Y-116854D01*
X116419Y-116419D01*
X116854Y-115768D01*
X117007Y-115000D01*
X116957Y-114746D01*
X120499Y-111204D01*
X138913D01*
X139057Y-111475D01*
X139093Y-111704D01*
X132277Y-118520D01*
X132024Y-118469D01*
X131255Y-118622D01*
X130604Y-119057D01*
X130169Y-119708D01*
X130017Y-120476D01*
X130169Y-121245D01*
X130604Y-121896D01*
X131255Y-122331D01*
X132024Y-122483D01*
X132792Y-122331D01*
X133443Y-121896D01*
X133878Y-121245D01*
X134031Y-120476D01*
X133980Y-120223D01*
X140499Y-113704D01*
X151937D01*
X152081Y-113919D01*
X152732Y-114354D01*
X153500Y-114507D01*
X153906Y-114426D01*
X154299Y-114692D01*
X154000Y-114993D01*
X153232Y-115146D01*
X152581Y-115581D01*
X152146Y-116232D01*
X152042Y-116755D01*
X149179Y-119618D01*
X148717Y-119427D01*
Y-118554D01*
X148919Y-118419D01*
X149354Y-117768D01*
X149507Y-117000D01*
X149354Y-116232D01*
X148919Y-115581D01*
X148268Y-115146D01*
X147500Y-114993D01*
X146732Y-115146D01*
X146081Y-115581D01*
X145646Y-116232D01*
X145626Y-116330D01*
X145140Y-116620D01*
X144500Y-116493D01*
X143732Y-116646D01*
X143081Y-117081D01*
X142646Y-117732D01*
X142493Y-118500D01*
X142646Y-119268D01*
X143081Y-119919D01*
X143296Y-120063D01*
Y-142821D01*
X143296Y-142821D01*
X143387Y-143282D01*
X143417Y-143325D01*
X143499Y-143595D01*
X142778Y-144077D01*
X142385Y-144665D01*
X144350D01*
Y-146634D01*
X141904D01*
X141861Y-146682D01*
X141763Y-146662D01*
X140995Y-146815D01*
X140344Y-147250D01*
X139909Y-147901D01*
X139903Y-147929D01*
X139393D01*
X139354Y-147732D01*
X138919Y-147081D01*
X138268Y-146646D01*
X137500Y-146493D01*
X136732Y-146646D01*
X136392Y-146873D01*
X135854Y-146732D01*
X135419Y-146081D01*
X134768Y-145646D01*
X134000Y-145493D01*
X133232Y-145646D01*
X132581Y-146081D01*
X132146Y-146732D01*
X131993Y-147500D01*
X132146Y-148268D01*
X132581Y-148919D01*
X132796Y-149063D01*
Y-153937D01*
X132581Y-154081D01*
X132146Y-154732D01*
X131993Y-155500D01*
X132146Y-156268D01*
X132581Y-156919D01*
X133232Y-157354D01*
X134000Y-157507D01*
X134768Y-157354D01*
X135108Y-157127D01*
X135646Y-157268D01*
X136081Y-157919D01*
X136732Y-158354D01*
X137152Y-158438D01*
X137317Y-158980D01*
X128623Y-167674D01*
X128382Y-167722D01*
X128268Y-167646D01*
X127500Y-167493D01*
X126732Y-167646D01*
X126081Y-168081D01*
X125811Y-168107D01*
X123352Y-165648D01*
X122961Y-165387D01*
X122500Y-165296D01*
X122500Y-165296D01*
X121499D01*
X115955Y-159752D01*
X115954Y-159744D01*
X115692Y-159354D01*
X113204Y-156865D01*
Y-155563D01*
X113419Y-155419D01*
X113854Y-154768D01*
X114007Y-154000D01*
X113854Y-153232D01*
X113419Y-152581D01*
X113204Y-152437D01*
Y-149999D01*
X115851Y-147352D01*
X116113Y-146961D01*
X116204Y-146500D01*
Y-132999D01*
X117999Y-131204D01*
X128000D01*
X128000Y-131204D01*
X128461Y-131113D01*
X128851Y-130851D01*
X131246Y-128457D01*
X131500Y-128507D01*
X132268Y-128354D01*
X132919Y-127919D01*
X133354Y-127268D01*
X133507Y-126500D01*
X133354Y-125732D01*
X132919Y-125081D01*
X132268Y-124646D01*
X131500Y-124493D01*
X130732Y-124646D01*
X130081Y-125081D01*
X129646Y-125732D01*
X129493Y-126500D01*
X129543Y-126754D01*
X127501Y-128796D01*
X117500D01*
X117039Y-128887D01*
X116648Y-129148D01*
X116648Y-129148D01*
X114148Y-131649D01*
X113887Y-132039D01*
X113796Y-132500D01*
X113796Y-132500D01*
Y-142712D01*
X113484Y-142879D01*
Y-145000D01*
X112500D01*
Y-145984D01*
X110535D01*
X110927Y-146572D01*
X111649Y-147055D01*
X111971Y-147119D01*
X112136Y-147661D01*
X111149Y-148649D01*
X110887Y-149039D01*
X110796Y-149500D01*
X110796Y-149500D01*
Y-152437D01*
X110581Y-152581D01*
X110146Y-153232D01*
X109993Y-154000D01*
X110146Y-154768D01*
X110581Y-155419D01*
X110796Y-155563D01*
Y-157364D01*
X110796Y-157364D01*
X110887Y-157825D01*
X111149Y-158216D01*
X111282Y-158350D01*
X111152Y-158926D01*
X111138Y-158931D01*
X110552Y-159323D01*
X110331Y-159544D01*
X109939Y-160130D01*
X109819Y-160420D01*
Y-160420D01*
X109682Y-161111D01*
X109682Y-161111D01*
Y-161190D01*
X109666Y-161268D01*
X109682Y-161345D01*
Y-161424D01*
X109682Y-161424D01*
X109819Y-162116D01*
Y-162116D01*
X109939Y-162405D01*
X110331Y-162991D01*
X110552Y-163213D01*
X111138Y-163604D01*
X111428Y-163724D01*
X111428D01*
X112119Y-163862D01*
X112119Y-163862D01*
X112276D01*
X112432D01*
X112432Y-163862D01*
X113123Y-163724D01*
X113124D01*
X113413Y-163604D01*
X113999Y-163213D01*
X114220Y-162991D01*
X114565Y-162475D01*
X114820Y-162392D01*
X115167Y-162371D01*
X119344Y-166548D01*
X119281Y-167191D01*
X118928Y-167428D01*
X118535Y-168016D01*
X120500D01*
Y-169984D01*
X118535D01*
X118743Y-170296D01*
X118475Y-170796D01*
X116500D01*
X116500Y-170796D01*
X116039Y-170887D01*
X115648Y-171149D01*
X115648Y-171149D01*
X110649Y-176148D01*
X110387Y-176539D01*
X110296Y-177000D01*
X110296Y-177000D01*
Y-185000D01*
X110296Y-185000D01*
X110387Y-185461D01*
X110649Y-185852D01*
X111043Y-186246D01*
X110993Y-186500D01*
X111146Y-187268D01*
X111581Y-187919D01*
X111796Y-188063D01*
Y-189000D01*
X111796Y-189000D01*
X111887Y-189461D01*
X112148Y-189851D01*
X112648Y-190351D01*
X112648Y-190351D01*
X113039Y-190613D01*
X113500Y-190704D01*
X113500Y-190704D01*
X118061D01*
X118094Y-190789D01*
X118144Y-191204D01*
X117581Y-191581D01*
X117146Y-192232D01*
X116993Y-193000D01*
X117146Y-193768D01*
X117581Y-194419D01*
X118232Y-194854D01*
X119000Y-195007D01*
X119254Y-194957D01*
X119796Y-195499D01*
Y-196968D01*
X119355Y-197204D01*
X119268Y-197146D01*
X118500Y-196993D01*
X117732Y-197146D01*
X117081Y-197581D01*
X116646Y-198232D01*
X116493Y-199000D01*
X116646Y-199768D01*
X117081Y-200419D01*
X117296Y-200563D01*
Y-205001D01*
X114347Y-207950D01*
X113869Y-207805D01*
X113854Y-207732D01*
X113419Y-207081D01*
X112768Y-206646D01*
X112000Y-206493D01*
X111232Y-206646D01*
X110581Y-207081D01*
X110146Y-207732D01*
X109993Y-208500D01*
X110146Y-209268D01*
X110148Y-209271D01*
X107124Y-212296D01*
X92063D01*
X91919Y-212081D01*
X91268Y-211646D01*
X90500Y-211493D01*
X89732Y-211646D01*
X89081Y-212081D01*
X88646Y-212732D01*
X88493Y-213500D01*
X88623Y-214156D01*
X88349Y-214656D01*
X87140D01*
X87140Y-214656D01*
X86679Y-214747D01*
X86289Y-215008D01*
X86289Y-215008D01*
X85498Y-215799D01*
X85268Y-215646D01*
X84500Y-215493D01*
X83732Y-215646D01*
X83081Y-216081D01*
X82646Y-216732D01*
X82493Y-217500D01*
X82646Y-218268D01*
X83081Y-218919D01*
X83732Y-219354D01*
X84500Y-219507D01*
X85268Y-219354D01*
X85425Y-219249D01*
X85891Y-219539D01*
X85830Y-220000D01*
X85973Y-221079D01*
X86389Y-222085D01*
X87052Y-222948D01*
X87915Y-223611D01*
X88921Y-224027D01*
X90000Y-224169D01*
X91079Y-224027D01*
X92085Y-223611D01*
X92948Y-222948D01*
X93611Y-222085D01*
X94027Y-221079D01*
X94169Y-220000D01*
X94027Y-218921D01*
X93611Y-217915D01*
X93302Y-217512D01*
X93523Y-217064D01*
X96477D01*
X96698Y-217512D01*
X96389Y-217915D01*
X95973Y-218921D01*
X95831Y-220000D01*
X95973Y-221079D01*
X96389Y-222085D01*
X97052Y-222948D01*
X97915Y-223611D01*
X98921Y-224027D01*
X100000Y-224169D01*
X101079Y-224027D01*
X102085Y-223611D01*
X102948Y-222948D01*
X103611Y-222085D01*
X104027Y-221079D01*
X104169Y-220000D01*
X104027Y-218921D01*
X103611Y-217915D01*
X103409Y-217653D01*
X103631Y-217204D01*
X106369D01*
X106591Y-217653D01*
X106389Y-217915D01*
X105973Y-218921D01*
X105831Y-220000D01*
X105973Y-221079D01*
X106389Y-222085D01*
X107052Y-222948D01*
X107915Y-223611D01*
X108921Y-224027D01*
X110000Y-224169D01*
X111079Y-224027D01*
X112085Y-223611D01*
X112948Y-222948D01*
X113611Y-222085D01*
X114027Y-221079D01*
X114170Y-220000D01*
X114027Y-218921D01*
X113943Y-218717D01*
X114343Y-218376D01*
X115000Y-218507D01*
X115406Y-218426D01*
X115766Y-218865D01*
X115765Y-218865D01*
X115746Y-219016D01*
X120000D01*
Y-220000D01*
X120984D01*
Y-224254D01*
X121135Y-224235D01*
X122192Y-223797D01*
X123100Y-223100D01*
X123797Y-222192D01*
X124296Y-222293D01*
Y-228105D01*
X123796Y-228204D01*
X123611Y-227758D01*
X122948Y-226894D01*
X122085Y-226232D01*
X121079Y-225815D01*
X120000Y-225673D01*
X118921Y-225815D01*
X117915Y-226232D01*
X117052Y-226894D01*
X116389Y-227758D01*
X115973Y-228763D01*
X115831Y-229842D01*
X115973Y-230922D01*
X116389Y-231927D01*
X117052Y-232791D01*
X117093Y-232822D01*
X116932Y-233296D01*
X113068D01*
X112907Y-232822D01*
X112948Y-232791D01*
X113611Y-231927D01*
X114027Y-230922D01*
X114170Y-229842D01*
X114027Y-228763D01*
X113611Y-227758D01*
X112948Y-226894D01*
X112085Y-226232D01*
X111079Y-225815D01*
X110000Y-225673D01*
X108921Y-225815D01*
X107915Y-226232D01*
X107052Y-226894D01*
X106389Y-227758D01*
X105973Y-228763D01*
X105831Y-229842D01*
X105973Y-230922D01*
X106389Y-231927D01*
X107052Y-232791D01*
X107093Y-232822D01*
X106932Y-233296D01*
X103068D01*
X102907Y-232822D01*
X102948Y-232791D01*
X103611Y-231927D01*
X104027Y-230922D01*
X104169Y-229842D01*
X104027Y-228763D01*
X103611Y-227758D01*
X102948Y-226894D01*
X102085Y-226232D01*
X101079Y-225815D01*
X100000Y-225673D01*
X98921Y-225815D01*
X97915Y-226232D01*
X97052Y-226894D01*
X96389Y-227758D01*
X95973Y-228763D01*
X95831Y-229842D01*
X95973Y-230922D01*
X96389Y-231927D01*
X97052Y-232791D01*
X97093Y-232822D01*
X96932Y-233296D01*
X95156D01*
X94149Y-232289D01*
Y-226496D01*
X94088Y-226189D01*
X93914Y-225928D01*
X93654Y-225754D01*
X93347Y-225693D01*
X86654D01*
X86346Y-225754D01*
X86086Y-225928D01*
X85912Y-226189D01*
X85851Y-226496D01*
Y-227941D01*
X85351Y-228148D01*
X81352Y-224149D01*
X80961Y-223887D01*
X80500Y-223796D01*
X80500Y-223796D01*
X73176D01*
X73015Y-223322D01*
X73100Y-223257D01*
X73797Y-222350D01*
X74235Y-221292D01*
X74254Y-221142D01*
X70000D01*
Y-219173D01*
X74254D01*
X74235Y-219023D01*
X73797Y-217966D01*
X73497Y-217576D01*
X73719Y-217127D01*
X76937D01*
X77081Y-217342D01*
X77732Y-217777D01*
X78500Y-217930D01*
X79268Y-217777D01*
X79919Y-217342D01*
X80354Y-216691D01*
X80507Y-215923D01*
X80354Y-215155D01*
X79919Y-214504D01*
X79268Y-214069D01*
X78500Y-213916D01*
X77732Y-214069D01*
X77081Y-214504D01*
X76937Y-214719D01*
X64235D01*
X63774Y-214810D01*
X63383Y-215071D01*
X61960Y-216495D01*
X61079Y-216130D01*
X60000Y-215988D01*
X58921Y-216130D01*
X57915Y-216547D01*
X57052Y-217209D01*
X56389Y-218073D01*
X55973Y-219078D01*
X55831Y-220158D01*
X55973Y-221237D01*
X56389Y-222242D01*
X57052Y-223106D01*
X57299Y-223296D01*
X57130Y-223796D01*
X52870D01*
X52701Y-223296D01*
X52948Y-223106D01*
X53611Y-222242D01*
X54027Y-221237D01*
X54169Y-220158D01*
X54027Y-219078D01*
X53611Y-218073D01*
X52948Y-217209D01*
X52085Y-216547D01*
X51079Y-216130D01*
X50000Y-215988D01*
X48921Y-216130D01*
X48040Y-216495D01*
X47204Y-215659D01*
Y-214563D01*
X47419Y-214419D01*
X47854Y-213768D01*
X48007Y-213000D01*
X47854Y-212232D01*
X47419Y-211581D01*
X46768Y-211146D01*
X46000Y-210993D01*
X45232Y-211146D01*
X44581Y-211581D01*
X44146Y-212232D01*
X43993Y-213000D01*
X44146Y-213768D01*
X44581Y-214419D01*
X44796Y-214563D01*
Y-216157D01*
X44796Y-216158D01*
X44887Y-216618D01*
X45149Y-217009D01*
X46337Y-218198D01*
X45996Y-219022D01*
X45882Y-219045D01*
X45491Y-219306D01*
X45491Y-219306D01*
X44651Y-220146D01*
X44142Y-219948D01*
X44027Y-219078D01*
X43611Y-218073D01*
X42948Y-217209D01*
X42085Y-216547D01*
X41079Y-216130D01*
X40000Y-215988D01*
X38921Y-216130D01*
X37915Y-216547D01*
X37052Y-217209D01*
X36389Y-218073D01*
X35973Y-219078D01*
X35831Y-220158D01*
X35973Y-221237D01*
X36389Y-222242D01*
X37052Y-223106D01*
X37299Y-223296D01*
X37130Y-223796D01*
X36000D01*
X35539Y-223887D01*
X35149Y-224149D01*
X35149Y-224149D01*
X32649Y-226648D01*
X32387Y-227039D01*
X32296Y-227500D01*
X32296Y-227500D01*
Y-232000D01*
X32296Y-232000D01*
X32387Y-232461D01*
X32649Y-232852D01*
X35335Y-235538D01*
X35144Y-236000D01*
X0D01*
Y-195803D01*
X32000D01*
X32307Y-195742D01*
X32568Y-195568D01*
X32742Y-195307D01*
X32803Y-195000D01*
X32803Y-55833D01*
X58068Y-30568D01*
X58242Y-30307D01*
X58303Y-30000D01*
Y-11055D01*
X59229D01*
Y-11425D01*
X59290Y-11732D01*
X59464Y-11993D01*
X59724Y-12167D01*
X60031Y-12228D01*
X63968D01*
X64276Y-12167D01*
X64536Y-11993D01*
X64710Y-11732D01*
X64771Y-11425D01*
Y-8276D01*
X64710Y-7968D01*
X64536Y-7708D01*
X64276Y-7534D01*
X64147Y-7508D01*
X63975Y-7007D01*
X64215Y-6704D01*
X64852D01*
X65473Y-7325D01*
Y-9968D01*
X65534Y-10276D01*
X65708Y-10536D01*
X65968Y-10710D01*
X66276Y-10771D01*
X66646D01*
Y-11969D01*
X66598D01*
X66291Y-12030D01*
X66031Y-12204D01*
X65857Y-12464D01*
X65796Y-12772D01*
Y-13359D01*
X63587D01*
X63587Y-13359D01*
X63126Y-13450D01*
X62735Y-13712D01*
X62735Y-13712D01*
X62675Y-13772D01*
X60031D01*
X59724Y-13833D01*
X59464Y-14007D01*
X59290Y-14268D01*
X59229Y-14575D01*
Y-17724D01*
X59290Y-18032D01*
X59464Y-18292D01*
Y-18708D01*
X59290Y-18968D01*
X59229Y-19276D01*
Y-22425D01*
X59290Y-22732D01*
X59464Y-22993D01*
X59724Y-23167D01*
X60031Y-23228D01*
X63968D01*
X64276Y-23167D01*
X64536Y-22993D01*
X64710Y-22732D01*
X64771Y-22425D01*
Y-19276D01*
X64710Y-18968D01*
X64536Y-18708D01*
Y-18292D01*
X64710Y-18032D01*
X64771Y-17724D01*
Y-15767D01*
X65796D01*
Y-16354D01*
X65857Y-16662D01*
X66031Y-16922D01*
X66291Y-17096D01*
X66598Y-17157D01*
X71402D01*
X71709Y-17096D01*
X71969Y-16922D01*
X72143Y-16662D01*
X72204Y-16354D01*
Y-12772D01*
X72143Y-12464D01*
X71969Y-12204D01*
X71709Y-12030D01*
X71402Y-11969D01*
X69055D01*
Y-10771D01*
X69425D01*
X69732Y-10710D01*
X69993Y-10536D01*
X70167Y-10276D01*
X70228Y-9968D01*
Y-6032D01*
X70167Y-5724D01*
X69993Y-5464D01*
X69732Y-5290D01*
X69425Y-5229D01*
X66782D01*
X66202Y-4648D01*
X65811Y-4387D01*
X65350Y-4296D01*
X65350Y-4296D01*
X64063D01*
X63919Y-4081D01*
X63268Y-3646D01*
X62500Y-3493D01*
X61732Y-3646D01*
X61081Y-4081D01*
X60646Y-4732D01*
X60493Y-5500D01*
X60646Y-6268D01*
X61081Y-6919D01*
X61161Y-6973D01*
X61009Y-7473D01*
X60031D01*
X59724Y-7534D01*
X59464Y-7708D01*
X59290Y-7968D01*
X59229Y-8276D01*
Y-8646D01*
X58303D01*
Y0D01*
X119197D01*
Y-26697D01*
X119258Y-27004D01*
X119432Y-27265D01*
X119693Y-27439D01*
X120000Y-27500D01*
X132998D01*
X133095Y-27481D01*
X133194Y-27476D01*
X133247Y-27450D01*
X133306Y-27439D01*
X133388Y-27384D01*
X133477Y-27342D01*
X133517Y-27298D01*
X133566Y-27265D01*
X133621Y-27183D01*
X133687Y-27110D01*
X133707Y-27054D01*
X133740Y-27004D01*
X133759Y-26908D01*
X133793Y-26815D01*
X133807Y-26720D01*
X134062Y-26312D01*
X134360Y-26309D01*
X135394Y-26410D01*
X136428Y-26309D01*
X136725Y-26312D01*
X136981Y-26720D01*
X136995Y-26815D01*
X137028Y-26908D01*
X137047Y-27004D01*
X137080Y-27054D01*
X137100Y-27110D01*
X137167Y-27183D01*
X137221Y-27265D01*
X137271Y-27298D01*
X137311Y-27342D01*
X137400Y-27384D01*
X137482Y-27439D01*
X137540Y-27450D01*
X137594Y-27476D01*
X137692Y-27481D01*
X137789Y-27500D01*
X149197D01*
X149504Y-27439D01*
X149765Y-27265D01*
X149939Y-27004D01*
X150000Y-26697D01*
Y-12579D01*
X150013Y-12513D01*
X150079Y-12500D01*
X164921D01*
X164987Y-12513D01*
X165000Y-12579D01*
Y-27500D01*
Y-40000D01*
X165061Y-40307D01*
X165235Y-40568D01*
X165496Y-40742D01*
X165803Y-40803D01*
X187500D01*
X187807Y-40742D01*
X188068Y-40568D01*
X188242Y-40307D01*
X188303Y-40000D01*
Y0D01*
X315000D01*
Y-136792D01*
D02*
G37*
G36*
X187500Y-40000D02*
X165803D01*
Y-27500D01*
Y-12500D01*
X165742Y-12193D01*
X165568Y-11932D01*
X165307Y-11758D01*
X165000Y-11697D01*
X150000D01*
X149693Y-11758D01*
X149432Y-11932D01*
X149258Y-12193D01*
X149197Y-12500D01*
Y-26697D01*
X137789D01*
X137715Y-26197D01*
X138049Y-26096D01*
X139249Y-25455D01*
X140300Y-24592D01*
X141163Y-23540D01*
X141804Y-22341D01*
X142199Y-21039D01*
X142236Y-20669D01*
X135394D01*
X128552D01*
X128588Y-21039D01*
X128983Y-22341D01*
X129624Y-23540D01*
X130487Y-24592D01*
X131539Y-25455D01*
X132738Y-26096D01*
X133073Y-26197D01*
X132998Y-26697D01*
X120000D01*
Y0D01*
X187500D01*
Y-40000D01*
D02*
G37*
G36*
X223406Y-152623D02*
Y-208568D01*
X222906Y-208668D01*
X222707Y-208186D01*
X222170Y-207487D01*
X221471Y-206951D01*
X220657Y-206614D01*
X219783Y-206499D01*
X218910Y-206614D01*
X218096Y-206951D01*
X217397Y-207487D01*
X216860Y-208186D01*
X216523Y-209000D01*
X216408Y-209874D01*
X216523Y-210748D01*
X216860Y-211562D01*
X217397Y-212261D01*
X218096Y-212797D01*
X218910Y-213134D01*
X219783Y-213249D01*
X220657Y-213134D01*
X221471Y-212797D01*
X222170Y-212261D01*
X222707Y-211562D01*
X222906Y-211081D01*
X223406Y-211180D01*
Y-228346D01*
X223482Y-228731D01*
X223700Y-229056D01*
X224025Y-229274D01*
X224409Y-229350D01*
X224500Y-229424D01*
Y-234995D01*
X224416Y-235060D01*
X223818Y-235065D01*
X223597Y-234843D01*
X223271Y-234626D01*
X222982Y-234506D01*
X222598Y-234430D01*
X222598Y-234430D01*
X222518D01*
X222441Y-234414D01*
X222363Y-234430D01*
X222284D01*
X222284Y-234430D01*
X221900Y-234506D01*
X221900D01*
X221611Y-234626D01*
X221285Y-234843D01*
X221064Y-235065D01*
X220846Y-235390D01*
X220726Y-235680D01*
X220219Y-235680D01*
X220218Y-235680D01*
X220099Y-235390D01*
X219881Y-235065D01*
X219660Y-234843D01*
X219334Y-234626D01*
X219045Y-234506D01*
X218661Y-234430D01*
X218661Y-234430D01*
X218582D01*
X218504Y-234414D01*
X218426Y-234430D01*
X218347D01*
X218347Y-234430D01*
X217963Y-234506D01*
X217963D01*
X217674Y-234626D01*
X217348Y-234843D01*
X217127Y-235065D01*
X216909Y-235390D01*
X216789Y-235680D01*
X216282Y-235680D01*
X216282Y-235680D01*
X216162Y-235390D01*
X215944Y-235065D01*
X215723Y-234843D01*
X215397Y-234626D01*
X215108Y-234506D01*
X214724Y-234430D01*
X214723Y-234430D01*
X214645D01*
X214567Y-234414D01*
X214489Y-234430D01*
X214410D01*
X214410Y-234430D01*
X214026Y-234506D01*
X214026D01*
X213737Y-234626D01*
X213411Y-234843D01*
X213190Y-235065D01*
X212972Y-235390D01*
X212852Y-235680D01*
X212345Y-235680D01*
X212345Y-235680D01*
X212225Y-235390D01*
X212007Y-235065D01*
X211786Y-234843D01*
X211460Y-234626D01*
X211171Y-234506D01*
X210787Y-234430D01*
X210787Y-234430D01*
X210707D01*
X210630Y-234414D01*
X210552Y-234430D01*
X210473D01*
X210473Y-234430D01*
X210089Y-234506D01*
X210089D01*
X209800Y-234626D01*
X209474Y-234843D01*
X209253Y-235065D01*
X209035Y-235390D01*
X208915Y-235680D01*
X208407Y-235680D01*
X208407Y-235680D01*
X208288Y-235390D01*
X208070Y-235065D01*
X207849Y-234843D01*
X207523Y-234626D01*
X207234Y-234506D01*
X206850Y-234430D01*
X206850Y-234430D01*
X206770D01*
X206693Y-234414D01*
X206615Y-234430D01*
X206536D01*
X206536Y-234430D01*
X206152Y-234506D01*
X206152D01*
X205863Y-234626D01*
X205537Y-234843D01*
X205316Y-235065D01*
X205098Y-235390D01*
X204978Y-235680D01*
X204915Y-236000D01*
X149416D01*
X149352Y-235680D01*
Y-235680D01*
X149232Y-235390D01*
X149015Y-235065D01*
X148793Y-234843D01*
X148468Y-234626D01*
X148178Y-234506D01*
X147794Y-234430D01*
X147794Y-234430D01*
X147715D01*
X147638Y-234414D01*
X147560Y-234430D01*
X147481D01*
X147481Y-234430D01*
X147097Y-234506D01*
X147097D01*
X146808Y-234626D01*
X146482Y-234843D01*
X146261Y-235065D01*
X146043Y-235390D01*
X145923Y-235680D01*
X145415Y-235680D01*
X145415Y-235680D01*
X145296Y-235390D01*
X145078Y-235065D01*
X144856Y-234843D01*
X144531Y-234626D01*
X144241Y-234506D01*
X143857Y-234430D01*
X143857Y-234430D01*
X143778D01*
X143701Y-234414D01*
X143623Y-234430D01*
X143544D01*
X143544Y-234430D01*
X143160Y-234506D01*
X143160D01*
X142871Y-234626D01*
X142545Y-234843D01*
X142324Y-235065D01*
X142106Y-235390D01*
X141986Y-235680D01*
X141478Y-235680D01*
X141478Y-235680D01*
X141358Y-235390D01*
X141141Y-235065D01*
X140919Y-234843D01*
X140594Y-234626D01*
X140304Y-234506D01*
X139920Y-234430D01*
X139920Y-234430D01*
X139841D01*
X139764Y-234414D01*
X139686Y-234430D01*
X139607D01*
X139607Y-234430D01*
X139223Y-234506D01*
X139223D01*
X138934Y-234626D01*
X138608Y-234843D01*
X138387Y-235065D01*
X138169Y-235390D01*
X138049Y-235680D01*
X137541Y-235680D01*
X137541Y-235680D01*
X137421Y-235390D01*
X137204Y-235065D01*
X136982Y-234843D01*
X136657Y-234626D01*
X136367Y-234506D01*
X135983Y-234430D01*
X135983Y-234430D01*
X135904D01*
X135827Y-234414D01*
X135749Y-234430D01*
X135670D01*
X135670Y-234430D01*
X135286Y-234506D01*
X135286D01*
X134997Y-234626D01*
X134671Y-234843D01*
X134450Y-235065D01*
X134232Y-235390D01*
X134112Y-235680D01*
X133604Y-235680D01*
X133604Y-235680D01*
X133484Y-235390D01*
X133267Y-235065D01*
X133045Y-234843D01*
X132720Y-234626D01*
X132430Y-234506D01*
X132046Y-234430D01*
X132046Y-234430D01*
X131967D01*
X131890Y-234414D01*
X131812Y-234430D01*
X131733D01*
X131733Y-234430D01*
X131349Y-234506D01*
X131349D01*
X131060Y-234626D01*
X130734Y-234843D01*
X130513Y-235065D01*
X130295Y-235390D01*
X130263Y-235468D01*
X130228Y-235479D01*
X129921Y-235418D01*
X124993D01*
X124785Y-234918D01*
X126351Y-233351D01*
X126351Y-233351D01*
X126613Y-232961D01*
X126704Y-232500D01*
X126704Y-232500D01*
Y-217000D01*
X126613Y-216539D01*
X126351Y-216148D01*
X126351Y-216148D01*
X124204Y-214001D01*
Y-192500D01*
X124113Y-192039D01*
X123852Y-191648D01*
X120852Y-188648D01*
X120461Y-188387D01*
X120000Y-188296D01*
X120000Y-188296D01*
X114723D01*
X114656Y-188213D01*
X114502Y-187796D01*
X114854Y-187268D01*
X115007Y-186500D01*
X114854Y-185732D01*
X114419Y-185081D01*
X113768Y-184646D01*
X113000Y-184493D01*
X112704Y-184042D01*
Y-182687D01*
X113204Y-182502D01*
X113732Y-182854D01*
X114500Y-183007D01*
X115268Y-182854D01*
X115919Y-182419D01*
X116354Y-181768D01*
X116507Y-181000D01*
X116457Y-180746D01*
X117499Y-179704D01*
X125437D01*
X125581Y-179919D01*
X125934Y-180156D01*
X126015Y-180782D01*
X125148Y-181649D01*
X124887Y-182039D01*
X124796Y-182500D01*
X124796Y-182500D01*
Y-185793D01*
X124796Y-185793D01*
X124887Y-186254D01*
X125148Y-186644D01*
X126830Y-188326D01*
X126830Y-188326D01*
X127221Y-188587D01*
X127425Y-188628D01*
X128648Y-189851D01*
X129039Y-190113D01*
X129500Y-190204D01*
X129500Y-190204D01*
X133937D01*
X134081Y-190419D01*
X134732Y-190854D01*
X135500Y-191007D01*
X136268Y-190854D01*
X136919Y-190419D01*
X137354Y-189768D01*
X137507Y-189000D01*
X137354Y-188232D01*
X136919Y-187581D01*
X136268Y-187146D01*
X135500Y-186993D01*
X134732Y-187146D01*
X134298Y-187436D01*
X133886Y-187110D01*
X134007Y-186500D01*
X133854Y-185732D01*
X133419Y-185081D01*
X133204Y-184937D01*
Y-170499D01*
X135077Y-168626D01*
X135615Y-168744D01*
X135638Y-168772D01*
X135493Y-169500D01*
X135646Y-170268D01*
X136081Y-170919D01*
X136732Y-171354D01*
X137500Y-171507D01*
X137754Y-171457D01*
X138796Y-172499D01*
Y-178000D01*
X138796Y-178000D01*
X138887Y-178461D01*
X139148Y-178851D01*
X146149Y-185852D01*
X146149Y-185852D01*
X146539Y-186113D01*
X147000Y-186204D01*
X149437D01*
X149581Y-186419D01*
X150232Y-186854D01*
X151000Y-187007D01*
X151768Y-186854D01*
X152419Y-186419D01*
X152854Y-185768D01*
X153007Y-185000D01*
X152854Y-184232D01*
X152419Y-183581D01*
X151768Y-183146D01*
X151000Y-182993D01*
X150232Y-183146D01*
X149581Y-183581D01*
X149437Y-183796D01*
X147499D01*
X141204Y-177501D01*
Y-172000D01*
X141113Y-171539D01*
X140851Y-171149D01*
X140851Y-171149D01*
X139457Y-169754D01*
X139507Y-169500D01*
X139354Y-168732D01*
X139002Y-168204D01*
X139187Y-167704D01*
X140542D01*
X140993Y-168000D01*
X141146Y-168768D01*
X141581Y-169419D01*
X142232Y-169854D01*
X143000Y-170007D01*
X143768Y-169854D01*
X144419Y-169419D01*
X144854Y-168768D01*
X145007Y-168000D01*
X144854Y-167232D01*
X144419Y-166581D01*
X143768Y-166146D01*
X143000Y-165993D01*
X142746Y-166043D01*
X142351Y-165648D01*
X141961Y-165387D01*
X141500Y-165296D01*
X141500Y-165296D01*
X137381D01*
X137190Y-164834D01*
X140409Y-161615D01*
X141090D01*
X141090Y-161615D01*
X141551Y-161523D01*
X141941Y-161262D01*
X143289Y-159914D01*
X143767Y-160059D01*
X143796Y-160201D01*
X144278Y-160923D01*
X144866Y-161316D01*
Y-159350D01*
X145850D01*
Y-158366D01*
X147816D01*
X147586Y-158022D01*
X147620Y-157847D01*
X147828Y-157493D01*
X148143Y-157431D01*
X148533Y-157169D01*
X149246Y-156457D01*
X149500Y-156507D01*
X150268Y-156354D01*
X150320Y-156320D01*
X150680Y-156680D01*
X150646Y-156732D01*
X150493Y-157500D01*
X150646Y-158268D01*
X151081Y-158919D01*
X151732Y-159354D01*
X152500Y-159507D01*
X153268Y-159354D01*
X153919Y-158919D01*
X154354Y-158268D01*
X154507Y-157500D01*
X154487Y-157397D01*
X154947Y-157150D01*
X157127Y-159330D01*
X157078Y-159827D01*
X156928Y-159927D01*
X156535Y-160516D01*
X160621D01*
X160788Y-160204D01*
X163437D01*
X163581Y-160419D01*
X164232Y-160854D01*
X165000Y-161007D01*
X165271Y-160953D01*
X165771Y-161364D01*
Y-161545D01*
X165646Y-161732D01*
X165493Y-162500D01*
X165646Y-163268D01*
X166081Y-163919D01*
X166732Y-164354D01*
X167500Y-164507D01*
X168268Y-164354D01*
X168919Y-163919D01*
X169354Y-163268D01*
X169369Y-163195D01*
X169847Y-163050D01*
X171649Y-164851D01*
X171649Y-164851D01*
X172039Y-165113D01*
X172500Y-165204D01*
X176500D01*
X176500Y-165204D01*
X176961Y-165113D01*
X177351Y-164851D01*
X179499Y-162704D01*
X180437D01*
X180581Y-162919D01*
X181232Y-163354D01*
X182000Y-163507D01*
X182768Y-163354D01*
X183419Y-162919D01*
X183854Y-162268D01*
X184007Y-161500D01*
X183986Y-161397D01*
X184447Y-161150D01*
X187648Y-164351D01*
X188039Y-164613D01*
X188500Y-164704D01*
X197500D01*
X197500Y-164704D01*
X197961Y-164613D01*
X198352Y-164351D01*
X202772Y-159931D01*
X203233Y-160114D01*
X203274Y-160522D01*
X197501Y-166296D01*
X165958D01*
X165507Y-166000D01*
X165354Y-165232D01*
X164919Y-164581D01*
X164268Y-164146D01*
X163500Y-163993D01*
X162732Y-164146D01*
X162081Y-164581D01*
X161646Y-165232D01*
X161493Y-166000D01*
X161646Y-166768D01*
X162081Y-167419D01*
X162365Y-167609D01*
X162260Y-168140D01*
X162232Y-168146D01*
X161581Y-168581D01*
X161146Y-169232D01*
X160993Y-170000D01*
X161146Y-170768D01*
X161581Y-171419D01*
X161810Y-171572D01*
X161887Y-171961D01*
X162093Y-172269D01*
X161689Y-172555D01*
X161359Y-172334D01*
X160968Y-172256D01*
X159984D01*
Y-174850D01*
Y-177445D01*
X160968D01*
X161359Y-177367D01*
X161488Y-177281D01*
X161581Y-177419D01*
X162232Y-177854D01*
X163000Y-178007D01*
X163254Y-177957D01*
X168604Y-183307D01*
X168558Y-183521D01*
X168386Y-183796D01*
X161682D01*
X161547Y-183486D01*
X161536Y-183292D01*
X161710Y-183032D01*
X161771Y-182724D01*
Y-179575D01*
X161710Y-179268D01*
X161536Y-179007D01*
X161276Y-178833D01*
X160968Y-178772D01*
X157032D01*
X156724Y-178833D01*
X156464Y-179007D01*
X156290Y-179268D01*
X156229Y-179575D01*
Y-182047D01*
X155732Y-182146D01*
X155081Y-182581D01*
X154646Y-183232D01*
X154493Y-184000D01*
X154646Y-184768D01*
X155081Y-185419D01*
X155732Y-185854D01*
X156500Y-186007D01*
X157268Y-185854D01*
X157608Y-185627D01*
X158146Y-185768D01*
X158581Y-186419D01*
X159232Y-186854D01*
X160000Y-187007D01*
X160768Y-186854D01*
X161419Y-186419D01*
X161563Y-186204D01*
X168001D01*
X168543Y-186746D01*
X168493Y-187000D01*
X168646Y-187768D01*
X169081Y-188419D01*
X169732Y-188854D01*
X170500Y-189007D01*
X171268Y-188854D01*
X171919Y-188419D01*
X172354Y-187768D01*
X172369Y-187695D01*
X172847Y-187550D01*
X184296Y-198999D01*
Y-200293D01*
X183796Y-200653D01*
X183701Y-200634D01*
X181339D01*
Y-205000D01*
Y-209366D01*
X182383D01*
X182574Y-209828D01*
X181430Y-210972D01*
X180354Y-210830D01*
X179275Y-210973D01*
X178270Y-211389D01*
X177406Y-212052D01*
X176743Y-212915D01*
X176327Y-213921D01*
X176185Y-215000D01*
X176327Y-216079D01*
X176743Y-217085D01*
X177406Y-217948D01*
X178270Y-218611D01*
X179275Y-219027D01*
X180354Y-219169D01*
X181433Y-219027D01*
X182439Y-218611D01*
X183303Y-217948D01*
X183965Y-217085D01*
X184382Y-216079D01*
X184524Y-215000D01*
X184382Y-213921D01*
X183965Y-212915D01*
X183500Y-212309D01*
X185695Y-210113D01*
X186223Y-210292D01*
X186327Y-211079D01*
X186743Y-212085D01*
X187406Y-212948D01*
X188270Y-213611D01*
X189275Y-214027D01*
X190354Y-214170D01*
X191434Y-214027D01*
X192439Y-213611D01*
X193303Y-212948D01*
X193965Y-212085D01*
X194382Y-211079D01*
X194524Y-210000D01*
X194382Y-208921D01*
X193965Y-207915D01*
X193303Y-207052D01*
X192439Y-206389D01*
X191559Y-206024D01*
Y-198854D01*
X191467Y-198393D01*
X191206Y-198003D01*
X191206Y-198003D01*
X179300Y-186097D01*
X179511Y-185600D01*
X179854Y-185557D01*
X183149Y-188851D01*
X183244Y-188916D01*
X183581Y-189419D01*
X184232Y-189854D01*
X185000Y-190007D01*
X185768Y-189854D01*
X186419Y-189419D01*
X186854Y-188768D01*
X186912Y-188478D01*
X186929Y-188448D01*
X187016Y-188398D01*
Y-186000D01*
Y-184035D01*
X186427Y-184427D01*
X185945Y-185149D01*
X185838Y-185689D01*
X185776Y-186000D01*
X185295Y-186052D01*
X185000Y-185993D01*
X184232Y-186146D01*
X184002Y-186299D01*
X181457Y-183754D01*
X181507Y-183500D01*
X181354Y-182732D01*
X180919Y-182081D01*
X180268Y-181646D01*
X179500Y-181493D01*
X178732Y-181646D01*
X178081Y-182081D01*
X177646Y-182732D01*
X177493Y-183500D01*
X177514Y-183603D01*
X177053Y-183850D01*
X164500Y-171298D01*
X164854Y-170768D01*
X165007Y-170000D01*
X164854Y-169232D01*
X164818Y-169178D01*
X164908Y-168944D01*
X165103Y-168704D01*
X184110D01*
X184262Y-169204D01*
X183928Y-169428D01*
X183535Y-170016D01*
X187466D01*
X187073Y-169428D01*
X186738Y-169204D01*
X186890Y-168704D01*
X198000D01*
X198000Y-168704D01*
X198461Y-168613D01*
X198852Y-168351D01*
X205351Y-161852D01*
X205351Y-161852D01*
X205613Y-161461D01*
X205704Y-161000D01*
X205704Y-161000D01*
Y-159250D01*
X206000Y-159007D01*
X206768Y-158854D01*
X207419Y-158419D01*
X207854Y-157768D01*
X207972Y-157179D01*
X208818D01*
X208818Y-157179D01*
X209279Y-157087D01*
X209669Y-156826D01*
X212114Y-154382D01*
X212576Y-154573D01*
Y-164150D01*
X209644Y-167083D01*
X209410Y-167114D01*
X208596Y-167451D01*
X207897Y-167987D01*
X207360Y-168686D01*
X207023Y-169500D01*
X206908Y-170374D01*
X207004Y-171101D01*
Y-227999D01*
X206860Y-228186D01*
X206523Y-229000D01*
X206408Y-229874D01*
X206523Y-230748D01*
X206860Y-231562D01*
X207397Y-232261D01*
X208096Y-232797D01*
X208910Y-233134D01*
X209784Y-233249D01*
X210657Y-233134D01*
X211471Y-232797D01*
X212170Y-232261D01*
X212707Y-231562D01*
X213044Y-230748D01*
X213159Y-229874D01*
X213044Y-229000D01*
X212707Y-228186D01*
X212563Y-227999D01*
Y-172843D01*
X212670Y-172761D01*
X213207Y-172062D01*
X213544Y-171248D01*
X213575Y-171014D01*
X217321Y-167267D01*
X217763Y-166691D01*
X218041Y-166021D01*
X218136Y-165302D01*
Y-153509D01*
X218272Y-153442D01*
X218636Y-153314D01*
X219410Y-153634D01*
X220284Y-153749D01*
X221157Y-153634D01*
X221971Y-153297D01*
X222670Y-152761D01*
X222906Y-152453D01*
X223406Y-152623D01*
D02*
G37*
G36*
X218416Y-94673D02*
X218581Y-94919D01*
X219232Y-95354D01*
X220000Y-95507D01*
X220768Y-95354D01*
X221419Y-94919D01*
X221563Y-94704D01*
X236001D01*
X242296Y-100999D01*
Y-125680D01*
X241166Y-126810D01*
X240704Y-126619D01*
Y-105063D01*
X240919Y-104919D01*
X241354Y-104268D01*
X241507Y-103500D01*
X241354Y-102732D01*
X240919Y-102081D01*
X240268Y-101646D01*
X239500Y-101493D01*
X238732Y-101646D01*
X238081Y-102081D01*
X237646Y-102732D01*
X237493Y-103500D01*
X237646Y-104268D01*
X238081Y-104919D01*
X238296Y-105063D01*
Y-127296D01*
X230536D01*
X230489Y-127184D01*
X230389Y-126796D01*
X230613Y-126461D01*
X230704Y-126000D01*
X230704Y-126000D01*
Y-116000D01*
X230704Y-116000D01*
X230613Y-115539D01*
X230351Y-115148D01*
X230351Y-115148D01*
X223851Y-108649D01*
X223461Y-108387D01*
X223000Y-108296D01*
X223000Y-108296D01*
X215563D01*
X215419Y-108081D01*
X214768Y-107646D01*
X214000Y-107493D01*
X213232Y-107646D01*
X212581Y-108081D01*
X212146Y-108732D01*
X211993Y-109500D01*
X212146Y-110268D01*
X212581Y-110919D01*
X213232Y-111354D01*
X214000Y-111507D01*
X214768Y-111354D01*
X215419Y-110919D01*
X215563Y-110704D01*
X222501D01*
X228296Y-116499D01*
Y-123468D01*
X227855Y-123704D01*
X227768Y-123646D01*
X227000Y-123493D01*
X226232Y-123646D01*
X225581Y-124081D01*
X225437Y-124296D01*
X217850D01*
X217389Y-124387D01*
X216999Y-124648D01*
X205129Y-136519D01*
X205000Y-136493D01*
X204232Y-136646D01*
X203581Y-137081D01*
X203146Y-137732D01*
X203027Y-138328D01*
X202527Y-138278D01*
Y-137031D01*
X202466Y-136724D01*
X202292Y-136464D01*
X202032Y-136290D01*
X201856Y-136255D01*
Y-135745D01*
X202032Y-135710D01*
X202292Y-135536D01*
X202466Y-135276D01*
X202527Y-134968D01*
Y-131032D01*
X202466Y-130724D01*
X202292Y-130464D01*
X202032Y-130290D01*
X201895Y-130263D01*
X201874Y-129771D01*
X202181Y-129710D01*
X202442Y-129536D01*
X202616Y-129276D01*
X202677Y-128969D01*
Y-128204D01*
X204500D01*
X204500Y-128204D01*
X204961Y-128113D01*
X205206Y-127949D01*
X205500Y-128007D01*
X206268Y-127854D01*
X206919Y-127419D01*
X207354Y-126768D01*
X207507Y-126000D01*
X207354Y-125232D01*
X206919Y-124581D01*
X206704Y-124437D01*
Y-120821D01*
X206613Y-120360D01*
X206351Y-119969D01*
X206351Y-119969D01*
X202333Y-115951D01*
X202498Y-115408D01*
X202768Y-115354D01*
X203419Y-114919D01*
X203563Y-114704D01*
X207500D01*
X207500Y-114704D01*
X207961Y-114613D01*
X208351Y-114351D01*
X209351Y-113352D01*
X209351Y-113352D01*
X209613Y-112961D01*
X209704Y-112500D01*
Y-109500D01*
X209613Y-109039D01*
X209351Y-108649D01*
X209351Y-108649D01*
X208351Y-107649D01*
X207961Y-107387D01*
X207500Y-107296D01*
X207500Y-107296D01*
X196999D01*
X196457Y-106754D01*
X196507Y-106500D01*
X196354Y-105732D01*
X195919Y-105081D01*
X195268Y-104646D01*
X194500Y-104493D01*
X193772Y-104638D01*
X193744Y-104615D01*
X193626Y-104077D01*
X198811Y-98892D01*
X212992D01*
X212992Y-98892D01*
X213453Y-98800D01*
X213843Y-98539D01*
X217773Y-94610D01*
X218416Y-94673D01*
D02*
G37*
G36*
X199026Y-117729D02*
X198927Y-118229D01*
X198724D01*
X198417Y-118290D01*
X198157Y-118464D01*
X197983Y-118724D01*
X197922Y-119032D01*
Y-121675D01*
X197094Y-122502D01*
X196594Y-122295D01*
Y-121984D01*
X194000D01*
X191406D01*
Y-122968D01*
X191483Y-123359D01*
X191704Y-123689D01*
X191945Y-123850D01*
X191949Y-123861D01*
X191980Y-124222D01*
X191948Y-124403D01*
X191858Y-124464D01*
X191683Y-124724D01*
X191622Y-125031D01*
Y-128969D01*
X191683Y-129276D01*
X191858Y-129536D01*
X191914Y-129574D01*
X191898Y-129859D01*
X191835Y-130123D01*
X191555Y-130310D01*
X191334Y-130641D01*
X191256Y-131032D01*
Y-132016D01*
X193850D01*
Y-133984D01*
X191256D01*
Y-134968D01*
X191334Y-135359D01*
X191555Y-135689D01*
X191569Y-135699D01*
Y-136301D01*
X191555Y-136311D01*
X191334Y-136641D01*
X191256Y-137031D01*
Y-138016D01*
X193850D01*
Y-139984D01*
X191256D01*
Y-140969D01*
X191020Y-141256D01*
X189551D01*
X189284Y-140756D01*
X189465Y-140484D01*
X185535D01*
X185861Y-140973D01*
X185695Y-141473D01*
X183031D01*
X182724Y-141534D01*
X182464Y-141708D01*
X182290Y-141968D01*
X182255Y-142144D01*
X181745D01*
X181710Y-141968D01*
X181536Y-141708D01*
X181392Y-141612D01*
X181224Y-141200D01*
X181194Y-141008D01*
X181354Y-140768D01*
X181507Y-140000D01*
X181354Y-139232D01*
X180919Y-138581D01*
X180268Y-138146D01*
X179500Y-137993D01*
X178732Y-138146D01*
X178081Y-138581D01*
X177646Y-139232D01*
X177493Y-140000D01*
X177646Y-140768D01*
X177782Y-140973D01*
X177515Y-141473D01*
X177032D01*
X176724Y-141534D01*
X176464Y-141708D01*
X176290Y-141968D01*
X176229Y-142276D01*
Y-145425D01*
X176290Y-145732D01*
X176464Y-145993D01*
X176724Y-146167D01*
X177032Y-146228D01*
X180968D01*
X181276Y-146167D01*
X181536Y-145993D01*
X181710Y-145732D01*
X181745Y-145557D01*
X182255D01*
X182290Y-145732D01*
X182464Y-145993D01*
X182724Y-146167D01*
X183031Y-146228D01*
X186969D01*
X187276Y-146167D01*
X187536Y-145993D01*
X187597Y-145902D01*
X187778Y-145870D01*
X188139Y-145901D01*
X188150Y-145906D01*
X188311Y-146146D01*
X188641Y-146367D01*
X189032Y-146445D01*
X190016D01*
Y-143850D01*
X191984D01*
Y-146445D01*
X192295D01*
X192502Y-146945D01*
X191675Y-147772D01*
X189032D01*
X188724Y-147833D01*
X188464Y-148007D01*
X188290Y-148268D01*
X188255Y-148443D01*
X187745D01*
X187710Y-148268D01*
X187536Y-148007D01*
X187276Y-147833D01*
X186969Y-147772D01*
X183031D01*
X182724Y-147833D01*
X182464Y-148007D01*
X182403Y-148098D01*
X182222Y-148130D01*
X181861Y-148099D01*
X181850Y-148094D01*
X181690Y-147854D01*
X181359Y-147633D01*
X180968Y-147555D01*
X179984D01*
Y-150150D01*
X179000D01*
Y-151134D01*
X176012D01*
Y-151724D01*
X176090Y-152115D01*
X176311Y-152445D01*
X176641Y-152666D01*
X177032Y-152744D01*
X178928D01*
X179119Y-153206D01*
X176986Y-155339D01*
X176909Y-155455D01*
X176378Y-155350D01*
X176354Y-155232D01*
X175919Y-154581D01*
X175268Y-154146D01*
X174500Y-153993D01*
X173997Y-154093D01*
X173653Y-154028D01*
X173453Y-153730D01*
X173354Y-153232D01*
X172919Y-152581D01*
X172268Y-152146D01*
X171500Y-151993D01*
X170732Y-152146D01*
X170203Y-152499D01*
X164204Y-146501D01*
Y-144694D01*
X164258Y-144641D01*
X164258Y-144641D01*
X164519Y-144250D01*
X164571Y-143987D01*
X164575Y-143988D01*
X165165D01*
Y-141000D01*
Y-138012D01*
X164611D01*
Y-118467D01*
X165073Y-118275D01*
X169649Y-122852D01*
X170039Y-123113D01*
X170500Y-123204D01*
X170500Y-123204D01*
X173000D01*
X173000Y-123204D01*
X173461Y-123113D01*
X173852Y-122852D01*
X173983Y-122720D01*
X174480Y-122769D01*
X174581Y-122919D01*
X175232Y-123354D01*
X176000Y-123507D01*
X176768Y-123354D01*
X177419Y-122919D01*
X177756Y-122415D01*
X177851Y-122352D01*
X179987Y-120217D01*
X180528Y-120352D01*
X180638Y-120659D01*
X176254Y-125043D01*
X176000Y-124993D01*
X175232Y-125146D01*
X174581Y-125581D01*
X174146Y-126232D01*
X173993Y-127000D01*
X174146Y-127768D01*
X174581Y-128419D01*
X175232Y-128854D01*
X176000Y-129007D01*
X176768Y-128854D01*
X177419Y-128419D01*
X177854Y-127768D01*
X178007Y-127000D01*
X177957Y-126746D01*
X183352Y-121352D01*
X183352Y-121352D01*
X183415Y-121256D01*
X183919Y-120919D01*
X184354Y-120268D01*
X184507Y-119500D01*
X184354Y-118732D01*
X183919Y-118081D01*
X183268Y-117646D01*
X182937Y-117580D01*
X182710Y-117032D01*
X182771Y-116724D01*
Y-116354D01*
X197651D01*
X199026Y-117729D01*
D02*
G37*
G36*
X224142Y-127048D02*
X224158Y-127204D01*
X209974Y-141389D01*
X209335Y-141320D01*
X209072Y-140928D01*
X208484Y-140534D01*
Y-142500D01*
X206516D01*
Y-140534D01*
X205927Y-140928D01*
X205445Y-141649D01*
X205276Y-142500D01*
X205098Y-142512D01*
X205000Y-142493D01*
X204232Y-142646D01*
X203581Y-143081D01*
X203146Y-143732D01*
X202993Y-144500D01*
X203146Y-145268D01*
X203549Y-145871D01*
X203561Y-146004D01*
X203546Y-146064D01*
X202980Y-146287D01*
X202768Y-146146D01*
X202000Y-145993D01*
X201706Y-146051D01*
X201461Y-145887D01*
X201000Y-145796D01*
X201000Y-145796D01*
X199063D01*
X198919Y-145581D01*
X198268Y-145146D01*
X197500Y-144993D01*
X196732Y-145146D01*
X196567Y-145256D01*
X196006Y-145029D01*
X195973Y-144879D01*
X199081Y-141771D01*
X201724D01*
X202032Y-141710D01*
X202292Y-141536D01*
X202466Y-141276D01*
X202527Y-140969D01*
Y-138722D01*
X203027Y-138672D01*
X203146Y-139268D01*
X203581Y-139919D01*
X204232Y-140354D01*
X205000Y-140507D01*
X205768Y-140354D01*
X206419Y-139919D01*
X206854Y-139268D01*
X207007Y-138500D01*
X206932Y-138122D01*
X218349Y-126704D01*
X223988D01*
X224142Y-127048D01*
D02*
G37*
G36*
X57500Y-8646D02*
X55543D01*
X55543Y-8646D01*
X55082Y-8738D01*
X54692Y-8999D01*
X49680Y-14011D01*
X49564Y-13916D01*
X48364Y-13274D01*
X47062Y-12879D01*
X46693Y-12843D01*
Y-18701D01*
X52551D01*
X52514Y-18331D01*
X52119Y-17030D01*
X51478Y-15830D01*
X51383Y-15714D01*
X56042Y-11055D01*
X57500D01*
Y-30000D01*
X32000Y-55500D01*
X32000Y-195000D01*
X0D01*
Y0D01*
X57500D01*
Y-8646D01*
D02*
G37*
%LPC*%
G36*
X139516Y-124984D02*
X138534D01*
X138927Y-125573D01*
X139516Y-125965D01*
Y-124984D01*
D02*
G37*
G36*
X142465D02*
X141484D01*
Y-125965D01*
X142072Y-125573D01*
X142465Y-124984D01*
D02*
G37*
G36*
X72500Y-83680D02*
X71511Y-83810D01*
X71442Y-83839D01*
X66720D01*
X66412Y-83900D01*
X66152Y-84074D01*
X65978Y-84334D01*
X65917Y-84642D01*
Y-123000D01*
X65978Y-123307D01*
X66152Y-123568D01*
X66412Y-123742D01*
X66720Y-123803D01*
X87008D01*
X87315Y-123742D01*
X87576Y-123568D01*
X87750Y-123307D01*
X87811Y-123000D01*
Y-84642D01*
X87750Y-84334D01*
X87576Y-84074D01*
X87315Y-83900D01*
X87008Y-83839D01*
X73558D01*
X73489Y-83810D01*
X72500Y-83680D01*
D02*
G37*
G36*
X139516Y-122035D02*
X138927Y-122427D01*
X138534Y-123016D01*
X139516D01*
Y-122035D01*
D02*
G37*
G36*
X119016Y-220984D02*
X115746D01*
X115765Y-221135D01*
X116203Y-222192D01*
X116900Y-223100D01*
X117808Y-223797D01*
X118865Y-224235D01*
X119016Y-224254D01*
Y-220984D01*
D02*
G37*
G36*
X269953Y-126244D02*
X264047D01*
X263740Y-126305D01*
X263480Y-126480D01*
X263305Y-126740D01*
X263244Y-127047D01*
Y-132953D01*
X263305Y-133260D01*
X263480Y-133520D01*
X263740Y-133695D01*
X264047Y-133756D01*
X269953D01*
X270260Y-133695D01*
X270520Y-133520D01*
X270694Y-133260D01*
X270756Y-132953D01*
Y-127047D01*
X270694Y-126740D01*
X270520Y-126480D01*
X270260Y-126305D01*
X269953Y-126244D01*
D02*
G37*
G36*
X299213Y-103301D02*
X296896Y-103483D01*
X294636Y-104026D01*
X292489Y-104915D01*
X290508Y-106129D01*
X288741Y-107638D01*
X287231Y-109406D01*
X286017Y-111387D01*
X285128Y-113534D01*
X284585Y-115794D01*
X284403Y-118110D01*
X284585Y-120427D01*
X285128Y-122687D01*
X286017Y-124834D01*
X287231Y-126815D01*
X288741Y-128582D01*
X290508Y-130091D01*
X292489Y-131306D01*
X294636Y-132195D01*
X296896Y-132737D01*
X299213Y-132920D01*
X301529Y-132737D01*
X303789Y-132195D01*
X305936Y-131306D01*
X307917Y-130091D01*
X309684Y-128582D01*
X311194Y-126815D01*
X312408Y-124834D01*
X313297Y-122687D01*
X313840Y-120427D01*
X314022Y-118110D01*
X313840Y-115794D01*
X313297Y-113534D01*
X312408Y-111387D01*
X311194Y-109406D01*
X309684Y-107638D01*
X307917Y-106129D01*
X305936Y-104915D01*
X303789Y-104026D01*
X301529Y-103483D01*
X299213Y-103301D01*
D02*
G37*
G36*
X105516Y-95984D02*
X104534D01*
X104928Y-96573D01*
X105516Y-96965D01*
Y-95984D01*
D02*
G37*
G36*
X108466D02*
X107484D01*
Y-96965D01*
X108072Y-96573D01*
X108466Y-95984D01*
D02*
G37*
G36*
X156516Y-95034D02*
X155928Y-95428D01*
X155535Y-96016D01*
X156516D01*
Y-95034D01*
D02*
G37*
G36*
X267000Y-106228D02*
X266024Y-106356D01*
X265114Y-106733D01*
X264333Y-107333D01*
X263733Y-108114D01*
X263356Y-109024D01*
X263228Y-110000D01*
X263356Y-110976D01*
X263733Y-111886D01*
X264333Y-112668D01*
X265114Y-113267D01*
X266024Y-113644D01*
X267000Y-113772D01*
X267976Y-113644D01*
X268886Y-113267D01*
X269668Y-112668D01*
X270267Y-111886D01*
X270644Y-110976D01*
X270772Y-110000D01*
X270644Y-109024D01*
X270267Y-108114D01*
X269668Y-107333D01*
X268886Y-106733D01*
X267976Y-106356D01*
X267000Y-106228D01*
D02*
G37*
G36*
X15748Y-205663D02*
X13431Y-205845D01*
X11172Y-206388D01*
X9025Y-207277D01*
X7043Y-208491D01*
X5276Y-210001D01*
X3767Y-211768D01*
X2553Y-213749D01*
X1663Y-215896D01*
X1121Y-218156D01*
X939Y-220472D01*
X1121Y-222789D01*
X1663Y-225049D01*
X2553Y-227196D01*
X3767Y-229177D01*
X5276Y-230944D01*
X7043Y-232453D01*
X9025Y-233668D01*
X11172Y-234557D01*
X13431Y-235100D01*
X15748Y-235282D01*
X18065Y-235100D01*
X20324Y-234557D01*
X22471Y-233668D01*
X24453Y-232453D01*
X26220Y-230944D01*
X27729Y-229177D01*
X28943Y-227196D01*
X29833Y-225049D01*
X30375Y-222789D01*
X30557Y-220472D01*
X30375Y-218156D01*
X29833Y-215896D01*
X28943Y-213749D01*
X27729Y-211768D01*
X26220Y-210001D01*
X24453Y-208491D01*
X22471Y-207277D01*
X20324Y-206388D01*
X18065Y-205845D01*
X15748Y-205663D01*
D02*
G37*
G36*
X274575Y-86017D02*
X271425D01*
X270503Y-86200D01*
X269722Y-86722D01*
X269200Y-87503D01*
X269017Y-88425D01*
Y-91575D01*
X269200Y-92497D01*
X269722Y-93278D01*
X270503Y-93800D01*
X271425Y-93983D01*
X274575D01*
X275497Y-93800D01*
X276278Y-93278D01*
X276800Y-92497D01*
X276983Y-91575D01*
Y-88425D01*
X276800Y-87503D01*
X276278Y-86722D01*
X275497Y-86200D01*
X274575Y-86017D01*
D02*
G37*
G36*
X306575D02*
X303425D01*
X302503Y-86200D01*
X301722Y-86722D01*
X301200Y-87503D01*
X301017Y-88425D01*
Y-91575D01*
X301200Y-92497D01*
X301722Y-93278D01*
X302503Y-93800D01*
X303425Y-93983D01*
X306575D01*
X307497Y-93800D01*
X308278Y-93278D01*
X308800Y-92497D01*
X308983Y-91575D01*
Y-88425D01*
X308800Y-87503D01*
X308278Y-86722D01*
X307497Y-86200D01*
X306575Y-86017D01*
D02*
G37*
G36*
X211016Y-91035D02*
X210427Y-91427D01*
X210034Y-92016D01*
X211016D01*
Y-91035D01*
D02*
G37*
G36*
X158484Y-95034D02*
Y-96016D01*
X159466D01*
X159072Y-95428D01*
X158484Y-95034D01*
D02*
G37*
G36*
X105516Y-93034D02*
X104928Y-93427D01*
X104534Y-94016D01*
X105516D01*
Y-93034D01*
D02*
G37*
G36*
X107484D02*
Y-94016D01*
X108466D01*
X108072Y-93427D01*
X107484Y-93034D01*
D02*
G37*
G36*
X141484Y-122035D02*
Y-123016D01*
X142465D01*
X142072Y-122427D01*
X141484Y-122035D01*
D02*
G37*
G36*
X91516Y-118484D02*
X88595D01*
X88603Y-118544D01*
X89006Y-119517D01*
X89647Y-120353D01*
X90483Y-120994D01*
X91456Y-121397D01*
X91516Y-121405D01*
Y-118484D01*
D02*
G37*
G36*
X103905D02*
X100984D01*
Y-121405D01*
X101044Y-121397D01*
X102017Y-120994D01*
X102853Y-120353D01*
X103494Y-119517D01*
X103897Y-118544D01*
X103905Y-118484D01*
D02*
G37*
G36*
X99016Y-113595D02*
X98956Y-113603D01*
X97983Y-114006D01*
X97147Y-114647D01*
X96525Y-115458D01*
X96255Y-115497D01*
X96245D01*
X95975Y-115458D01*
X95353Y-114647D01*
X94517Y-114006D01*
X93544Y-113603D01*
X93484Y-113595D01*
Y-117500D01*
Y-121405D01*
X93544Y-121397D01*
X94517Y-120994D01*
X95353Y-120353D01*
X95975Y-119542D01*
X96245Y-119503D01*
X96255D01*
X96525Y-119542D01*
X97147Y-120353D01*
X97983Y-120994D01*
X98956Y-121397D01*
X99016Y-121405D01*
Y-117500D01*
Y-113595D01*
D02*
G37*
G36*
X91516D02*
X91456Y-113603D01*
X90483Y-114006D01*
X89647Y-114647D01*
X89006Y-115483D01*
X88603Y-116456D01*
X88595Y-116516D01*
X91516D01*
Y-113595D01*
D02*
G37*
G36*
X100984D02*
Y-116516D01*
X103905D01*
X103897Y-116456D01*
X103494Y-115483D01*
X102853Y-114647D01*
X102017Y-114006D01*
X101044Y-113603D01*
X100984Y-113595D01*
D02*
G37*
G36*
X87290Y-169898D02*
X67002D01*
X66695Y-169959D01*
X66435Y-170133D01*
X66260Y-170393D01*
X66199Y-170701D01*
Y-209059D01*
X66260Y-209366D01*
X66435Y-209626D01*
X66695Y-209800D01*
X67002Y-209861D01*
X87290D01*
X87598Y-209800D01*
X87858Y-209626D01*
X88032Y-209366D01*
X88093Y-209059D01*
Y-203503D01*
X88593Y-203471D01*
X88603Y-203544D01*
X89006Y-204517D01*
X89647Y-205353D01*
X90483Y-205994D01*
X91456Y-206397D01*
X91516Y-206405D01*
Y-202500D01*
Y-198595D01*
X91456Y-198603D01*
X90483Y-199006D01*
X89647Y-199647D01*
X89006Y-200483D01*
X88603Y-201456D01*
X88593Y-201529D01*
X88093Y-201497D01*
Y-170701D01*
X88032Y-170393D01*
X87858Y-170133D01*
X87598Y-169959D01*
X87290Y-169898D01*
D02*
G37*
G36*
X100984Y-198595D02*
Y-201516D01*
X103905D01*
X103897Y-201456D01*
X103494Y-200483D01*
X102853Y-199647D01*
X102017Y-199006D01*
X101044Y-198603D01*
X100984Y-198595D01*
D02*
G37*
G36*
X99016D02*
X98956Y-198603D01*
X97983Y-199006D01*
X97147Y-199647D01*
X96525Y-200458D01*
X96255Y-200497D01*
X96245D01*
X95975Y-200458D01*
X95353Y-199647D01*
X94517Y-199006D01*
X93544Y-198603D01*
X93484Y-198595D01*
Y-202500D01*
Y-206405D01*
X93544Y-206397D01*
X94517Y-205994D01*
X95353Y-205353D01*
X95975Y-204542D01*
X96245Y-204503D01*
X96255D01*
X96525Y-204542D01*
X97147Y-205353D01*
X97983Y-205994D01*
X98956Y-206397D01*
X99016Y-206405D01*
Y-202500D01*
Y-198595D01*
D02*
G37*
G36*
X103905Y-203484D02*
X100984D01*
Y-206405D01*
X101044Y-206397D01*
X102017Y-205994D01*
X102853Y-205353D01*
X103494Y-204517D01*
X103897Y-203544D01*
X103905Y-203484D01*
D02*
G37*
G36*
X99016Y-156095D02*
X98956Y-156103D01*
X97983Y-156506D01*
X97147Y-157147D01*
X96525Y-157958D01*
X96255Y-157997D01*
X96245D01*
X95975Y-157958D01*
X95353Y-157147D01*
X94517Y-156506D01*
X93544Y-156103D01*
X93484Y-156095D01*
Y-160000D01*
Y-163905D01*
X93544Y-163897D01*
X94517Y-163494D01*
X95353Y-162853D01*
X95975Y-162042D01*
X96245Y-162003D01*
X96255D01*
X96525Y-162042D01*
X97147Y-162853D01*
X97983Y-163494D01*
X98956Y-163897D01*
X99016Y-163905D01*
Y-160000D01*
Y-156095D01*
D02*
G37*
G36*
X100984D02*
Y-159016D01*
X103905D01*
X103897Y-158956D01*
X103494Y-157983D01*
X102853Y-157147D01*
X102017Y-156506D01*
X101044Y-156103D01*
X100984Y-156095D01*
D02*
G37*
G36*
X111516Y-143035D02*
X110927Y-143428D01*
X110535Y-144016D01*
X111516D01*
Y-143035D01*
D02*
G37*
G36*
X127000Y-141993D02*
X126232Y-142146D01*
X125581Y-142581D01*
X125146Y-143232D01*
X125055Y-143688D01*
X124900Y-143790D01*
X124506Y-143886D01*
X124043Y-143577D01*
X123753Y-143457D01*
X123753D01*
X123062Y-143320D01*
X123062Y-143320D01*
X122906D01*
X122749D01*
X122749Y-143320D01*
X122058Y-143457D01*
X122058D01*
X121768Y-143577D01*
X121182Y-143969D01*
X120961Y-144190D01*
X120569Y-144776D01*
X120449Y-145065D01*
Y-145066D01*
X120312Y-145757D01*
X120312Y-145757D01*
Y-145836D01*
X120296Y-145913D01*
X120312Y-145991D01*
Y-146070D01*
X120312Y-146070D01*
X120449Y-146761D01*
Y-146761D01*
X120569Y-147051D01*
X120961Y-147637D01*
X121182Y-147858D01*
X121768Y-148250D01*
X122058Y-148370D01*
X122058D01*
X122749Y-148507D01*
X122749Y-148507D01*
X122906D01*
X123062D01*
X123062Y-148507D01*
X123753Y-148370D01*
X123753D01*
X124043Y-148250D01*
X124629Y-147858D01*
X124850Y-147637D01*
X125242Y-147051D01*
X125296Y-146921D01*
X125796Y-147020D01*
Y-158980D01*
X125296Y-159079D01*
X125242Y-158949D01*
X124850Y-158363D01*
X124629Y-158142D01*
X124043Y-157750D01*
X123753Y-157630D01*
X123753D01*
X123062Y-157493D01*
X123062Y-157493D01*
X122906D01*
X122749D01*
X122749Y-157493D01*
X122058Y-157630D01*
X122058D01*
X121768Y-157750D01*
X121182Y-158142D01*
X120961Y-158363D01*
X120569Y-158949D01*
X120449Y-159239D01*
Y-159239D01*
X120312Y-159930D01*
X120312Y-159930D01*
Y-160009D01*
X120296Y-160087D01*
X120312Y-160164D01*
Y-160243D01*
X120312Y-160243D01*
X120449Y-160934D01*
Y-160934D01*
X120569Y-161224D01*
X120961Y-161810D01*
X121182Y-162031D01*
X121768Y-162423D01*
X122058Y-162543D01*
X122058D01*
X122749Y-162680D01*
X122749Y-162680D01*
X122906D01*
X123062D01*
X123062Y-162680D01*
X123753Y-162543D01*
X123753D01*
X124043Y-162423D01*
X124629Y-162031D01*
X124850Y-161810D01*
X125242Y-161224D01*
X125296Y-161094D01*
X125796Y-161193D01*
Y-163133D01*
X125732Y-163146D01*
X125081Y-163581D01*
X124646Y-164232D01*
X124493Y-165000D01*
X124646Y-165768D01*
X125081Y-166419D01*
X125732Y-166854D01*
X126500Y-167007D01*
X127268Y-166854D01*
X127919Y-166419D01*
X128354Y-165768D01*
X128507Y-165000D01*
X128354Y-164232D01*
X128204Y-164007D01*
Y-145563D01*
X128419Y-145419D01*
X128854Y-144768D01*
X129007Y-144000D01*
X128854Y-143232D01*
X128419Y-142581D01*
X127768Y-142146D01*
X127000Y-141993D01*
D02*
G37*
G36*
X125000Y-133993D02*
X124232Y-134146D01*
X123581Y-134581D01*
X123146Y-135232D01*
X122993Y-136000D01*
X123146Y-136768D01*
X123581Y-137419D01*
X124232Y-137854D01*
X125000Y-138007D01*
X125254Y-137957D01*
X128148Y-140851D01*
X128148Y-140851D01*
X128539Y-141113D01*
X129000Y-141204D01*
X135501D01*
X137543Y-143246D01*
X137493Y-143500D01*
X137646Y-144268D01*
X138081Y-144919D01*
X138732Y-145354D01*
X139500Y-145507D01*
X140268Y-145354D01*
X140919Y-144919D01*
X141354Y-144268D01*
X141507Y-143500D01*
X141354Y-142732D01*
X140919Y-142081D01*
X140268Y-141646D01*
X139500Y-141493D01*
X139246Y-141543D01*
X136852Y-139148D01*
X136461Y-138887D01*
X136000Y-138796D01*
X136000Y-138796D01*
X129499D01*
X126957Y-136254D01*
X127007Y-136000D01*
X126854Y-135232D01*
X126419Y-134581D01*
X125768Y-134146D01*
X125000Y-133993D01*
D02*
G37*
G36*
X87288Y-126839D02*
X67000D01*
X66693Y-126900D01*
X66432Y-127074D01*
X66258Y-127334D01*
X66197Y-127642D01*
Y-166000D01*
X66258Y-166307D01*
X66432Y-166568D01*
X66693Y-166742D01*
X67000Y-166803D01*
X87288D01*
X87595Y-166742D01*
X87856Y-166568D01*
X88030Y-166307D01*
X88091Y-166000D01*
Y-160987D01*
X88591Y-160954D01*
X88603Y-161044D01*
X89006Y-162017D01*
X89647Y-162853D01*
X90483Y-163494D01*
X91456Y-163897D01*
X91516Y-163905D01*
Y-160000D01*
Y-156095D01*
X91456Y-156103D01*
X90483Y-156506D01*
X89647Y-157147D01*
X89006Y-157983D01*
X88603Y-158956D01*
X88591Y-159046D01*
X88091Y-159013D01*
Y-127642D01*
X88030Y-127334D01*
X87856Y-127074D01*
X87595Y-126900D01*
X87288Y-126839D01*
D02*
G37*
G36*
X103905Y-160984D02*
X100984D01*
Y-163905D01*
X101044Y-163897D01*
X102017Y-163494D01*
X102853Y-162853D01*
X103494Y-162017D01*
X103897Y-161044D01*
X103905Y-160984D01*
D02*
G37*
G36*
X156496Y-20669D02*
X151627D01*
X151645Y-20846D01*
X151983Y-21962D01*
X152533Y-22991D01*
X153273Y-23892D01*
X154175Y-24632D01*
X155203Y-25182D01*
X156319Y-25521D01*
X156496Y-25538D01*
Y-20669D01*
D02*
G37*
G36*
X203740D02*
X198872D01*
X198889Y-20846D01*
X199227Y-21962D01*
X199777Y-22991D01*
X200517Y-23892D01*
X201419Y-24632D01*
X202448Y-25182D01*
X203564Y-25521D01*
X203740Y-25538D01*
Y-20669D01*
D02*
G37*
G36*
X61016Y-24555D02*
X60031D01*
X59641Y-24633D01*
X59311Y-24854D01*
X59089Y-25185D01*
X59012Y-25575D01*
Y-26165D01*
X61016D01*
Y-24555D01*
D02*
G37*
G36*
X63968D02*
X62984D01*
Y-26165D01*
X64988D01*
Y-25575D01*
X64911Y-25185D01*
X64689Y-24854D01*
X64359Y-24633D01*
X63968Y-24555D01*
D02*
G37*
G36*
X277421Y-19421D02*
X274984D01*
Y-21248D01*
X276402D01*
X276792Y-21170D01*
X277122Y-20949D01*
X277344Y-20618D01*
X277421Y-20228D01*
Y-19421D01*
D02*
G37*
G36*
X192016Y-18421D02*
X189579D01*
Y-19228D01*
X189656Y-19618D01*
X189877Y-19949D01*
X190208Y-20170D01*
X190598Y-20248D01*
X192016D01*
Y-18421D01*
D02*
G37*
G36*
X196421D02*
X193984D01*
Y-20248D01*
X195402D01*
X195792Y-20170D01*
X196123Y-19949D01*
X196344Y-19618D01*
X196421Y-19228D01*
Y-18421D01*
D02*
G37*
G36*
X210577Y-20669D02*
X205709D01*
Y-25538D01*
X205885Y-25521D01*
X207001Y-25182D01*
X208030Y-24632D01*
X208932Y-23892D01*
X209672Y-22991D01*
X210221Y-21962D01*
X210560Y-20846D01*
X210577Y-20669D01*
D02*
G37*
G36*
X163333D02*
X158465D01*
Y-25538D01*
X158641Y-25521D01*
X159757Y-25182D01*
X160786Y-24632D01*
X161688Y-23892D01*
X162427Y-22991D01*
X162977Y-21962D01*
X163316Y-20846D01*
X163333Y-20669D01*
D02*
G37*
G36*
X273016Y-19421D02*
X270579D01*
Y-20228D01*
X270656Y-20618D01*
X270878Y-20949D01*
X271208Y-21170D01*
X271598Y-21248D01*
X273016D01*
Y-19421D01*
D02*
G37*
G36*
X71402Y-24626D02*
X69984D01*
Y-26453D01*
X72421D01*
Y-25646D01*
X72344Y-25256D01*
X72123Y-24925D01*
X71792Y-24704D01*
X71402Y-24626D01*
D02*
G37*
G36*
X311953Y-31028D02*
X309984D01*
Y-34016D01*
X312972D01*
Y-32047D01*
X312895Y-31657D01*
X312674Y-31326D01*
X312343Y-31105D01*
X311953Y-31028D01*
D02*
G37*
G36*
X68016Y-28421D02*
X65579D01*
Y-29228D01*
X65656Y-29618D01*
X65877Y-29949D01*
X66208Y-30170D01*
X66598Y-30248D01*
X68016D01*
Y-28421D01*
D02*
G37*
G36*
X308016Y-35984D02*
X305028D01*
Y-37953D01*
X305105Y-38343D01*
X305326Y-38674D01*
X305657Y-38895D01*
X306047Y-38972D01*
X308016D01*
Y-35984D01*
D02*
G37*
G36*
X312972D02*
X309984D01*
Y-38972D01*
X311953D01*
X312343Y-38895D01*
X312674Y-38674D01*
X312895Y-38343D01*
X312972Y-37953D01*
Y-35984D01*
D02*
G37*
G36*
X308016Y-31028D02*
X306047D01*
X305657Y-31105D01*
X305326Y-31326D01*
X305105Y-31657D01*
X305028Y-32047D01*
Y-34016D01*
X308016D01*
Y-31028D01*
D02*
G37*
G36*
X68016Y-24626D02*
X66598D01*
X66208Y-24704D01*
X65877Y-24925D01*
X65656Y-25256D01*
X65579Y-25646D01*
Y-26453D01*
X68016D01*
Y-24626D01*
D02*
G37*
G36*
X72421Y-28421D02*
X69984D01*
Y-30248D01*
X71402D01*
X71792Y-30170D01*
X72123Y-29949D01*
X72344Y-29618D01*
X72421Y-29228D01*
Y-28421D01*
D02*
G37*
G36*
X61016Y-28134D02*
X59012D01*
Y-28724D01*
X59089Y-29115D01*
X59311Y-29445D01*
X59641Y-29666D01*
X60031Y-29744D01*
X61016D01*
Y-28134D01*
D02*
G37*
G36*
X64988D02*
X62984D01*
Y-29744D01*
X63968D01*
X64359Y-29666D01*
X64689Y-29445D01*
X64911Y-29115D01*
X64988Y-28724D01*
Y-28134D01*
D02*
G37*
G36*
X215968Y-8772D02*
X212032D01*
X211724Y-8833D01*
X211464Y-9007D01*
X211290Y-9268D01*
X211255Y-9443D01*
X210745D01*
X210710Y-9268D01*
X210536Y-9007D01*
X210276Y-8833D01*
X209968Y-8772D01*
X206031D01*
X205724Y-8833D01*
X205464Y-9007D01*
X205290Y-9268D01*
X205229Y-9575D01*
Y-12724D01*
X205290Y-13032D01*
X205464Y-13292D01*
X205487Y-13308D01*
X205314Y-13793D01*
X204724Y-13735D01*
X203564Y-13849D01*
X202448Y-14188D01*
X201419Y-14738D01*
X200517Y-15478D01*
X199777Y-16379D01*
X199227Y-17408D01*
X198889Y-18524D01*
X198872Y-18701D01*
X204724D01*
X210577D01*
X210560Y-18524D01*
X210221Y-17408D01*
X209672Y-16379D01*
X208932Y-15478D01*
X208030Y-14738D01*
X207001Y-14188D01*
X206471Y-14027D01*
X206545Y-13527D01*
X209968D01*
X210276Y-13466D01*
X210536Y-13292D01*
X210710Y-13032D01*
X210745Y-12856D01*
X211255D01*
X211290Y-13032D01*
X211464Y-13292D01*
X211724Y-13466D01*
X212032Y-13527D01*
X215968D01*
X216276Y-13466D01*
X216536Y-13292D01*
X216710Y-13032D01*
X216745Y-12856D01*
X217255D01*
X217290Y-13032D01*
X217464Y-13292D01*
X217724Y-13466D01*
X218032Y-13527D01*
X221969D01*
X222276Y-13466D01*
X222536Y-13292D01*
X222710Y-13032D01*
X222745Y-12856D01*
X223255D01*
X223290Y-13032D01*
X223464Y-13292D01*
X223724Y-13466D01*
X223866Y-13494D01*
X223850Y-14001D01*
X222919Y-14123D01*
X221531Y-14698D01*
X220338Y-15614D01*
X219423Y-16806D01*
X218848Y-18195D01*
X218652Y-19685D01*
X218848Y-21175D01*
X219423Y-22564D01*
X220338Y-23756D01*
X221531Y-24671D01*
X222919Y-25247D01*
X224410Y-25443D01*
X225900Y-25247D01*
X227288Y-24671D01*
X228481Y-23756D01*
X229396Y-22564D01*
X229971Y-21175D01*
X230167Y-19685D01*
X229971Y-18195D01*
X229396Y-16806D01*
X228481Y-15614D01*
X227288Y-14698D01*
X227204Y-14664D01*
Y-13527D01*
X227969D01*
X228276Y-13466D01*
X228536Y-13292D01*
X228710Y-13032D01*
X228771Y-12724D01*
Y-9575D01*
X228710Y-9268D01*
X228536Y-9007D01*
X228276Y-8833D01*
X227969Y-8772D01*
X224031D01*
X223724Y-8833D01*
X223464Y-9007D01*
X223290Y-9268D01*
X223255Y-9443D01*
X222745D01*
X222710Y-9268D01*
X222536Y-9007D01*
X222276Y-8833D01*
X221969Y-8772D01*
X218032D01*
X217724Y-8833D01*
X217464Y-9007D01*
X217290Y-9268D01*
X217255Y-9443D01*
X216745D01*
X216710Y-9268D01*
X216536Y-9007D01*
X216276Y-8833D01*
X215968Y-8772D01*
D02*
G37*
G36*
X308016Y-6028D02*
X306047D01*
X305657Y-6105D01*
X305326Y-6326D01*
X305105Y-6657D01*
X305028Y-7047D01*
Y-9016D01*
X308016D01*
Y-6028D01*
D02*
G37*
G36*
X311953D02*
X309984D01*
Y-9016D01*
X312972D01*
Y-7047D01*
X312895Y-6657D01*
X312674Y-6326D01*
X312343Y-6105D01*
X311953Y-6028D01*
D02*
G37*
G36*
X73165Y-8984D02*
X71555D01*
Y-9968D01*
X71633Y-10359D01*
X71854Y-10689D01*
X72185Y-10910D01*
X72575Y-10988D01*
X73165D01*
Y-8984D01*
D02*
G37*
G36*
X76744D02*
X75134D01*
Y-10988D01*
X75724D01*
X76115Y-10910D01*
X76445Y-10689D01*
X76666Y-10359D01*
X76744Y-9968D01*
Y-8984D01*
D02*
G37*
G36*
X299000Y-6228D02*
X298024Y-6356D01*
X297114Y-6733D01*
X296333Y-7333D01*
X293218Y-10447D01*
X292744Y-10214D01*
X292772Y-10000D01*
X292644Y-9024D01*
X292267Y-8114D01*
X291668Y-7333D01*
X290886Y-6733D01*
X289976Y-6356D01*
X289000Y-6228D01*
X288024Y-6356D01*
X287114Y-6733D01*
X286333Y-7333D01*
X285733Y-8114D01*
X285356Y-9024D01*
X285228Y-10000D01*
X285356Y-10976D01*
X285733Y-11886D01*
X286333Y-12667D01*
X287114Y-13267D01*
X288024Y-13644D01*
X289000Y-13772D01*
X289214Y-13744D01*
X289447Y-14218D01*
X278332Y-25332D01*
X277733Y-26114D01*
X277356Y-27024D01*
X277228Y-28000D01*
Y-60437D01*
X271167Y-66498D01*
X271014Y-66561D01*
X270192Y-67192D01*
X269561Y-68015D01*
X269164Y-68972D01*
X269029Y-70000D01*
X269164Y-71028D01*
X269561Y-71986D01*
X270192Y-72808D01*
X271014Y-73439D01*
X271972Y-73836D01*
X273000Y-73971D01*
X274028Y-73836D01*
X274986Y-73439D01*
X275808Y-72808D01*
X276439Y-71986D01*
X276502Y-71833D01*
X283667Y-64667D01*
X284267Y-63886D01*
X284644Y-62976D01*
X284772Y-62000D01*
Y-35373D01*
X285272Y-35341D01*
X285356Y-35976D01*
X285733Y-36886D01*
X286333Y-37668D01*
X287114Y-38267D01*
X288024Y-38644D01*
X289000Y-38772D01*
X289976Y-38644D01*
X290886Y-38267D01*
X291668Y-37668D01*
X292267Y-36886D01*
X292644Y-35976D01*
X292772Y-35000D01*
X292644Y-34024D01*
X292267Y-33114D01*
X291668Y-32333D01*
X290886Y-31733D01*
X289976Y-31356D01*
X289000Y-31228D01*
X288024Y-31356D01*
X287114Y-31733D01*
X286333Y-32333D01*
X285733Y-33114D01*
X285356Y-34024D01*
X285272Y-34659D01*
X284772Y-34627D01*
Y-29563D01*
X301667Y-12667D01*
X302267Y-11886D01*
X302644Y-10976D01*
X302772Y-10000D01*
X302644Y-9024D01*
X302267Y-8114D01*
X301667Y-7333D01*
X300886Y-6733D01*
X299976Y-6356D01*
X299000Y-6228D01*
D02*
G37*
G36*
X73165Y-5012D02*
X72575D01*
X72185Y-5090D01*
X71854Y-5311D01*
X71633Y-5641D01*
X71555Y-6032D01*
Y-7016D01*
X73165D01*
Y-5012D01*
D02*
G37*
G36*
X75724D02*
X75134D01*
Y-7016D01*
X76744D01*
Y-6032D01*
X76666Y-5641D01*
X76445Y-5311D01*
X76115Y-5090D01*
X75724Y-5012D01*
D02*
G37*
G36*
X250000Y-796D02*
X232000D01*
X231539Y-887D01*
X231149Y-1149D01*
X231149Y-1149D01*
X229238Y-3059D01*
X228809Y-2985D01*
X228675Y-2915D01*
X228536Y-2708D01*
X228276Y-2534D01*
X227969Y-2473D01*
X224031D01*
X223724Y-2534D01*
X223464Y-2708D01*
X223403Y-2799D01*
X223222Y-2831D01*
X222861Y-2799D01*
X222850Y-2795D01*
X222690Y-2555D01*
X222359Y-2334D01*
X221969Y-2256D01*
X220984D01*
Y-4850D01*
Y-7445D01*
X221969D01*
X222359Y-7367D01*
X222690Y-7146D01*
X222850Y-6906D01*
X222861Y-6901D01*
X223222Y-6870D01*
X223403Y-6902D01*
X223464Y-6993D01*
X223724Y-7167D01*
X224031Y-7228D01*
X227969D01*
X228276Y-7167D01*
X228536Y-6993D01*
X228703Y-6743D01*
X228710Y-6732D01*
X229255Y-6557D01*
X229338Y-6613D01*
X229382Y-6621D01*
X229581Y-6919D01*
X230232Y-7354D01*
X231000Y-7507D01*
X231768Y-7354D01*
X232419Y-6919D01*
X232854Y-6268D01*
X233007Y-5500D01*
X232854Y-4732D01*
X232419Y-4081D01*
X232361Y-4042D01*
X232303Y-3516D01*
X232595Y-3204D01*
X234953D01*
X235012Y-3276D01*
Y-3866D01*
X238000D01*
Y-4850D01*
X238984D01*
Y-7445D01*
X239968D01*
X240359Y-7367D01*
X240689Y-7146D01*
X240699Y-7131D01*
X241301D01*
X241311Y-7146D01*
X241641Y-7367D01*
X242032Y-7445D01*
X243016D01*
Y-4850D01*
X244984D01*
Y-7445D01*
X245969D01*
X246359Y-7367D01*
X246690Y-7146D01*
X246850Y-6906D01*
X246861Y-6901D01*
X247222Y-6870D01*
X247403Y-6902D01*
X247464Y-6993D01*
X247724Y-7167D01*
X248031Y-7228D01*
X248841D01*
X248887Y-7461D01*
X249149Y-7852D01*
X249607Y-8310D01*
X249416Y-8772D01*
X248031D01*
X247724Y-8833D01*
X247464Y-9007D01*
X247290Y-9268D01*
X247255Y-9443D01*
X246745D01*
X246710Y-9268D01*
X246536Y-9007D01*
X246276Y-8833D01*
X245969Y-8772D01*
X242032D01*
X241724Y-8833D01*
X241464Y-9007D01*
X241290Y-9268D01*
X241255Y-9443D01*
X240745D01*
X240710Y-9268D01*
X240536Y-9007D01*
X240276Y-8833D01*
X239968Y-8772D01*
X236032D01*
X235724Y-8833D01*
X235464Y-9007D01*
X235290Y-9268D01*
X235229Y-9575D01*
Y-12724D01*
X235290Y-13032D01*
X235464Y-13292D01*
X235724Y-13466D01*
X236032Y-13527D01*
X239968D01*
X240276Y-13466D01*
X240536Y-13292D01*
X240710Y-13032D01*
X240745Y-12856D01*
X241255D01*
X241290Y-13032D01*
X241464Y-13292D01*
X241724Y-13466D01*
X242032Y-13527D01*
X242796D01*
Y-14098D01*
X242604Y-14123D01*
X241215Y-14698D01*
X240023Y-15614D01*
X239108Y-16806D01*
X238533Y-18195D01*
X238337Y-19685D01*
X238533Y-21175D01*
X239108Y-22564D01*
X240023Y-23756D01*
X241215Y-24671D01*
X242604Y-25247D01*
X244094Y-25443D01*
X245585Y-25247D01*
X246973Y-24671D01*
X248166Y-23756D01*
X249081Y-22564D01*
X249656Y-21175D01*
X249852Y-19685D01*
X249656Y-18195D01*
X249081Y-16806D01*
X248166Y-15614D01*
X246973Y-14698D01*
X245585Y-14123D01*
X245204Y-14073D01*
Y-13527D01*
X245969D01*
X246276Y-13466D01*
X246536Y-13292D01*
X246710Y-13032D01*
X246745Y-12856D01*
X247255D01*
X247290Y-13032D01*
X247464Y-13292D01*
X247724Y-13466D01*
X248031Y-13527D01*
X251969D01*
X252276Y-13466D01*
X252536Y-13292D01*
X252710Y-13032D01*
X252745Y-12856D01*
X253255D01*
X253290Y-13032D01*
X253464Y-13292D01*
X253724Y-13466D01*
X254031Y-13527D01*
X257968D01*
X258276Y-13466D01*
X258536Y-13292D01*
X258710Y-13032D01*
X258771Y-12724D01*
Y-9575D01*
X259207Y-9204D01*
X261501D01*
X262575Y-10278D01*
Y-13937D01*
X260089D01*
X259301Y-14094D01*
X258634Y-14539D01*
X258188Y-15207D01*
X258031Y-15994D01*
Y-23376D01*
X258188Y-24163D01*
X258634Y-24831D01*
X259301Y-25277D01*
X260089Y-25433D01*
X267471D01*
X268258Y-25277D01*
X268925Y-24831D01*
X269371Y-24163D01*
X269528Y-23376D01*
Y-15994D01*
X269371Y-15207D01*
X268925Y-14539D01*
X268258Y-14094D01*
X267471Y-13937D01*
X264984D01*
Y-9780D01*
X264984Y-9780D01*
X264892Y-9319D01*
X264631Y-8928D01*
X264631Y-8928D01*
X262970Y-7267D01*
X263128Y-6798D01*
X263152Y-6767D01*
X263979D01*
X264081Y-6919D01*
X264732Y-7354D01*
X265500Y-7507D01*
X266268Y-7354D01*
X266919Y-6919D01*
X267021Y-6767D01*
X270796D01*
Y-7354D01*
X270857Y-7662D01*
X271031Y-7922D01*
X271291Y-8096D01*
X271598Y-8157D01*
X276402D01*
X276709Y-8096D01*
X276969Y-7922D01*
X277143Y-7662D01*
X277204Y-7354D01*
Y-3772D01*
X277143Y-3464D01*
X276969Y-3204D01*
X276709Y-3030D01*
X276402Y-2969D01*
X271598D01*
X271291Y-3030D01*
X271031Y-3204D01*
X270857Y-3464D01*
X270796Y-3772D01*
Y-4359D01*
X267105D01*
X266919Y-4081D01*
X266268Y-3646D01*
X265500Y-3493D01*
X264732Y-3646D01*
X264081Y-4081D01*
X263895Y-4359D01*
X258771D01*
Y-3276D01*
X258710Y-2968D01*
X258536Y-2708D01*
X258276Y-2534D01*
X257968Y-2473D01*
X254031D01*
X253724Y-2534D01*
X253464Y-2708D01*
X253290Y-2968D01*
X253255Y-3144D01*
X252745D01*
X252710Y-2968D01*
X252536Y-2708D01*
X252276Y-2534D01*
X251969Y-2473D01*
X251204D01*
Y-2000D01*
X251113Y-1539D01*
X250851Y-1149D01*
X250461Y-887D01*
X250000Y-796D01*
D02*
G37*
G36*
X215968Y-2256D02*
X214984D01*
Y-4850D01*
Y-7445D01*
X215968D01*
X216359Y-7367D01*
X216689Y-7146D01*
X216699Y-7131D01*
X217301D01*
X217311Y-7146D01*
X217641Y-7367D01*
X218032Y-7445D01*
X219016D01*
Y-4850D01*
Y-2256D01*
X218032D01*
X217641Y-2334D01*
X217311Y-2555D01*
X217301Y-2569D01*
X216699D01*
X216689Y-2555D01*
X216359Y-2334D01*
X215968Y-2256D01*
D02*
G37*
G36*
X237016Y-5835D02*
X235012D01*
Y-6425D01*
X235089Y-6815D01*
X235311Y-7146D01*
X235641Y-7367D01*
X236032Y-7445D01*
X237016D01*
Y-5835D01*
D02*
G37*
G36*
X195402Y-1969D02*
X190598D01*
X190291Y-2030D01*
X190031Y-2204D01*
X189857Y-2464D01*
X189796Y-2772D01*
Y-6354D01*
X189857Y-6662D01*
X190031Y-6922D01*
X190291Y-7096D01*
X190598Y-7157D01*
X191796D01*
Y-8133D01*
X191732Y-8146D01*
X191081Y-8581D01*
X190646Y-9232D01*
X190493Y-10000D01*
X190646Y-10768D01*
X191081Y-11419D01*
X191732Y-11854D01*
X192500Y-12007D01*
X193268Y-11854D01*
X193919Y-11419D01*
X194354Y-10768D01*
X194507Y-10000D01*
X194354Y-9232D01*
X194204Y-9007D01*
Y-7157D01*
X195402D01*
X195709Y-7096D01*
X195969Y-6922D01*
X196143Y-6662D01*
X196204Y-6354D01*
Y-5767D01*
X205229D01*
Y-6425D01*
X205290Y-6732D01*
X205464Y-6993D01*
X205724Y-7167D01*
X206031Y-7228D01*
X209968D01*
X210276Y-7167D01*
X210536Y-6993D01*
X210597Y-6902D01*
X210778Y-6870D01*
X211139Y-6901D01*
X211150Y-6906D01*
X211311Y-7146D01*
X211641Y-7367D01*
X212032Y-7445D01*
X213016D01*
Y-4850D01*
Y-2256D01*
X212032D01*
X211641Y-2334D01*
X211311Y-2555D01*
X211150Y-2795D01*
X211139Y-2799D01*
X210778Y-2831D01*
X210597Y-2799D01*
X210536Y-2708D01*
X210276Y-2534D01*
X209968Y-2473D01*
X206031D01*
X205724Y-2534D01*
X205464Y-2708D01*
X205290Y-2968D01*
X205229Y-3276D01*
Y-3359D01*
X196204D01*
Y-2772D01*
X196143Y-2464D01*
X195969Y-2204D01*
X195709Y-2030D01*
X195402Y-1969D01*
D02*
G37*
G36*
X312972Y-10984D02*
X309984D01*
Y-13972D01*
X311953D01*
X312343Y-13895D01*
X312674Y-13674D01*
X312895Y-13343D01*
X312972Y-12953D01*
Y-10984D01*
D02*
G37*
G36*
X156496Y-13832D02*
X156319Y-13849D01*
X155203Y-14188D01*
X154175Y-14738D01*
X153273Y-15478D01*
X152533Y-16379D01*
X151983Y-17408D01*
X151645Y-18524D01*
X151627Y-18701D01*
X156496D01*
Y-13832D01*
D02*
G37*
G36*
X192016Y-14626D02*
X190598D01*
X190208Y-14704D01*
X189877Y-14925D01*
X189656Y-15256D01*
X189579Y-15646D01*
Y-16453D01*
X192016D01*
Y-14626D01*
D02*
G37*
G36*
X195402D02*
X193984D01*
Y-16453D01*
X196421D01*
Y-15646D01*
X196344Y-15256D01*
X196123Y-14925D01*
X195792Y-14704D01*
X195402Y-14626D01*
D02*
G37*
G36*
X308016Y-10984D02*
X305028D01*
Y-12953D01*
X305105Y-13343D01*
X305326Y-13674D01*
X305657Y-13895D01*
X306047Y-13972D01*
X308016D01*
Y-10984D01*
D02*
G37*
G36*
X158465Y-13832D02*
Y-18701D01*
X163333D01*
X163316Y-18524D01*
X162977Y-17408D01*
X162427Y-16379D01*
X161688Y-15478D01*
X160786Y-14738D01*
X159757Y-14188D01*
X158641Y-13849D01*
X158465Y-13832D01*
D02*
G37*
G36*
X273016Y-15626D02*
X271598D01*
X271208Y-15704D01*
X270878Y-15925D01*
X270656Y-16255D01*
X270579Y-16646D01*
Y-17453D01*
X273016D01*
Y-15626D01*
D02*
G37*
G36*
X276402D02*
X274984D01*
Y-17453D01*
X277421D01*
Y-16646D01*
X277344Y-16255D01*
X277122Y-15925D01*
X276792Y-15704D01*
X276402Y-15626D01*
D02*
G37*
G36*
X201665Y-79184D02*
X201077Y-79577D01*
X200684Y-80165D01*
X201665D01*
Y-79184D01*
D02*
G37*
G36*
X203634D02*
Y-80165D01*
X204615D01*
X204222Y-79577D01*
X203634Y-79184D01*
D02*
G37*
G36*
X272016Y-75944D02*
X271917Y-75957D01*
X270907Y-76375D01*
X270040Y-77040D01*
X269375Y-77907D01*
X268957Y-78917D01*
X268944Y-79016D01*
X272016D01*
Y-75944D01*
D02*
G37*
G36*
X157016Y-79535D02*
X156428Y-79927D01*
X156035Y-80516D01*
X157016D01*
Y-79535D01*
D02*
G37*
G36*
X158984D02*
Y-80516D01*
X159966D01*
X159573Y-79927D01*
X158984Y-79535D01*
D02*
G37*
G36*
X87000Y-40339D02*
X66712D01*
X66404Y-40400D01*
X66144Y-40574D01*
X65970Y-40835D01*
X65909Y-41142D01*
Y-79500D01*
X65970Y-79807D01*
X66144Y-80068D01*
X66404Y-80242D01*
X66712Y-80303D01*
X87000D01*
X87307Y-80242D01*
X87568Y-80068D01*
X87742Y-79807D01*
X87803Y-79500D01*
Y-41142D01*
X87742Y-40835D01*
X87568Y-40574D01*
X87307Y-40400D01*
X87000Y-40339D01*
D02*
G37*
G36*
X91516Y-75984D02*
X88595D01*
X88603Y-76044D01*
X89006Y-77017D01*
X89647Y-77853D01*
X90483Y-78494D01*
X91456Y-78897D01*
X91516Y-78905D01*
Y-75984D01*
D02*
G37*
G36*
X103905D02*
X100984D01*
Y-78905D01*
X101044Y-78897D01*
X102017Y-78494D01*
X102853Y-77853D01*
X103494Y-77017D01*
X103897Y-76044D01*
X103905Y-75984D01*
D02*
G37*
G36*
X91516Y-71095D02*
X91456Y-71103D01*
X90483Y-71506D01*
X89647Y-72147D01*
X89006Y-72983D01*
X88603Y-73956D01*
X88595Y-74016D01*
X91516D01*
Y-71095D01*
D02*
G37*
G36*
X304016Y-75944D02*
X303917Y-75957D01*
X302907Y-76375D01*
X302041Y-77040D01*
X301375Y-77907D01*
X300957Y-78917D01*
X300944Y-79016D01*
X304016D01*
Y-75944D01*
D02*
G37*
G36*
X273984D02*
Y-79016D01*
X277056D01*
X277043Y-78917D01*
X276625Y-77907D01*
X275959Y-77040D01*
X275093Y-76375D01*
X274083Y-75957D01*
X273984Y-75944D01*
D02*
G37*
G36*
X305984D02*
Y-79016D01*
X309056D01*
X309043Y-78917D01*
X308625Y-77907D01*
X307960Y-77040D01*
X307093Y-76375D01*
X306083Y-75957D01*
X305984Y-75944D01*
D02*
G37*
G36*
X247016Y-80484D02*
X246035D01*
X246427Y-81072D01*
X247016Y-81466D01*
Y-80484D01*
D02*
G37*
G36*
X272016Y-80984D02*
X268944D01*
X268957Y-81083D01*
X269375Y-82093D01*
X270040Y-82960D01*
X270907Y-83625D01*
X271917Y-84043D01*
X272016Y-84056D01*
Y-80984D01*
D02*
G37*
G36*
X304016D02*
X300944D01*
X300957Y-81083D01*
X301375Y-82093D01*
X302041Y-82960D01*
X302907Y-83625D01*
X303917Y-84043D01*
X304016Y-84056D01*
Y-80984D01*
D02*
G37*
G36*
X159966Y-82484D02*
X158984D01*
Y-83465D01*
X159573Y-83073D01*
X159966Y-82484D01*
D02*
G37*
G36*
X201665Y-82134D02*
X200684D01*
X201077Y-82722D01*
X201665Y-83115D01*
Y-82134D01*
D02*
G37*
G36*
X204615D02*
X203634D01*
Y-83115D01*
X204222Y-82722D01*
X204615Y-82134D01*
D02*
G37*
G36*
X277056Y-80984D02*
X273984D01*
Y-84056D01*
X274083Y-84043D01*
X275093Y-83625D01*
X275959Y-82960D01*
X276625Y-82093D01*
X277043Y-81083D01*
X277056Y-80984D01*
D02*
G37*
G36*
X309056D02*
X305984D01*
Y-84056D01*
X306083Y-84043D01*
X307093Y-83625D01*
X307960Y-82960D01*
X308625Y-82093D01*
X309043Y-81083D01*
X309056Y-80984D01*
D02*
G37*
G36*
X157016Y-82484D02*
X156035D01*
X156428Y-83073D01*
X157016Y-83465D01*
Y-82484D01*
D02*
G37*
G36*
X250016Y-46472D02*
X246437D01*
Y-47850D01*
X246515Y-48241D01*
X246736Y-48571D01*
X247066Y-48792D01*
X247457Y-48870D01*
X250016D01*
Y-46472D01*
D02*
G37*
G36*
X258965Y-46984D02*
X257984D01*
Y-47965D01*
X258573Y-47572D01*
X258965Y-46984D01*
D02*
G37*
G36*
X208016Y-44984D02*
X205619D01*
X205943Y-45765D01*
X206504Y-46496D01*
X207235Y-47057D01*
X208016Y-47381D01*
Y-44984D01*
D02*
G37*
G36*
X188165Y-53012D02*
X187575D01*
X187185Y-53089D01*
X186854Y-53311D01*
X186633Y-53641D01*
X186555Y-54031D01*
Y-55016D01*
X188165D01*
Y-53012D01*
D02*
G37*
G36*
X208016Y-40619D02*
X207235Y-40943D01*
X206504Y-41504D01*
X205943Y-42235D01*
X205619Y-43016D01*
X208016D01*
Y-40619D01*
D02*
G37*
G36*
X209984D02*
Y-43016D01*
X212381D01*
X212057Y-42235D01*
X211496Y-41504D01*
X210765Y-40943D01*
X209984Y-40619D01*
D02*
G37*
G36*
X212381Y-44984D02*
X209984D01*
Y-47381D01*
X210765Y-47057D01*
X211496Y-46496D01*
X212057Y-45765D01*
X212381Y-44984D01*
D02*
G37*
G36*
X257984Y-44034D02*
Y-45016D01*
X258965D01*
X258573Y-44427D01*
X257984Y-44034D01*
D02*
G37*
G36*
X110622Y-55035D02*
Y-56016D01*
X111603D01*
X111210Y-55427D01*
X110622Y-55035D01*
D02*
G37*
G36*
X242165Y-67984D02*
X240555D01*
Y-68968D01*
X240633Y-69359D01*
X240854Y-69690D01*
X241185Y-69911D01*
X241575Y-69988D01*
X242165D01*
Y-67984D01*
D02*
G37*
G36*
X245744D02*
X244134D01*
Y-69988D01*
X244724D01*
X245115Y-69911D01*
X245445Y-69690D01*
X245666Y-69359D01*
X245744Y-68968D01*
Y-67984D01*
D02*
G37*
G36*
X100984Y-71095D02*
Y-74016D01*
X103905D01*
X103897Y-73956D01*
X103494Y-72983D01*
X102853Y-72147D01*
X102017Y-71506D01*
X101044Y-71103D01*
X100984Y-71095D01*
D02*
G37*
G36*
X299000Y-31228D02*
X298024Y-31356D01*
X297114Y-31733D01*
X296333Y-32333D01*
X295733Y-33114D01*
X295356Y-34024D01*
X295228Y-35000D01*
Y-39000D01*
X295356Y-39976D01*
X295733Y-40886D01*
X296333Y-41668D01*
X301228Y-46563D01*
Y-68820D01*
X301164Y-68972D01*
X301029Y-70000D01*
X301164Y-71028D01*
X301561Y-71986D01*
X302192Y-72808D01*
X303014Y-73439D01*
X303972Y-73836D01*
X305000Y-73971D01*
X306028Y-73836D01*
X306985Y-73439D01*
X307808Y-72808D01*
X308439Y-71986D01*
X308836Y-71028D01*
X308971Y-70000D01*
X308836Y-68972D01*
X308772Y-68820D01*
Y-45000D01*
X308644Y-44024D01*
X308267Y-43114D01*
X307667Y-42333D01*
X302772Y-37437D01*
Y-35000D01*
X302644Y-34024D01*
X302267Y-33114D01*
X301667Y-32333D01*
X300886Y-31733D01*
X299976Y-31356D01*
X299000Y-31228D01*
D02*
G37*
G36*
X99016Y-71095D02*
X98956Y-71103D01*
X97983Y-71506D01*
X97147Y-72147D01*
X96525Y-72958D01*
X96255Y-72997D01*
X96245D01*
X95975Y-72958D01*
X95353Y-72147D01*
X94517Y-71506D01*
X93544Y-71103D01*
X93484Y-71095D01*
Y-75000D01*
Y-78905D01*
X93544Y-78897D01*
X94517Y-78494D01*
X95353Y-77853D01*
X95975Y-77042D01*
X96245Y-77003D01*
X96255D01*
X96525Y-77042D01*
X97147Y-77853D01*
X97983Y-78494D01*
X98956Y-78897D01*
X99016Y-78905D01*
Y-75000D01*
Y-71095D01*
D02*
G37*
G36*
X111603Y-57984D02*
X110622D01*
Y-58965D01*
X111210Y-58573D01*
X111603Y-57984D01*
D02*
G37*
G36*
X192500Y-48993D02*
X191732Y-49146D01*
X191081Y-49581D01*
X190646Y-50232D01*
X190493Y-51000D01*
X190646Y-51768D01*
X191081Y-52419D01*
X191732Y-52854D01*
X192500Y-53007D01*
X192754Y-52957D01*
X195296Y-55499D01*
Y-56610D01*
X194796Y-56762D01*
X194572Y-56428D01*
X193984Y-56034D01*
Y-58000D01*
X192016D01*
Y-55805D01*
X191744Y-55660D01*
Y-54031D01*
X191666Y-53641D01*
X191445Y-53311D01*
X191115Y-53089D01*
X190724Y-53012D01*
X190134D01*
Y-56000D01*
X189150D01*
Y-56984D01*
X186555D01*
Y-57968D01*
X186633Y-58359D01*
X186854Y-58689D01*
X187094Y-58850D01*
X187099Y-58861D01*
X187130Y-59222D01*
X187098Y-59403D01*
X187007Y-59464D01*
X186833Y-59724D01*
X186772Y-60031D01*
Y-63968D01*
X186833Y-64276D01*
X186776Y-64563D01*
X186648Y-64648D01*
X186648Y-64648D01*
X185754Y-65543D01*
X185500Y-65493D01*
X184732Y-65646D01*
X184081Y-66081D01*
X183646Y-66732D01*
X183493Y-67500D01*
X183646Y-68268D01*
X184081Y-68919D01*
X184732Y-69354D01*
X185500Y-69507D01*
X186268Y-69354D01*
X186919Y-68919D01*
X187354Y-68268D01*
X187507Y-67500D01*
X187457Y-67246D01*
X187999Y-66704D01*
X195000D01*
X195000Y-66704D01*
X195461Y-66613D01*
X195852Y-66351D01*
X197352Y-64851D01*
X197613Y-64461D01*
X197704Y-64000D01*
X197704Y-64000D01*
Y-55000D01*
X197613Y-54539D01*
X197352Y-54149D01*
X197352Y-54149D01*
X194457Y-51254D01*
X194507Y-51000D01*
X194354Y-50232D01*
X193919Y-49581D01*
X193268Y-49146D01*
X192500Y-48993D01*
D02*
G37*
G36*
X108654Y-55035D02*
X108065Y-55427D01*
X107672Y-56016D01*
X108654D01*
Y-55035D01*
D02*
G37*
G36*
X151528Y-63984D02*
X149130D01*
Y-66543D01*
X149208Y-66934D01*
X149429Y-67264D01*
X149759Y-67485D01*
X150150Y-67563D01*
X151528D01*
Y-63984D01*
D02*
G37*
G36*
X143850Y-49654D02*
X139126D01*
X138819Y-49715D01*
X138558Y-49889D01*
X138384Y-50150D01*
X138323Y-50457D01*
Y-57543D01*
X138384Y-57850D01*
X138558Y-58111D01*
X138727Y-58223D01*
X138771Y-58462D01*
Y-58538D01*
X138727Y-58776D01*
X138558Y-58889D01*
X138384Y-59149D01*
X138323Y-59457D01*
Y-66543D01*
X138384Y-66851D01*
X138558Y-67111D01*
X138819Y-67285D01*
X139126Y-67346D01*
X143850D01*
X144158Y-67285D01*
X144418Y-67111D01*
X144592Y-66851D01*
X144653Y-66543D01*
Y-59457D01*
X144592Y-59149D01*
X144418Y-58889D01*
X144250Y-58776D01*
X144205Y-58538D01*
Y-58462D01*
X144250Y-58223D01*
X144418Y-58111D01*
X144592Y-57850D01*
X144653Y-57543D01*
Y-50457D01*
X144592Y-50150D01*
X144418Y-49889D01*
X144158Y-49715D01*
X143850Y-49654D01*
D02*
G37*
G36*
X108654Y-57984D02*
X107672D01*
X108065Y-58573D01*
X108654Y-58965D01*
Y-57984D01*
D02*
G37*
G36*
X183130Y-20669D02*
X178150D01*
Y-25650D01*
X180856D01*
X181727Y-25477D01*
X182464Y-24984D01*
X182957Y-24246D01*
X183130Y-23376D01*
Y-20669D01*
D02*
G37*
G36*
X176181D02*
X171200D01*
Y-23376D01*
X171373Y-24246D01*
X171867Y-24984D01*
X172604Y-25477D01*
X173474Y-25650D01*
X176181D01*
Y-20669D01*
D02*
G37*
G36*
X136378Y-12843D02*
Y-18701D01*
X142236D01*
X142199Y-18331D01*
X141804Y-17030D01*
X141163Y-15830D01*
X140300Y-14778D01*
X139249Y-13916D01*
X138049Y-13274D01*
X136747Y-12879D01*
X136378Y-12843D01*
D02*
G37*
G36*
X180856Y-13720D02*
X178150D01*
Y-18701D01*
X183130D01*
Y-15994D01*
X182957Y-15124D01*
X182464Y-14386D01*
X181727Y-13893D01*
X180856Y-13720D01*
D02*
G37*
G36*
X134409Y-12843D02*
X134040Y-12879D01*
X132738Y-13274D01*
X131539Y-13916D01*
X130487Y-14778D01*
X129624Y-15830D01*
X128983Y-17030D01*
X128588Y-18331D01*
X128552Y-18701D01*
X134409D01*
Y-12843D01*
D02*
G37*
G36*
X176181Y-13720D02*
X173474D01*
X172604Y-13893D01*
X171867Y-14386D01*
X171373Y-15124D01*
X171200Y-15994D01*
Y-18701D01*
X176181D01*
Y-13720D01*
D02*
G37*
G36*
X150000Y-215830D02*
X148921Y-215973D01*
X147915Y-216389D01*
X147052Y-217052D01*
X146389Y-217915D01*
X145973Y-218921D01*
X145831Y-220000D01*
X145973Y-221079D01*
X146389Y-222085D01*
X147052Y-222948D01*
X147915Y-223611D01*
X148921Y-224027D01*
X150000Y-224169D01*
X151079Y-224027D01*
X152085Y-223611D01*
X152948Y-222948D01*
X153611Y-222085D01*
X154027Y-221079D01*
X154169Y-220000D01*
X154027Y-218921D01*
X153611Y-217915D01*
X152948Y-217052D01*
X152085Y-216389D01*
X151079Y-215973D01*
X150000Y-215830D01*
D02*
G37*
G36*
X189965Y-186984D02*
X188984D01*
Y-187966D01*
X189573Y-187573D01*
X189965Y-186984D01*
D02*
G37*
G36*
X201516Y-185984D02*
X200535D01*
X200927Y-186573D01*
X201516Y-186966D01*
Y-185984D01*
D02*
G37*
G36*
X204466D02*
X203484D01*
Y-186966D01*
X204072Y-186573D01*
X204466Y-185984D01*
D02*
G37*
G36*
X156010Y-192604D02*
X155931Y-192609D01*
X155906Y-192606D01*
X155880Y-192609D01*
X155801Y-192604D01*
X155030Y-192705D01*
X154955Y-192731D01*
X154929Y-192734D01*
X154905Y-192744D01*
X154827Y-192760D01*
X154109Y-193057D01*
X154043Y-193101D01*
X154019Y-193111D01*
X153999Y-193127D01*
X153928Y-193162D01*
X153311Y-193635D01*
X153259Y-193695D01*
X153238Y-193710D01*
X153222Y-193731D01*
X153163Y-193783D01*
X152689Y-194400D01*
X152655Y-194471D01*
X152639Y-194492D01*
X152629Y-194516D01*
X152585Y-194582D01*
X152287Y-195300D01*
X152272Y-195378D01*
X152262Y-195402D01*
X152258Y-195428D01*
X152233Y-195502D01*
X152131Y-196273D01*
X152135Y-196326D01*
X152125Y-196378D01*
X152135Y-196430D01*
X152131Y-196483D01*
X152233Y-197254D01*
X152258Y-197328D01*
X152262Y-197354D01*
X152272Y-197378D01*
X152287Y-197456D01*
X152585Y-198174D01*
X152629Y-198240D01*
X152639Y-198264D01*
X152655Y-198285D01*
X152690Y-198356D01*
X153163Y-198973D01*
X153222Y-199025D01*
X153238Y-199046D01*
X153259Y-199061D01*
X153311Y-199121D01*
X153928Y-199594D01*
X153999Y-199629D01*
X154019Y-199645D01*
X154043Y-199655D01*
X154109Y-199699D01*
X154827Y-199996D01*
X154905Y-200012D01*
X154929Y-200022D01*
X154955Y-200025D01*
X155030Y-200051D01*
X155801Y-200152D01*
X155880Y-200147D01*
X155906Y-200150D01*
X155931Y-200147D01*
X156010Y-200152D01*
X156781Y-200051D01*
X156856Y-200025D01*
X156882Y-200022D01*
X156906Y-200012D01*
X156984Y-199996D01*
X157702Y-199699D01*
X157768Y-199655D01*
X157792Y-199645D01*
X157812Y-199629D01*
X157883Y-199594D01*
X158500Y-199121D01*
X158553Y-199061D01*
X158573Y-199046D01*
X158589Y-199025D01*
X158649Y-198973D01*
X159122Y-198356D01*
X159157Y-198285D01*
X159173Y-198264D01*
X159183Y-198240D01*
X159227Y-198174D01*
X159524Y-197456D01*
X159539Y-197378D01*
X159549Y-197354D01*
X159553Y-197328D01*
X159578Y-197254D01*
X159680Y-196483D01*
X159676Y-196430D01*
X159687Y-196378D01*
X159676Y-196326D01*
X159680Y-196273D01*
X159578Y-195502D01*
X159553Y-195428D01*
X159549Y-195402D01*
X159539Y-195378D01*
X159524Y-195300D01*
X159227Y-194582D01*
X159183Y-194516D01*
X159173Y-194492D01*
X159157Y-194471D01*
X159122Y-194400D01*
X158649Y-193783D01*
X158589Y-193731D01*
X158573Y-193710D01*
X158552Y-193695D01*
X158500Y-193635D01*
X157883Y-193162D01*
X157812Y-193127D01*
X157792Y-193111D01*
X157768Y-193101D01*
X157702Y-193057D01*
X156984Y-192760D01*
X156906Y-192744D01*
X156882Y-192734D01*
X156856Y-192731D01*
X156781Y-192705D01*
X156010Y-192604D01*
D02*
G37*
G36*
X196365D02*
X196286Y-192609D01*
X196260Y-192606D01*
X196234Y-192609D01*
X196155Y-192604D01*
X195384Y-192705D01*
X195309Y-192731D01*
X195284Y-192734D01*
X195259Y-192744D01*
X195182Y-192760D01*
X194464Y-193057D01*
X194398Y-193101D01*
X194374Y-193111D01*
X194353Y-193127D01*
X194282Y-193162D01*
X193665Y-193635D01*
X193613Y-193695D01*
X193592Y-193710D01*
X193577Y-193731D01*
X193517Y-193783D01*
X193044Y-194400D01*
X193009Y-194471D01*
X192993Y-194492D01*
X192983Y-194516D01*
X192939Y-194582D01*
X192641Y-195300D01*
X192626Y-195378D01*
X192616Y-195402D01*
X192613Y-195428D01*
X192587Y-195502D01*
X192486Y-196273D01*
X192489Y-196326D01*
X192479Y-196378D01*
X192489Y-196430D01*
X192486Y-196483D01*
X192587Y-197254D01*
X192613Y-197328D01*
X192616Y-197354D01*
X192626Y-197378D01*
X192641Y-197456D01*
X192939Y-198174D01*
X192983Y-198240D01*
X192993Y-198264D01*
X193009Y-198285D01*
X193044Y-198356D01*
X193517Y-198973D01*
X193577Y-199025D01*
X193592Y-199046D01*
X193613Y-199061D01*
X193665Y-199121D01*
X194282Y-199594D01*
X194353Y-199629D01*
X194374Y-199645D01*
X194398Y-199655D01*
X194464Y-199699D01*
X195182Y-199996D01*
X195259Y-200012D01*
X195284Y-200022D01*
X195309Y-200025D01*
X195384Y-200051D01*
X196155Y-200152D01*
X196234Y-200147D01*
X196260Y-200150D01*
X196286Y-200147D01*
X196365Y-200152D01*
X197135Y-200051D01*
X197210Y-200025D01*
X197236Y-200022D01*
X197260Y-200012D01*
X197338Y-199996D01*
X198056Y-199699D01*
X198122Y-199655D01*
X198146Y-199645D01*
X198167Y-199629D01*
X198238Y-199594D01*
X198855Y-199121D01*
X198907Y-199061D01*
X198927Y-199046D01*
X198943Y-199025D01*
X199003Y-198973D01*
X199476Y-198356D01*
X199511Y-198285D01*
X199527Y-198264D01*
X199537Y-198240D01*
X199581Y-198174D01*
X199878Y-197456D01*
X199894Y-197378D01*
X199904Y-197354D01*
X199907Y-197328D01*
X199933Y-197254D01*
X200034Y-196483D01*
X200031Y-196430D01*
X200041Y-196378D01*
X200031Y-196326D01*
X200034Y-196273D01*
X199933Y-195502D01*
X199907Y-195428D01*
X199904Y-195402D01*
X199894Y-195378D01*
X199878Y-195300D01*
X199581Y-194582D01*
X199537Y-194516D01*
X199527Y-194492D01*
X199511Y-194471D01*
X199476Y-194400D01*
X199003Y-193783D01*
X198943Y-193731D01*
X198927Y-193710D01*
X198907Y-193695D01*
X198855Y-193635D01*
X198238Y-193162D01*
X198167Y-193127D01*
X198146Y-193111D01*
X198122Y-193101D01*
X198056Y-193057D01*
X197338Y-192760D01*
X197260Y-192744D01*
X197236Y-192734D01*
X197210Y-192731D01*
X197135Y-192705D01*
X196365Y-192604D01*
D02*
G37*
G36*
X158016Y-175835D02*
X156012D01*
Y-176425D01*
X156089Y-176815D01*
X156310Y-177146D01*
X156641Y-177367D01*
X157032Y-177445D01*
X158016D01*
Y-175835D01*
D02*
G37*
G36*
X217516Y-173984D02*
X215695D01*
X215907Y-174497D01*
X216383Y-175117D01*
X217003Y-175593D01*
X217516Y-175805D01*
Y-173984D01*
D02*
G37*
G36*
X221305D02*
X219484D01*
Y-175805D01*
X219997Y-175593D01*
X220617Y-175117D01*
X221093Y-174497D01*
X221305Y-173984D01*
D02*
G37*
G36*
X188984Y-184035D02*
Y-185016D01*
X189965D01*
X189573Y-184427D01*
X188984Y-184035D01*
D02*
G37*
G36*
X201516Y-183035D02*
X200927Y-183428D01*
X200535Y-184016D01*
X201516D01*
Y-183035D01*
D02*
G37*
G36*
X203484D02*
Y-184016D01*
X204466D01*
X204072Y-183428D01*
X203484Y-183035D01*
D02*
G37*
G36*
X144366Y-205984D02*
X140984D01*
Y-209366D01*
X143347D01*
X143737Y-209288D01*
X144067Y-209067D01*
X144288Y-208737D01*
X144366Y-208347D01*
Y-205984D01*
D02*
G37*
G36*
X179370Y-205984D02*
X175988D01*
Y-208347D01*
X176066Y-208737D01*
X176287Y-209067D01*
X176618Y-209288D01*
X177008Y-209366D01*
X179370D01*
Y-205984D01*
D02*
G37*
G36*
X140000Y-210830D02*
X138921Y-210973D01*
X137915Y-211389D01*
X137052Y-212052D01*
X136389Y-212915D01*
X135973Y-213921D01*
X135830Y-215000D01*
X135973Y-216079D01*
X136389Y-217085D01*
X137052Y-217948D01*
X137915Y-218611D01*
X138921Y-219027D01*
X140000Y-219169D01*
X141079Y-219027D01*
X142085Y-218611D01*
X142948Y-217948D01*
X143611Y-217085D01*
X144027Y-216079D01*
X144169Y-215000D01*
X144027Y-213921D01*
X143611Y-212915D01*
X142948Y-212052D01*
X142085Y-211389D01*
X141079Y-210973D01*
X140000Y-210830D01*
D02*
G37*
G36*
X150000Y-205831D02*
X148921Y-205973D01*
X147915Y-206389D01*
X147052Y-207052D01*
X146389Y-207915D01*
X145973Y-208921D01*
X145831Y-210000D01*
X145973Y-211079D01*
X146389Y-212085D01*
X147052Y-212948D01*
X147915Y-213611D01*
X148921Y-214027D01*
X150000Y-214170D01*
X151079Y-214027D01*
X152085Y-213611D01*
X152948Y-212948D01*
X153611Y-212085D01*
X154027Y-211079D01*
X154169Y-210000D01*
X154027Y-208921D01*
X153611Y-207915D01*
X152948Y-207052D01*
X152085Y-206389D01*
X151079Y-205973D01*
X150000Y-205831D01*
D02*
G37*
G36*
X139016Y-205984D02*
X135634D01*
Y-208347D01*
X135712Y-208737D01*
X135933Y-209067D01*
X136263Y-209288D01*
X136653Y-209366D01*
X139016D01*
Y-205984D01*
D02*
G37*
G36*
X143347Y-200634D02*
X140984D01*
Y-204016D01*
X144366D01*
Y-201654D01*
X144288Y-201263D01*
X144067Y-200933D01*
X143737Y-200712D01*
X143347Y-200634D01*
D02*
G37*
G36*
X179370D02*
X177008D01*
X176618Y-200712D01*
X176287Y-200933D01*
X176066Y-201263D01*
X175988Y-201654D01*
Y-204016D01*
X179370D01*
Y-200634D01*
D02*
G37*
G36*
X139016D02*
X136653D01*
X136263Y-200712D01*
X135933Y-200933D01*
X135712Y-201263D01*
X135634Y-201654D01*
Y-204016D01*
X139016D01*
Y-200634D01*
D02*
G37*
G36*
X196365Y-224100D02*
X196286Y-224105D01*
X196260Y-224102D01*
X196234Y-224105D01*
X196155Y-224100D01*
X195384Y-224201D01*
X195309Y-224227D01*
X195284Y-224230D01*
X195259Y-224240D01*
X195182Y-224255D01*
X194464Y-224553D01*
X194398Y-224597D01*
X194374Y-224607D01*
X194353Y-224623D01*
X194282Y-224658D01*
X193665Y-225131D01*
X193613Y-225191D01*
X193592Y-225206D01*
X193577Y-225227D01*
X193517Y-225279D01*
X193044Y-225896D01*
X193009Y-225967D01*
X192993Y-225988D01*
X192983Y-226012D01*
X192939Y-226078D01*
X192641Y-226796D01*
X192626Y-226873D01*
X192616Y-226898D01*
X192613Y-226923D01*
X192587Y-226998D01*
X192486Y-227769D01*
X192489Y-227822D01*
X192479Y-227874D01*
X192489Y-227926D01*
X192486Y-227979D01*
X192587Y-228750D01*
X192613Y-228824D01*
X192616Y-228850D01*
X192626Y-228874D01*
X192641Y-228952D01*
X192939Y-229670D01*
X192983Y-229736D01*
X192993Y-229760D01*
X193009Y-229781D01*
X193044Y-229852D01*
X193517Y-230469D01*
X193577Y-230521D01*
X193592Y-230541D01*
X193613Y-230557D01*
X193665Y-230617D01*
X194282Y-231090D01*
X194353Y-231125D01*
X194374Y-231141D01*
X194398Y-231151D01*
X194464Y-231195D01*
X195182Y-231492D01*
X195259Y-231508D01*
X195284Y-231518D01*
X195309Y-231521D01*
X195384Y-231547D01*
X196155Y-231648D01*
X196234Y-231643D01*
X196260Y-231646D01*
X196286Y-231643D01*
X196365Y-231648D01*
X197135Y-231547D01*
X197210Y-231521D01*
X197236Y-231518D01*
X197260Y-231508D01*
X197338Y-231492D01*
X198056Y-231195D01*
X198122Y-231151D01*
X198146Y-231141D01*
X198167Y-231125D01*
X198238Y-231090D01*
X198855Y-230617D01*
X198907Y-230557D01*
X198927Y-230541D01*
X198943Y-230521D01*
X199003Y-230469D01*
X199476Y-229852D01*
X199511Y-229781D01*
X199527Y-229760D01*
X199537Y-229736D01*
X199581Y-229670D01*
X199878Y-228952D01*
X199894Y-228874D01*
X199904Y-228850D01*
X199907Y-228824D01*
X199933Y-228750D01*
X200034Y-227979D01*
X200031Y-227926D01*
X200041Y-227874D01*
X200031Y-227822D01*
X200034Y-227769D01*
X199933Y-226998D01*
X199907Y-226923D01*
X199904Y-226898D01*
X199894Y-226873D01*
X199878Y-226796D01*
X199581Y-226078D01*
X199537Y-226012D01*
X199527Y-225988D01*
X199511Y-225967D01*
X199476Y-225896D01*
X199003Y-225279D01*
X198943Y-225227D01*
X198927Y-225206D01*
X198907Y-225191D01*
X198855Y-225131D01*
X198238Y-224658D01*
X198167Y-224623D01*
X198146Y-224607D01*
X198122Y-224597D01*
X198056Y-224553D01*
X197338Y-224255D01*
X197260Y-224240D01*
X197236Y-224230D01*
X197210Y-224227D01*
X197135Y-224201D01*
X196365Y-224100D01*
D02*
G37*
G36*
X160466Y-162484D02*
X159484D01*
Y-163465D01*
X160073Y-163073D01*
X160466Y-162484D01*
D02*
G37*
G36*
X147816Y-160335D02*
X146835D01*
Y-161316D01*
X147423Y-160923D01*
X147816Y-160335D01*
D02*
G37*
G36*
X190354Y-215830D02*
X189275Y-215973D01*
X188270Y-216389D01*
X187406Y-217052D01*
X186743Y-217915D01*
X186327Y-218921D01*
X186185Y-220000D01*
X186327Y-221079D01*
X186743Y-222085D01*
X187406Y-222948D01*
X188270Y-223611D01*
X189275Y-224027D01*
X190354Y-224169D01*
X191434Y-224027D01*
X192439Y-223611D01*
X193303Y-222948D01*
X193965Y-222085D01*
X194382Y-221079D01*
X194524Y-220000D01*
X194382Y-218921D01*
X193965Y-217915D01*
X193303Y-217052D01*
X192439Y-216389D01*
X191434Y-215973D01*
X190354Y-215830D01*
D02*
G37*
G36*
X156010Y-224100D02*
X155931Y-224105D01*
X155906Y-224102D01*
X155880Y-224105D01*
X155801Y-224100D01*
X155030Y-224201D01*
X154955Y-224227D01*
X154929Y-224230D01*
X154905Y-224240D01*
X154827Y-224255D01*
X154109Y-224553D01*
X154043Y-224597D01*
X154019Y-224607D01*
X153999Y-224623D01*
X153928Y-224658D01*
X153311Y-225131D01*
X153259Y-225191D01*
X153238Y-225206D01*
X153222Y-225227D01*
X153163Y-225279D01*
X152689Y-225896D01*
X152655Y-225967D01*
X152639Y-225988D01*
X152629Y-226012D01*
X152585Y-226078D01*
X152287Y-226796D01*
X152272Y-226874D01*
X152262Y-226898D01*
X152258Y-226923D01*
X152233Y-226998D01*
X152131Y-227769D01*
X152135Y-227822D01*
X152125Y-227874D01*
X152135Y-227926D01*
X152131Y-227979D01*
X152233Y-228750D01*
X152258Y-228824D01*
X152262Y-228850D01*
X152272Y-228874D01*
X152287Y-228952D01*
X152585Y-229670D01*
X152629Y-229736D01*
X152639Y-229760D01*
X152655Y-229781D01*
X152690Y-229852D01*
X153163Y-230469D01*
X153222Y-230521D01*
X153238Y-230541D01*
X153259Y-230557D01*
X153311Y-230617D01*
X153928Y-231090D01*
X153999Y-231125D01*
X154019Y-231141D01*
X154043Y-231151D01*
X154109Y-231195D01*
X154827Y-231492D01*
X154905Y-231508D01*
X154929Y-231518D01*
X154955Y-231521D01*
X155030Y-231547D01*
X155801Y-231648D01*
X155880Y-231643D01*
X155906Y-231646D01*
X155931Y-231643D01*
X156010Y-231648D01*
X156781Y-231547D01*
X156856Y-231521D01*
X156882Y-231518D01*
X156906Y-231508D01*
X156984Y-231492D01*
X157702Y-231195D01*
X157768Y-231151D01*
X157792Y-231141D01*
X157812Y-231125D01*
X157883Y-231090D01*
X158500Y-230617D01*
X158553Y-230557D01*
X158573Y-230541D01*
X158589Y-230521D01*
X158649Y-230469D01*
X159122Y-229852D01*
X159157Y-229781D01*
X159173Y-229760D01*
X159183Y-229736D01*
X159227Y-229670D01*
X159524Y-228952D01*
X159539Y-228874D01*
X159549Y-228850D01*
X159553Y-228824D01*
X159578Y-228750D01*
X159680Y-227979D01*
X159676Y-227926D01*
X159687Y-227874D01*
X159676Y-227822D01*
X159680Y-227769D01*
X159578Y-226998D01*
X159553Y-226923D01*
X159549Y-226898D01*
X159539Y-226873D01*
X159524Y-226796D01*
X159227Y-226078D01*
X159183Y-226012D01*
X159173Y-225988D01*
X159157Y-225967D01*
X159122Y-225896D01*
X158649Y-225279D01*
X158589Y-225227D01*
X158573Y-225206D01*
X158552Y-225191D01*
X158500Y-225131D01*
X157883Y-224658D01*
X157812Y-224623D01*
X157792Y-224607D01*
X157768Y-224597D01*
X157702Y-224553D01*
X156984Y-224255D01*
X156906Y-224240D01*
X156882Y-224230D01*
X156856Y-224227D01*
X156781Y-224201D01*
X156010Y-224100D01*
D02*
G37*
G36*
X217516Y-170195D02*
X217003Y-170407D01*
X216383Y-170883D01*
X215907Y-171503D01*
X215695Y-172016D01*
X217516D01*
Y-170195D01*
D02*
G37*
G36*
X219484D02*
Y-172016D01*
X221305D01*
X221093Y-171503D01*
X220617Y-170883D01*
X219997Y-170407D01*
X219484Y-170195D01*
D02*
G37*
G36*
X158016Y-172256D02*
X157032D01*
X156641Y-172334D01*
X156310Y-172555D01*
X156089Y-172885D01*
X156012Y-173276D01*
Y-173866D01*
X158016D01*
Y-172256D01*
D02*
G37*
G36*
X184516Y-171984D02*
X183535D01*
X183928Y-172573D01*
X184516Y-172966D01*
Y-171984D01*
D02*
G37*
G36*
X187466D02*
X186484D01*
Y-172966D01*
X187073Y-172573D01*
X187466Y-171984D01*
D02*
G37*
G36*
X157516Y-162484D02*
X156535D01*
X156928Y-163073D01*
X157516Y-163465D01*
Y-162484D01*
D02*
G37*
G36*
X220516Y-117484D02*
X219534D01*
X219928Y-118072D01*
X220516Y-118465D01*
Y-117484D01*
D02*
G37*
G36*
Y-114534D02*
X219928Y-114927D01*
X219534Y-115516D01*
X220516D01*
Y-114534D01*
D02*
G37*
G36*
X222484D02*
Y-115516D01*
X223465D01*
X223073Y-114927D01*
X222484Y-114534D01*
D02*
G37*
G36*
X223465Y-117484D02*
X222484D01*
Y-118465D01*
X223073Y-118072D01*
X223465Y-117484D01*
D02*
G37*
G36*
X183516Y-123695D02*
X183003Y-123907D01*
X182383Y-124383D01*
X181907Y-125003D01*
X181695Y-125516D01*
X183516D01*
Y-123695D01*
D02*
G37*
G36*
X171984Y-128695D02*
Y-130516D01*
X173805D01*
X173593Y-130003D01*
X173117Y-129383D01*
X172497Y-128907D01*
X171984Y-128695D01*
D02*
G37*
G36*
X183516Y-127484D02*
X181695D01*
X181907Y-127997D01*
X182383Y-128617D01*
X183003Y-129093D01*
X183516Y-129305D01*
Y-127484D01*
D02*
G37*
G36*
X187305D02*
X185484D01*
Y-129305D01*
X185997Y-129093D01*
X186617Y-128617D01*
X187093Y-127997D01*
X187305Y-127484D01*
D02*
G37*
G36*
X185484Y-123695D02*
Y-125516D01*
X187305D01*
X187093Y-125003D01*
X186617Y-124383D01*
X185997Y-123907D01*
X185484Y-123695D01*
D02*
G37*
G36*
X188484Y-137534D02*
Y-138516D01*
X189465D01*
X189073Y-137927D01*
X188484Y-137534D01*
D02*
G37*
G36*
X170484Y-137034D02*
Y-138016D01*
X171466D01*
X171072Y-137427D01*
X170484Y-137034D01*
D02*
G37*
G36*
X170016Y-132484D02*
X168195D01*
X168407Y-132997D01*
X168883Y-133617D01*
X169503Y-134093D01*
X170016Y-134305D01*
Y-132484D01*
D02*
G37*
G36*
X168516Y-137034D02*
X167928Y-137427D01*
X167537Y-138012D01*
X167134D01*
Y-141000D01*
Y-143988D01*
X167724D01*
X168115Y-143911D01*
X168445Y-143690D01*
X168666Y-143359D01*
X168744Y-142968D01*
Y-141467D01*
X169131Y-141150D01*
X169500Y-141224D01*
X170351Y-141054D01*
X171072Y-140573D01*
X171466Y-139984D01*
X169500D01*
Y-139000D01*
X168516D01*
Y-137034D01*
D02*
G37*
G36*
X186516Y-137534D02*
X185927Y-137927D01*
X185535Y-138516D01*
X186516D01*
Y-137534D01*
D02*
G37*
G36*
X170016Y-128695D02*
X169503Y-128907D01*
X168883Y-129383D01*
X168407Y-130003D01*
X168195Y-130516D01*
X170016D01*
Y-128695D01*
D02*
G37*
G36*
X173805Y-132484D02*
X171984D01*
Y-134305D01*
X172497Y-134093D01*
X173117Y-133617D01*
X173593Y-132997D01*
X173805Y-132484D01*
D02*
G37*
G36*
X193016Y-118012D02*
X192425D01*
X192035Y-118089D01*
X191704Y-118310D01*
X191483Y-118641D01*
X191406Y-119032D01*
Y-120016D01*
X193016D01*
Y-118012D01*
D02*
G37*
G36*
X195575D02*
X194984D01*
Y-120016D01*
X196594D01*
Y-119032D01*
X196517Y-118641D01*
X196296Y-118310D01*
X195965Y-118089D01*
X195575Y-118012D01*
D02*
G37*
G36*
X178016Y-147555D02*
X177032D01*
X176641Y-147633D01*
X176311Y-147854D01*
X176090Y-148185D01*
X176012Y-148575D01*
Y-149165D01*
X178016D01*
Y-147555D01*
D02*
G37*
G36*
X15394Y-119647D02*
Y-124516D01*
X20262D01*
X20245Y-124339D01*
X19906Y-123223D01*
X19357Y-122194D01*
X18617Y-121293D01*
X17715Y-120553D01*
X16686Y-120003D01*
X15570Y-119664D01*
X15394Y-119647D01*
D02*
G37*
G36*
X13425D02*
X13249Y-119664D01*
X12133Y-120003D01*
X11104Y-120553D01*
X10202Y-121293D01*
X9462Y-122194D01*
X8912Y-123223D01*
X8574Y-124339D01*
X8557Y-124516D01*
X13425D01*
Y-119647D01*
D02*
G37*
G36*
Y-126484D02*
X8557D01*
X8574Y-126661D01*
X8912Y-127777D01*
X9462Y-128806D01*
X10202Y-129707D01*
X11104Y-130447D01*
X12133Y-130997D01*
X13249Y-131336D01*
X13425Y-131353D01*
Y-126484D01*
D02*
G37*
G36*
X20262D02*
X15394D01*
Y-131353D01*
X15570Y-131336D01*
X16686Y-130997D01*
X17715Y-130447D01*
X18617Y-129707D01*
X19357Y-128806D01*
X19906Y-127777D01*
X20245Y-126661D01*
X20262Y-126484D01*
D02*
G37*
G36*
X14410Y-99742D02*
X12919Y-99938D01*
X11530Y-100514D01*
X10338Y-101428D01*
X9423Y-102621D01*
X8848Y-104010D01*
X8652Y-105500D01*
X8848Y-106990D01*
X9423Y-108379D01*
X10338Y-109572D01*
X11530Y-110486D01*
X12919Y-111062D01*
X14410Y-111258D01*
X15900Y-111062D01*
X17288Y-110486D01*
X18481Y-109572D01*
X19396Y-108379D01*
X19971Y-106990D01*
X20167Y-105500D01*
X19971Y-104010D01*
X19396Y-102621D01*
X18481Y-101428D01*
X17288Y-100514D01*
X15900Y-99938D01*
X14410Y-99742D01*
D02*
G37*
G36*
Y-179742D02*
X12919Y-179938D01*
X11530Y-180514D01*
X10338Y-181429D01*
X9423Y-182621D01*
X8848Y-184010D01*
X8652Y-185500D01*
X8848Y-186990D01*
X9423Y-188379D01*
X10338Y-189571D01*
X11530Y-190487D01*
X12919Y-191062D01*
X14410Y-191258D01*
X15900Y-191062D01*
X17288Y-190487D01*
X18481Y-189571D01*
X19396Y-188379D01*
X19971Y-186990D01*
X20167Y-185500D01*
X19971Y-184010D01*
X19396Y-182621D01*
X18481Y-181429D01*
X17288Y-180514D01*
X15900Y-179938D01*
X14410Y-179742D01*
D02*
G37*
G36*
Y-139742D02*
X12919Y-139938D01*
X11530Y-140514D01*
X10338Y-141428D01*
X9423Y-142621D01*
X8848Y-144010D01*
X8652Y-145500D01*
X8848Y-146990D01*
X9423Y-148379D01*
X10338Y-149572D01*
X11530Y-150487D01*
X12919Y-151062D01*
X14410Y-151258D01*
X15900Y-151062D01*
X17288Y-150487D01*
X18481Y-149572D01*
X19396Y-148379D01*
X19971Y-146990D01*
X20167Y-145500D01*
X19971Y-144010D01*
X19396Y-142621D01*
X18481Y-141428D01*
X17288Y-140514D01*
X15900Y-139938D01*
X14410Y-139742D01*
D02*
G37*
G36*
X13425Y-166484D02*
X8557D01*
X8574Y-166661D01*
X8912Y-167777D01*
X9462Y-168806D01*
X10202Y-169707D01*
X11104Y-170447D01*
X12133Y-170997D01*
X13249Y-171336D01*
X13425Y-171353D01*
Y-166484D01*
D02*
G37*
G36*
X20262D02*
X15394D01*
Y-171353D01*
X15570Y-171336D01*
X16686Y-170997D01*
X17715Y-170447D01*
X18617Y-169707D01*
X19357Y-168806D01*
X19906Y-167777D01*
X20245Y-166661D01*
X20262Y-166484D01*
D02*
G37*
G36*
X13425Y-159647D02*
X13249Y-159664D01*
X12133Y-160003D01*
X11104Y-160553D01*
X10202Y-161293D01*
X9462Y-162194D01*
X8912Y-163223D01*
X8574Y-164339D01*
X8557Y-164516D01*
X13425D01*
Y-159647D01*
D02*
G37*
G36*
X15394D02*
Y-164516D01*
X20262D01*
X20245Y-164339D01*
X19906Y-163223D01*
X19357Y-162194D01*
X18617Y-161293D01*
X17715Y-160553D01*
X16686Y-160003D01*
X15570Y-159664D01*
X15394Y-159647D01*
D02*
G37*
G36*
X15748Y-939D02*
X13431Y-1121D01*
X11172Y-1663D01*
X9025Y-2553D01*
X7043Y-3767D01*
X5276Y-5276D01*
X3767Y-7043D01*
X2553Y-9025D01*
X1663Y-11172D01*
X1121Y-13431D01*
X939Y-15748D01*
X1121Y-18065D01*
X1663Y-20324D01*
X2553Y-22471D01*
X3767Y-24453D01*
X5276Y-26220D01*
X7043Y-27729D01*
X9025Y-28943D01*
X11172Y-29833D01*
X13431Y-30375D01*
X15748Y-30557D01*
X18065Y-30375D01*
X20324Y-29833D01*
X22471Y-28943D01*
X24453Y-27729D01*
X26220Y-26220D01*
X27729Y-24453D01*
X28943Y-22471D01*
X29833Y-20324D01*
X30375Y-18065D01*
X30557Y-15748D01*
X30375Y-13431D01*
X29833Y-11172D01*
X28943Y-9025D01*
X27729Y-7043D01*
X26220Y-5276D01*
X24453Y-3767D01*
X22471Y-2553D01*
X20324Y-1663D01*
X18065Y-1121D01*
X15748Y-939D01*
D02*
G37*
G36*
X44725Y-20669D02*
X38867D01*
X38903Y-21039D01*
X39298Y-22341D01*
X39939Y-23540D01*
X40802Y-24592D01*
X41854Y-25455D01*
X43053Y-26096D01*
X44355Y-26491D01*
X44725Y-26527D01*
Y-20669D01*
D02*
G37*
G36*
X52551D02*
X46693D01*
Y-26527D01*
X47062Y-26491D01*
X48364Y-26096D01*
X49564Y-25455D01*
X50615Y-24592D01*
X51478Y-23540D01*
X52119Y-22341D01*
X52514Y-21039D01*
X52551Y-20669D01*
D02*
G37*
G36*
X44725Y-12843D02*
X44355Y-12879D01*
X43053Y-13274D01*
X41854Y-13916D01*
X40802Y-14778D01*
X39939Y-15830D01*
X39298Y-17030D01*
X38903Y-18331D01*
X38867Y-18701D01*
X44725D01*
Y-12843D01*
D02*
G37*
G36*
X15394Y-79647D02*
Y-84516D01*
X20262D01*
X20245Y-84339D01*
X19906Y-83223D01*
X19357Y-82194D01*
X18617Y-81293D01*
X17715Y-80553D01*
X16686Y-80003D01*
X15570Y-79664D01*
X15394Y-79647D01*
D02*
G37*
G36*
X13425Y-86484D02*
X8557D01*
X8574Y-86661D01*
X8912Y-87777D01*
X9462Y-88806D01*
X10202Y-89707D01*
X11104Y-90447D01*
X12133Y-90997D01*
X13249Y-91336D01*
X13425Y-91353D01*
Y-86484D01*
D02*
G37*
G36*
X20262D02*
X15394D01*
Y-91353D01*
X15570Y-91336D01*
X16686Y-90997D01*
X17715Y-90447D01*
X18617Y-89707D01*
X19357Y-88806D01*
X19906Y-87777D01*
X20245Y-86661D01*
X20262Y-86484D01*
D02*
G37*
G36*
X13425Y-79647D02*
X13249Y-79664D01*
X12133Y-80003D01*
X11104Y-80553D01*
X10202Y-81293D01*
X9462Y-82194D01*
X8912Y-83223D01*
X8574Y-84339D01*
X8557Y-84516D01*
X13425D01*
Y-79647D01*
D02*
G37*
G36*
Y-46484D02*
X8458D01*
Y-47961D01*
X8577Y-48864D01*
X8926Y-49706D01*
X9481Y-50429D01*
X10204Y-50984D01*
X11045Y-51332D01*
X11949Y-51451D01*
X13425D01*
Y-46484D01*
D02*
G37*
G36*
X20361D02*
X15394D01*
Y-51451D01*
X16870D01*
X17774Y-51332D01*
X18615Y-50984D01*
X19338Y-50429D01*
X19893Y-49706D01*
X20242Y-48864D01*
X20361Y-47961D01*
Y-46484D01*
D02*
G37*
G36*
X16870Y-39549D02*
X15394D01*
Y-44516D01*
X20361D01*
Y-43039D01*
X20242Y-42136D01*
X19893Y-41294D01*
X19338Y-40571D01*
X18615Y-40016D01*
X17774Y-39668D01*
X16870Y-39549D01*
D02*
G37*
G36*
X13425D02*
X11949D01*
X11045Y-39668D01*
X10204Y-40016D01*
X9481Y-40571D01*
X8926Y-41294D01*
X8577Y-42136D01*
X8458Y-43039D01*
Y-44516D01*
X13425D01*
Y-39549D01*
D02*
G37*
G36*
X14410Y-59742D02*
X12919Y-59938D01*
X11530Y-60514D01*
X10338Y-61428D01*
X9423Y-62621D01*
X8848Y-64010D01*
X8652Y-65500D01*
X8848Y-66990D01*
X9423Y-68379D01*
X10338Y-69572D01*
X11530Y-70486D01*
X12919Y-71062D01*
X14410Y-71258D01*
X15900Y-71062D01*
X17288Y-70486D01*
X18481Y-69572D01*
X19396Y-68379D01*
X19971Y-66990D01*
X20167Y-65500D01*
X19971Y-64010D01*
X19396Y-62621D01*
X18481Y-61428D01*
X17288Y-60514D01*
X15900Y-59938D01*
X14410Y-59742D01*
D02*
G37*
%LPD*%
D13*
X67850Y-8000D02*
D03*
X74150D02*
D03*
X236850Y-55000D02*
D03*
X243150D02*
D03*
X236701Y-61000D02*
D03*
X243000D02*
D03*
X200299Y-121000D02*
D03*
X194000D02*
D03*
X200150Y-139000D02*
D03*
X193850D02*
D03*
X159850Y-141000D02*
D03*
X166150D02*
D03*
X200150Y-133000D02*
D03*
X193850D02*
D03*
X236850Y-67000D02*
D03*
X243150D02*
D03*
X243150Y-49000D02*
D03*
X236850D02*
D03*
X182850Y-62000D02*
D03*
X189150D02*
D03*
X182850Y-56000D02*
D03*
X189150D02*
D03*
X171150Y-62000D02*
D03*
X164850D02*
D03*
X171150Y-56000D02*
D03*
X164850D02*
D03*
X200299Y-127000D02*
D03*
X194000D02*
D03*
D14*
X220000Y-11150D02*
D03*
Y-4850D02*
D03*
X238000Y-11150D02*
D03*
Y-4850D02*
D03*
X62000Y-27150D02*
D03*
Y-20850D02*
D03*
Y-16150D02*
D03*
Y-9850D02*
D03*
X214000Y-11150D02*
D03*
Y-4850D02*
D03*
X244000Y-11150D02*
D03*
Y-4850D02*
D03*
X208000Y-11150D02*
D03*
Y-4850D02*
D03*
X256000Y-11150D02*
D03*
Y-4850D02*
D03*
X179000Y-150150D02*
D03*
Y-143850D02*
D03*
X180000Y-108850D02*
D03*
Y-115150D02*
D03*
X185000Y-143850D02*
D03*
Y-150150D02*
D03*
X159000Y-62000D02*
D03*
Y-55701D02*
D03*
X191000Y-150150D02*
D03*
Y-143850D02*
D03*
X250000Y-4850D02*
D03*
Y-11150D02*
D03*
X226000Y-4850D02*
D03*
Y-11150D02*
D03*
X159000Y-181150D02*
D03*
Y-174850D02*
D03*
X174000Y-115150D02*
D03*
Y-108850D02*
D03*
D15*
X152512Y-54000D02*
D03*
X141488D02*
D03*
Y-63000D02*
D03*
X152512D02*
D03*
D31*
X251000Y-56512D02*
D03*
Y-45488D02*
D03*
Y-63488D02*
D03*
Y-74512D02*
D03*
D40*
X65350Y-5500D02*
X67850Y-8000D01*
X62500Y-5500D02*
X65350D01*
X161500Y-68500D02*
X170000D01*
X159000Y-80500D02*
Y-62000D01*
X170000Y-68500D02*
X178000Y-76500D01*
X204025Y-157818D02*
X204500Y-158293D01*
Y-161000D02*
Y-158293D01*
X183878Y-150150D02*
X185000D01*
X179025Y-156682D02*
X181707Y-154000D01*
X177838Y-156190D02*
X183878Y-150150D01*
X177838Y-157162D02*
Y-156190D01*
X176000Y-159000D02*
X177838Y-157162D01*
X179025Y-157654D02*
Y-156682D01*
X176492Y-160187D02*
X179025Y-157654D01*
X185000Y-143850D02*
X185000Y-143850D01*
X156500Y-184000D02*
X158160Y-182340D01*
X111500Y-185000D02*
X113000Y-186500D01*
X111500Y-185000D02*
Y-177000D01*
X116500Y-172000D01*
X125000D01*
X127500Y-169500D01*
X119000Y-193000D02*
X121000Y-195000D01*
X147000Y-185000D02*
X151000D01*
X221500Y-118000D02*
Y-116500D01*
X203000Y-136500D02*
X221500Y-118000D01*
X197000Y-138000D02*
Y-130000D01*
Y-138000D02*
X198000Y-139000D01*
X203000Y-141500D02*
Y-136500D01*
X127000Y-164500D02*
Y-144000D01*
X168500Y-111500D02*
X172150Y-115150D01*
X174000D01*
X100000Y-117500D02*
X124500D01*
X131000Y-124000D01*
X140500D01*
X191000Y-56000D02*
X193000Y-58000D01*
X189150Y-56000D02*
X191000D01*
X148000Y-61000D02*
Y-45000D01*
Y-61000D02*
X150000Y-63000D01*
X152512D01*
X250661Y-74512D02*
X251000D01*
X255000Y-52000D02*
X256500Y-53500D01*
X246150Y-52000D02*
X255000D01*
X243150Y-55000D02*
X246150Y-52000D01*
X204724Y-39724D02*
X209000Y-44000D01*
X136000Y-90500D02*
X149000D01*
X127000Y-92000D02*
Y-91000D01*
X132000Y-86000D01*
X127475Y-92475D02*
X155525D01*
X127000Y-92000D02*
X127475Y-92475D01*
X152512Y-63000D02*
X153512Y-62000D01*
X159000D01*
X164850D01*
X136000Y-140000D02*
X139500Y-143500D01*
X129000Y-140000D02*
X136000D01*
X125000Y-136000D02*
X129000Y-140000D01*
X132000Y-86000D02*
Y-74850D01*
X251000Y-45488D02*
X251512Y-46000D01*
X257000D01*
X285000Y-4000D02*
X286000D01*
X284000D02*
X285000D01*
X286000D02*
X294000D01*
X283805Y-4194D02*
X284000Y-4000D01*
X239150Y-45000D02*
X243150Y-49000D01*
X203000Y-17961D02*
X204724Y-19685D01*
X203000Y-17961D02*
Y-10000D01*
X205000Y-8000D01*
X213000D01*
X214000Y-7000D01*
Y-4850D01*
X193000Y-19000D02*
X193685Y-19685D01*
X193000Y-19000D02*
Y-17437D01*
X256000Y-4850D02*
X256713Y-5563D01*
X224410Y-19685D02*
X226000Y-18094D01*
Y-11150D01*
X244000Y-19590D02*
X244094Y-19685D01*
X244000Y-19590D02*
Y-11150D01*
X238000Y-7000D02*
Y-4850D01*
X237000Y-8000D02*
X238000Y-7000D01*
X221000Y-8000D02*
X237000D01*
X220000Y-7000D02*
X221000Y-8000D01*
X220000Y-7000D02*
Y-4850D01*
X263779Y-19685D02*
Y-9780D01*
X262000Y-8000D02*
X263779Y-9780D01*
X251000Y-8000D02*
X262000D01*
X250000Y-7000D02*
X251000Y-8000D01*
X250000Y-7000D02*
Y-4850D01*
X214000Y-4850D02*
X214000Y-4850D01*
X220000D01*
X238000Y-4850D02*
X244000D01*
X238000Y-11150D02*
X244000D01*
X238000Y-11150D02*
X238000Y-11150D01*
X250000Y-4850D02*
Y-2000D01*
X226000Y-4850D02*
X229150D01*
X207713Y-4563D02*
X208000Y-4850D01*
X193000Y-4563D02*
X207713D01*
X208000Y-11150D02*
X214000D01*
X226000D02*
X226000Y-11150D01*
X235850Y-68000D02*
X236850Y-67000D01*
X231000Y-68000D02*
X235850D01*
X230000Y-67000D02*
X231000Y-68000D01*
X230000Y-67000D02*
Y-59000D01*
X240000Y-58000D02*
X243000Y-61000D01*
X236850Y-55000D02*
Y-49000D01*
X233000Y-61000D02*
X236701D01*
X251000Y-63762D02*
Y-63488D01*
Y-56512D01*
X88150Y-27150D02*
X92000Y-31000D01*
X55543Y-9850D02*
X62000D01*
X45709Y-19685D02*
X55543Y-9850D01*
X67850Y-13413D02*
Y-8000D01*
Y-13413D02*
X69000Y-14563D01*
X62000Y-16150D02*
X63587Y-14563D01*
X69000D01*
X62000Y-20850D02*
Y-16150D01*
X69000Y-27437D02*
X69287Y-27150D01*
X88150D01*
X141488Y-63000D02*
Y-54000D01*
X152512D02*
X154213Y-55701D01*
X159000D01*
X164551D01*
X164850Y-56000D01*
X166000D01*
X181000D02*
X182850D01*
X181000Y-62000D02*
X182850D01*
X189150D02*
X193000D01*
X202650Y-81150D02*
X212000Y-90500D01*
Y-93000D02*
Y-90500D01*
X204500Y-127000D02*
X205500Y-126000D01*
X200299Y-127000D02*
X204500D01*
X194299D02*
X200299Y-121000D01*
X194000Y-127000D02*
X194299D01*
X194000D02*
X197000Y-130000D01*
X198000Y-139000D02*
X200150D01*
Y-133000D02*
Y-127150D01*
X200299Y-127000D01*
X192000Y-121000D02*
X194000D01*
X190500Y-122500D02*
X192000Y-121000D01*
X190500Y-132000D02*
X191500Y-133000D01*
X193850D01*
X190500Y-138000D02*
X191500Y-139000D01*
X193850D01*
X190500Y-138000D02*
Y-132000D01*
Y-122500D01*
X191000Y-143850D02*
X193850Y-141000D01*
Y-139000D01*
X179000Y-143850D02*
X185000D01*
X185000Y-150150D02*
X191000D01*
X191000Y-150150D01*
X179000Y-150150D02*
Y-147500D01*
X179500Y-147000D01*
X189500D01*
X191000Y-145500D01*
Y-143850D01*
Y-143000D01*
X187500Y-139500D02*
X191000Y-143000D01*
X166150Y-141000D02*
X167500D01*
X180000Y-108850D02*
X180000Y-108850D01*
Y-115150D02*
X198150D01*
X200299Y-117299D01*
Y-121000D02*
Y-117299D01*
X174500Y-108850D02*
X180000D01*
X105587Y-145913D02*
X106500Y-145000D01*
X112500D01*
X109000Y-169000D02*
X120500D01*
X100000Y-160000D02*
X109000Y-169000D01*
X112000Y-154000D02*
Y-149500D01*
X115000Y-146500D01*
Y-132500D01*
X117500Y-130000D01*
X128000D01*
X131500Y-126500D01*
X112000Y-157364D02*
Y-154000D01*
Y-157364D02*
X114841Y-160205D01*
Y-160341D02*
Y-160205D01*
Y-160341D02*
X121000Y-166500D01*
X122500D01*
X125500Y-169500D01*
X127500D01*
X117000Y-178500D02*
X127000D01*
X114500Y-181000D02*
X117000Y-178500D01*
X140000Y-178000D02*
X147000Y-185000D01*
X140000Y-178000D02*
Y-172000D01*
X137500Y-169500D02*
X140000Y-172000D01*
X141500Y-166500D02*
X143000Y-168000D01*
X135500Y-166500D02*
X141500D01*
X132000Y-170000D02*
X135500Y-166500D01*
X80343Y-220158D02*
X85185Y-225000D01*
X115000D02*
X120000Y-220000D01*
X46000Y-216158D02*
X50000Y-220158D01*
X85343Y-229842D02*
X90000D01*
X46343Y-220158D02*
X50000D01*
X41500Y-225000D02*
X46343Y-220158D01*
X36000Y-225000D02*
X41500D01*
X33500Y-227500D02*
X36000Y-225000D01*
X118500Y-205500D02*
Y-199000D01*
X115000Y-216500D02*
Y-214000D01*
X121000Y-208000D01*
Y-195000D01*
X110000Y-214000D02*
X118500Y-205500D01*
X61500Y-278500D02*
X64500Y-275500D01*
Y-259201D01*
X70464Y-253236D01*
Y-270953D02*
X75417Y-266000D01*
X104012D02*
X108965Y-270953D01*
X68760Y-285595D02*
Y-272657D01*
X70464Y-270953D01*
X38000Y-251500D02*
Y-236500D01*
X31965Y-270953D02*
X38047D01*
X38000Y-251500D02*
X47475Y-260975D01*
X38047Y-270953D02*
X45000Y-264000D01*
Y-262000D01*
X34000Y-289500D02*
X47475Y-276025D01*
Y-260975D01*
X87000Y-263000D02*
Y-253500D01*
X33500Y-232000D02*
Y-227500D01*
X75417Y-266000D02*
X104012D01*
X88187Y-258187D02*
X89500Y-259500D01*
X88187Y-258187D02*
Y-253008D01*
X90000Y-229842D02*
X94657Y-234500D01*
X123500D01*
X125500Y-232500D01*
Y-217000D01*
X123000Y-214500D02*
X125500Y-217000D01*
X123000Y-214500D02*
Y-192500D01*
X120000Y-189500D02*
X123000Y-192500D01*
X113500Y-189500D02*
X120000D01*
X113000Y-189000D02*
X113500Y-189500D01*
X113000Y-189000D02*
Y-186500D01*
X132000D02*
Y-170000D01*
X190354Y-209606D02*
Y-198854D01*
X180354Y-214606D02*
Y-213751D01*
X185500Y-208606D01*
Y-198500D01*
X81500Y-248000D02*
X87000Y-253500D01*
X81992Y-246813D02*
X88187Y-253008D01*
X126500Y-165000D02*
X127000Y-164500D01*
X115500Y-95500D02*
X134465D01*
X139733Y-100767D01*
X180000Y-118500D02*
Y-115150D01*
X171650Y-150150D02*
X179000D01*
X239500Y-128500D02*
Y-103500D01*
X236500Y-93500D02*
X243500Y-100500D01*
X220000Y-93500D02*
X236500D01*
X165000Y-167500D02*
X198000D01*
X204500Y-161000D01*
X149000Y-90500D02*
X158000Y-81500D01*
X159000Y-80500D01*
X166000Y-56000D02*
X168000Y-58000D01*
Y-66000D02*
Y-58000D01*
X178000Y-59000D02*
X181000Y-56000D01*
X171150Y-62000D02*
X176000D01*
X171150Y-56000D02*
X176000D01*
X178000Y-65000D02*
X181000Y-62000D01*
X185500Y-67500D02*
X187500Y-65500D01*
X195000D01*
X196500Y-64000D01*
Y-55000D01*
X192500Y-51000D02*
X196500Y-55000D01*
X166500Y-81500D02*
Y-78000D01*
X155525Y-92475D02*
X166500Y-81500D01*
X74150Y-22287D02*
Y-8000D01*
X69287Y-27150D02*
X74150Y-22287D01*
X153500Y-191000D02*
Y-166500D01*
X140000Y-204500D02*
X153500Y-191000D01*
X140000Y-205000D02*
Y-204500D01*
X159850Y-142650D02*
Y-141000D01*
X159000Y-174850D02*
Y-162000D01*
X164508Y-168687D02*
X183187D01*
X185500Y-171000D01*
X159000Y-162000D02*
X161525Y-164525D01*
X205000Y-138500D02*
Y-138350D01*
X203000Y-141500D02*
X204025Y-142525D01*
X174813Y-160187D02*
X176492D01*
X173500Y-161500D02*
X174813Y-160187D01*
X173000Y-157500D02*
X174500Y-156000D01*
X194500Y-144650D02*
X200150Y-139000D01*
X194500Y-146650D02*
Y-144650D01*
X191000Y-150150D02*
X194500Y-146650D01*
X191000Y-150150D02*
X193650D01*
X194500Y-151000D01*
X132024Y-120476D02*
X140000Y-112500D01*
X153500D01*
Y-117000D02*
X154000D01*
X172500Y-164000D02*
X176500D01*
X179000Y-161500D02*
X182000D01*
X176500Y-164000D02*
X179000Y-161500D01*
X163000Y-176000D02*
X185500Y-198500D01*
X163000Y-171500D02*
X190354Y-198854D01*
X160000Y-185000D02*
X168500D01*
X170500Y-187000D01*
X179500Y-143350D02*
Y-140000D01*
X179000Y-143850D02*
X179500Y-143350D01*
X167500Y-141000D02*
X169500Y-139000D01*
X163000Y-171500D02*
Y-170000D01*
X161525Y-166818D02*
Y-164525D01*
Y-166818D02*
X162682Y-167975D01*
X163796D01*
X164508Y-168687D01*
X163500Y-166000D02*
X165000Y-167500D01*
X171330Y-157500D02*
X173000D01*
X149000Y-121500D02*
X153500Y-117000D01*
X150187Y-125313D02*
X155000Y-120500D01*
Y-120000D01*
X154713Y-127787D02*
X154925Y-128000D01*
X159500Y-123000D02*
Y-117000D01*
X160000Y-116500D01*
X170000Y-161500D02*
Y-160859D01*
Y-161500D02*
X172500Y-164000D01*
X130662Y-183338D02*
Y-169659D01*
X128500Y-185500D02*
X130662Y-183338D01*
X129475Y-170318D02*
Y-168525D01*
X129313Y-170480D02*
X129475Y-170318D01*
X129313Y-179187D02*
Y-170480D01*
X126000Y-182500D02*
X129313Y-179187D01*
X126000Y-185793D02*
Y-182500D01*
Y-185793D02*
X127682Y-187475D01*
X127975D01*
X129500Y-189000D01*
X135500D01*
X147682Y-156318D02*
X149500Y-154500D01*
X139910Y-160410D02*
X141090D01*
X130662Y-169659D02*
X139910Y-160410D01*
X169821Y-159000D02*
X176000D01*
X170500Y-154500D02*
X171000Y-154000D01*
X171500D01*
X169350Y-158529D02*
Y-157198D01*
Y-158529D02*
X169821Y-159000D01*
X166975Y-161975D02*
Y-158182D01*
X168162Y-159021D02*
Y-157690D01*
Y-159021D02*
X170000Y-160859D01*
X165818Y-157025D02*
X166975Y-158182D01*
X166802Y-154650D02*
X169350Y-157198D01*
X166975Y-161975D02*
X167500Y-162500D01*
X166310Y-155838D02*
X168162Y-157690D01*
X167294Y-153463D02*
X171330Y-157500D01*
X153500Y-166500D02*
X158500Y-161500D01*
X159000Y-162000D01*
X158500Y-159000D02*
X165000D01*
X161242Y-157258D02*
X161500Y-157000D01*
X163000Y-144195D02*
X163406Y-143789D01*
X165471Y-154650D02*
X166802D01*
X158000Y-144500D02*
X159850Y-142650D01*
X164979Y-155838D02*
X166310D01*
X163000Y-147000D02*
Y-144195D01*
X165963Y-153463D02*
X167294D01*
X158437Y-157258D02*
X161242D01*
X164488Y-157025D02*
X165818D01*
X166150Y-144650D02*
Y-141000D01*
Y-144650D02*
X171650Y-150150D01*
X159850Y-149030D02*
Y-142650D01*
X161500Y-149000D02*
Y-144016D01*
X163000Y-147000D02*
X170500Y-154500D01*
X153525Y-146063D02*
X164488Y-157025D01*
X154713Y-145571D02*
X164979Y-155838D01*
X159850Y-149030D02*
X165471Y-154650D01*
X161500Y-149000D02*
X165963Y-153463D01*
X150187Y-149008D02*
X158437Y-157258D01*
X149000Y-149500D02*
X158500Y-159000D01*
X156350Y-159350D02*
X158500Y-161500D01*
X153318Y-159475D02*
X153442Y-159350D01*
X156350D01*
X145975Y-159475D02*
X153318D01*
X140500Y-140500D02*
Y-124000D01*
X151375Y-147375D02*
Y-127125D01*
Y-147375D02*
X157000Y-153000D01*
X150187Y-149008D02*
Y-125313D01*
X149000Y-149500D02*
Y-121500D01*
X147500Y-149679D02*
X152500Y-154679D01*
Y-157500D02*
Y-154679D01*
X160528Y-110028D02*
X163406Y-112906D01*
X160036Y-111215D02*
X162219Y-113398D01*
X174500Y-107500D02*
X176000Y-106000D01*
Y-104500D01*
X151375Y-127125D02*
X155000Y-123500D01*
X156475Y-126025D02*
X159500Y-123000D01*
X154154Y-126025D02*
X156475D01*
X153525Y-126654D02*
X154154Y-126025D01*
X153525Y-146063D02*
Y-126654D01*
X154925Y-128000D02*
X155500D01*
X134000Y-155500D02*
Y-147500D01*
X141090Y-160410D02*
X145182Y-156318D01*
X147682D01*
X145850Y-159350D02*
X145975Y-159475D01*
X129475Y-168525D02*
X142500Y-155500D01*
X137500Y-156500D02*
Y-148500D01*
X144350Y-145650D02*
Y-144350D01*
X140500Y-140500D02*
X144350Y-144350D01*
X177000Y-118000D02*
Y-113000D01*
Y-121500D02*
X180000Y-118500D01*
X182500Y-120500D02*
Y-119500D01*
X176000Y-121500D02*
X177000D01*
X175475Y-119525D02*
X177000Y-118000D01*
X175182Y-119525D02*
X175475D01*
X174025Y-120682D02*
X175182Y-119525D01*
X174025Y-120975D02*
Y-120682D01*
X173000Y-122000D02*
X174025Y-120975D01*
X161500Y-144016D02*
X162219Y-143297D01*
Y-113398D01*
X163406Y-143789D02*
Y-112906D01*
X170500Y-122000D02*
X173000D01*
X164594Y-116094D02*
X170500Y-122000D01*
X164594Y-116094D02*
Y-112415D01*
X161020Y-108841D02*
X164594Y-112415D01*
X115000Y-115000D02*
X120000Y-110000D01*
X115500Y-105000D02*
X119410Y-108910D01*
X119410D01*
X119508Y-108813D01*
X146500Y-106500D02*
X147625Y-107625D01*
X140500Y-119707D02*
X145707Y-114500D01*
X140500Y-124000D02*
Y-119707D01*
X145707Y-114500D02*
X157000D01*
X147500Y-146972D02*
X147513Y-146959D01*
X147500Y-149679D02*
Y-146972D01*
Y-117000D02*
X147513Y-117013D01*
Y-146959D02*
Y-117013D01*
X144500Y-142821D02*
Y-118500D01*
Y-142821D02*
X146325Y-144646D01*
Y-146468D02*
Y-144646D01*
X144123Y-148669D02*
X146325Y-146468D01*
X141763Y-148669D02*
X144123D01*
X214000Y-109500D02*
X223000D01*
X181707Y-154000D02*
X200745D01*
X204025Y-157818D02*
Y-155757D01*
X206025Y-153757D01*
X200745Y-154000D02*
X202463Y-152282D01*
Y-150603D01*
X181000Y-157500D02*
X182500D01*
X188500Y-163500D01*
X197500D01*
X202500Y-158500D01*
Y-155603D01*
X204838Y-153266D01*
X196000Y-160424D02*
X203650Y-152774D01*
X193000Y-9500D02*
Y-4563D01*
X192500Y-10000D02*
X193000Y-9500D01*
X236701Y-61000D02*
X239463Y-63762D01*
X212500Y-96500D02*
X227500Y-81500D01*
Y-43000D01*
X206000Y-157000D02*
X207025Y-155975D01*
X208818D01*
X212594Y-152199D01*
X209032Y-147393D02*
Y-145713D01*
X210219Y-147884D02*
Y-146205D01*
X211406Y-148376D02*
Y-146697D01*
X212594Y-152199D02*
Y-147189D01*
X217850Y-125500D02*
X227000D01*
X205000Y-138350D02*
X217850Y-125500D01*
X225047Y-128019D02*
X227481D01*
X229500Y-126000D01*
Y-116000D01*
X223000Y-109500D02*
X229500Y-116000D01*
X209032Y-145713D02*
X225539Y-129206D01*
X227973D01*
X228679Y-128500D01*
X239500D01*
X210219Y-146205D02*
X226030Y-130394D01*
X228465D01*
X229171Y-129687D01*
X211406Y-146697D02*
X226522Y-131581D01*
X239992Y-129687D02*
X243500Y-126179D01*
X229171Y-129687D02*
X239992D01*
X243500Y-126179D02*
Y-100500D01*
X226522Y-131581D02*
X228957D01*
X229663Y-130875D01*
X240484D01*
X248500Y-122859D01*
X212594Y-147189D02*
X226727Y-133055D01*
X229911D01*
X230498Y-132468D01*
X240711D01*
X241312Y-131868D01*
X248132D01*
X248000Y-77173D02*
X250661Y-74512D01*
X262512D02*
X263500Y-75500D01*
X248000Y-79500D02*
Y-77173D01*
X248132Y-131868D02*
X252500Y-127500D01*
X243150Y-67000D02*
X243650Y-67500D01*
X250661Y-74512D01*
X255000Y-67500D02*
X256500Y-66000D01*
Y-53500D01*
X243650Y-67500D02*
X255000D01*
X259500D01*
X263500Y-71500D01*
X252500Y-69500D02*
X253500D01*
X256000Y-72000D01*
X248500Y-122859D02*
Y-86000D01*
X257500Y-77000D01*
Y-70500D01*
X256000Y-76821D02*
Y-72000D01*
X246000Y-86821D02*
X256000Y-76821D01*
X246000Y-87500D02*
Y-86821D01*
X252500Y-127500D02*
Y-88500D01*
X251500Y-87500D02*
X252500Y-88500D01*
X184000Y-107500D02*
Y-101500D01*
Y-107500D02*
X185000Y-108500D01*
X187500D01*
X198313Y-97687D01*
X212992D01*
X230000Y-59000D02*
X231000Y-58000D01*
X240000D01*
X227500Y-43000D02*
X234000Y-36500D01*
X212992Y-97687D02*
X228687Y-81992D01*
Y-43813D01*
X234000Y-36500D02*
X239707D01*
X240182Y-36975D01*
X229799Y-5500D02*
X231000D01*
X229150Y-4850D02*
X229799Y-5500D01*
X177000Y-113000D02*
X177594Y-112406D01*
X182789D01*
X183195Y-112000D01*
X205313Y-110813D02*
X205500Y-111000D01*
X182704Y-110813D02*
X205313D01*
X182297Y-111219D02*
X182704Y-110813D01*
X170719Y-111219D02*
X182297D01*
X169687Y-110187D02*
X170719Y-111219D01*
X169687Y-110187D02*
Y-73687D01*
X168000Y-72000D02*
X169687Y-73687D01*
X163000Y-72000D02*
X168000D01*
X174000Y-117821D02*
Y-115150D01*
X173000Y-118821D02*
X174000Y-117821D01*
X176000Y-127000D02*
X182500Y-120500D01*
X187000Y-105500D02*
Y-97079D01*
X157500Y-97000D02*
X164500D01*
X168500Y-111500D02*
Y-101000D01*
X184500Y-94579D02*
X187000Y-97079D01*
X182500Y-91500D02*
X186500D01*
X191500Y-96500D01*
X212500D01*
X194500Y-106500D02*
X196500Y-108500D01*
X207500D01*
X208500Y-109500D01*
Y-112500D02*
Y-109500D01*
X207500Y-113500D02*
X208500Y-112500D01*
X202000Y-113500D02*
X207500D01*
X183195Y-112000D02*
X196679D01*
X205500Y-120821D01*
Y-126000D02*
Y-120821D01*
X180000Y-94000D02*
X182500Y-91500D01*
X178000Y-102000D02*
Y-76500D01*
Y-102000D02*
X180000Y-104000D01*
X184500Y-94579D02*
Y-94000D01*
X156000Y-100000D02*
X157000Y-101000D01*
X180000Y-101037D02*
Y-94000D01*
X165000Y-106500D02*
Y-105500D01*
X147625Y-107625D02*
X155832D01*
X120000Y-110000D02*
X154849D01*
X119508Y-108813D02*
X155341D01*
X154849Y-110000D02*
X156064Y-111215D01*
X155341Y-108813D02*
X156556Y-110028D01*
X155832Y-107625D02*
X157048Y-108841D01*
X152000Y-104500D02*
X152475Y-104025D01*
X163525D01*
X165000Y-105500D01*
X157048Y-108841D02*
X161020D01*
X156556Y-110028D02*
X160528D01*
X156064Y-111215D02*
X160036D01*
X157000Y-106000D02*
X161500D01*
X166000Y-110500D01*
X164500Y-97000D02*
X168500Y-101000D01*
X157000D02*
X165000D01*
X233000Y-45000D02*
X239150D01*
X233000Y-55500D02*
X236350D01*
X236850Y-55000D01*
X226000Y-74000D02*
Y-42000D01*
X222500Y-77500D02*
X226000Y-74000D01*
X216000Y-77500D02*
X222500D01*
X33500Y-232000D02*
X38000Y-236500D01*
X61024Y-248000D02*
X81500D01*
X58071Y-245047D02*
Y-236221D01*
Y-245047D02*
X61024Y-248000D01*
X58071Y-236221D02*
Y-231929D01*
X60000Y-230000D01*
X62008Y-236221D02*
Y-234992D01*
X65000Y-232000D01*
X62008Y-245828D02*
Y-236221D01*
Y-245828D02*
X62992Y-246813D01*
X81992D01*
X229150Y-4850D02*
X232000Y-2000D01*
X250000D01*
X215433Y-385433D02*
X220866D01*
X214000Y-384000D02*
X215433Y-385433D01*
X214000Y-384000D02*
Y-341500D01*
X207000Y-334500D02*
X214000Y-341500D01*
X233740Y-389179D02*
X235243Y-387677D01*
X228679Y-389179D02*
X233740D01*
X227953Y-388453D02*
X228679Y-389179D01*
X227953Y-388453D02*
Y-385433D01*
X235243Y-387677D02*
Y-380242D01*
X234500Y-379500D02*
X235243Y-380242D01*
X234500Y-379500D02*
Y-341000D01*
X242000Y-333500D01*
Y-323000D01*
X210472Y-291472D02*
Y-285433D01*
Y-291472D02*
X242000Y-323000D01*
X207000Y-334500D02*
Y-292000D01*
X205000Y-290000D02*
X207000Y-292000D01*
X205000Y-290000D02*
Y-272000D01*
X207000Y-270000D01*
X224882D01*
X230472Y-275590D01*
X204724Y-39724D02*
Y-19685D01*
X56000Y-277500D02*
X56500Y-277000D01*
X56000Y-285500D02*
Y-277500D01*
X61500Y-283500D02*
Y-278500D01*
X244000Y-11150D02*
X256000D01*
X193685Y-19685D02*
X204724D01*
X214000Y-11150D02*
X226000D01*
X251000Y-45488D02*
X254000Y-42488D01*
X248000Y-31000D02*
X250000D01*
X254000Y-35000D01*
Y-42488D02*
Y-35000D01*
X228687Y-43813D02*
X232000Y-40500D01*
X251000D01*
X250525Y-36975D02*
X251000Y-36500D01*
X240182Y-36975D02*
X250525D01*
X226000Y-42000D02*
X234500Y-33500D01*
X239500D01*
X256713Y-5563D02*
X274000D01*
X174500Y-108850D02*
Y-107500D01*
X154713Y-145571D02*
Y-127787D01*
X60000Y-220158D02*
X64235Y-215923D01*
X92500Y-208000D02*
Y-202500D01*
X80343Y-220158D02*
Y-219865D01*
X87140Y-215860D02*
X101715D01*
X101855Y-216000D01*
X108000D01*
X110000Y-214000D01*
X90500Y-213500D02*
X107623D01*
X85500Y-217500D02*
X87140Y-215860D01*
X84500Y-217500D02*
X85500D01*
X64235Y-215923D02*
X78500D01*
X83000Y-214000D02*
X86500D01*
X80831Y-216169D02*
X83000Y-214000D01*
X80831Y-217826D02*
Y-216169D01*
X78500Y-220158D02*
X80831Y-217826D01*
X86500Y-214000D02*
X92500Y-208000D01*
X70000Y-220158D02*
X78500D01*
X46000Y-216158D02*
Y-213000D01*
X80500Y-225000D02*
X85343Y-229842D01*
X40000Y-230000D02*
X45000Y-225000D01*
X80500D01*
X65000Y-232000D02*
Y-227000D01*
X85185Y-225000D02*
X115000D01*
X239463Y-63762D02*
X251000D01*
X112000Y-209122D02*
Y-208500D01*
X107623Y-213500D02*
X112000Y-209122D01*
X208000Y-154000D02*
Y-151783D01*
X211406Y-148376D01*
X206025Y-153757D02*
Y-152078D01*
X210219Y-147884D01*
X204838Y-153266D02*
Y-151586D01*
X209032Y-147393D01*
X203650Y-152774D02*
Y-151094D01*
X206187Y-148557D01*
X202463Y-150603D02*
X205000Y-148066D01*
X201000Y-147000D02*
X202000Y-148000D01*
X197500Y-147000D02*
X201000D01*
X206187Y-148557D02*
Y-146878D01*
X225047Y-128019D01*
X207500Y-142500D02*
X207525Y-142525D01*
X205000Y-148066D02*
Y-144500D01*
X197500Y-190000D02*
X202500Y-185000D01*
X192000Y-190000D02*
X197500D01*
X184000Y-188000D02*
X185000D01*
X179500Y-183500D02*
X184000Y-188000D01*
X188000Y-186000D02*
X192000Y-190000D01*
X62000Y-27150D02*
X69287D01*
X204025Y-142525D02*
X207525D01*
D43*
X258000Y-31000D02*
X263500Y-36500D01*
Y-75500D02*
X268000Y-80000D01*
X273000D01*
X253000Y-150500D02*
X290409D01*
X250284Y-153217D02*
X253000Y-150500D01*
X250284Y-170374D02*
Y-153217D01*
X290409Y-150500D02*
X299783Y-159874D01*
X270284Y-170374D02*
X280730Y-180821D01*
X269783Y-229874D02*
X289784D01*
X267126Y-199874D02*
X299783D01*
X289784Y-229874D02*
X299783Y-219874D01*
X249783Y-229874D02*
Y-217216D01*
X267126Y-199874D01*
X273000Y-80000D02*
X305000D01*
X263500Y-75500D02*
Y-71500D01*
Y-36500D01*
X280730Y-180821D02*
X299783D01*
D44*
X257000Y-134630D02*
Y-127000D01*
X264000Y-120000D01*
X267000D01*
X242456Y-134630D02*
X257000D01*
X231642Y-135230D02*
X241856D01*
X242456Y-134630D01*
X231055Y-135817D02*
X231642Y-135230D01*
X227871Y-135817D02*
X231055D01*
X218743Y-144946D02*
X227871Y-135817D01*
X215356Y-148333D02*
X218242Y-145447D01*
X218242D01*
X218743Y-144946D01*
Y-144946D01*
X215356Y-165302D02*
Y-148333D01*
X210283Y-170374D02*
X215356Y-165302D01*
X209784Y-170874D02*
X210283Y-170374D01*
X209784Y-229874D02*
Y-170874D01*
D45*
X258000Y-31000D02*
X270000D01*
X209000Y-44000D02*
X215000D01*
X162000D02*
X209000D01*
X273551Y-15449D02*
X285000Y-4000D01*
X286000D02*
Y-3695D01*
X295777D01*
X270000Y-31000D02*
X273551Y-27449D01*
X157480Y-39480D02*
Y-19685D01*
Y-39480D02*
X162000Y-44000D01*
X281000Y-28000D02*
X299000Y-10000D01*
X302695Y-3695D02*
X309000Y-10000D01*
X296388Y-3695D02*
X302695D01*
X309000Y-35000D02*
Y-10000D01*
X273000Y-70000D02*
X281000Y-62000D01*
Y-28000D01*
X299000Y-39000D02*
X305000Y-45000D01*
X299000Y-39000D02*
Y-35000D01*
X305000Y-70000D02*
Y-45000D01*
X250000Y-31000D02*
X258000D01*
X230034Y-28966D02*
X245966D01*
X215000Y-44000D02*
X230034Y-28966D01*
X245966D02*
X248000Y-31000D01*
X273551Y-27449D02*
Y-15449D01*
D64*
X100000Y-202500D02*
D03*
X92500D02*
D03*
X100000Y-160000D02*
D03*
X92500D02*
D03*
X100000Y-117500D02*
D03*
X92500D02*
D03*
X100000Y-75000D02*
D03*
X92500D02*
D03*
X72500Y-197500D02*
D03*
Y-190000D02*
D03*
Y-182500D02*
D03*
Y-175000D02*
D03*
Y-155000D02*
D03*
Y-147500D02*
D03*
Y-140000D02*
D03*
Y-132500D02*
D03*
Y-110000D02*
D03*
Y-102500D02*
D03*
Y-95000D02*
D03*
Y-87500D02*
D03*
Y-67500D02*
D03*
Y-60000D02*
D03*
Y-52500D02*
D03*
Y-45000D02*
D03*
D65*
X220866Y-378346D02*
D03*
X227953D02*
D03*
X231496Y-381890D02*
D03*
X224410D02*
D03*
X217323D02*
D03*
X220866Y-385433D02*
D03*
X227953D02*
D03*
X218500Y-173000D02*
D03*
X171000Y-131500D02*
D03*
X184500Y-126500D02*
D03*
D66*
X210472Y-285433D02*
D03*
X220472D02*
D03*
X230472D02*
D03*
X240472D02*
D03*
X230472Y-275590D02*
D03*
X220472D02*
D03*
X210472D02*
D03*
X150000Y-220000D02*
D03*
Y-210000D02*
D03*
X140000Y-215000D02*
D03*
X190354Y-220000D02*
D03*
Y-210000D02*
D03*
X180354Y-215000D02*
D03*
X120000Y-220000D02*
D03*
X110000D02*
D03*
X100000D02*
D03*
X90000D02*
D03*
X100000Y-229842D02*
D03*
X110000D02*
D03*
X120000D02*
D03*
X70000Y-220158D02*
D03*
X60000D02*
D03*
X50000D02*
D03*
X40000D02*
D03*
X50000Y-230000D02*
D03*
X60000D02*
D03*
X70000D02*
D03*
X10000Y-297000D02*
D03*
X20000D02*
D03*
X30000D02*
D03*
X40000D02*
D03*
X30000Y-306842D02*
D03*
X20000D02*
D03*
X10000D02*
D03*
D67*
X240472Y-275590D02*
D03*
X140000Y-205000D02*
D03*
X180354D02*
D03*
X90000Y-229842D02*
D03*
X40000Y-230000D02*
D03*
Y-306842D02*
D03*
D68*
X153543Y-377953D02*
D03*
X11811D02*
D03*
X224410Y-326772D02*
D03*
X263779Y-275590D02*
D03*
X185039D02*
D03*
X299213Y-118110D02*
D03*
X15748Y-220472D02*
D03*
Y-15748D02*
D03*
X11811Y-259842D02*
D03*
X153543D02*
D03*
D69*
X14410Y-45500D02*
D03*
X299783Y-219874D02*
D03*
D70*
X14410Y-105500D02*
D03*
Y-165500D02*
D03*
Y-185500D02*
D03*
Y-145500D02*
D03*
Y-65500D02*
D03*
Y-85500D02*
D03*
Y-125500D02*
D03*
X299783Y-159874D02*
D03*
Y-179874D02*
D03*
Y-199874D02*
D03*
X224410Y-19685D02*
D03*
X244094D02*
D03*
X204724D02*
D03*
X157480D02*
D03*
D71*
X155906Y-196378D02*
D03*
Y-227874D02*
D03*
X196260Y-196378D02*
D03*
Y-227874D02*
D03*
D72*
X269783Y-229874D02*
D03*
X249783D02*
D03*
X305000Y-70000D02*
D03*
Y-80000D02*
D03*
X273000Y-70000D02*
D03*
Y-80000D02*
D03*
X270284Y-170374D02*
D03*
X250284D02*
D03*
D73*
X219783Y-209874D02*
D03*
X209784Y-229874D02*
D03*
X220284Y-150374D02*
D03*
X210283Y-170374D02*
D03*
D74*
X267000Y-130000D02*
D03*
D75*
Y-120000D02*
D03*
Y-110000D02*
D03*
X299000Y-10000D02*
D03*
X289000D02*
D03*
X299000Y-35000D02*
D03*
X289000D02*
D03*
D76*
X309000Y-10000D02*
D03*
Y-35000D02*
D03*
D77*
X305000Y-90000D02*
D03*
X273000D02*
D03*
D78*
X263779Y-19685D02*
D03*
X177165D02*
D03*
D79*
X45709D02*
D03*
X135394D02*
D03*
D80*
X57555Y-253236D02*
D03*
X31965D02*
D03*
X57555Y-270953D02*
D03*
X31965D02*
D03*
X96055Y-253236D02*
D03*
X70464D02*
D03*
X96055Y-270953D02*
D03*
X70464D02*
D03*
X134555Y-253236D02*
D03*
X108965D02*
D03*
X134555Y-270953D02*
D03*
X108965D02*
D03*
D81*
X68760Y-285595D02*
D03*
D82*
X78760D02*
D03*
X88760D02*
D03*
X98760D02*
D03*
D83*
X62500Y-5500D02*
D03*
X161500Y-68500D02*
D03*
X208000Y-154000D02*
D03*
X206000Y-157000D02*
D03*
X181000Y-157500D02*
D03*
X156500Y-184000D02*
D03*
X119000Y-193000D02*
D03*
X151000Y-185000D02*
D03*
X221500Y-116500D02*
D03*
X127000Y-144000D02*
D03*
X157500Y-97000D02*
D03*
X193000Y-58000D02*
D03*
X106500Y-95000D02*
D03*
X136000Y-90500D02*
D03*
X139500Y-143500D02*
D03*
X125000Y-136000D02*
D03*
X115500Y-95500D02*
D03*
X139733Y-100767D02*
D03*
X132000Y-74850D02*
D03*
X127000Y-92000D02*
D03*
X257000Y-46000D02*
D03*
X233000Y-61000D02*
D03*
X109638Y-57000D02*
D03*
X193000Y-62000D02*
D03*
X202650Y-81150D02*
D03*
X212000Y-93000D02*
D03*
X205500Y-126000D02*
D03*
X187500Y-139500D02*
D03*
X112500Y-145000D02*
D03*
X120500Y-169000D02*
D03*
X112000Y-154000D02*
D03*
X131500Y-126500D02*
D03*
X127500Y-169500D02*
D03*
X127000Y-178500D02*
D03*
X114500Y-181000D02*
D03*
X137500Y-169500D02*
D03*
X143000Y-168000D02*
D03*
X34000Y-289500D02*
D03*
X118500Y-199000D02*
D03*
X115000Y-216500D02*
D03*
X110000Y-214000D02*
D03*
X112000Y-208500D02*
D03*
X45000Y-262000D02*
D03*
X87000Y-263000D02*
D03*
X89500Y-259500D02*
D03*
X113000Y-186500D02*
D03*
X132000D02*
D03*
X126500Y-165000D02*
D03*
X115500Y-105000D02*
D03*
X115000Y-115000D02*
D03*
X239500Y-103500D02*
D03*
X132024Y-120476D02*
D03*
X140500Y-124000D02*
D03*
X220000Y-93500D02*
D03*
X158000Y-81500D02*
D03*
X168000Y-66000D02*
D03*
X178000Y-59000D02*
D03*
X176000Y-62000D02*
D03*
Y-56000D02*
D03*
X178000Y-65000D02*
D03*
X185500Y-67500D02*
D03*
X192500Y-51000D02*
D03*
X166500Y-78000D02*
D03*
X185500Y-171000D02*
D03*
X205000Y-138500D02*
D03*
X173500Y-161500D02*
D03*
X174500Y-156000D02*
D03*
X194500Y-151000D02*
D03*
X153500Y-112500D02*
D03*
X157000Y-114500D02*
D03*
X154000Y-117000D02*
D03*
X182000Y-161500D02*
D03*
X163000Y-176000D02*
D03*
X160000Y-185000D02*
D03*
X170500Y-187000D02*
D03*
X179500Y-140000D02*
D03*
X169500Y-139000D02*
D03*
X163000Y-170000D02*
D03*
X163500Y-166000D02*
D03*
X155000Y-120000D02*
D03*
X160000Y-116500D02*
D03*
X149500Y-154500D02*
D03*
X128500Y-185500D02*
D03*
X135500Y-189000D02*
D03*
X171500Y-154000D02*
D03*
X167500Y-162500D02*
D03*
X165000Y-159000D02*
D03*
X158500Y-161500D02*
D03*
X161500Y-157000D02*
D03*
X158000Y-144500D02*
D03*
X157000Y-153000D02*
D03*
X152500Y-157500D02*
D03*
X147500Y-117000D02*
D03*
X176000Y-104500D02*
D03*
X155000Y-123500D02*
D03*
X155500Y-128000D02*
D03*
X134000Y-155500D02*
D03*
Y-147500D02*
D03*
X145850Y-159350D02*
D03*
X142500Y-155500D02*
D03*
X141763Y-148669D02*
D03*
X137500Y-156500D02*
D03*
Y-148500D02*
D03*
X144350Y-145650D02*
D03*
X182500Y-119500D02*
D03*
X176000Y-121500D02*
D03*
X146500Y-106500D02*
D03*
X144500Y-118500D02*
D03*
X214000Y-109500D02*
D03*
X196000Y-160424D02*
D03*
X179500Y-183500D02*
D03*
X192500Y-10000D02*
D03*
X227000Y-125500D02*
D03*
X248000Y-79500D02*
D03*
X252500Y-69500D02*
D03*
X257500Y-70500D02*
D03*
X246000Y-87500D02*
D03*
X251500D02*
D03*
X187000Y-105500D02*
D03*
X184000Y-101500D02*
D03*
X180000Y-104000D02*
D03*
X265500Y-5500D02*
D03*
X216000Y-77500D02*
D03*
X231000Y-5500D02*
D03*
X205500Y-111000D02*
D03*
X163000Y-72000D02*
D03*
X156000Y-100000D02*
D03*
X173000Y-118821D02*
D03*
X176000Y-127000D02*
D03*
X194500Y-106500D02*
D03*
X202000Y-113500D02*
D03*
X152000Y-104500D02*
D03*
X184500Y-94000D02*
D03*
X180000Y-101037D02*
D03*
X165000Y-106500D02*
D03*
X157000Y-106000D02*
D03*
X166000Y-110500D02*
D03*
X165000Y-101000D02*
D03*
X233000Y-45000D02*
D03*
Y-55500D02*
D03*
X38386Y-236221D02*
D03*
X42323D02*
D03*
X46260D02*
D03*
X54134D02*
D03*
X58071D02*
D03*
X62008D02*
D03*
X65945D02*
D03*
X50197D02*
D03*
X56000Y-285500D02*
D03*
X56500Y-277000D02*
D03*
X61500Y-283500D02*
D03*
X251000Y-40500D02*
D03*
Y-36500D02*
D03*
X239500Y-33500D02*
D03*
X90500Y-213500D02*
D03*
X84500Y-217500D02*
D03*
X78500Y-215923D02*
D03*
X46000Y-213000D02*
D03*
X65000Y-227000D02*
D03*
X202000Y-148000D02*
D03*
X197500Y-147000D02*
D03*
X207500Y-142500D02*
D03*
X205000Y-144500D02*
D03*
X202500Y-185000D02*
D03*
X185000Y-188000D02*
D03*
X188000Y-186000D02*
D03*
D84*
X209000Y-44000D02*
D03*
D85*
X193000Y-17437D02*
D03*
Y-4563D02*
D03*
X274000Y-18437D02*
D03*
Y-5563D02*
D03*
X69000Y-27437D02*
D03*
Y-14563D02*
D03*
D86*
X157500Y-26250D02*
D03*
D87*
X127500Y-37500D02*
D03*
D88*
X99750Y-124500D02*
D03*
D89*
X77146Y-189880D02*
D03*
X77144Y-146821D02*
D03*
X76864Y-103821D02*
D03*
X76856Y-60321D02*
D03*
M02*
