G04 Layer_Color=65535*
%FSLAX25Y25*%
%MOIN*%
G70*
G01*
G75*
%ADD40C,0.00787*%
%ADD90C,0.01000*%
%ADD91C,0.00827*%
%ADD92C,0.01181*%
%ADD93C,0.00984*%
%ADD94C,0.00394*%
%ADD95C,0.01200*%
%ADD96C,0.00591*%
%ADD97C,0.00748*%
G36*
X276937Y-98438D02*
X273285D01*
X273292Y-98446D01*
X273307Y-98460D01*
X273328Y-98489D01*
X273365Y-98533D01*
X273409Y-98584D01*
X273452Y-98642D01*
X273503Y-98715D01*
X273562Y-98796D01*
X273620Y-98883D01*
X273678Y-98978D01*
X273744Y-99080D01*
X273802Y-99189D01*
X273912Y-99423D01*
X274014Y-99685D01*
X273139D01*
Y-99678D01*
X273132Y-99670D01*
X273124Y-99649D01*
X273117Y-99619D01*
X273081Y-99546D01*
X273037Y-99444D01*
X272978Y-99321D01*
X272898Y-99182D01*
X272796Y-99029D01*
X272680Y-98869D01*
X272672Y-98861D01*
X272665Y-98847D01*
X272643Y-98825D01*
X272614Y-98796D01*
X272541Y-98715D01*
X272446Y-98628D01*
X272330Y-98526D01*
X272184Y-98424D01*
X272031Y-98329D01*
X271863Y-98256D01*
Y-97469D01*
X276937D01*
Y-98438D01*
D02*
G37*
G36*
X276312Y-4833D02*
X276320Y-4826D01*
X276334Y-4812D01*
X276363Y-4790D01*
X276407Y-4753D01*
X276458Y-4710D01*
X276517Y-4666D01*
X276589Y-4615D01*
X276670Y-4556D01*
X276757Y-4498D01*
X276852Y-4440D01*
X276954Y-4374D01*
X277063Y-4316D01*
X277297Y-4206D01*
X277559Y-4104D01*
Y-4979D01*
X277552D01*
X277544Y-4986D01*
X277523Y-4994D01*
X277493Y-5001D01*
X277421Y-5037D01*
X277319Y-5081D01*
X277195Y-5140D01*
X277056Y-5220D01*
X276903Y-5322D01*
X276743Y-5438D01*
X276735Y-5446D01*
X276721Y-5453D01*
X276699Y-5475D01*
X276670Y-5504D01*
X276589Y-5577D01*
X276502Y-5672D01*
X276400Y-5788D01*
X276298Y-5934D01*
X276203Y-6087D01*
X276130Y-6255D01*
X275343D01*
Y-1181D01*
X276312D01*
Y-4833D01*
D02*
G37*
G36*
X189698D02*
X189706Y-4826D01*
X189720Y-4812D01*
X189749Y-4790D01*
X189793Y-4753D01*
X189844Y-4710D01*
X189902Y-4666D01*
X189975Y-4615D01*
X190056Y-4556D01*
X190143Y-4498D01*
X190238Y-4440D01*
X190340Y-4374D01*
X190449Y-4316D01*
X190682Y-4206D01*
X190945Y-4104D01*
Y-4979D01*
X190938D01*
X190930Y-4986D01*
X190908Y-4994D01*
X190879Y-5001D01*
X190806Y-5037D01*
X190704Y-5081D01*
X190580Y-5140D01*
X190442Y-5220D01*
X190289Y-5322D01*
X190128Y-5438D01*
X190121Y-5446D01*
X190106Y-5453D01*
X190085Y-5475D01*
X190056Y-5504D01*
X189975Y-5577D01*
X189888Y-5672D01*
X189786Y-5788D01*
X189684Y-5934D01*
X189589Y-6087D01*
X189516Y-6255D01*
X188729D01*
Y-1181D01*
X189698D01*
Y-4833D01*
D02*
G37*
G36*
X3542Y-28204D02*
X3550Y-28211D01*
X3557Y-28233D01*
X3564Y-28262D01*
X3601Y-28335D01*
X3644Y-28437D01*
X3703Y-28561D01*
X3783Y-28700D01*
X3885Y-28853D01*
X4002Y-29013D01*
X4009Y-29021D01*
X4016Y-29035D01*
X4038Y-29057D01*
X4067Y-29086D01*
X4140Y-29166D01*
X4235Y-29254D01*
X4351Y-29356D01*
X4497Y-29458D01*
X4650Y-29553D01*
X4818Y-29626D01*
Y-30413D01*
X-256D01*
Y-29443D01*
X3396D01*
X3389Y-29436D01*
X3374Y-29422D01*
X3353Y-29392D01*
X3316Y-29349D01*
X3272Y-29298D01*
X3229Y-29239D01*
X3178Y-29166D01*
X3119Y-29086D01*
X3061Y-28999D01*
X3003Y-28904D01*
X2937Y-28802D01*
X2879Y-28693D01*
X2770Y-28459D01*
X2667Y-28197D01*
X3542D01*
Y-28204D01*
D02*
G37*
G36*
X309000Y-232253D02*
X305348D01*
X305355Y-232261D01*
X305370Y-232275D01*
X305391Y-232304D01*
X305428Y-232348D01*
X305472Y-232399D01*
X305515Y-232457D01*
X305566Y-232530D01*
X305625Y-232611D01*
X305683Y-232698D01*
X305741Y-232793D01*
X305807Y-232895D01*
X305865Y-233004D01*
X305975Y-233238D01*
X306077Y-233500D01*
X305202D01*
Y-233493D01*
X305195Y-233485D01*
X305187Y-233464D01*
X305180Y-233434D01*
X305144Y-233362D01*
X305100Y-233259D01*
X305042Y-233136D01*
X304961Y-232997D01*
X304859Y-232844D01*
X304743Y-232683D01*
X304735Y-232676D01*
X304728Y-232662D01*
X304706Y-232640D01*
X304677Y-232611D01*
X304604Y-232530D01*
X304509Y-232443D01*
X304393Y-232341D01*
X304247Y-232239D01*
X304094Y-232144D01*
X303926Y-232071D01*
Y-231284D01*
X309000D01*
Y-232253D01*
D02*
G37*
G36*
X308937Y-98438D02*
X305285D01*
X305292Y-98446D01*
X305307Y-98460D01*
X305328Y-98489D01*
X305365Y-98533D01*
X305409Y-98584D01*
X305452Y-98642D01*
X305503Y-98715D01*
X305562Y-98796D01*
X305620Y-98883D01*
X305678Y-98978D01*
X305744Y-99080D01*
X305802Y-99189D01*
X305912Y-99423D01*
X306014Y-99685D01*
X305139D01*
Y-99678D01*
X305132Y-99670D01*
X305124Y-99649D01*
X305117Y-99619D01*
X305081Y-99546D01*
X305037Y-99444D01*
X304978Y-99321D01*
X304898Y-99182D01*
X304796Y-99029D01*
X304680Y-98869D01*
X304672Y-98861D01*
X304665Y-98847D01*
X304643Y-98825D01*
X304614Y-98796D01*
X304541Y-98715D01*
X304446Y-98628D01*
X304330Y-98526D01*
X304184Y-98424D01*
X304031Y-98329D01*
X303863Y-98256D01*
Y-97469D01*
X308937D01*
Y-98438D01*
D02*
G37*
D40*
X107614Y-99370D02*
G03*
X107614Y-99370I-394J0D01*
G01*
X112236Y-176866D02*
X116764D01*
X112236Y-183953D02*
X116764D01*
X112736Y-91457D02*
X117264D01*
X112736Y-98543D02*
X117264D01*
X118736Y-74457D02*
X123264D01*
X118736Y-81543D02*
X123264D01*
X272000Y-135000D02*
Y-105000D01*
X262000D02*
X272000D01*
X262000Y-135000D02*
Y-105000D01*
Y-135000D02*
X272000D01*
X284000Y-5000D02*
X314000D01*
X284000Y-15000D02*
Y-5000D01*
Y-15000D02*
X314000D01*
Y-5000D01*
X284000Y-30000D02*
X314000D01*
X284000Y-40000D02*
Y-30000D01*
Y-40000D02*
X314000D01*
Y-30000D01*
X296736Y-48457D02*
X301264D01*
X296736Y-55543D02*
X301264D01*
X210630Y-5512D02*
X214567Y-1575D01*
X194882D02*
X198819Y-5512D01*
X210630D01*
X218504D02*
X230315D01*
X214567Y-1575D02*
X218504Y-5512D01*
X230315D02*
X234252Y-1575D01*
X238189Y-5512D02*
X250000D01*
X234252Y-1575D02*
X238189Y-5512D01*
X250000D02*
X253937Y-1575D01*
X257874Y-5512D02*
X269685D01*
X253937Y-1575D02*
X257874Y-5512D01*
X269685D02*
X273622Y-1575D01*
X196126Y-43024D02*
X211874D01*
X209906Y-70976D02*
X211874Y-69008D01*
X196126D02*
X198094Y-70976D01*
X209906D02*
X211874Y-69008D01*
Y-43024D01*
X198094Y-70976D02*
X209906D01*
X196126Y-69008D02*
X198094Y-70976D01*
X196126Y-69008D02*
Y-43024D01*
X112736Y-134457D02*
X117264D01*
X112736Y-141543D02*
X117264D01*
X36500Y-274000D02*
X38500D01*
X34500Y-276000D02*
X36500Y-274000D01*
X42000Y-276000D02*
X44250Y-273750D01*
X71224Y-293457D02*
X75752D01*
X71224Y-300543D02*
X75752D01*
X265736Y-48457D02*
X270264D01*
X265736Y-55543D02*
X270264D01*
X199457Y-83264D02*
Y-78736D01*
X206543Y-83264D02*
Y-78736D01*
X196945Y-107150D02*
X215055D01*
X196945D02*
Y-100850D01*
X215055D01*
Y-107150D02*
Y-100850D01*
X203638Y-107150D02*
Y-100850D01*
X208457Y-94264D02*
Y-89736D01*
X215543Y-94264D02*
Y-89736D01*
X179953Y-65102D02*
Y-52898D01*
X174047Y-65102D02*
Y-52898D01*
Y-65102D02*
X179953D01*
X174047Y-52898D02*
X179953D01*
X174602Y-73811D02*
X187398D01*
X174602Y-100189D02*
X187398D01*
Y-73811D01*
X174602Y-100189D02*
Y-73811D01*
X167008Y-117008D02*
X192992D01*
X167008Y-142992D02*
X192992D01*
X167008D02*
Y-117008D01*
X192992Y-142992D02*
Y-117008D01*
D90*
X8862Y-177180D02*
G03*
X8862Y-193821I5547J-8320D01*
G01*
Y-157179D02*
G03*
X8862Y-173820I5547J-8320D01*
G01*
Y-137180D02*
G03*
X8862Y-153821I5547J-8320D01*
G01*
Y-117022D02*
G03*
X8862Y-133663I5547J-8320D01*
G01*
Y-97337D02*
G03*
X8862Y-113978I5547J-8320D01*
G01*
Y-77179D02*
G03*
X8862Y-93821I5547J-8320D01*
G01*
Y-56865D02*
G03*
X8862Y-73506I5547J-8320D01*
G01*
Y-37179D02*
G03*
X8862Y-53821I5547J-8320D01*
G01*
X227500Y-35564D02*
Y-39500D01*
X230124D01*
X231436D02*
X232748D01*
X232092D01*
Y-35564D01*
X231436Y-36220D01*
X206000Y-36064D02*
Y-40000D01*
X207968D01*
X208624Y-39344D01*
Y-36720D01*
X207968Y-36064D01*
X206000D01*
X209936Y-40000D02*
X211248D01*
X210592D01*
Y-36064D01*
X209936Y-36720D01*
X179124Y-230064D02*
X177812D01*
X178468D01*
Y-233344D01*
X177812Y-234000D01*
X177156D01*
X176500Y-233344D01*
X182404Y-234000D02*
Y-230064D01*
X180436Y-232032D01*
X183060D01*
X139124Y-230064D02*
X137812D01*
X138468D01*
Y-233344D01*
X137812Y-234000D01*
X137156D01*
X136500Y-233344D01*
X140436Y-230720D02*
X141092Y-230064D01*
X142404D01*
X143060Y-230720D01*
Y-231376D01*
X142404Y-232032D01*
X141748D01*
X142404D01*
X143060Y-232688D01*
Y-233344D01*
X142404Y-234000D01*
X141092D01*
X140436Y-233344D01*
X115500Y-108564D02*
Y-111844D01*
X116156Y-112500D01*
X117468D01*
X118124Y-111844D01*
Y-108564D01*
X119436Y-112500D02*
X120748D01*
X120092D01*
Y-108564D01*
X119436Y-109220D01*
X122715D02*
X123372Y-108564D01*
X124683D01*
X125339Y-109220D01*
Y-109876D01*
X124683Y-110532D01*
X124027D01*
X124683D01*
X125339Y-111188D01*
Y-111844D01*
X124683Y-112500D01*
X123372D01*
X122715Y-111844D01*
X249124Y-73220D02*
X248468Y-72564D01*
X247156D01*
X246500Y-73220D01*
Y-75844D01*
X247156Y-76500D01*
X248468D01*
X249124Y-75844D01*
X250436D02*
X251092Y-76500D01*
X252404D01*
X253060Y-75844D01*
Y-73220D01*
X252404Y-72564D01*
X251092D01*
X250436Y-73220D01*
Y-73876D01*
X251092Y-74532D01*
X253060D01*
X208624Y-148220D02*
X207968Y-147564D01*
X206656D01*
X206000Y-148220D01*
Y-150844D01*
X206656Y-151500D01*
X207968D01*
X208624Y-150844D01*
X209936Y-151500D02*
X211248D01*
X210592D01*
Y-147564D01*
X209936Y-148220D01*
X215839Y-147564D02*
X213215D01*
Y-149532D01*
X214527Y-148876D01*
X215183D01*
X215839Y-149532D01*
Y-150844D01*
X215183Y-151500D01*
X213872D01*
X213215Y-150844D01*
X219624Y-109220D02*
X218968Y-108564D01*
X217656D01*
X217000Y-109220D01*
Y-111844D01*
X217656Y-112500D01*
X218968D01*
X219624Y-111844D01*
X220936Y-112500D02*
X222248D01*
X221592D01*
Y-108564D01*
X220936Y-109220D01*
X226839Y-108564D02*
X225527Y-109220D01*
X224216Y-110532D01*
Y-111844D01*
X224871Y-112500D01*
X226183D01*
X226839Y-111844D01*
Y-111188D01*
X226183Y-110532D01*
X224216D01*
X71124Y-303220D02*
X70468Y-302564D01*
X69156D01*
X68500Y-303220D01*
Y-305844D01*
X69156Y-306500D01*
X70468D01*
X71124Y-305844D01*
X72436Y-306500D02*
X73748D01*
X73092D01*
Y-302564D01*
X72436Y-303220D01*
X75716Y-302564D02*
X78339D01*
Y-303220D01*
X75716Y-305844D01*
Y-306500D01*
X162220Y-75376D02*
X161564Y-76032D01*
Y-77344D01*
X162220Y-78000D01*
X164844D01*
X165500Y-77344D01*
Y-76032D01*
X164844Y-75376D01*
X165500Y-71440D02*
Y-74064D01*
X162876Y-71440D01*
X162220D01*
X161564Y-72096D01*
Y-73408D01*
X162220Y-74064D01*
X165500Y-68161D02*
X161564D01*
X163532Y-70129D01*
Y-67505D01*
X146624Y-156220D02*
X145968Y-155564D01*
X144656D01*
X144000Y-156220D01*
Y-158844D01*
X144656Y-159500D01*
X145968D01*
X146624Y-158844D01*
X150560Y-159500D02*
X147936D01*
X150560Y-156876D01*
Y-156220D01*
X149904Y-155564D01*
X148592D01*
X147936Y-156220D01*
X151872Y-158844D02*
X152527Y-159500D01*
X153839D01*
X154495Y-158844D01*
Y-156220D01*
X153839Y-155564D01*
X152527D01*
X151872Y-156220D01*
Y-156876D01*
X152527Y-157532D01*
X154495D01*
X50220Y-283376D02*
X49564Y-284032D01*
Y-285344D01*
X50220Y-286000D01*
X52844D01*
X53500Y-285344D01*
Y-284032D01*
X52844Y-283376D01*
X50220Y-282064D02*
X49564Y-281408D01*
Y-280096D01*
X50220Y-279440D01*
X50876D01*
X51532Y-280096D01*
Y-280752D01*
Y-280096D01*
X52188Y-279440D01*
X52844D01*
X53500Y-280096D01*
Y-281408D01*
X52844Y-282064D01*
X53500Y-278129D02*
Y-276817D01*
Y-277473D01*
X49564D01*
X50220Y-278129D01*
X41220Y-323876D02*
X40564Y-324532D01*
Y-325844D01*
X41220Y-326500D01*
X43844D01*
X44500Y-325844D01*
Y-324532D01*
X43844Y-323876D01*
X41220Y-322564D02*
X40564Y-321908D01*
Y-320596D01*
X41220Y-319940D01*
X41876D01*
X42532Y-320596D01*
Y-321252D01*
Y-320596D01*
X43188Y-319940D01*
X43844D01*
X44500Y-320596D01*
Y-321908D01*
X43844Y-322564D01*
X44500Y-316005D02*
Y-318629D01*
X41876Y-316005D01*
X41220D01*
X40564Y-316661D01*
Y-317973D01*
X41220Y-318629D01*
X20720Y-284876D02*
X20064Y-285532D01*
Y-286844D01*
X20720Y-287500D01*
X23344D01*
X24000Y-286844D01*
Y-285532D01*
X23344Y-284876D01*
X20720Y-283564D02*
X20064Y-282908D01*
Y-281596D01*
X20720Y-280940D01*
X21376D01*
X22032Y-281596D01*
Y-282252D01*
Y-281596D01*
X22688Y-280940D01*
X23344D01*
X24000Y-281596D01*
Y-282908D01*
X23344Y-283564D01*
X20720Y-279628D02*
X20064Y-278973D01*
Y-277661D01*
X20720Y-277005D01*
X21376D01*
X22032Y-277661D01*
Y-278317D01*
Y-277661D01*
X22688Y-277005D01*
X23344D01*
X24000Y-277661D01*
Y-278973D01*
X23344Y-279628D01*
X293624Y-43220D02*
X292968Y-42564D01*
X291656D01*
X291000Y-43220D01*
Y-45844D01*
X291656Y-46500D01*
X292968D01*
X293624Y-45844D01*
X294936Y-43220D02*
X295592Y-42564D01*
X296904D01*
X297560Y-43220D01*
Y-43876D01*
X296904Y-44532D01*
X296248D01*
X296904D01*
X297560Y-45188D01*
Y-45844D01*
X296904Y-46500D01*
X295592D01*
X294936Y-45844D01*
X300839Y-46500D02*
Y-42564D01*
X298871Y-44532D01*
X301495D01*
X265124Y-43220D02*
X264468Y-42564D01*
X263156D01*
X262500Y-43220D01*
Y-45844D01*
X263156Y-46500D01*
X264468D01*
X265124Y-45844D01*
X266436Y-43220D02*
X267092Y-42564D01*
X268404D01*
X269060Y-43220D01*
Y-43876D01*
X268404Y-44532D01*
X267748D01*
X268404D01*
X269060Y-45188D01*
Y-45844D01*
X268404Y-46500D01*
X267092D01*
X266436Y-45844D01*
X272995Y-42564D02*
X270372D01*
Y-44532D01*
X271683Y-43876D01*
X272339D01*
X272995Y-44532D01*
Y-45844D01*
X272339Y-46500D01*
X271027D01*
X270372Y-45844D01*
X142000Y-51564D02*
Y-55500D01*
X143968D01*
X144624Y-54844D01*
Y-52220D01*
X143968Y-51564D01*
X142000D01*
X148560Y-55500D02*
X145936D01*
X148560Y-52876D01*
Y-52220D01*
X147904Y-51564D01*
X146592D01*
X145936Y-52220D01*
X126500Y-52064D02*
Y-56000D01*
X128468D01*
X129124Y-55344D01*
Y-52720D01*
X128468Y-52064D01*
X126500D01*
X130436Y-52720D02*
X131092Y-52064D01*
X132404D01*
X133060Y-52720D01*
Y-53376D01*
X132404Y-54032D01*
X131748D01*
X132404D01*
X133060Y-54688D01*
Y-55344D01*
X132404Y-56000D01*
X131092D01*
X130436Y-55344D01*
X111000Y-51564D02*
Y-55500D01*
X112968D01*
X113624Y-54844D01*
Y-52220D01*
X112968Y-51564D01*
X111000D01*
X116904Y-55500D02*
Y-51564D01*
X114936Y-53532D01*
X117560D01*
X217000Y-102564D02*
Y-106500D01*
X218968D01*
X219624Y-105844D01*
Y-103220D01*
X218968Y-102564D01*
X217000D01*
X220936Y-103220D02*
X221592Y-102564D01*
X222904D01*
X223560Y-103220D01*
Y-103876D01*
X222904Y-104532D01*
X223560Y-105188D01*
Y-105844D01*
X222904Y-106500D01*
X221592D01*
X220936Y-105844D01*
Y-105188D01*
X221592Y-104532D01*
X220936Y-103876D01*
Y-103220D01*
X221592Y-104532D02*
X222904D01*
X216000Y-187064D02*
Y-191000D01*
X217968D01*
X218624Y-190344D01*
Y-187720D01*
X217968Y-187064D01*
X216000D01*
X219936Y-190344D02*
X220592Y-191000D01*
X221904D01*
X222560Y-190344D01*
Y-187720D01*
X221904Y-187064D01*
X220592D01*
X219936Y-187720D01*
Y-188376D01*
X220592Y-189032D01*
X222560D01*
X203500Y-187064D02*
Y-191000D01*
X205468D01*
X206124Y-190344D01*
Y-187720D01*
X205468Y-187064D01*
X203500D01*
X207436Y-191000D02*
X208748D01*
X208092D01*
Y-187064D01*
X207436Y-187720D01*
X210716D02*
X211371Y-187064D01*
X212683D01*
X213339Y-187720D01*
Y-190344D01*
X212683Y-191000D01*
X211371D01*
X210716Y-190344D01*
Y-187720D01*
X235624Y-201720D02*
X234968Y-201064D01*
X233656D01*
X233000Y-201720D01*
Y-204344D01*
X233656Y-205000D01*
X234968D01*
X235624Y-204344D01*
Y-203032D01*
X234312D01*
X236936Y-205000D02*
X238248D01*
X237592D01*
Y-201064D01*
X236936Y-201720D01*
X233624Y-143220D02*
X232968Y-142564D01*
X231656D01*
X231000Y-143220D01*
Y-145844D01*
X231656Y-146500D01*
X232968D01*
X233624Y-145844D01*
Y-144532D01*
X232312D01*
X237560Y-146500D02*
X234936D01*
X237560Y-143876D01*
Y-143220D01*
X236904Y-142564D01*
X235592D01*
X234936Y-143220D01*
X276624Y-130564D02*
X275312D01*
X275968D01*
Y-133844D01*
X275312Y-134500D01*
X274656D01*
X274000Y-133844D01*
X280560Y-134500D02*
X277936D01*
X280560Y-131876D01*
Y-131220D01*
X279904Y-130564D01*
X278592D01*
X277936Y-131220D01*
X308624Y-16564D02*
X307312D01*
X307968D01*
Y-19844D01*
X307312Y-20500D01*
X306656D01*
X306000Y-19844D01*
X312560Y-16564D02*
X311248Y-17220D01*
X309936Y-18532D01*
Y-19844D01*
X310592Y-20500D01*
X311904D01*
X312560Y-19844D01*
Y-19188D01*
X311904Y-18532D01*
X309936D01*
X198624Y-33564D02*
X197312D01*
X197968D01*
Y-36844D01*
X197312Y-37500D01*
X196656D01*
X196000Y-36844D01*
X199936Y-33564D02*
X202560D01*
Y-34220D01*
X199936Y-36844D01*
Y-37500D01*
X308124Y-42064D02*
X306812D01*
X307468D01*
Y-45344D01*
X306812Y-46000D01*
X306156D01*
X305500Y-45344D01*
X309436Y-42720D02*
X310092Y-42064D01*
X311404D01*
X312060Y-42720D01*
Y-43376D01*
X311404Y-44032D01*
X312060Y-44688D01*
Y-45344D01*
X311404Y-46000D01*
X310092D01*
X309436Y-45344D01*
Y-44688D01*
X310092Y-44032D01*
X309436Y-43376D01*
Y-42720D01*
X310092Y-44032D02*
X311404D01*
X163624Y-31064D02*
X162312D01*
X162968D01*
Y-34344D01*
X162312Y-35000D01*
X161656D01*
X161000Y-34344D01*
X164936D02*
X165592Y-35000D01*
X166904D01*
X167560Y-34344D01*
Y-31720D01*
X166904Y-31064D01*
X165592D01*
X164936Y-31720D01*
Y-32376D01*
X165592Y-33032D01*
X167560D01*
X28564Y-226876D02*
Y-228188D01*
Y-227532D01*
X31844D01*
X32500Y-228188D01*
Y-228844D01*
X31844Y-229500D01*
X32500Y-225564D02*
Y-224252D01*
Y-224908D01*
X28564D01*
X29220Y-225564D01*
X32500Y-222285D02*
Y-220973D01*
Y-221628D01*
X28564D01*
X29220Y-222285D01*
X78064Y-226376D02*
Y-227688D01*
Y-227032D01*
X81344D01*
X82000Y-227688D01*
Y-228344D01*
X81344Y-229000D01*
X82000Y-225064D02*
Y-223752D01*
Y-224408D01*
X78064D01*
X78720Y-225064D01*
X82000Y-219161D02*
Y-221784D01*
X79376Y-219161D01*
X78720D01*
X78064Y-219817D01*
Y-221129D01*
X78720Y-221784D01*
X274564Y-201376D02*
Y-202688D01*
Y-202032D01*
X277844D01*
X278500Y-202688D01*
Y-203344D01*
X277844Y-204000D01*
X278500Y-200064D02*
Y-198752D01*
Y-199408D01*
X274564D01*
X275220Y-200064D01*
Y-196784D02*
X274564Y-196128D01*
Y-194817D01*
X275220Y-194161D01*
X275876D01*
X276532Y-194817D01*
Y-195473D01*
Y-194817D01*
X277188Y-194161D01*
X277844D01*
X278500Y-194817D01*
Y-196128D01*
X277844Y-196784D01*
X236500Y-136564D02*
Y-140500D01*
X239124D01*
X243060D02*
X240436D01*
X243060Y-137876D01*
Y-137220D01*
X242404Y-136564D01*
X241092D01*
X240436Y-137220D01*
X254500Y-120064D02*
Y-124000D01*
X257124D01*
X258436Y-120720D02*
X259092Y-120064D01*
X260404D01*
X261060Y-120720D01*
Y-121376D01*
X260404Y-122032D01*
X259748D01*
X260404D01*
X261060Y-122688D01*
Y-123344D01*
X260404Y-124000D01*
X259092D01*
X258436Y-123344D01*
X104500Y-287500D02*
Y-283564D01*
X105812Y-284876D01*
X107124Y-283564D01*
Y-287500D01*
X108436D02*
X109748D01*
X109092D01*
Y-283564D01*
X108436Y-284220D01*
X121500Y-201000D02*
Y-197064D01*
X123468D01*
X124124Y-197720D01*
Y-199032D01*
X123468Y-199688D01*
X121500D01*
X122812D02*
X124124Y-201000D01*
X125436Y-197064D02*
X128060D01*
Y-197720D01*
X125436Y-200344D01*
Y-201000D01*
X121500Y-195000D02*
Y-191064D01*
X123468D01*
X124124Y-191720D01*
Y-193032D01*
X123468Y-193688D01*
X121500D01*
X122812D02*
X124124Y-195000D01*
X125436Y-191720D02*
X126092Y-191064D01*
X127404D01*
X128060Y-191720D01*
Y-192376D01*
X127404Y-193032D01*
X128060Y-193688D01*
Y-194344D01*
X127404Y-195000D01*
X126092D01*
X125436Y-194344D01*
Y-193688D01*
X126092Y-193032D01*
X125436Y-192376D01*
Y-191720D01*
X126092Y-193032D02*
X127404D01*
X235500Y-111000D02*
X231564D01*
Y-109032D01*
X232220Y-108376D01*
X233532D01*
X234188Y-109032D01*
Y-111000D01*
Y-109688D02*
X235500Y-108376D01*
X234844Y-107064D02*
X235500Y-106408D01*
Y-105096D01*
X234844Y-104440D01*
X232220D01*
X231564Y-105096D01*
Y-106408D01*
X232220Y-107064D01*
X232876D01*
X233532Y-106408D01*
Y-104440D01*
X119500Y-207000D02*
Y-203064D01*
X121468D01*
X122124Y-203720D01*
Y-205032D01*
X121468Y-205688D01*
X119500D01*
X120812D02*
X122124Y-207000D01*
X123436D02*
X124748D01*
X124092D01*
Y-203064D01*
X123436Y-203720D01*
X126716Y-203064D02*
X129339D01*
Y-203720D01*
X126716Y-206344D01*
Y-207000D01*
X92000Y-40000D02*
Y-36064D01*
X93968D01*
X94624Y-36720D01*
Y-38032D01*
X93968Y-38688D01*
X92000D01*
X93312D02*
X94624Y-40000D01*
X95936D02*
X97248D01*
X96592D01*
Y-36064D01*
X95936Y-36720D01*
X99216D02*
X99871Y-36064D01*
X101183D01*
X101839Y-36720D01*
Y-37376D01*
X101183Y-38032D01*
X101839Y-38688D01*
Y-39344D01*
X101183Y-40000D01*
X99871D01*
X99216Y-39344D01*
Y-38688D01*
X99871Y-38032D01*
X99216Y-37376D01*
Y-36720D01*
X99871Y-38032D02*
X101183D01*
X92000Y-83000D02*
Y-79064D01*
X93968D01*
X94624Y-79720D01*
Y-81032D01*
X93968Y-81688D01*
X92000D01*
X93312D02*
X94624Y-83000D01*
X95936D02*
X97248D01*
X96592D01*
Y-79064D01*
X95936Y-79720D01*
X99216Y-82344D02*
X99871Y-83000D01*
X101183D01*
X101839Y-82344D01*
Y-79720D01*
X101183Y-79064D01*
X99871D01*
X99216Y-79720D01*
Y-80376D01*
X99871Y-81032D01*
X101839D01*
X92500Y-126000D02*
Y-122064D01*
X94468D01*
X95124Y-122720D01*
Y-124032D01*
X94468Y-124688D01*
X92500D01*
X93812D02*
X95124Y-126000D01*
X99060D02*
X96436D01*
X99060Y-123376D01*
Y-122720D01*
X98404Y-122064D01*
X97092D01*
X96436Y-122720D01*
X100372D02*
X101027Y-122064D01*
X102339D01*
X102995Y-122720D01*
Y-125344D01*
X102339Y-126000D01*
X101027D01*
X100372Y-125344D01*
Y-122720D01*
X92500Y-169000D02*
Y-165064D01*
X94468D01*
X95124Y-165720D01*
Y-167032D01*
X94468Y-167688D01*
X92500D01*
X93812D02*
X95124Y-169000D01*
X99060D02*
X96436D01*
X99060Y-166376D01*
Y-165720D01*
X98404Y-165064D01*
X97092D01*
X96436Y-165720D01*
X100372Y-169000D02*
X101683D01*
X101027D01*
Y-165064D01*
X100372Y-165720D01*
X280500Y-21500D02*
Y-17564D01*
X282468D01*
X283124Y-18220D01*
Y-19532D01*
X282468Y-20188D01*
X280500D01*
X281812D02*
X283124Y-21500D01*
X284436Y-18220D02*
X285092Y-17564D01*
X286404D01*
X287060Y-18220D01*
Y-18876D01*
X286404Y-19532D01*
X285748D01*
X286404D01*
X287060Y-20188D01*
Y-20844D01*
X286404Y-21500D01*
X285092D01*
X284436Y-20844D01*
X290995Y-17564D02*
X289683Y-18220D01*
X288371Y-19532D01*
Y-20844D01*
X289027Y-21500D01*
X290339D01*
X290995Y-20844D01*
Y-20188D01*
X290339Y-19532D01*
X288371D01*
X276000Y-38500D02*
X272064D01*
Y-36532D01*
X272720Y-35876D01*
X274032D01*
X274688Y-36532D01*
Y-38500D01*
Y-37188D02*
X276000Y-35876D01*
Y-32596D02*
X272064D01*
X274032Y-34564D01*
Y-31940D01*
X276000Y-30628D02*
Y-29317D01*
Y-29973D01*
X272064D01*
X272720Y-30628D01*
X48500Y-274000D02*
X44564D01*
Y-272032D01*
X45220Y-271376D01*
X46532D01*
X47188Y-272032D01*
Y-274000D01*
Y-272688D02*
X48500Y-271376D01*
Y-268096D02*
X44564D01*
X46532Y-270064D01*
Y-267440D01*
X48500Y-263505D02*
Y-266128D01*
X45876Y-263505D01*
X45220D01*
X44564Y-264161D01*
Y-265473D01*
X45220Y-266128D01*
X25500Y-326500D02*
X21564D01*
Y-324532D01*
X22220Y-323876D01*
X23532D01*
X24188Y-324532D01*
Y-326500D01*
Y-325188D02*
X25500Y-323876D01*
Y-320596D02*
X21564D01*
X23532Y-322564D01*
Y-319940D01*
X22220Y-318629D02*
X21564Y-317973D01*
Y-316661D01*
X22220Y-316005D01*
X22876D01*
X23532Y-316661D01*
Y-317317D01*
Y-316661D01*
X24188Y-316005D01*
X24844D01*
X25500Y-316661D01*
Y-317973D01*
X24844Y-318629D01*
X42000Y-274000D02*
X38064D01*
Y-272032D01*
X38720Y-271376D01*
X40032D01*
X40688Y-272032D01*
Y-274000D01*
Y-272688D02*
X42000Y-271376D01*
Y-268096D02*
X38064D01*
X40032Y-270064D01*
Y-267440D01*
X42000Y-264161D02*
X38064D01*
X40032Y-266128D01*
Y-263505D01*
X224000Y-138500D02*
Y-134564D01*
X225968D01*
X226624Y-135220D01*
Y-136532D01*
X225968Y-137188D01*
X224000D01*
X225312D02*
X226624Y-138500D01*
X230560Y-134564D02*
X227936D01*
Y-136532D01*
X229248Y-135876D01*
X229904D01*
X230560Y-136532D01*
Y-137844D01*
X229904Y-138500D01*
X228592D01*
X227936Y-137844D01*
X231872Y-135220D02*
X232527Y-134564D01*
X233839D01*
X234495Y-135220D01*
Y-135876D01*
X233839Y-136532D01*
X233183D01*
X233839D01*
X234495Y-137188D01*
Y-137844D01*
X233839Y-138500D01*
X232527D01*
X231872Y-137844D01*
X225500Y-117500D02*
Y-113564D01*
X227468D01*
X228124Y-114220D01*
Y-115532D01*
X227468Y-116188D01*
X225500D01*
X226812D02*
X228124Y-117500D01*
X232060Y-113564D02*
X229436D01*
Y-115532D01*
X230748Y-114876D01*
X231404D01*
X232060Y-115532D01*
Y-116844D01*
X231404Y-117500D01*
X230092D01*
X229436Y-116844D01*
X235339Y-117500D02*
Y-113564D01*
X233371Y-115532D01*
X235995D01*
X189624Y-44720D02*
X188968Y-44064D01*
X187656D01*
X187000Y-44720D01*
Y-45376D01*
X187656Y-46032D01*
X188968D01*
X189624Y-46688D01*
Y-47344D01*
X188968Y-48000D01*
X187656D01*
X187000Y-47344D01*
X193560Y-48000D02*
X190936D01*
X193560Y-45376D01*
Y-44720D01*
X192904Y-44064D01*
X191592D01*
X190936Y-44720D01*
X43624Y-253720D02*
X42968Y-253064D01*
X41656D01*
X41000Y-253720D01*
Y-254376D01*
X41656Y-255032D01*
X42968D01*
X43624Y-255688D01*
Y-256344D01*
X42968Y-257000D01*
X41656D01*
X41000Y-256344D01*
X46904Y-257000D02*
Y-253064D01*
X44936Y-255032D01*
X47560D01*
X84124Y-253720D02*
X83468Y-253064D01*
X82156D01*
X81500Y-253720D01*
Y-254376D01*
X82156Y-255032D01*
X83468D01*
X84124Y-255688D01*
Y-256344D01*
X83468Y-257000D01*
X82156D01*
X81500Y-256344D01*
X88060Y-253064D02*
X85436D01*
Y-255032D01*
X86748Y-254376D01*
X87404D01*
X88060Y-255032D01*
Y-256344D01*
X87404Y-257000D01*
X86092D01*
X85436Y-256344D01*
X121624Y-253720D02*
X120968Y-253064D01*
X119656D01*
X119000Y-253720D01*
Y-254376D01*
X119656Y-255032D01*
X120968D01*
X121624Y-255688D01*
Y-256344D01*
X120968Y-257000D01*
X119656D01*
X119000Y-256344D01*
X125560Y-253064D02*
X124248Y-253720D01*
X122936Y-255032D01*
Y-256344D01*
X123592Y-257000D01*
X124904D01*
X125560Y-256344D01*
Y-255688D01*
X124904Y-255032D01*
X122936D01*
X26500Y-57564D02*
X29124D01*
X27812D01*
Y-61500D01*
X30436D02*
X31748D01*
X31092D01*
Y-57564D01*
X30436Y-58220D01*
X26500Y-103064D02*
X29124D01*
X27812D01*
Y-107000D01*
X33060D02*
X30436D01*
X33060Y-104376D01*
Y-103720D01*
X32404Y-103064D01*
X31092D01*
X30436Y-103720D01*
X26000Y-143564D02*
X28624D01*
X27312D01*
Y-147500D01*
X29936Y-144220D02*
X30592Y-143564D01*
X31904D01*
X32560Y-144220D01*
Y-144876D01*
X31904Y-145532D01*
X31248D01*
X31904D01*
X32560Y-146188D01*
Y-146844D01*
X31904Y-147500D01*
X30592D01*
X29936Y-146844D01*
X26000Y-187064D02*
X28624D01*
X27312D01*
Y-191000D01*
X31904D02*
Y-187064D01*
X29936Y-189032D01*
X32560D01*
X243500Y-98564D02*
X246124D01*
X244812D01*
Y-102500D01*
X250060Y-98564D02*
X247436D01*
Y-100532D01*
X248748Y-99876D01*
X249404D01*
X250060Y-100532D01*
Y-101844D01*
X249404Y-102500D01*
X248092D01*
X247436Y-101844D01*
X199500Y-171564D02*
X202124D01*
X200812D01*
Y-175500D01*
X206060Y-171564D02*
X204748Y-172220D01*
X203436Y-173532D01*
Y-174844D01*
X204092Y-175500D01*
X205404D01*
X206060Y-174844D01*
Y-174188D01*
X205404Y-173532D01*
X203436D01*
X202000Y-161564D02*
X204624D01*
X203312D01*
Y-165500D01*
X205936Y-161564D02*
X208560D01*
Y-162220D01*
X205936Y-164844D01*
Y-165500D01*
X175500Y-67564D02*
Y-70844D01*
X176156Y-71500D01*
X177468D01*
X178124Y-70844D01*
Y-67564D01*
X179436Y-71500D02*
X180748D01*
X180092D01*
Y-67564D01*
X179436Y-68220D01*
X176500Y-129564D02*
Y-132844D01*
X177156Y-133500D01*
X178468D01*
X179124Y-132844D01*
Y-129564D01*
X183060Y-133500D02*
X180436D01*
X183060Y-130876D01*
Y-130220D01*
X182404Y-129564D01*
X181092D01*
X180436Y-130220D01*
X177500Y-77064D02*
Y-80344D01*
X178156Y-81000D01*
X179468D01*
X180124Y-80344D01*
Y-77064D01*
X181436Y-77720D02*
X182092Y-77064D01*
X183404D01*
X184060Y-77720D01*
Y-78376D01*
X183404Y-79032D01*
X182748D01*
X183404D01*
X184060Y-79688D01*
Y-80344D01*
X183404Y-81000D01*
X182092D01*
X181436Y-80344D01*
X239064Y-94000D02*
X242344D01*
X243000Y-93344D01*
Y-92032D01*
X242344Y-91376D01*
X239064D01*
X243000Y-88096D02*
X239064D01*
X241032Y-90064D01*
Y-87440D01*
X211000Y-128064D02*
Y-131344D01*
X211656Y-132000D01*
X212968D01*
X213624Y-131344D01*
Y-128064D01*
X217560D02*
X214936D01*
Y-130032D01*
X216248Y-129376D01*
X216904D01*
X217560Y-130032D01*
Y-131344D01*
X216904Y-132000D01*
X215592D01*
X214936Y-131344D01*
X167000Y-170564D02*
Y-173844D01*
X167656Y-174500D01*
X168968D01*
X169624Y-173844D01*
Y-170564D01*
X173560D02*
X172248Y-171220D01*
X170936Y-172532D01*
Y-173844D01*
X171592Y-174500D01*
X172904D01*
X173560Y-173844D01*
Y-173188D01*
X172904Y-172532D01*
X170936D01*
X133000Y-123064D02*
Y-126344D01*
X133656Y-127000D01*
X134968D01*
X135624Y-126344D01*
Y-123064D01*
X136936Y-123720D02*
X137592Y-123064D01*
X138904D01*
X139560Y-123720D01*
Y-124376D01*
X138904Y-125032D01*
X139560Y-125688D01*
Y-126344D01*
X138904Y-127000D01*
X137592D01*
X136936Y-126344D01*
Y-125688D01*
X137592Y-125032D01*
X136936Y-124376D01*
Y-123720D01*
X137592Y-125032D02*
X138904D01*
X131000Y-166564D02*
Y-169844D01*
X131656Y-170500D01*
X132968D01*
X133624Y-169844D01*
Y-166564D01*
X134936Y-170500D02*
X136248D01*
X135592D01*
Y-166564D01*
X134936Y-167220D01*
X138215D02*
X138872Y-166564D01*
X140183D01*
X140839Y-167220D01*
Y-169844D01*
X140183Y-170500D01*
X138872D01*
X138215Y-169844D01*
Y-167220D01*
X263564Y-83500D02*
X266844D01*
X267500Y-82844D01*
Y-81532D01*
X266844Y-80876D01*
X263564D01*
X267500Y-79564D02*
Y-78252D01*
Y-78908D01*
X263564D01*
X264220Y-79564D01*
X267500Y-76284D02*
Y-74973D01*
Y-75629D01*
X263564D01*
X264220Y-76284D01*
X295564Y-83500D02*
X298844D01*
X299500Y-82844D01*
Y-81532D01*
X298844Y-80876D01*
X295564D01*
X299500Y-79564D02*
Y-78252D01*
Y-78908D01*
X295564D01*
X296220Y-79564D01*
X299500Y-73661D02*
Y-76284D01*
X296876Y-73661D01*
X296220D01*
X295564Y-74317D01*
Y-75629D01*
X296220Y-76284D01*
X164000Y-191064D02*
Y-193688D01*
X165312Y-195000D01*
X166624Y-193688D01*
Y-191064D01*
X167936Y-195000D02*
X169248D01*
X168592D01*
Y-191064D01*
X167936Y-191720D01*
X164500Y-231064D02*
Y-233688D01*
X165812Y-235000D01*
X167124Y-233688D01*
Y-231064D01*
X171060Y-235000D02*
X168436D01*
X171060Y-232376D01*
Y-231720D01*
X170404Y-231064D01*
X169092D01*
X168436Y-231720D01*
X37624Y-2564D02*
X35000D01*
Y-4532D01*
X36312D01*
X35000D01*
Y-6500D01*
X38936D02*
X40248D01*
X39592D01*
Y-2564D01*
X38936Y-3220D01*
X2833Y-21264D02*
X1521D01*
X2177D01*
Y-24544D01*
X1521Y-25200D01*
X865D01*
X209Y-24544D01*
X6769Y-21264D02*
X4145D01*
Y-23232D01*
X5457Y-22576D01*
X6113D01*
X6769Y-23232D01*
Y-24544D01*
X6113Y-25200D01*
X4801D01*
X4145Y-24544D01*
X126624Y-151064D02*
X125312D01*
X125968D01*
Y-154344D01*
X125312Y-155000D01*
X124656D01*
X124000Y-154344D01*
X127936Y-155000D02*
X129248D01*
X128592D01*
Y-151064D01*
X127936Y-151720D01*
X219133Y-367264D02*
X217821D01*
X218477D01*
Y-370544D01*
X217821Y-371200D01*
X217165D01*
X216510Y-370544D01*
X220445Y-371200D02*
X221757D01*
X221101D01*
Y-367264D01*
X220445Y-367920D01*
X226349Y-367264D02*
X223725D01*
Y-369232D01*
X225037Y-368576D01*
X225693D01*
X226349Y-369232D01*
Y-370544D01*
X225693Y-371200D01*
X224381D01*
X223725Y-370544D01*
X195124Y-290064D02*
X193812D01*
X194468D01*
Y-293344D01*
X193812Y-294000D01*
X193156D01*
X192500Y-293344D01*
X196436Y-294000D02*
X197748D01*
X197092D01*
Y-290064D01*
X196436Y-290720D01*
X201683Y-294000D02*
Y-290064D01*
X199715Y-292032D01*
X202339D01*
X211998Y-293000D02*
X212998Y-294000D01*
Y-295999D01*
X211998Y-296999D01*
X210999D01*
X209999Y-295999D01*
Y-294999D01*
Y-295999D01*
X208999Y-296999D01*
X208000D01*
X207000Y-295999D01*
Y-294000D01*
X208000Y-293000D01*
X207000Y-298998D02*
X208000D01*
Y-299998D01*
X207000D01*
Y-298998D01*
X211998Y-303996D02*
X212998Y-304996D01*
Y-306996D01*
X211998Y-307995D01*
X210999D01*
X209999Y-306996D01*
Y-305996D01*
Y-306996D01*
X208999Y-307995D01*
X208000D01*
X207000Y-306996D01*
Y-304996D01*
X208000Y-303996D01*
X212998Y-309995D02*
X208999D01*
X207000Y-311994D01*
X208999Y-313993D01*
X212998D01*
X221998Y-255999D02*
X222998Y-254999D01*
Y-253000D01*
X221998Y-252000D01*
X218000D01*
X217000Y-253000D01*
Y-254999D01*
X218000Y-255999D01*
X222998Y-257998D02*
X217000D01*
Y-261997D01*
X222998Y-263996D02*
X217000D01*
X218999D01*
X222998Y-267995D01*
X219999Y-264996D01*
X217000Y-267995D01*
X211998Y-255999D02*
X212998Y-254999D01*
Y-253000D01*
X211998Y-252000D01*
X208000D01*
X207000Y-253000D01*
Y-254999D01*
X208000Y-255999D01*
X209999D01*
Y-253999D01*
X207000Y-257998D02*
X212998D01*
X207000Y-261997D01*
X212998D01*
Y-263996D02*
X207000D01*
Y-266995D01*
X208000Y-267995D01*
X211998D01*
X212998Y-266995D01*
Y-263996D01*
X242998Y-293000D02*
Y-296999D01*
Y-294999D01*
X237000D01*
X242998Y-298998D02*
X237000Y-302997D01*
X242998D02*
X237000Y-298998D01*
X231998Y-252000D02*
X226000D01*
Y-254999D01*
X227000Y-255999D01*
X230998D01*
X231998Y-254999D01*
Y-252000D01*
Y-257998D02*
Y-259997D01*
Y-258998D01*
X226000D01*
Y-257998D01*
Y-259997D01*
X231998Y-265996D02*
Y-263996D01*
X230998Y-262996D01*
X227000D01*
X226000Y-263996D01*
Y-265996D01*
X227000Y-266995D01*
X230998D01*
X231998Y-265996D01*
X236000Y-252000D02*
X241998D01*
Y-254999D01*
X240998Y-255999D01*
X238999D01*
X237999Y-254999D01*
Y-252000D01*
Y-253999D02*
X236000Y-255999D01*
X240998Y-261997D02*
X241998Y-260997D01*
Y-258998D01*
X240998Y-257998D01*
X239999D01*
X238999Y-258998D01*
Y-260997D01*
X237999Y-261997D01*
X237000D01*
X236000Y-260997D01*
Y-258998D01*
X237000Y-257998D01*
X241998Y-263996D02*
Y-267995D01*
Y-265996D01*
X236000D01*
X227000Y-293000D02*
X232998D01*
Y-295999D01*
X231998Y-296999D01*
X229999D01*
X228999Y-295999D01*
Y-293000D01*
Y-294999D02*
X227000Y-296999D01*
X232998Y-298998D02*
X227000Y-302997D01*
X232998D02*
X227000Y-298998D01*
X226500Y-180502D02*
Y-186500D01*
X229499D01*
X230499Y-185500D01*
Y-181502D01*
X229499Y-180502D01*
X226500D01*
X232498Y-186500D02*
Y-180502D01*
X234497Y-182501D01*
X236497Y-180502D01*
Y-186500D01*
X238496Y-180502D02*
X242495Y-186500D01*
Y-180502D02*
X238496Y-186500D01*
X250492Y-180502D02*
Y-186500D01*
X253491D01*
X254491Y-185500D01*
Y-184501D01*
X253491Y-183501D01*
X250492D01*
X253491D01*
X254491Y-182501D01*
Y-181502D01*
X253491Y-180502D01*
X250492D01*
X257490Y-186500D02*
X259489D01*
X260489Y-185500D01*
Y-183501D01*
X259489Y-182501D01*
X257490D01*
X256490Y-183501D01*
Y-185500D01*
X257490Y-186500D01*
X263488Y-182501D02*
X265487D01*
X266487Y-183501D01*
Y-186500D01*
X263488D01*
X262488Y-185500D01*
X263488Y-184501D01*
X266487D01*
X268486Y-182501D02*
Y-186500D01*
Y-184501D01*
X269486Y-183501D01*
X270486Y-182501D01*
X271485D01*
X278483Y-180502D02*
Y-186500D01*
X275484D01*
X274484Y-185500D01*
Y-183501D01*
X275484Y-182501D01*
X278483D01*
X227000Y-189064D02*
Y-191688D01*
X228312Y-193000D01*
X229624Y-191688D01*
Y-189064D01*
X230936Y-193000D02*
X232248D01*
X231592D01*
Y-189064D01*
X230936Y-189720D01*
X234215Y-193000D02*
Y-192344D01*
X234872D01*
Y-193000D01*
X234215D01*
X237495Y-189720D02*
X238151Y-189064D01*
X239463D01*
X240119Y-189720D01*
Y-192344D01*
X239463Y-193000D01*
X238151D01*
X237495Y-192344D01*
Y-189720D01*
X245367D02*
X246023Y-189064D01*
X247335D01*
X247991Y-189720D01*
Y-192344D01*
X247335Y-193000D01*
X246023D01*
X245367Y-192344D01*
Y-189720D01*
X249303D02*
X249958Y-189064D01*
X251270D01*
X251926Y-189720D01*
Y-190376D01*
X251270Y-191032D01*
X250614D01*
X251270D01*
X251926Y-191688D01*
Y-192344D01*
X251270Y-193000D01*
X249958D01*
X249303Y-192344D01*
X253238Y-191032D02*
X255862D01*
X259798Y-193000D02*
X257174D01*
X259798Y-190376D01*
Y-189720D01*
X259142Y-189064D01*
X257830D01*
X257174Y-189720D01*
X261110D02*
X261766Y-189064D01*
X263078D01*
X263734Y-189720D01*
Y-192344D01*
X263078Y-193000D01*
X261766D01*
X261110Y-192344D01*
Y-189720D01*
D91*
X305330Y-227722D02*
G03*
X305330Y-211081I-5547J8320D01*
G01*
Y-187722D02*
G03*
X305330Y-171081I-5547J8320D01*
G01*
Y-168037D02*
G03*
X305330Y-151396I-5547J8320D01*
G01*
Y-208037D02*
G03*
X305330Y-191396I-5547J8320D01*
G01*
X181008Y-183925D02*
G03*
X181008Y-183925I-394J0D01*
G01*
D92*
X217665Y-100205D02*
G03*
X217665Y-100205I-394J0D01*
G01*
X223524Y-41831D02*
X238681D01*
X223917Y-70374D02*
X239075D01*
D93*
X185957Y-65890D02*
G03*
X185957Y-65890I-492J0D01*
G01*
X196339Y-145748D02*
G03*
X196339Y-145748I-492J0D01*
G01*
X171260Y-5512D02*
X183071D01*
X167323Y-1575D02*
X171260Y-5512D01*
X183071D02*
X187008Y-1575D01*
X163386Y-5512D02*
X167323Y-1575D01*
X147638D02*
X151575Y-5512D01*
X163386D01*
X42815Y-38091D02*
Y-29331D01*
Y-38091D02*
X139272D01*
X139173Y-9252D02*
X139272D01*
Y-984D01*
X42618D02*
X138779D01*
X42618Y-9252D02*
Y-1181D01*
X139272Y-38091D02*
Y-30118D01*
D94*
X148114Y-172835D02*
X149886D01*
X148114Y-177165D02*
X149886D01*
X148114Y-183165D02*
X149886D01*
X148114Y-178835D02*
X149886D01*
X148114Y-90835D02*
X149886D01*
X148114Y-95165D02*
X149886D01*
X148114Y-101165D02*
X149886D01*
X148114Y-96835D02*
X149886D01*
X148114Y-171165D02*
X149886D01*
X148114Y-166835D02*
X149886D01*
X148114Y-89165D02*
X149886D01*
X148114Y-84835D02*
X149886D01*
X111114Y-175165D02*
X112886D01*
X111114Y-170835D02*
X112886D01*
X111114Y-89165D02*
X112886D01*
X111114Y-84835D02*
X112886D01*
X183835Y-165886D02*
Y-164114D01*
X188165Y-165886D02*
Y-164114D01*
X183835Y-179886D02*
Y-178114D01*
X188165Y-179886D02*
Y-178114D01*
X146764Y-137165D02*
X148535D01*
X146764Y-132835D02*
X148535D01*
X146614Y-143165D02*
X148386D01*
X146614Y-138835D02*
X148386D01*
X148114Y-72835D02*
X149886D01*
X148114Y-77165D02*
X149886D01*
X148114Y-83165D02*
X149886D01*
X148114Y-78835D02*
X149886D01*
X146614Y-131165D02*
X148386D01*
X146614Y-126835D02*
X148386D01*
X148114Y-71165D02*
X149886D01*
X148114Y-66835D02*
X149886D01*
X111114Y-132165D02*
X112886D01*
X111114Y-127835D02*
X112886D01*
X111614Y-72165D02*
X113386D01*
X111614Y-67835D02*
X113386D01*
X111114Y-121835D02*
X112886D01*
X111114Y-126165D02*
X112886D01*
X111165Y-78886D02*
Y-77114D01*
X106835Y-78886D02*
Y-77114D01*
X146614Y-125165D02*
X148386D01*
X146614Y-120835D02*
X148386D01*
X214114Y-118165D02*
X215886D01*
X214114Y-113835D02*
X215886D01*
X214114Y-146165D02*
X215886D01*
X214114Y-141835D02*
X215886D01*
X204165Y-95886D02*
Y-94114D01*
X199835Y-95886D02*
Y-94114D01*
X214165Y-78886D02*
Y-77114D01*
X209835Y-78886D02*
Y-77114D01*
X123114Y-89165D02*
X124886D01*
X123114Y-84835D02*
X124886D01*
X123114Y-72165D02*
X124886D01*
X123114Y-67835D02*
X124886D01*
X123114Y-132165D02*
X124886D01*
X123114Y-127835D02*
X124886D01*
X123114Y-175165D02*
X124886D01*
X123114Y-170835D02*
X124886D01*
X123114Y-126165D02*
X124886D01*
X123114Y-121835D02*
X124886D01*
X282165Y-34886D02*
Y-33114D01*
X277835Y-34886D02*
Y-33114D01*
X282165Y-11035D02*
Y-9264D01*
X277835Y-11035D02*
Y-9264D01*
X111114Y-164835D02*
X112886D01*
X111114Y-169165D02*
X112886D01*
X148114Y-165165D02*
X149886D01*
X148114Y-160835D02*
X149886D01*
X111114Y-202335D02*
X112886D01*
X111114Y-206665D02*
X112886D01*
X111114Y-201165D02*
X112886D01*
X111114Y-196835D02*
X112886D01*
X111114Y-195165D02*
X112886D01*
X111114Y-190835D02*
X112886D01*
X25835Y-282886D02*
Y-281114D01*
X30165Y-282886D02*
Y-281114D01*
X43835Y-282886D02*
Y-281114D01*
X48165Y-282886D02*
Y-281114D01*
X37835Y-282886D02*
Y-281114D01*
X42165Y-282886D02*
Y-281114D01*
X31835Y-282886D02*
Y-281114D01*
X36165Y-282886D02*
Y-281114D01*
X38165Y-322886D02*
Y-321114D01*
X33835Y-322886D02*
Y-321114D01*
X32165Y-322886D02*
Y-321114D01*
X27835Y-322886D02*
Y-321114D01*
X229114Y-123165D02*
X230886D01*
X229114Y-118835D02*
X230886D01*
X229114Y-133165D02*
X230886D01*
X229114Y-128835D02*
X230886D01*
X236835Y-111035D02*
Y-109264D01*
X241165Y-111035D02*
Y-109264D01*
X245165Y-79886D02*
Y-78114D01*
X240835Y-79886D02*
Y-78114D01*
X160165Y-75886D02*
Y-74114D01*
X155835Y-75886D02*
Y-74114D01*
X160165Y-90886D02*
Y-89114D01*
X155835Y-90886D02*
Y-89114D01*
D95*
X134252Y-235748D02*
X161811D01*
X134252D02*
Y-188504D01*
X161811D01*
Y-235748D02*
Y-188504D01*
X174606Y-235748D02*
X202165D01*
X174606D02*
Y-188504D01*
X202165D01*
Y-235748D02*
Y-188504D01*
D96*
X108425Y-41614D02*
X119954D01*
X124173Y-41614D02*
X135702D01*
X139921D02*
X151450D01*
X215063Y-177189D02*
X222937D01*
X204063D02*
X211937D01*
X253419Y-126035D02*
Y-117847D01*
D97*
X253252Y-135858D02*
Y-127669D01*
M02*
