G04 Layer_Color=16711935*
%FSLAX25Y25*%
%MOIN*%
G70*
G01*
G75*
%ADD94C,0.00394*%
D94*
X245000Y-145669D02*
X314961D01*
X245000D02*
Y-137795D01*
X314961D01*
X0Y-393701D02*
Y-244094D01*
Y-3937D02*
Y0D01*
X314961D01*
X0Y-236221D02*
Y-3937D01*
X149606Y-244094D02*
Y-236221D01*
X129921Y-244094D02*
Y-236221D01*
X35433Y-244094D02*
Y-236221D01*
X68898Y-244094D02*
Y-236221D01*
X0D02*
X35433D01*
X68898D02*
X129921D01*
X0Y-244094D02*
X35433D01*
X68898D02*
X129921D01*
X149606D02*
X165354D01*
Y-393701D02*
Y-244094D01*
X0Y-393701D02*
X165354D01*
X204724Y-259842D02*
Y-251969D01*
X173228Y-259842D02*
X204724D01*
Y-251969D02*
Y-236221D01*
X244094Y-259842D02*
Y-236221D01*
Y-259842D02*
X275590D01*
X204724Y-342520D02*
Y-334646D01*
Y-342520D02*
X210630Y-348425D01*
Y-387795D02*
Y-348425D01*
Y-387795D02*
X210630D01*
X238189Y-348425D02*
X244094Y-342520D01*
X173228Y-287402D02*
X200787Y-314961D01*
X173228Y-287402D02*
Y-259842D01*
X275590Y-287402D02*
Y-259842D01*
X244094Y-342520D02*
Y-318898D01*
X275590Y-287402D01*
X200787Y-314961D02*
X204724Y-318898D01*
Y-334646D02*
Y-318898D01*
X210630Y-387795D02*
X214567Y-391732D01*
X234252D01*
X235236Y-390748D02*
X237205Y-388779D01*
X238189Y-387795D02*
Y-348425D01*
X234252Y-391732D02*
X235236Y-390748D01*
X237205Y-388779D02*
X238189Y-387795D01*
X149606Y-236221D02*
X204724D01*
X244094D02*
X314961D01*
Y-145669D01*
Y-137795D02*
Y0D01*
M02*
